<svg width="158" height="143" viewBox="0 0 158 143" fill="none" xmlns="http://www.w3.org/2000/svg">
<path d="M120.588 127.901H20.3725C19.3384 127.901 18.5 128.739 18.5 129.774C18.5 130.809 19.3384 131.646 20.3725 131.646H120.588C121.623 131.646 122.461 130.809 122.461 129.774C122.461 128.739 121.623 127.901 120.588 127.901Z" fill="#333333"/>
<path d="M120.588 112.012H20.3725C19.3384 112.012 18.5 112.849 18.5 113.884C18.5 114.919 19.3384 115.757 20.3725 115.757H120.588C121.623 115.757 122.461 114.919 122.461 113.884C122.461 112.849 121.623 112.012 120.588 112.012Z" fill="#333333"/>
<path d="M20.3725 99.456H52.5825C53.6166 99.456 54.455 98.6185 54.455 97.5835C54.455 96.5485 53.6166 95.7109 52.5825 95.7109H20.3725C19.3384 95.7109 18.5 96.5485 18.5 97.5835C18.5 98.6185 19.3384 99.456 20.3725 99.456Z" fill="#333333"/>
<path d="M20.3725 83.748H41.8483C42.8824 83.748 43.7208 82.9105 43.7208 81.8755C43.7208 80.8405 42.8824 80.0029 41.8483 80.0029H20.3725C19.3384 80.0029 18.5 80.8405 18.5 81.8755C18.5 82.9105 19.3384 83.748 20.3725 83.748Z" fill="#333333"/>
<path d="M20.3725 67.7451H31.9013C32.9354 67.7451 33.7739 66.9076 33.7739 65.8725C33.7739 64.8375 32.9354 64 31.9013 64H20.3725C19.3384 64 18.5 64.8375 18.5 65.8725C18.5 66.9076 19.3384 67.7451 20.3725 67.7451Z" fill="#333333"/>
<mask id="path-6-inside-1" fill="white">
<rect x="0.5" y="19" width="139" height="124" rx="2"/>
</mask>
<rect x="0.5" y="19" width="139" height="124" rx="2" stroke="#333333" stroke-width="7" mask="url(#path-6-inside-1)"/>
<mask id="path-7-inside-2" fill="white">
<rect x="0.5" y="45" width="139" height="98" rx="2"/>
</mask>
<rect x="0.5" y="45" width="139" height="98" rx="2" stroke="#333333" stroke-width="7" mask="url(#path-7-inside-2)"/>
<circle cx="106" cy="51.5" r="51.5" fill="#F5F5F5"/>
<path fill-rule="evenodd" clip-rule="evenodd" d="M99.8889 68.7778C109.769 68.7778 117.778 60.7686 117.778 50.8889C117.778 41.0091 109.769 33 99.8889 33C90.0091 33 82 41.0091 82 50.8889C82 60.7686 90.0091 68.7778 99.8889 68.7778Z" stroke="#FFC4C4" stroke-width="4"/>
<path d="M112.667 63.6665L126.263 77.2629" stroke="#FFC4C4" stroke-width="4" stroke-linecap="round" stroke-linejoin="round"/>
<path d="M105 0.867676C133.442 0.867676 156.5 23.9262 156.5 52.3683C156.5 80.8104 133.442 103.868 105 103.868C76.5582 103.868 53.5 80.8104 53.5 52.3683C53.5 23.9249 76.5569 0.867676 105 0.867676ZM70.1347 70.4823L132.558 24.3743C125.467 17.3922 115.736 13.0858 105 13.0858C83.304 13.0858 65.7179 30.6721 65.7179 52.3683C65.7179 58.9011 67.3139 65.0628 70.1347 70.4823ZM139.814 34.1567L77.3633 80.2853C84.4609 87.3098 94.2239 91.6509 105 91.6509C126.695 91.6509 144.282 74.0633 144.282 52.3683C144.282 45.7958 142.667 39.6007 139.814 34.1567Z" fill="#FFC4C4"/>
</svg>
