<svg width="18" height="19" viewBox="0 0 18 19" fill="none" xmlns="http://www.w3.org/2000/svg">
<path fill-rule="evenodd" clip-rule="evenodd" d="M0 9.50055C0 8.70526 0.64471 8.06055 1.44 8.06055H16.56C17.3553 8.06055 18 8.70526 18 9.50055C18 10.2958 17.3553 10.9405 16.56 10.9405H1.44C0.64471 10.9405 0 10.2958 0 9.50055Z" fill="#333333"/>
<path fill-rule="evenodd" clip-rule="evenodd" d="M9.00001 0.5C9.7953 0.5 10.44 1.14471 10.44 1.94L10.44 17.06C10.44 17.8553 9.7953 18.5 9.00001 18.5C8.20472 18.5 7.56001 17.8553 7.56001 17.06L7.56001 1.94C7.56001 1.14471 8.20472 0.5 9.00001 0.5Z" fill="#333333"/>
</svg>
