<svg width="76" height="76" viewBox="0 0 76 76" fill="none" xmlns="http://www.w3.org/2000/svg">
<path d="M29.7843 38.8887L31.0343 39.7179L29.7843 38.8887C30.3154 38.088 31.0185 37.4455 31.8652 36.9601C32.3312 36.6929 32.8241 36.4988 33.3384 36.3731C32.5637 35.13 32.1707 33.7198 32.1707 32.1719C32.1707 29.9741 32.951 28.0538 34.4884 26.4973C36.0213 24.9452 37.9105 24.1429 40.0769 24.1429C42.2434 24.1429 44.1326 24.9452 45.6655 26.4973C47.2028 28.0538 47.9832 29.9741 47.9832 32.1719C47.9832 33.7198 47.5901 35.13 46.8154 36.3731C47.3297 36.4988 47.8227 36.6929 48.2887 36.9601C49.1353 37.4455 49.8384 38.088 50.3696 38.8887C50.8616 39.6305 51.2418 40.4909 51.5291 41.445C51.8091 42.3747 52.0009 43.3068 52.1016 44.2403C52.1984 45.1373 52.2458 46.0871 52.2458 47.0882C52.2458 48.6107 51.8079 49.9879 50.854 51.1105C49.8997 52.2337 48.646 52.8571 47.1731 52.8571H32.9808C31.5078 52.8571 30.2542 52.2337 29.2998 51.1105C28.346 49.9879 27.9081 48.6107 27.9081 47.0882C27.9081 46.0871 27.9554 45.1373 28.0522 44.2403C28.153 43.3068 28.3447 42.3747 28.6247 41.445L30.061 41.8775L28.6247 41.445C28.912 40.4909 29.2922 39.6305 29.7843 38.8887ZM21.1538 49.8571H22.6538V51.3571V56.9821C22.6538 57.6952 22.8864 58.2636 23.3826 58.7692C23.8779 59.274 24.4223 59.5 25.0962 59.5H55.0577C55.7315 59.5 56.276 59.274 56.7713 58.7692C57.2674 58.2636 57.5 57.6952 57.5 56.9821V20.0179C57.5 19.3048 57.2674 18.7364 56.7713 18.2308C56.276 17.726 55.7315 17.5 55.0577 17.5H25.0962C24.4223 17.5 23.8779 17.726 23.3826 18.2308C22.8864 18.7364 22.6538 19.3048 22.6538 20.0179V25.6429V27.1429H21.1538H19.5V30.5714H21.1538H22.6538V32.0714V35.2857V36.7857H21.1538H19.5V40.2143H21.1538H22.6538V41.7143V44.9286V46.4286H21.1538H19.5V49.8571H21.1538Z" stroke="#005DAA" stroke-width="3"/>
</svg>
