<svg width="22" height="25" viewBox="0 0 22 25" fill="none" xmlns="http://www.w3.org/2000/svg">
<path d="M6.21014 17.3304C6.21014 16.8214 6.23394 16.3438 6.28154 15.8973C6.32914 15.4509 6.42 15.0022 6.55414 14.5513C6.68827 14.1004 6.85918 13.7165 7.06687 13.3996C7.27457 13.0826 7.55149 12.8237 7.89764 12.6228C8.2438 12.4219 8.63755 12.3214 9.07889 12.3214C9.13082 12.3571 9.27577 12.4487 9.51375 12.596C9.75173 12.7433 9.93563 12.8527 10.0654 12.9241C10.1952 12.9955 10.3705 13.0848 10.5912 13.192C10.8118 13.2991 11.0238 13.375 11.2272 13.4196C11.4306 13.4643 11.6318 13.4866 11.8308 13.4866C12.0299 13.4866 12.2311 13.4643 12.4344 13.4196C12.6378 13.375 12.8498 13.2991 13.0705 13.192C13.2912 13.0848 13.4664 12.9955 13.5962 12.9241C13.726 12.8527 13.9099 12.7433 14.1479 12.596C14.3859 12.4487 14.5308 12.3571 14.5827 12.3214C15.0241 12.3214 15.4178 12.4219 15.764 12.6228C16.1101 12.8237 16.3871 13.0826 16.5948 13.3996C16.8025 13.7165 16.9734 14.1004 17.1075 14.5513C17.2416 15.0022 17.3325 15.4509 17.3801 15.8973C17.4277 16.3438 17.4515 16.8214 17.4515 17.3304C17.4515 17.9821 17.2698 18.5246 16.9063 18.9576C16.5428 19.3906 16.0972 19.6071 15.5693 19.6071H8.09236C7.56447 19.6071 7.1188 19.3906 6.75534 18.9576C6.39188 18.5246 6.21014 17.9821 6.21014 17.3304ZM8.45582 9.375C8.45582 8.41071 8.78683 7.58929 9.44885 6.91071C10.1109 6.23214 10.9049 5.89286 11.8308 5.89286C12.7568 5.89286 13.5508 6.23214 14.2128 6.91071C14.8748 7.58929 15.2058 8.41071 15.2058 9.375C15.2058 10.3304 14.8748 11.1473 14.2128 11.8259C13.5508 12.5045 12.7568 12.8438 11.8308 12.8438C10.9049 12.8438 10.1109 12.5045 9.44885 11.8259C8.78683 11.1473 8.45582 10.3304 8.45582 9.375ZM0.200048 16.6071V19.1786C0.200048 19.3036 0.238991 19.4063 0.316876 19.4866C0.39476 19.567 0.494279 19.6071 0.615433 19.6071H1.86159V22.6071C1.86159 23.1964 2.06495 23.7009 2.47168 24.1205C2.87841 24.5402 3.36736 24.75 3.93851 24.75H19.7231C20.2943 24.75 20.7832 24.5402 21.19 24.1205C21.5967 23.7009 21.8 23.1964 21.8 22.6071V2.89286C21.8 2.30357 21.5967 1.79911 21.19 1.37946C20.7832 0.959821 20.2943 0.75 19.7231 0.75H3.93851C3.36736 0.75 2.87841 0.959821 2.47168 1.37946C2.06495 1.79911 1.86159 2.30357 1.86159 2.89286V5.89286H0.615433C0.494279 5.89286 0.39476 5.93304 0.316876 6.01339C0.238991 6.09375 0.200048 6.19643 0.200048 6.32143V8.89286C0.200048 9.01786 0.238991 9.12054 0.316876 9.20089C0.39476 9.28125 0.494279 9.32143 0.615433 9.32143H1.86159V11.0357H0.615433C0.494279 11.0357 0.39476 11.0759 0.316876 11.1563C0.238991 11.2366 0.200048 11.3393 0.200048 11.4643V14.0357C0.200048 14.1607 0.238991 14.2634 0.316876 14.3438C0.39476 14.4241 0.494279 14.4643 0.615433 14.4643H1.86159V16.1786H0.615433C0.494279 16.1786 0.39476 16.2188 0.316876 16.2991C0.238991 16.3795 0.200048 16.4821 0.200048 16.6071Z" fill="#654321"/>
</svg>
