<svg width="29" height="33" viewBox="0 0 29 33" fill="none" xmlns="http://www.w3.org/2000/svg">
<path d="M9.80169 21.8027C9.80169 21.2598 9.82454 20.7503 9.87023 20.2741C9.91592 19.7979 10.0032 19.3194 10.1319 18.8384C10.2607 18.3575 10.4248 17.9479 10.6242 17.6098C10.8235 17.2718 11.0894 16.9956 11.4217 16.7813C11.754 16.567 12.132 16.4598 12.5557 16.4598C12.6055 16.4979 12.7447 16.5956 12.9732 16.7527C13.2016 16.9098 13.3782 17.0265 13.5028 17.1027C13.6274 17.1789 13.7956 17.2741 14.0075 17.3884C14.2193 17.5027 14.4228 17.5837 14.6181 17.6313C14.8133 17.6789 15.0065 17.7027 15.1975 17.7027C15.3886 17.7027 15.5818 17.6789 15.777 17.6313C15.9722 17.5837 16.1758 17.5027 16.3876 17.3884C16.5995 17.2741 16.7677 17.1789 16.8923 17.1027C17.0169 17.0265 17.1935 16.9098 17.4219 16.7527C17.6504 16.5956 17.7895 16.4979 17.8394 16.4598C18.2631 16.4598 18.6411 16.567 18.9734 16.7813C19.3057 16.9956 19.5715 17.2718 19.7709 17.6098C19.9703 17.9479 20.1344 18.3575 20.2632 18.8384C20.3919 19.3194 20.4792 19.7979 20.5248 20.2741C20.5705 20.7503 20.5934 21.2598 20.5934 21.8027C20.5934 22.4979 20.4189 23.0765 20.07 23.5384C19.7211 24.0003 19.2932 24.2313 18.7865 24.2313H11.6086C11.1018 24.2313 10.674 24.0003 10.3251 23.5384C9.97615 23.0765 9.80169 22.4979 9.80169 21.8027ZM11.9575 13.317C11.9575 12.2884 12.2753 11.4122 12.9108 10.6884C13.5464 9.96461 14.3086 9.6027 15.1975 9.6027C16.0865 9.6027 16.8487 9.96461 17.4842 10.6884C18.1198 11.4122 18.4375 12.2884 18.4375 13.317C18.4375 14.336 18.1198 15.2075 17.4842 15.9313C16.8487 16.6551 16.0865 17.017 15.1975 17.017C14.3086 17.017 13.5464 16.6551 12.9108 15.9313C12.2753 15.2075 11.9575 14.336 11.9575 13.317ZM4.032 21.0313V23.7741C4.032 23.9075 4.06938 24.017 4.14415 24.1027C4.21892 24.1884 4.31446 24.2313 4.43077 24.2313H5.62708V27.4313C5.62708 28.0598 5.82231 28.5979 6.21277 29.0456C6.60323 29.4932 7.07261 29.717 7.62092 29.717H22.7742C23.3225 29.717 23.7918 29.4932 24.1823 29.0456C24.5728 28.5979 24.768 28.0598 24.768 27.4313V6.4027C24.768 5.77413 24.5728 5.23604 24.1823 4.78842C23.7918 4.3408 23.3225 4.11699 22.7742 4.11699H7.62092C7.07261 4.11699 6.60323 4.3408 6.21277 4.78842C5.82231 5.23604 5.62708 5.77413 5.62708 6.4027V9.6027H4.43077C4.31446 9.6027 4.21892 9.64556 4.14415 9.73127C4.06938 9.81699 4.032 9.92651 4.032 10.0598V12.8027C4.032 12.936 4.06938 13.0456 4.14415 13.1313C4.21892 13.217 4.31446 13.2598 4.43077 13.2598H5.62708V15.0884H4.43077C4.31446 15.0884 4.21892 15.1313 4.14415 15.217C4.06938 15.3027 4.032 15.4122 4.032 15.5456V18.2884C4.032 18.4218 4.06938 18.5313 4.14415 18.617C4.21892 18.7027 4.31446 18.7456 4.43077 18.7456H5.62708V20.5741H4.43077C4.31446 20.5741 4.21892 20.617 4.14415 20.7027C4.06938 20.7884 4.032 20.8979 4.032 21.0313Z" fill="#005DAA"/>
</svg>
