<svg width="49" height="49" viewBox="0 0 49 49" fill="none" xmlns="http://www.w3.org/2000/svg">
<path d="M17.9283 4.50103C17.7409 4.50282 17.5464 4.54803 17.3691 4.64626C16.8064 4.95821 16.6 5.68142 16.9117 6.24376L18.1824 8.53836C15.1209 10.4326 13.0922 13.6681 13.0922 17.3609C13.0922 17.3764 13.0921 17.3997 13.0922 17.4226C13.0922 17.4307 13.0921 17.4353 13.0922 17.4444C13.0922 17.4565 13.0922 17.4741 13.0922 17.4771V18.0471C12.5042 17.3706 11.6399 16.9434 10.6742 16.9434C8.90492 16.9434 7.46826 18.38 7.46826 20.1493V30.0247C7.46826 31.794 8.90492 33.2306 10.6742 33.2306C11.6399 33.2306 12.5042 32.8034 13.0922 32.1269V33.5102C13.0922 35.3752 14.6183 36.9013 16.4832 36.9013H17.3437V41.2944C17.3437 43.0636 18.7804 44.5003 20.5496 44.5003C22.3188 44.5003 23.7555 43.0636 23.7555 41.2944V36.9013H25.2441V41.2944C25.2441 43.0636 26.6807 44.5003 28.45 44.5003C30.2192 44.5003 31.6559 43.0636 31.6559 41.2944V36.9013H32.5163C34.3813 36.9013 35.9074 35.3752 35.9074 33.5102V32.1269C36.4954 32.8034 37.3597 33.2306 38.3254 33.2306C40.0947 33.2306 41.5313 31.794 41.5313 30.0247V20.1493C41.5313 18.38 40.0947 16.9434 38.3254 16.9434C37.3597 16.9434 36.4954 17.3706 35.9074 18.0471V17.488V17.4771C35.9075 17.4596 35.9074 17.4422 35.9074 17.4444C35.9076 17.4096 35.9074 17.3819 35.9074 17.3609C35.9074 13.6688 33.8742 10.4364 30.8136 8.54199L32.0879 6.24376C32.3996 5.68142 32.1932 4.95821 31.6305 4.64626C31.4532 4.54803 31.2587 4.50282 31.0713 4.50103C30.6557 4.49705 30.2478 4.71607 30.033 5.10372L28.7005 7.51087C27.3976 7.03007 25.98 6.76658 24.4998 6.76658C23.0211 6.76658 21.6009 7.02737 20.2991 7.50724L18.9666 5.10372C18.7518 4.71607 18.3438 4.49706 17.9283 4.50103V4.50103Z" fill="white"/>
<path d="M10.6741 17.7773C9.35378 17.7773 8.30322 18.8279 8.30322 20.1482V30.0236C8.30322 31.3439 9.35378 32.3945 10.6741 32.3945C11.9943 32.3945 13.0449 31.3439 13.0449 30.0236V20.1482C13.0449 18.8279 11.9943 17.7773 10.6741 17.7773ZM38.3253 17.7773C37.0051 17.7773 35.9545 18.8279 35.9545 20.1482V30.0236C35.9545 31.3439 37.0051 32.3945 38.3253 32.3945C39.6456 32.3945 40.6962 31.3439 40.6962 30.0236V20.1482C40.6962 18.8279 39.6456 17.7773 38.3253 17.7773Z" fill="#BDBDBD"/>
<path d="M20.5495 29.0469C19.2293 29.0469 18.1787 30.0974 18.1787 31.4177V41.2932C18.1787 42.6135 19.2293 43.664 20.5495 43.664C21.8698 43.664 22.9204 42.6135 22.9204 41.2932V31.4177C22.9204 30.0974 21.8698 29.0469 20.5495 29.0469ZM28.4499 29.0469C27.1296 29.0469 26.0791 30.0974 26.0791 31.4177V41.2932C26.0791 42.6135 27.1296 43.664 28.4499 43.664C29.7702 43.664 30.8207 42.6135 30.8207 41.2932V31.4177C30.8207 30.0974 29.7702 29.0469 28.4499 29.0469Z" fill="#BDBDBD"/>
<path d="M17.935 5.33595C17.879 5.33653 17.8268 5.35099 17.7753 5.37952C17.6062 5.47323 17.5506 5.6675 17.6446 5.83699L19.3147 8.85409C16.1015 10.526 13.9311 13.7034 13.9268 17.3499H35.0719C35.0675 13.7034 32.8971 10.526 29.6839 8.85409L31.354 5.83699C31.448 5.6675 31.3924 5.47323 31.2233 5.37952C31.1719 5.35099 31.1196 5.33649 31.0636 5.33595C30.9436 5.3348 30.8299 5.39474 30.7659 5.51023L29.074 8.56C27.6899 7.94609 26.1375 7.6015 24.4993 7.6015C22.8611 7.6015 21.3087 7.94609 19.9246 8.56L18.2327 5.51023C18.1687 5.39474 18.055 5.3348 17.935 5.33595ZM13.9268 18.1849V33.5101C13.9268 34.9261 15.0667 36.0661 16.4828 36.0661H32.5159C33.9319 36.0661 35.0719 34.9261 35.0719 33.5101V18.1849H13.9268Z" fill="#BDBDBD"/>
<path d="M19.62 11.7148C19.1373 11.7148 18.7378 12.1144 18.7378 12.5971C18.7378 13.0798 19.1373 13.4794 19.62 13.4794C20.1028 13.4794 20.5023 13.0798 20.5023 12.5971C20.5023 12.1144 20.1028 11.7148 19.62 11.7148ZM29.3793 11.7148C28.8966 11.7148 28.4971 12.1144 28.4971 12.5971C28.4971 13.0798 28.8966 13.4794 29.3793 13.4794C29.862 13.4794 30.2616 13.0798 30.2616 12.5971C30.2616 12.1144 29.862 11.7148 29.3793 11.7148Z" fill="white"/>
</svg>
