<svg width="50" height="50" viewBox="0 0 50 50" fill="none" xmlns="http://www.w3.org/2000/svg">
<path fill-rule="evenodd" clip-rule="evenodd" d="M19.4521 12.7968C22.1998 12.6797 23.9918 14.2017 25.7838 14.2017C27.5758 14.2017 29.2483 12.6797 32.1155 12.7968C34.6242 12.7968 37.372 13.7334 39.2834 15.9578C36.5357 17.2457 34.5048 20.0555 34.5048 23.3336C34.5048 26.8459 36.8941 29.7728 40.0002 30.8265C38.6861 34.573 36.5357 38.0853 33.5491 39.9585C29.7262 41.9488 27.4563 38.4365 25.7838 38.4365C23.9918 38.4365 21.8414 41.9488 18.0185 39.9585C13.4788 37.1486 10.7311 30.7094 10.1338 25.3239C9.05861 16.0749 14.6735 12.7968 19.4521 12.7968ZM25.3059 12.2114C25.1865 6.7088 28.1731 4.13312 33.3101 3.43066C32.3544 9.40156 29.9651 11.2748 25.3059 12.2114Z" fill="#BDBDBD"/>
</svg>
