<svg width="20" height="21" viewBox="0 0 20 21" fill="none" xmlns="http://www.w3.org/2000/svg">
<path d="M18.4701 5.72011L10.0001 14.1601L1.53007 5.72011C1.38944 5.57966 1.19882 5.50077 1.00007 5.50077C0.801317 5.50077 0.610693 5.57966 0.470068 5.72011C0.351038 5.85951 0.285645 6.0368 0.285645 6.22011C0.285645 6.40342 0.351038 6.58071 0.470068 6.72011L9.47007 15.7201C9.61314 15.8559 9.80284 15.9315 10.0001 15.9315C10.1973 15.9315 10.387 15.8559 10.5301 15.7201L19.5301 6.72011C19.6705 6.57948 19.7494 6.38886 19.7494 6.19011C19.7494 5.99136 19.6705 5.80074 19.5301 5.66011C19.4572 5.5931 19.3716 5.5414 19.2784 5.50806C19.1852 5.47473 19.0862 5.46043 18.9874 5.46603C18.8885 5.47162 18.7918 5.49699 18.703 5.54063C18.6141 5.58428 18.5349 5.64531 18.4701 5.72011Z" fill="#F5F5F5"/>
</svg>
