<svg width="20" height="21" viewBox="0 0 20 21" fill="none" xmlns="http://www.w3.org/2000/svg">
<path d="M10.52 5.69786C10.3793 5.55741 10.1887 5.47852 9.98996 5.47852C9.79121 5.47852 9.60058 5.55741 9.45996 5.69786L0.459959 14.6979C0.338338 14.8366 0.272118 15.0153 0.273963 15.1998C0.275808 15.3843 0.345588 15.5616 0.469959 15.6979C0.538905 15.7686 0.621321 15.8248 0.712347 15.8632C0.803373 15.9016 0.901166 15.9214 0.999959 15.9214C1.09875 15.9214 1.19655 15.9016 1.28757 15.8632C1.3786 15.8248 1.46101 15.7686 1.52996 15.6979L9.99996 7.25786L18.47 15.6979C18.613 15.8336 18.8027 15.9093 19 15.9093C19.1972 15.9093 19.3869 15.8336 19.53 15.6979C19.6687 15.5543 19.7462 15.3625 19.7462 15.1629C19.7462 14.9632 19.6687 14.7714 19.53 14.6279L10.52 5.69786Z" fill="#F5F5F5"/>
</svg>
