<svg width="12" height="24" viewBox="0 0 12 24" fill="none" xmlns="http://www.w3.org/2000/svg">
<path d="M10.05 0.906009L0.909968 11.4124C0.838338 11.491 0.781005 11.586 0.741463 11.6917C0.70192 11.7973 0.680997 11.9114 0.679968 12.0269C0.678038 12.2636 0.753231 12.4921 0.889968 12.6651L9.75997 23.4315C9.82837 23.5165 9.91054 23.5843 10.0016 23.631C10.0926 23.6777 10.1907 23.7023 10.29 23.7033C10.487 23.7037 10.6767 23.6149 10.82 23.4551C10.9604 23.2889 11.0393 23.0636 11.0393 22.8287C11.0393 22.5939 10.9604 22.3686 10.82 22.2024L2.48997 12.0624L11.09 2.18237C11.1842 2.11363 11.2644 2.02107 11.3248 1.91135C11.3852 1.80163 11.4242 1.67747 11.4392 1.54778C11.4541 1.4181 11.4446 1.28611 11.4113 1.1613C11.3779 1.03648 11.3216 0.921946 11.2464 0.825909C11.1711 0.729872 11.0788 0.65472 10.9761 0.605851C10.8733 0.556982 10.7627 0.535609 10.6522 0.543267C10.5416 0.550925 10.4339 0.587424 10.3366 0.650142C10.2394 0.712861 10.1552 0.800242 10.09 0.906009H10.05Z" fill="#0088F7"/>
</svg>
