<?xml version="1.0" encoding="utf-8"?>
<!-- Generator: Adobe Illustrator 23.1.1, SVG Export Plug-In . SVG Version: 6.00 Build 0)  -->
<svg version="1.1" id="Layer_1" xmlns="http://www.w3.org/2000/svg" xmlns:xlink="http://www.w3.org/1999/xlink" x="0px" y="0px"
	 viewBox="0 0 29 20" style="enable-background:new 0 0 29 20;" xml:space="preserve">
<style type="text/css">
	.st0{fill:#B0AEAE;}
</style>
<title>ArrowLeft</title>
<path class="st0" d="M26.7,9.2H4.2L12,1.6c0.4-0.2,0.5-0.7,0.2-1c-0.2-0.4-0.7-0.5-1-0.2c-0.1,0-0.2,0-0.2,0.1l0,0L1.8,9.4
	C1.7,9.5,1.6,9.7,1.6,9.9s0.1,0.4,0.2,0.5l8.9,9.1c0.1,0.1,0.3,0.2,0.5,0.2s0.4-0.1,0.5-0.2c0.3-0.3,0.3-0.8,0-1.1l-7.5-7.7h22.5
	c0.4,0,0.8-0.4,0.8-0.8S27.1,9.2,26.7,9.2z"/>
</svg>
