<svg width="36" height="36" viewBox="0 0 36 36" fill="none" xmlns="http://www.w3.org/2000/svg">
<path d="M35.968 28.0373C35.8134 27.4003 35.5205 26.8052 35.11 26.2942C34.6995 25.7831 34.1815 25.3688 33.5927 25.0806C32.8857 24.6651 31.8066 23.9695 30.7632 23.2983C29.7738 22.6636 28.8453 22.0639 28.2517 21.7138C26.3917 20.6186 22.9434 22.3104 21.6824 23.0022C20.8764 22.8234 18.4099 21.1125 16.6466 19.3492C14.8832 17.5859 13.1754 15.1201 12.9935 14.3134C13.6868 13.0531 15.3764 9.60402 14.282 7.74479C13.9311 7.14661 13.3269 6.20824 12.6838 5.21584C12.0156 4.17853 11.3246 3.10546 10.9106 2.39997C10.6225 1.81323 10.209 1.29692 9.69942 0.887545C9.18983 0.478167 8.59655 0.185707 7.96151 0.0308356C7.38902 -0.0417215 6.80755 0.0151838 6.25999 0.197352C5.71243 0.37952 5.21276 0.682303 4.79784 1.08336C3.16388 2.46009 -0.662656 5.68236 0.0991501 9.15044C0.942388 12.9952 5.34047 20.7313 10.3017 25.6971C15.263 30.6629 23.0043 35.0579 26.8476 35.8997C27.149 35.966 27.4568 35.9994 27.7654 35.9994C30.8766 35.9994 33.6628 32.6903 34.9192 31.2048C35.3208 30.7895 35.6236 30.2891 35.8052 29.7407C35.9867 29.1924 36.0424 28.6101 35.968 28.0373ZM33.1696 29.7314C32.2518 30.8197 29.4656 34.1317 27.3362 33.6706C24.2167 32.9841 16.8406 29.0069 11.9189 24.0799C6.99726 19.1529 3.01471 11.7829 2.32977 8.66185C1.86401 6.53853 5.17989 3.74626 6.2697 2.82844C6.58338 2.51432 6.99506 2.31694 7.43639 2.26907C7.48352 2.26913 7.53058 2.27269 7.57718 2.27972C7.87904 2.39235 8.15555 2.56376 8.3907 2.78401C8.62585 3.00426 8.81495 3.26899 8.94706 3.56285C9.38466 4.30639 10.0886 5.39849 10.769 6.45482C11.3953 7.42743 11.9867 8.34678 12.3147 8.90538C12.5476 9.29961 12.1161 11.2327 10.9121 13.3628C9.66701 15.5653 14.8102 20.745 15.0301 20.9664C15.25 21.1879 20.4335 26.328 22.6337 25.0844C24.7646 23.8797 26.6977 23.4482 27.0919 23.6818C27.6467 24.0076 28.5592 24.5951 29.5272 25.2176C30.5927 25.9026 31.6886 26.6096 32.4352 27.0487C32.7289 27.1809 32.9935 27.37 33.2136 27.6052C33.4337 27.8403 33.605 28.1168 33.7176 28.4186C33.7247 28.6637 33.6795 28.9075 33.5852 29.1339C33.4908 29.3602 33.3494 29.5639 33.1704 29.7314H33.1696ZM21.015 1.68459C21.015 1.38182 21.1352 1.09146 21.3493 0.877377C21.5634 0.663291 21.8538 0.543019 22.1565 0.543019C25.5 0.546847 28.7054 1.87678 31.0695 4.24105C33.4337 6.60532 34.7634 9.81082 34.767 13.1543C34.767 13.4571 34.6468 13.7474 34.4327 13.9615C34.2186 14.1756 33.9282 14.2959 33.6255 14.2959C33.3227 14.2959 33.0323 14.1756 32.8183 13.9615C32.6042 13.7474 32.4839 13.4571 32.4839 13.1543C32.4809 10.4162 31.3919 7.79103 29.4558 5.8548C27.5197 3.91858 24.8947 2.82938 22.1565 2.82615C22.0066 2.82615 21.8582 2.79663 21.7197 2.73926C21.5812 2.68189 21.4553 2.5978 21.3493 2.4918C21.2433 2.38579 21.1592 2.25995 21.1019 2.12145C21.0445 1.98294 21.015 1.8345 21.015 1.68459ZM21.015 7.77295C21.015 7.47019 21.1352 7.17982 21.3493 6.96574C21.5634 6.75165 21.8538 6.63138 22.1565 6.63138C23.8858 6.63339 25.5437 7.3213 26.7664 8.54417C27.9892 9.76704 28.6769 11.425 28.6787 13.1543C28.6787 13.4571 28.5584 13.7474 28.3443 13.9615C28.1302 14.1756 27.8399 14.2959 27.5371 14.2959C27.2343 14.2959 26.944 14.1756 26.7299 13.9615C26.5158 13.7474 26.3955 13.4571 26.3955 13.1543C26.3943 12.0303 25.9474 10.9528 25.1527 10.1579C24.358 9.36309 23.2805 8.91593 22.1565 8.91452C21.8538 8.91452 21.5634 8.79424 21.3493 8.58016C21.1352 8.36607 21.015 8.07571 21.015 7.77295Z" fill="#333333"/>
</svg>
