<svg width="13" height="13" viewBox="0 0 13 13" fill="none" xmlns="http://www.w3.org/2000/svg">
<path d="M0.113192 3.91723C0.434339 2.72576 1.58143 1.45509 2.06358 1.44464C2.85472 1.42463 3.7642 2.81628 4.2455 3.66833C4.34968 3.85412 4.39575 4.06688 4.37775 4.27912C4.35975 4.49136 4.27852 4.69333 4.14454 4.85893L3.42566 5.74666C3.33084 5.86396 3.2746 6.0077 3.26462 6.15821C3.25465 6.30871 3.29143 6.45861 3.36994 6.5874C3.74324 7.20903 4.19357 7.78101 4.71024 8.28975C5.21899 8.80643 5.79096 9.25676 6.41259 9.63005C6.54138 9.70856 6.69129 9.74535 6.84179 9.73537C6.99229 9.7254 7.13604 9.66915 7.25334 9.57434L8.14107 8.85546C8.30667 8.72149 8.50864 8.64025 8.72088 8.62225C8.93312 8.60426 9.14589 8.65033 9.33168 8.75451C10.1837 9.2358 11.5754 10.1453 11.5554 10.9364C11.5449 11.4186 10.2742 12.5657 9.08277 12.8868C7.07927 13.4282 5.00616 11.9573 3.02442 9.97558C1.04269 7.99385 -0.428159 5.92073 0.113192 3.91723ZM12.4238 6.49845H12.8571C12.876 6.49858 12.8948 6.49492 12.9123 6.48769C12.9298 6.48047 12.9456 6.46982 12.9589 6.45637C12.9723 6.44292 12.9827 6.42694 12.9898 6.40938C12.9968 6.39182 13.0003 6.37303 13 6.35411C12.9609 4.6812 12.2789 3.08765 11.0956 1.9044C9.91236 0.721148 8.3188 0.0391419 6.64589 2.04083e-05C6.62697 -0.000300444 6.60818 0.00316483 6.59062 0.0102125C6.57306 0.0172601 6.55709 0.0277479 6.54364 0.041059C6.53019 0.0543701 6.51954 0.0702358 6.51231 0.0877231C6.50509 0.10521 6.50143 0.123966 6.50155 0.142888V0.576221C6.5018 0.614603 6.51704 0.65137 6.544 0.678684C6.57097 0.705997 6.60754 0.721698 6.64591 0.722438C8.12725 0.761224 9.53723 1.36698 10.5851 2.41479C11.6329 3.4626 12.2387 4.87256 12.2776 6.3539C12.2783 6.3923 12.294 6.42889 12.3213 6.45589C12.3486 6.48289 12.3854 6.49816 12.4238 6.49845H12.4238ZM10.6904 6.49845H11.1238C11.1427 6.4986 11.1614 6.49494 11.1789 6.4877C11.1964 6.48046 11.2122 6.46978 11.2255 6.4563C11.2388 6.44282 11.2492 6.42681 11.2562 6.40922C11.2631 6.39164 11.2665 6.37283 11.2661 6.35392C11.2278 5.14072 10.7288 3.98768 9.87045 3.12942C9.01215 2.27115 7.85909 1.77214 6.6459 1.73393C6.627 1.73349 6.6082 1.73686 6.59062 1.74382C6.57304 1.75079 6.55705 1.76123 6.54358 1.7745C6.53011 1.78777 6.51945 1.80362 6.51223 1.82109C6.50501 1.83857 6.50137 1.85732 6.50154 1.87622V2.30956C6.50192 2.34798 6.51718 2.38476 6.54411 2.41217C6.57104 2.43958 6.60755 2.45548 6.64596 2.45654C7.66761 2.49428 8.63719 2.91702 9.36009 3.63994C10.083 4.36285 10.5057 5.33244 10.5435 6.35409C10.5445 6.3925 10.5604 6.429 10.5878 6.45592C10.6152 6.48284 10.652 6.49808 10.6905 6.49845H10.6904ZM6.64591 3.4685C6.62705 3.46781 6.60824 3.47096 6.59063 3.47776C6.57302 3.48456 6.55698 3.49487 6.54348 3.50807C6.52998 3.52126 6.5193 3.53706 6.51209 3.55451C6.50489 3.57195 6.5013 3.59068 6.50155 3.60956V4.04289C6.50223 4.0814 6.51752 4.11822 6.54433 4.14587C6.57114 4.17352 6.60747 4.18994 6.64594 4.1918C7.20765 4.2277 7.73703 4.46704 8.13502 4.86505C8.53301 5.26306 8.77234 5.79245 8.80822 6.35416C8.81008 6.39262 8.8265 6.42893 8.85415 6.45573C8.8818 6.48253 8.91861 6.4978 8.95711 6.49846H9.39045C9.40932 6.49871 9.42805 6.49513 9.4455 6.48793C9.46294 6.48072 9.47874 6.47005 9.49194 6.45655C9.50513 6.44305 9.51544 6.42701 9.52224 6.4094C9.52905 6.39179 9.5322 6.37299 9.53151 6.35413C9.49467 5.60071 9.17883 4.88796 8.64545 4.35458C8.11208 3.82119 7.39932 3.50534 6.64591 3.4685Z" fill="#333333"/>
</svg>
