<svg width="31" height="25" viewBox="0 0 31 25" fill="none" xmlns="http://www.w3.org/2000/svg">
<path d="M27.0537 17.6159H12.1504L8.92959 5.3776C8.85249 5.08261 8.58565 4.87745 8.28127 4.87745H1.57682C1.20606 4.87745 0.906372 5.17781 0.906372 5.5479C0.906372 5.91798 1.20606 6.21834 1.57682 6.21834H7.76435L10.7639 17.6159H8.95171C7.47271 17.6159 6.26993 18.8187 6.26993 20.2977C6.26993 21.5702 7.16296 22.6335 8.35367 22.9071C8.41469 23.1732 8.51994 23.4206 8.65403 23.6499H5.59949C5.22873 23.6499 4.92904 23.9496 4.92904 24.3204C4.92904 24.6911 5.22873 24.9908 5.59949 24.9908H10.963C12.2087 24.9908 13.2499 24.1333 13.5496 22.9795H19.7734C19.8357 23.2175 19.9296 23.4414 20.0516 23.6499H17.6675C17.2967 23.6499 16.9971 23.9496 16.9971 24.3204C16.9971 24.6911 17.2967 24.9908 17.6675 24.9908H22.3606C23.8396 24.9908 25.0424 23.788 25.0424 22.309C25.0424 20.83 23.8396 19.6272 22.3606 19.6272C21.1149 19.6272 20.0737 20.4847 19.774 21.6386H13.5503C13.2506 20.4847 12.2094 19.6272 10.9637 19.6272C9.7596 19.6272 8.75125 20.4291 8.41267 21.5233C7.94135 21.3154 7.61082 20.8448 7.61082 20.2977C7.61082 19.5582 8.21221 18.9568 8.95171 18.9568H27.0537C27.4245 18.9568 27.7242 18.6571 27.7242 18.2864C27.7242 17.9156 27.4245 17.6159 27.0537 17.6159ZM21.8846 21.833C22.1327 21.5849 22.5819 21.5849 22.8366 21.833C22.9573 21.9597 23.0311 22.1347 23.0311 22.309C23.0311 22.4833 22.9573 22.6577 22.8366 22.785C22.7092 22.9057 22.5349 22.9795 22.3606 22.9795C22.1863 22.9795 22.0113 22.9057 21.8846 22.785C21.7632 22.6577 21.6902 22.49 21.6902 22.309C21.6902 22.1273 21.7632 21.9597 21.8846 21.833ZM10.487 21.833C10.7277 21.5849 11.191 21.5849 11.4391 21.833C11.5597 21.9597 11.6335 22.1273 11.6335 22.309C11.6335 22.4833 11.5597 22.6577 11.4391 22.785C11.3117 22.9057 11.1374 22.9795 10.963 22.9795C10.7814 22.9795 10.6137 22.9057 10.487 22.785C10.3657 22.6577 10.2926 22.4833 10.2926 22.309C10.2926 22.1273 10.3657 21.9597 10.487 21.833ZM30.3805 6.40271L27.6987 15.7889C27.6162 16.0766 27.3527 16.275 27.0537 16.275H13.6448C13.3458 16.275 13.0823 16.0766 12.9999 15.7883L10.3181 6.40204C10.2168 6.04604 10.4227 5.67528 10.7793 5.57337C11.1333 5.47281 11.5061 5.67729 11.608 6.03397L14.1503 14.9341H26.5482L28.8465 6.88879H25.7128C25.3421 6.88879 25.0424 6.58843 25.0424 6.21834C25.0424 5.84826 25.3421 5.5479 25.7128 5.5479H29.7355C29.9454 5.5479 30.1438 5.64645 30.2712 5.81473C30.3972 5.98235 30.4381 6.20024 30.3805 6.40271ZM4.2586 24.3204C4.2586 24.6911 3.95891 24.9908 3.58815 24.9908H2.91771C2.54695 24.9908 2.24726 24.6911 2.24726 24.3204C2.24726 23.9496 2.54695 23.6499 2.91771 23.6499H3.58815C3.95891 23.6499 4.2586 23.9496 4.2586 24.3204ZM2.24726 20.2977C2.24726 19.9269 2.54695 19.6272 2.91771 19.6272H4.92904C5.2998 19.6272 5.59949 19.9269 5.59949 20.2977C5.59949 20.6684 5.2998 20.9681 4.92904 20.9681H2.91771C2.54695 20.9681 2.24726 20.6684 2.24726 20.2977ZM16.523 4.68101C16.2609 4.41887 16.2609 3.99515 16.523 3.733L19.2048 1.05122C19.467 0.789078 19.8907 0.789078 20.1528 1.05122L22.8346 3.733C23.0968 3.99515 23.0968 4.41887 22.8346 4.68101C22.7039 4.81175 22.5322 4.87745 22.3606 4.87745C22.189 4.87745 22.0173 4.81175 21.8866 4.68101L20.3493 3.14368V8.90012C20.3493 9.27021 20.0496 9.57057 19.6788 9.57057C19.3081 9.57057 19.0084 9.27021 19.0084 8.90012V3.14368L17.4711 4.68101C17.2089 4.94316 16.7852 4.94316 16.523 4.68101ZM20.3493 10.9115V11.5819C20.3493 11.952 20.0496 12.2523 19.6788 12.2523C19.3081 12.2523 19.0084 11.952 19.0084 11.5819V10.9115C19.0084 10.5414 19.3081 10.241 19.6788 10.241C20.0496 10.241 20.3493 10.5414 20.3493 10.9115ZM23.0311 10.9115C23.0311 11.2815 22.7314 11.5819 22.3606 11.5819C21.9899 11.5819 21.6902 11.2815 21.6902 10.9115V8.22968C21.6902 7.85959 21.9899 7.55923 22.3606 7.55923C22.7314 7.55923 23.0311 7.85959 23.0311 8.22968V10.9115ZM22.8366 12.4468C22.9573 12.5742 23.0311 12.7485 23.0311 12.9228C23.0311 13.0971 22.9573 13.2714 22.8366 13.3988C22.7092 13.5195 22.5349 13.5932 22.3606 13.5932C22.1863 13.5932 22.0113 13.5195 21.8846 13.3988C21.7632 13.2714 21.6902 13.1038 21.6902 12.9228C21.6902 12.7418 21.7632 12.5742 21.8846 12.4468C22.1327 12.1987 22.5819 12.1987 22.8366 12.4468ZM16.3266 10.9115V8.22968C16.3266 7.85959 16.6263 7.55923 16.9971 7.55923C17.3678 7.55923 17.6675 7.85959 17.6675 8.22968V10.9115C17.6675 11.2815 17.3678 11.5819 16.9971 11.5819C16.6263 11.5819 16.3266 11.2815 16.3266 10.9115ZM16.521 13.3988C16.3997 13.2714 16.3266 13.1038 16.3266 12.9228C16.3266 12.7485 16.3997 12.5742 16.521 12.4468C16.7691 12.2054 17.2183 12.1987 17.4731 12.4468C17.5937 12.5742 17.6675 12.7485 17.6675 12.9228C17.6675 13.0971 17.5937 13.2714 17.4731 13.3988C17.3457 13.5195 17.1714 13.5932 16.9971 13.5932C16.8154 13.5932 16.6478 13.5195 16.521 13.3988Z" fill="white"/>
</svg>
