<?xml version="1.0" encoding="utf-8"?>
<!-- Generator: Adobe Illustrator 21.1.0, SVG Export Plug-In . SVG Version: 6.00 Build 0)  -->
<svg version="1.1"
	 id="svg11285" inkscape:version="0.92.1 " sodipodi:docname="eshop cross.svg" xmlns:cc="http://creativecommons.org/ns#" xmlns:dc="http://purl.org/dc/elements/1.1/" xmlns:inkscape="http://www.inkscape.org/namespaces/inkscape" xmlns:rdf="http://www.w3.org/1999/02/22-rdf-syntax-ns#" xmlns:sodipodi="http://sodipodi.sourceforge.net/DTD/sodipodi-0.dtd" xmlns:svg="http://www.w3.org/2000/svg"
	 xmlns="http://www.w3.org/2000/svg" xmlns:xlink="http://www.w3.org/1999/xlink" x="0px" y="0px" viewBox="0 0 150 150"
	 style="enable-background:new 0 0 150 150;" xml:space="preserve">
<style type="text/css">
	.st0{opacity:0.99;fill:#FFFFFF;enable-background:new    ;}
</style>
<sodipodi:namedview  bordercolor="#666666" borderopacity="1.0" id="base" inkscape:current-layer="layer1" inkscape:cx="55.395022" inkscape:cy="63.192604" inkscape:document-units="mm" inkscape:pageopacity="0.0" inkscape:pageshadow="2" inkscape:window-height="1001" inkscape:window-maximized="1" inkscape:window-width="1920" inkscape:window-x="-9" inkscape:window-y="-9" inkscape:zoom="3.959798" pagecolor="#ffffff" showgrid="false" units="px">
	</sodipodi:namedview>
<g id="layer1" transform="translate(0,-257.31248)" inkscape:groupmode="layer" inkscape:label="Layer 1">
	<g id="g13653">
		<path id="path10744-4-6" class="st0" d="M75.3,257.6c-41.1,0-74.5,33.4-74.5,74.5s33.4,74.5,74.5,74.5s74.5-33.4,74.5-74.5
			S116.4,257.6,75.3,257.6z M75.3,262.8c38.3,0,69.2,31,69.2,69.2s-31,69.3-69.2,69.3S6,370.3,6,332.1S37,262.8,75.3,262.8z
			 M46.8,301c-1.5,0-2.6,1.2-2.6,2.6c0,0.7,0.3,1.4,0.8,1.9L71.5,332L45,358.6c-1,1-1.1,2.7-0.1,3.7s2.7,1.1,3.7,0.1
			c0,0,0,0,0.1-0.1l26.5-26.5l26.5,26.5c1,1,2.7,1.1,3.7,0.1s1.1-2.7,0.1-3.7c0,0,0,0-0.1-0.1L79,332.1l26.5-26.5
			c1-1,1.1-2.7,0.1-3.7c-0.5-0.5-1.2-0.8-2-0.8c-0.7,0-1.3,0.3-1.8,0.8l-26.5,26.5l-26.5-26.5C48.2,301.3,47.6,301,46.8,301z"/>
	</g>
</g>
</svg>
