<?xml version="1.0" encoding="utf-8"?>
<!-- Generator: Adobe Illustrator 23.1.1, SVG Export Plug-In . SVG Version: 6.00 Build 0)  -->
<svg version="1.1" id="Layer_1" xmlns="http://www.w3.org/2000/svg" xmlns:xlink="http://www.w3.org/1999/xlink" x="0px" y="0px"
	 viewBox="0 0 100 100" style="enable-background:new 0 0 100 100;" xml:space="preserve">
<style type="text/css">
	.st0{display:none;}
	.st1{display:inline;}
</style>
<path class="st0" d="M73,76.8c-0.6-0.6-1.4-1.1-2.4-1.2c0.2-0.6,0.4-1.2,0.4-1.8c0-1.2-0.4-2.2-1.3-3.1c-0.9-0.9-1.8-1.4-2.8-1.6
	c0.2-0.5,0.3-1.1,0.3-1.7c0-1.2-0.5-2.3-1.4-3.3c-0.6-0.5-1.1-0.9-1.8-1.2c0.7-0.7,1.4-1.3,2-1.9c1-1,1.3-2.2,0.8-3.5
	c-0.7-2.3-3.5-4.1-5.1-4.4c-2.9-0.5-7.5,1.5-9.9,3.3l-9.8-36.5l5.4,1.2c0.5,0.1,1-0.1,1.3-0.5c0.3-0.4,0.4-0.9,0.2-1.4l-3-6.4
	l3.6-6.1c0.3-0.4,0.2-1,0-1.4c-0.3-0.4-0.8-0.7-1.2-0.6l-7,0.8l-4.7-5.3c-0.3-0.4-0.8-0.5-1.3-0.4c-0.5,0.1-0.8,0.5-1,1L33.1,8
	l-6.5,2.8c-0.5,0.2-0.8,0.6-0.8,1.1c0,0.5,0.2,1,0.7,1.2l6.1,3.5l0.7,7c0,0.5,0.4,0.9,0.8,1.1c0.2,0.1,0.3,0.1,0.5,0.1
	c0.3,0,0.6-0.1,0.9-0.4l4.1-3.8l8.8,33c-1.6-0.8-3.9-0.7-6.2,2.1c-3,3.7-7.3,17-7.6,20.2c-0.2,2.3-1.7,5.7-2.8,6.9
	c-0.2,0.3-0.4,0.6-0.4,1s0.2,0.7,0.5,0.9l17.1,15c0.2,0.2,0.6,0.3,0.9,0.3c0.4,0,0.7-0.2,1-0.4c1.7-1.8,4.3-3.3,7.3-5.1
	c0.3-0.2,0.7-0.4,1.1-0.6l1.4,5.1c0.2,0.6,0.7,1,1.3,1c0.1,0,0.2,0,0.3-0.1c0.7-0.2,1.1-0.9,0.9-1.6l-1.6-5.8
	c2.5-1.5,5.1-3.3,7.5-5.6c2.6-2.5,5-5,5-7.5C74.1,78.5,73.7,77.6,73,76.8z M35.3,15.6c0-0.4-0.3-0.8-0.7-1l-4.4-2.5l4.7-2
	c0.4-0.2,0.7-0.5,0.8-0.9l1-5L40,8c0.3,0.3,0.7,0.5,1.1,0.4l5-0.6l-2.6,4.4c-0.2,0.4-0.2,0.8-0.1,1.2l2.1,4.6l-5-1.1c0,0,0,0,0,0
	c-0.1,0-0.2,0-0.2,0c0,0,0,0-0.1,0c-0.1,0-0.2,0-0.3,0c-0.1,0-0.2,0.1-0.3,0.1c0,0,0,0-0.1,0c-0.1,0-0.1,0.1-0.2,0.1c0,0,0,0,0,0
	l-3.7,3.5L35.3,15.6z M51,63c-0.8,0.7-1.9,1.3-3.1,1.7c0.4-0.8,1-2.2,2.1-4c0.1-0.2,0.2-0.3,0.2-0.5L51,63z M67.3,85.1
	c-3.2,3.1-7,5.3-10.4,7.2c-2.7,1.5-5.2,2.9-7.1,4.7L34.6,83.5c1.3-2,2.5-5.2,2.7-7.4c0.3-2.8,4.4-15.5,7-18.8
	c1.1-1.4,2.3-1.8,3.1-1.3c0.8,0.5,1.1,1.9,0.3,3.3c-3.4,5.7-3.1,6.9-2.6,7.7c0.4,0.6,1.1,0.8,1.8,0.6c3.4-0.7,6.7-2.9,8.8-5.9
	c0.4-0.6,0.3-1.4-0.3-1.8c-0.6-0.4-1.4-0.3-1.8,0.3c-0.1,0.2-0.3,0.4-0.5,0.7l-0.5-1.7c0.1-0.1,0.2-0.1,0.3-0.2
	c1.5-1.5,6.1-3.7,8.4-3.3c0.8,0.1,2.6,1.4,3,2.6c0.1,0.4,0.1,0.6-0.2,0.9c-1.3,1.3-3.2,3.1-4.8,4.5c-2.8,2.5-2.8,2.5-2.8,3.2
	c0,0.4,0.1,0.7,0.4,1c0.2,0.2,0.6,0.4,1,0.4c0.6,0,0.9-0.3,1.3-0.7c0.5-0.6,2-2.1,3.3-2.1c0.5,0,1,0.2,1.4,0.7
	c0.6,0.6,0.7,1.1,0.7,1.4c0,1-0.9,2.2-1.8,3.1c-0.3,0.3-0.5,0.5-0.8,0.8c-0.1,0.1-0.2,0.1-0.2,0.2c-0.7,0.6-1,0.9-1,1.6
	c0,0.4,0.1,0.7,0.4,1c0.3,0.3,0.6,0.4,1,0.4c0.6,0,1-0.4,1.3-0.9c0.1-0.1,0.2-0.3,0.4-0.4c0.2-0.2,0.5-0.4,0.7-0.7
	c0.4-0.4,0.9-0.7,1.5-0.7c0.5,0,1.1,0.3,1.7,0.9c0.5,0.5,0.6,0.9,0.6,1.2c0,1.6-2.3,3.5-3.1,4.3c-0.6,0.5-0.9,0.8-1,1.4
	c0,0.4,0.1,0.7,0.4,1c0.4,0.4,1.1,0.7,2.1-0.2c2.7-2.5,3.7-2.1,4.3-1.5c0.3,0.3,0.4,0.6,0.4,0.8C71.5,81,68.8,83.7,67.3,85.1z"/>
<path class="st0" d="M69.5,77.5c-0.6-0.6-1.3-1-2.3-1.1c0.2-0.6,0.4-1.2,0.4-1.8c0-1.1-0.4-2.2-1.3-3.1c-0.8-0.8-1.8-1.3-2.7-1.5
	c0.2-0.5,0.3-1.1,0.3-1.6c0-1.2-0.5-2.2-1.4-3.2c-0.5-0.5-1.1-0.9-1.7-1.1c0.7-0.7,1.4-1.3,2-1.9c1-1,1.4-2.3,1.1-3.8
	c-0.4-2.3-2.4-4.4-4-5.1c-1.7-0.8-5.1-0.4-7.2,0.1l-0.9-3.6c0,0,0-0.1,0-0.1c0,0,0-0.1,0-0.1L40.3,2.9c-0.2-1-0.9-1.8-1.7-2.3
	s-1.9-0.7-2.9-0.4l-0.3,0.1c-1,0.2-1.8,0.9-2.3,1.7c-0.5,0.9-0.7,1.9-0.4,2.9l12.3,49.9c-1.5-0.3-3.3,0.2-5.1,2.3
	c-2.9,3.6-7.1,16.5-7.4,19.5c-0.2,2.2-1.6,5.6-2.7,6.7c-0.2,0.2-0.4,0.6-0.4,0.9c0,0.3,0.2,0.7,0.4,0.9l16.6,14.6
	c0.2,0.2,0.5,0.3,0.8,0.3c0.3,0,0.7-0.1,0.9-0.4c1.6-1.8,4.2-3.2,7.1-4.9c3.4-1.9,7.2-4.1,10.6-7.3c2.5-2.5,4.8-4.9,4.8-7.3
	C70.6,79.1,70.3,78.2,69.5,77.5z M49.5,62.7l-2.6-10.5l2.7-0.7l2.2,8.7c0,0,0,0.1,0,0.1C51.1,61.2,50.3,62,49.5,62.7z M35.2,3.2
	c0.2-0.3,0.5-0.5,0.8-0.6l0.3-0.1c0.3-0.1,0.7,0,1,0.2s0.5,0.5,0.6,0.8L49,49l-2.7,0.7L35.1,4.2C35,3.9,35.1,3.5,35.2,3.2z
	 M47.3,64.5c-0.7,0.5-1.3,0.9-2,1.2c0.3-0.7,0.8-1.7,1.6-3L47.3,64.5z M64,85.5c-3.1,3-6.8,5.1-10,6.9c-2.6,1.5-5,2.8-6.9,4.5
	L32.4,84c1.3-2,2.4-5.1,2.6-7.2c0.3-2.7,4.3-15.1,6.8-18.2c1.1-1.3,2.2-1.8,3-1.2c0.8,0.5,1.1,1.9,0.3,3.2c-3.3,5.5-3,6.7-2.5,7.4
	c0.4,0.5,1,0.8,1.7,0.6c4-0.8,7.8-4.8,10.7-8.1c0.5-0.5,0.4-1.3-0.1-1.8c-0.3-0.2-0.7-0.3-1-0.3l-0.6-2.6c1.8-0.4,4.6-0.7,5.6-0.2
	c1,0.4,2.3,1.9,2.5,3.3c0.2,0.8-0.2,1.3-0.4,1.5c-1.3,1.3-3.1,3-4.6,4.3c-2.7,2.5-2.7,2.5-2.7,3.1c0,0.3,0.1,0.7,0.4,0.9
	c0.2,0.2,0.6,0.4,0.9,0.4c0.6,0,0.9-0.3,1.2-0.7c0.5-0.6,1.9-2.1,3.2-2.1c0,0,0,0,0,0c0.5,0,0.9,0.2,1.4,0.7c0.6,0.6,0.6,1,0.6,1.3
	c0,1-0.9,2.1-1.7,3c-0.3,0.2-0.5,0.5-0.8,0.8c-0.1,0.1-0.1,0.1-0.2,0.2c-0.6,0.6-1,0.9-1,1.5c0,0.3,0.1,0.7,0.4,0.9
	c0.2,0.2,0.6,0.4,1,0.4c0.6,0,0.9-0.4,1.3-0.8c0.1-0.1,0.2-0.3,0.4-0.4c0.2-0.2,0.4-0.4,0.7-0.7c0.4-0.4,0.9-0.7,1.4-0.7
	c0.5,0,1.1,0.3,1.7,0.8c0.5,0.5,0.5,0.9,0.5,1.2c0,1.5-2.2,3.4-3,4.1c-0.6,0.5-0.9,0.8-0.9,1.4c0,0.3,0.1,0.7,0.4,0.9
	c0.4,0.4,1.1,0.7,2.1-0.2c2.6-2.4,3.6-2,4.1-1.5c0.3,0.3,0.3,0.6,0.3,0.8C68.1,81.6,65.4,84.2,64,85.5z"/>
<path class="st0" d="M72.2,79.6c-1.8-2.5-4.3-4.3-7.3-5.1l-1.3-5c0.7-0.6,1.3-1.1,2-1.8c2.8-2.7,5.3-5.4,5.3-8c0-1.1-0.4-2-1.2-2.8
	c-0.6-0.6-1.5-1.2-2.5-1.3c0.3-0.6,0.4-1.3,0.5-2c0-1.2-0.5-2.4-1.4-3.4c-0.9-0.9-1.9-1.5-3-1.7c0.2-0.6,0.3-1.2,0.4-1.8
	c0-1.3-0.5-2.5-1.5-3.5c-0.7-0.7-1.4-1.1-2.2-1.3c1.4-1.3,2.7-2.6,3.6-3.6c0.7-0.7,1.4-1.9,0.9-3.8c-0.7-2.7-3.7-5.8-4.9-6.2
	c-1.2-0.4-4.9-0.4-7-0.2l-1.8-6.6c4.1-4.4,4.6-11.2,1.1-16.2c-2.8-4-7.5-6.1-12.3-5.4c-0.5,0.1-0.9,0.4-1.1,0.8
	c-0.2,0.4-0.2,1,0.1,1.4l3.8,5.4l-1.9,4.1L36,12.3l-3.8-5.4c-0.3-0.4-0.8-0.6-1.2-0.6c-0.5,0-0.9,0.3-1.1,0.8
	c-2.2,4.3-1.9,9.5,0.9,13.4c1.8,2.5,4.4,4.3,7.4,5.1l1.6,6.1c-1.5-0.2-3.2,0.4-4.7,2.6c-2.9,4.3-5.9,18.5-6.2,21.7
	c-0.3,2.4-1.8,6.1-3,7.4c-0.3,0.3-0.4,0.7-0.4,1c0,0.4,0.2,0.8,0.5,1l18.2,16c0.3,0.2,0.6,0.3,0.9,0.3c0.4,0,0.8-0.2,1-0.5
	c1.4-1.5,3.4-2.8,5.7-4.2l0.3,1.2C48,82.7,47.5,89.5,51,94.5c2.5,3.5,6.4,5.5,10.6,5.5c0.6,0,1.2,0,1.7-0.1c0.5-0.1,0.9-0.4,1.1-0.8
	c0.2-0.4,0.2-1-0.1-1.4l-3.8-5.4l1.9-4.1l4.5-0.4l3.8,5.4c0.3,0.4,0.8,0.6,1.2,0.6c0.5,0,0.9-0.3,1.2-0.8
	C75.3,88.8,75,83.6,72.2,79.6z M33,18.8c-1.7-2.4-2.2-5.4-1.5-8.2l2.8,3.9c0.3,0.4,0.8,0.6,1.3,0.6l6.1-0.5c0.5,0,0.9-0.4,1.2-0.8
	l2.6-5.6c0.2-0.4,0.2-1-0.1-1.4l-2.8-3.9c2.9,0.3,5.5,1.8,7.2,4.3c2.8,4.1,2.3,9.7-1.3,13.1c-0.4,0.4-0.5,0.9-0.4,1.4l4,15.1
	c-1.8,1.8-4.2,3.9-6.5,5.5l-4.9-18.4c-0.1-0.5-0.6-0.9-1.1-1C36.8,22.4,34.5,21,33,18.8z M42.9,43.8c-0.3,0.1-0.6,0.3-0.8,0.4
	c-0.1-0.6,0-1.7,0.2-2.8L42.9,43.8z M45,78.4L28.7,64.1c1.4-2.2,2.6-5.6,2.9-7.9c0.4-3.3,3.3-16.9,5.7-20.5c0.5-0.7,1.4-1.8,2.4-1.2
	c0.7,0.3,1.2,1.3,0.9,2c-0.9,2.3-2.2,8.1-0.6,10c0.5,0.6,1.2,0.8,1.9,0.7c4.6-1,12.2-8.5,14-10.5c0.5-0.6,0.4-1.5-0.2-2
	c-0.4-0.4-1-0.4-1.5-0.2l-0.9-3.4c1.7-0.1,4.6-0.1,5.3,0.1c0.7,0.4,2.9,2.7,3.1,4.4c0.1,0.5-0.1,0.7-0.2,0.9
	c-1.1,1.1-2.8,2.7-4.4,4.3c-4.9,4.8-4.9,4.8-4.9,5.5c0,0.4,0.2,0.7,0.4,1c0.3,0.3,0.7,0.4,1,0.4c0.6,0,1-0.4,1.3-0.8
	c0.6-0.6,2.1-2.3,3.5-2.3c0.5,0,1,0.2,1.5,0.7c0.6,0.6,0.7,1.1,0.7,1.5c0,1.1-1,2.3-1.9,3.3c-0.3,0.3-0.6,0.6-0.8,0.8
	c-0.1,0.1-0.2,0.2-0.2,0.2c-0.7,0.7-1.1,1-1.1,1.7c0,0.4,0.2,0.8,0.4,1c0.3,0.3,0.7,0.4,1.1,0.4c0.7,0,1-0.5,1.4-0.9
	c0.1-0.1,0.2-0.3,0.4-0.5c0.2-0.2,0.5-0.5,0.7-0.7c0.5-0.4,1-0.7,1.6-0.8c0.6,0,1.2,0.3,1.8,0.9c0.6,0.5,0.6,1,0.6,1.3
	c-0.1,1.7-2.4,3.8-3.3,4.6c-0.6,0.5-1,0.9-1,1.5c0,0.4,0.1,0.8,0.4,1c0.5,0.4,1.2,0.8,2.3-0.3c2.8-2.7,4-2.2,4.5-1.6
	c0.3,0.3,0.4,0.6,0.4,0.8c0,1.7-2.9,4.5-4.5,6c-3.4,3.3-7.5,5.6-11.1,7.7C49.7,75,47,76.6,45,78.4z M71.5,89.4l-2.8-3.9
	c-0.3-0.4-0.8-0.6-1.3-0.6l-6.1,0.5c-0.5,0-0.9,0.3-1.2,0.8l-2.6,5.6c-0.2,0.4-0.2,1,0.1,1.4l2.8,3.9c-2.9-0.3-5.5-1.8-7.2-4.3
	c-2.9-4.1-2.3-9.8,1.3-13.2c0.4-0.3,0.5-0.9,0.4-1.4l-0.7-2.7c2.2-1.2,4.5-2.6,6.8-4.2l1.2,4.7c0.1,0.5,0.6,0.9,1.1,1
	c2.6,0.5,4.9,2,6.4,4.1C71.6,83.7,72.2,86.6,71.5,89.4z"/>
<g class="st0">
	<path class="st1" d="M67.2,77.1c0.7-0.6,1.5-1.2,2.2-1.9c3.1-3,5.9-6,5.9-8.9c0-1.2-0.5-2.3-1.3-3.2c-0.7-0.7-1.6-1.3-2.8-1.4
		c0.3-0.7,0.5-1.4,0.5-2.2c0-1.4-0.5-2.7-1.6-3.7c-1-1-2.1-1.7-3.3-1.9c0.2-0.6,0.4-1.3,0.4-2c0-1.4-0.6-2.7-1.7-3.9
		c-0.7-0.7-1.5-1.2-2.4-1.5c1.5-1.5,3-2.9,4-4c0.7-0.8,1.5-2.1,1-4.2c-0.8-3-4.1-6.4-5.5-6.9c-1.3-0.4-5.4-0.5-7.7-0.2l-2-7.4
		c4.5-4.9,5.1-12.4,1.2-17.9c-3.1-4.4-8.3-6.7-13.7-6c-0.5,0.1-1,0.4-1.2,0.9s-0.2,1.1,0.2,1.5l4.2,6l-2.1,4.5l-5,0.4l-4.2-6
		c-0.3-0.4-0.8-0.7-1.4-0.7c-0.5,0-1,0.3-1.3,0.8c-2.5,4.8-2.1,10.5,1,14.9c2,2.8,4.8,4.8,8.1,5.6l1.8,6.8c-1.6-0.2-3.6,0.5-5.2,2.9
		c-3.2,4.8-6.5,20.5-6.9,24.1c-0.3,2.7-2,6.8-3.3,8.2c-0.3,0.3-0.5,0.7-0.5,1.2c0,0.4,0.2,0.8,0.5,1.1l20.2,17.8
		c0.3,0.3,0.7,0.4,1,0.4c0.4,0,0.8-0.2,1.2-0.5c1.5-1.7,3.8-3.1,6.4-4.7l2.4,9.1c0.9,3.3,3.9,5.5,7.1,5.5c0.6,0,1.3-0.1,1.9-0.2
		c1.9-0.5,3.5-1.7,4.5-3.4s1.2-3.7,0.7-5.6L67.2,77.1z M33.2,20.8c-1.9-2.7-2.5-6-1.7-9.1l3.1,4.4c0.3,0.5,0.8,0.7,1.4,0.7l6.8-0.6
		c0.5,0,1-0.4,1.3-0.9l2.9-6.2C47.1,8.6,47,8,46.7,7.5l-3.1-4.4c3.2,0.3,6.1,2,8,4.7c3.2,4.5,2.5,10.8-1.5,14.6
		c-0.4,0.4-0.6,1-0.4,1.5l4.5,16.8c-2,2-4.7,4.4-7.2,6.1l-5.4-20.4c-0.2-0.6-0.6-1-1.2-1.1C37.4,24.9,34.9,23.2,33.2,20.8z
		 M44.2,48.6c-0.3,0.2-0.6,0.3-0.9,0.4c-0.1-0.7,0-1.8,0.2-3.2L44.2,48.6z M46.5,86.9l-18-15.9c1.6-2.4,2.9-6.2,3.2-8.7
		c0.4-3.7,3.7-18.7,6.3-22.7c0.5-0.8,1.5-2,2.7-1.4c0.7,0.4,1.3,1.4,1,2.2c-1,2.6-2.5,9-0.7,11.1c0.5,0.6,1.3,0.9,2.1,0.7
		c5.1-1.1,13.5-9.4,15.5-11.7c0.6-0.7,0.5-1.6-0.2-2.2c-0.5-0.4-1.2-0.5-1.7-0.2l-1-3.8c1.9-0.1,5.1-0.1,5.9,0.1
		c0.8,0.5,3.2,3,3.5,4.9c0.1,0.6-0.1,0.8-0.2,1c-1.2,1.2-3.1,3-4.9,4.8c-5.5,5.3-5.5,5.3-5.5,6.1c0,0.4,0.2,0.8,0.5,1.1
		c0.3,0.3,0.7,0.5,1.1,0.5c0.7,0,1.1-0.4,1.5-0.9c0.6-0.7,2.3-2.5,3.9-2.5c0.6,0,1.2,0.2,1.7,0.8c0.7,0.7,0.8,1.3,0.8,1.6
		c0,1.2-1.1,2.6-2.1,3.6c-0.3,0.3-0.7,0.6-0.9,0.9c-0.1,0.1-0.2,0.2-0.2,0.2c-0.8,0.7-1.2,1.1-1.2,1.9c0,0.4,0.2,0.8,0.5,1.2
		c0.3,0.3,0.8,0.5,1.2,0.5c0.8,0,1.1-0.5,1.6-1c0.1-0.2,0.3-0.3,0.5-0.5c0.2-0.2,0.5-0.5,0.8-0.8c0.5-0.4,1.1-0.8,1.7-0.8
		c0.6,0,1.3,0.3,2,1c0.6,0.6,0.7,1.1,0.7,1.4c-0.1,1.9-2.7,4.2-3.7,5.1c-0.7,0.6-1.1,1-1.1,1.7c0,0.4,0.2,0.9,0.5,1.2
		c0.5,0.5,1.3,0.8,2.5-0.3c3.2-3,4.4-2.4,5-1.8c0.4,0.4,0.4,0.7,0.4,0.9c0,1.8-3.2,5-5,6.7c-3.8,3.7-8.3,6.2-12.3,8.5
		C51.7,83.2,48.8,84.9,46.5,86.9z M67.4,94.8c-0.6,1-1.5,1.7-2.6,2c-1.1,0.3-2.2,0.1-3.2-0.4s-1.7-1.5-2-2.6l-2.7-9.9
		c2.4-1.4,5-2.9,7.6-4.7l3.3,12.4C68.1,92.6,67.9,93.8,67.4,94.8z"/>
	<path class="st1" d="M63.7,89.9c-1.5,0-2.7,1.2-2.7,2.7s1.2,2.7,2.7,2.7s2.7-1.2,2.7-2.7S65.2,89.9,63.7,89.9z M63.7,93.8
		c-0.6,0-1.2-0.5-1.2-1.2c0-0.6,0.5-1.2,1.2-1.2c0.6,0,1.2,0.5,1.2,1.2C64.8,93.3,64.3,93.8,63.7,93.8z"/>
</g>
<g class="st0">
	<path class="st1" d="M71.8,83.5c-1.1-3-3.3-5.4-6.2-6.9V23.1c5.3-2.9,7.8-9.4,5.7-15.1c-1.6-4.4-5.4-7.4-10-8.1
		c-0.5-0.1-0.9,0.1-1.2,0.5c-0.3,0.4-0.4,0.9-0.2,1.3l2.2,6l-2.8,3.3L55,10.3l-2.2-6c-0.2-0.4-0.5-0.8-1-0.9
		c-0.5-0.1-0.9,0.1-1.2,0.4c-3.1,3.4-4.1,8.3-2.5,12.6c1.1,3,3.3,5.5,6.2,6.9v53.4c-5.3,2.9-7.8,9.3-5.7,15.1
		c1.6,4.4,5.4,7.4,10,8.1c0.1,0,0.1,0,0.2,0c0.4,0,0.8-0.2,1-0.5c0.3-0.4,0.4-0.9,0.2-1.3l-2.2-6l2.8-3.3l4.2,0.8l2.2,6
		c0.2,0.4,0.5,0.8,1,0.9c0.5,0.1,0.9-0.1,1.2-0.4C72.5,92.7,73.4,87.8,71.8,83.5z M68.7,92.3L67.2,88c-0.2-0.4-0.6-0.8-1-0.9l-5.8-1
		c-0.5-0.1-1,0.1-1.3,0.5l-3.8,4.5c-0.3,0.4-0.4,0.9-0.2,1.3l1.6,4.3c-2.6-1-4.6-3.1-5.6-5.7c-1.7-4.7,0.5-10.1,5.1-12.2
		c0.5-0.2,0.8-0.7,0.8-1.2V22.5c0-0.5-0.3-1-0.8-1.2c-2.6-1-4.6-3.1-5.5-5.7c-1-2.7-0.7-5.6,0.6-8l1.6,4.3c0.2,0.4,0.6,0.8,1,0.9
		l5.8,1c0.5,0.1,1-0.1,1.3-0.5l3.8-4.5C64.9,8.5,65,8,64.9,7.6l-1.6-4.3c2.6,1,4.6,3.1,5.6,5.7c1.7,4.7-0.5,10-5.1,12.1
		c-0.5,0.2-0.8,0.7-0.8,1.2v55.2c0,0.6,0.3,1,0.8,1.2c2.5,1,4.5,3.1,5.5,5.7l0,0C70.3,87,70,89.9,68.7,92.3z"/>
	<path class="st1" d="M32.8,71v17.1c0,0.6,0.5,1,1,1c0.6,0,1-0.4,1-1V71c0-0.6-0.5-1-1-1S32.8,70.5,32.8,71z"/>
	<path class="st1" d="M38.8,44.7h-3.7V9c0.3,0,0.7-0.2,0.9-0.4c0.2-0.3,0.4-0.6,0.4-1L36,1.3C36,0.6,35.4,0,34.7,0h-1.8
		c-0.7,0-1.3,0.6-1.3,1.3l-0.4,6.3c0,0.4,0.1,0.7,0.4,1C31.7,8.8,32.1,9,32.4,9v35.7h-3.7c-0.7,0-1.3,0.6-1.3,1.3v6
		c0,0.7,0.1,1.3,0.4,2l0.5,1.3c0.6,1.5,0.6,7,0,8.5L27.8,65c-0.3,0.6-0.4,1.3-0.4,2v26.6c0,3.5,2.9,6.4,6.4,6.4s6.4-2.9,6.4-6.4V67
		c0-0.7-0.1-1.3-0.4-2l-0.5-1.3c-0.6-1.5-0.6-7,0-8.5l0.5-1.3c0.3-0.6,0.4-1.3,0.4-2V46C40.2,45.3,39.5,44.7,38.8,44.7z M37.5,52
		c0,0.3-0.1,0.6-0.2,0.9l-0.5,1.3c-0.9,2.2-0.9,8.4,0,10.6l0.5,1.3c0.1,0.3,0.2,0.6,0.2,0.9v26.6c0,2-1.7,3.7-3.7,3.7
		c-2,0-3.7-1.7-3.7-3.7V67c0-0.3,0.1-0.6,0.2-0.9l0.5-1.3c0.9-2.2,0.9-8.4,0-10.6L30.3,53c-0.1-0.3-0.2-0.6-0.2-0.9v-4.7h7.4V52z"/>
	<path class="st1" d="M31.4,93.6c0,1.3,1,2.3,2.3,2.3s2.3-1.1,2.3-2.3c0-1.3-1-2.3-2.3-2.3S31.4,92.3,31.4,93.6z M34.8,93.6
		c0,0.6-0.5,1-1,1c-0.5,0-1-0.4-1-1c0-0.6,0.5-1,1-1C34.3,92.6,34.8,93.1,34.8,93.6z"/>
</g>
<path class="st0" d="M83,39L65.9,4.8c-0.2-0.4-0.6-0.8-1-0.9L53.3,0.1C52.9-0.1,52.4,0,52,0.2L17.8,17.3c-0.9,0.4-1.2,1.5-0.8,2.4
	l10,20c-0.6,0.6-1.3,1.2-1.9,2c-4.2,5.6-4.8,26.7-4.4,30.2c0.3,3.1-0.6,8.1-1.8,10c-0.3,0.4-0.4,0.9-0.2,1.4
	c0.1,0.5,0.4,0.9,0.9,1.1l26.9,15.3c0.3,0.2,0.6,0.2,0.9,0.2c0.6,0,1.2-0.3,1.5-0.9c1.7-2.9,4.8-5.6,8.4-8.8
	c4.1-3.6,8.7-7.7,12.4-13.1c2.8-4.1,5.2-8.1,4.6-11.4c-0.3-1.3-1.1-2.5-2.2-3.2c-0.9-0.6-2.1-1.1-3.5-0.9c0.2-0.8,0.2-1.7,0.1-2.6
	c-0.3-1.6-1.2-2.9-2.6-3.8c-1.4-0.9-2.8-1.3-4.1-1.3c0.1-0.8,0.1-1.6,0-2.3c0,0,0-0.1,0-0.1l20.4-10.2C83.1,40.9,83.4,39.8,83,39z
	 M41.7,9.3l3.6,7.2c0.2,0.3,0.4,0.6,0.8,0.7c0.1,0,0.3,0.1,0.4,0.1c0.2,0,0.4,0,0.6-0.1l4.3-2.1c0.3-0.2,0.6-0.4,0.7-0.8
	c0.1-0.3,0.1-0.7-0.1-1L48.4,6l2.3-1.2L56,15.5L35.4,25.9L30,15.2L41.7,9.3z M46,7.2l3,6l-1.9,0.9l-3-6L46,7.2z M64,58.4
	c0.8,0.5,1,1.1,1.1,1.5c0.4,2.1-2,5.3-3,6.6c-0.6,0.8-1,1.4-0.9,2.2c0.1,0.5,0.4,0.9,0.8,1.2c0.7,0.4,1.7,0.6,2.8-0.9
	c2.8-4.1,4.4-3.8,5.3-3.2c0.5,0.3,0.6,0.7,0.7,0.9c0.4,2.1-2.5,6.3-4.1,8.6c-3.4,5.1-7.9,9-11.8,12.4c-3.1,2.7-6.1,5.3-8.2,8.2
	l-24-13.6c1.2-3.1,1.8-7.7,1.5-10.6c-0.4-4.1,0.5-23.5,3.7-27.8c0.2-0.3,0.5-0.6,0.7-0.8l2.6,5.1c-1.5,3.7-1.5,7.6,0.1,9.5
	c0.6,0.7,1.4,1.1,2.2,1.1c0.2,0,0.4,0,0.6-0.1c3.8-0.9,11.7-13.7,13-16.2c0.5-0.9,0.1-2-0.8-2.4c-0.9-0.5-2-0.1-2.4,0.8
	c-0.5,0.9-1.1,1.9-1.7,3c-1.3-0.9-2.1-2.5-1.8-3.3c0.8-1.8,7-4.4,8.6-4.2c1.2,0.2,5,3.5,4.7,5c-0.3,2.2-3.7,7.3-5.1,9.5
	c-1.2,1.9-2.1,3.2-0.5,4.2c0.4,0.3,0.9,0.3,1.4,0.2c0.8-0.2,1.1-0.7,1.5-1.3c0.6-0.9,2.1-3.4,3.8-3.8c0.7-0.2,1.3,0,2.1,0.5
	c1,0.6,1.2,1.2,1.2,1.6c0.3,1.4-0.6,3.2-1.5,4.6c-0.3,0.4-0.6,0.8-0.8,1.2c-0.1,0.1-0.2,0.2-0.2,0.3c-0.7,1-1.1,1.5-0.9,2.4
	c0.1,0.5,0.4,0.9,0.8,1.2c0.4,0.3,1,0.4,1.4,0.2c0.8-0.2,1.2-0.8,1.5-1.5c0.1-0.2,0.2-0.4,0.4-0.7c0.2-0.3,0.5-0.7,0.7-1.1
	c0.5-0.6,1.1-1.2,1.8-1.3C62.2,57.5,63,57.7,64,58.4z M33.9,54.9c-0.1-0.4-0.2-1-0.2-1.7l0.6,1.3C34.2,54.6,34.1,54.8,33.9,54.9z
	 M59,47.8c-1.1-0.7-2.3-1.1-3.4-1.1c0.1-0.2,0.2-0.5,0.4-0.7l13.6-6.8c0.7-0.3,0.9-1.1,0.6-1.8s-1.1-0.9-1.8-0.6l-11,5.5
	c0-0.1,0-0.1,0-0.2c0.2-1.1-0.1-2.2-0.7-3.4l10-5c0.7-0.3,0.9-1.1,0.6-1.8s-1.1-0.9-1.8-0.6l-10.4,5.2c-1.2-1.3-2.7-2.5-4-3.1
	l15.4-7.7l7.8,15.7l-14.4,7.2C59.7,48.2,59.3,48,59,47.8z M76.7,40.1l-8.4-16.9c-0.3-0.7-1.1-0.9-1.8-0.6L34.8,38.5
	c-0.3,0.2-0.6,0.4-0.7,0.8c-0.1,0.3-0.1,0.7,0.1,1l4.5,9c-0.6,0.8-1.2,1.6-1.7,2.3L21,19.7l6.6-3.3l5.9,11.9
	c0.2,0.5,0.7,0.7,1.2,0.7c0.2,0,0.4,0,0.6-0.1l23-11.5c0.3-0.2,0.6-0.4,0.7-0.8c0.1-0.3,0.1-0.7-0.1-1L53.1,3.8L63,7.1L79,39
	L76.7,40.1z"/>
<path class="st0" d="M66.2,84.7c-0.4-0.4-0.9-0.7-1.6-0.8c0.2-0.4,0.3-0.8,0.3-1.2c0-0.8-0.3-1.5-0.9-2.1c-0.6-0.6-1.2-0.9-1.8-1
	c0.1-0.3,0.2-0.7,0.2-1.1c0-0.8-0.3-1.5-0.9-2.2c-0.4-0.4-0.8-0.6-1.2-0.8c0.5-0.4,0.9-0.9,1.3-1.3c0.7-0.7,1-1.8,0.8-3
	c-0.3-1.6-1.4-3.1-2.5-3.6c-1.3-0.6-3.1-0.3-4.3,0c-0.1,0-0.2-0.1-0.3-0.1l-0.9,0.1l-0.1-0.3l0.8-0.2c0.3-0.1,0.5-0.4,0.5-0.8
	l-0.7-2.5c0-0.2-0.2-0.3-0.3-0.4c-0.2-0.1-0.3-0.1-0.5-0.1l-0.4,0.1l-17.6-63C36,0.1,35.6-0.1,35.3,0l-1.7,0.5
	c-0.3,0.1-0.6,0.4-0.5,0.8l16.3,63.4L49,64.8c-0.2,0-0.3,0.2-0.4,0.3c-0.1,0.2-0.1,0.3-0.1,0.5l0.7,2.5c0,0.2,0.2,0.3,0.3,0.4
	c0.2,0.1,0.3,0.1,0.5,0.1l0.7-0.2l0.1,0.3L50,69.1c-0.1,0.1-0.2,0.2-0.3,0.3c-1-0.3-2.4-0.1-3.7,1.5c-2,2.4-4.8,11.2-5,13.3
	c-0.2,1.5-1.1,3.8-1.8,4.5c-0.2,0.2-0.3,0.4-0.2,0.6s0.1,0.5,0.3,0.6l11.2,9.9c0.2,0.1,0.4,0.2,0.6,0.2c0.2,0,0.5-0.1,0.6-0.3
	c1.1-1.2,2.8-2.2,4.8-3.3c2.3-1.3,4.9-2.8,7.2-5c1.7-1.7,3.3-3.3,3.3-4.9C66.9,85.8,66.7,85.2,66.2,84.7z M51.8,64
	C51.8,64,51.8,64,51.8,64c-1.1-0.7-1.5-2-0.9-3.1c0.2-0.3,0.3-0.6,0.3-1l1.1,3.9L51.8,64z M50.2,60.4c-0.2,0.3-0.3,0.7-0.3,1
	l-1.2-4.7c0.2,0.2,0.5,0.4,0.7,0.6C50.5,58,50.8,59.3,50.2,60.4z M36.6,7.2c0.1,0.5,0,1-0.3,1.4c0,0,0,0,0,0l-0.8-3.1
	c0.4,0.2,0.7,0.6,0.9,1L36.6,7.2z M47.3,45.4l1.2,4.2c-0.2-0.2-0.4-0.3-0.6-0.5c-1.1-0.6-1.4-2-0.8-3.1
	C47.1,45.8,47.2,45.6,47.3,45.4z M45.2,38.2l1.1,4c-0.2-0.1-0.3-0.3-0.5-0.4c-1.1-0.6-1.4-2-0.8-3.1C45.1,38.5,45.2,38.3,45.2,38.2z
	 M43.2,30.9l1,3.8c-0.1-0.1-0.2-0.2-0.4-0.3c-1.1-0.6-1.4-2-0.8-3.1C43.1,31.1,43.2,31,43.2,30.9z M41.2,23.6l1,3.6
	C42.1,27.1,42,27,41.9,27c-1.1-0.6-1.4-2-0.8-3.1C41.1,23.8,41.2,23.7,41.2,23.6z M39.2,16.3l0.9,3.4c-0.1,0-0.1-0.1-0.2-0.1
	c-1.1-0.6-1.4-2-0.8-3.1C39.1,16.4,39.1,16.4,39.2,16.3z M37.1,9l0.9,3.2c0,0,0,0-0.1-0.1C36.9,11.5,36.5,10.1,37.1,9
	C37.1,9,37.1,9,37.1,9z M37.5,12.9c1.1,0.6,1.4,2,0.8,3.1c0,0,0,0.1-0.1,0.1L37.5,12.9C37.4,12.9,37.5,12.9,37.5,12.9z M39.5,20.3
	c1.1,0.6,1.4,2,0.8,3.1c0,0.1-0.1,0.2-0.1,0.2l-0.9-3.5C39.3,20.2,39.4,20.3,39.5,20.3z M41.5,27.7c1.1,0.6,1.4,2,0.8,3.1
	c-0.1,0.1-0.1,0.2-0.2,0.4l-1-3.7C41.3,27.6,41.4,27.6,41.5,27.7z M43.4,35.1c1.1,0.6,1.4,2,0.8,3.1c-0.1,0.2-0.2,0.3-0.2,0.5
	l-1-3.9C43.2,34.9,43.3,35,43.4,35.1z M45.4,42.5c1.1,0.6,1.4,2,0.8,3.1c-0.1,0.2-0.2,0.4-0.3,0.7l-1.1-4.2
	C45.1,42.3,45.2,42.4,45.4,42.5z M47.4,49.9c1.1,0.6,1.4,2,0.8,3.1c-0.2,0.3-0.2,0.5-0.3,0.8l-1.1-4.4C47,49.6,47.2,49.8,47.4,49.9z
	 M49.8,56.6c-1.1-0.6-1.4-2-0.8-3.1c0.1-0.2,0.2-0.5,0.3-0.8l1.3,4.5C50.3,57,50.1,56.7,49.8,56.6z M35.9,4.7
	c-0.4-0.2-0.6-0.5-0.8-0.9l-0.3-1c0-0.4,0.1-0.8,0.2-1.1L35.9,4.7z M50.5,64c0.1,0.1,0.2,0.2,0.3,0.3l-0.2,0.1L50.5,64z M50.3,67.1
	l-0.3-1.3l0.5-0.1l3-0.8l0,0l0.4-0.1l0.3,1.3l-0.8,0.2c-0.3,0.1-0.5,0.4-0.5,0.8l0.4,1.4c0.1,0.3,0.4,0.5,0.7,0.5l0.3,0
	c-0.1,0.3,0,0.6,0.2,0.8l0.4,0.3l-0.2,0.4c-0.2,0.3,0,0.7,0.2,0.8l0.4,0.3L55.1,72c-0.1,0.1-0.1,0.2-0.1,0.3
	c-0.6,0.7-1.4,1.5-2.1,2.2c0-0.1-0.1-0.2-0.2-0.2L52.3,74l0.2-0.4c0.2-0.3,0-0.7-0.2-0.8l-0.4-0.3l0.2-0.4c0.2-0.3,0-0.7-0.2-0.8
	L51.5,71l0.2-0.4c0.1-0.3,0.1-0.6-0.2-0.8l0.3-0.2c0.3-0.1,0.4-0.4,0.3-0.7l-0.4-1.4c0-0.2-0.2-0.3-0.3-0.4
	c-0.2-0.1-0.3-0.1-0.5-0.1L50.3,67.1z M50.9,74.5c0,0.1,0.1,0.2,0.2,0.3l0.4,0.3l-0.2,0.4c0,0.1-0.1,0.2-0.1,0.3
	c-0.5,0.4-1.1,0.7-1.6,0.9C49.9,76.2,50.3,75.5,50.9,74.5z M62.4,90.2c-2.1,2.1-4.6,3.5-6.8,4.7c-1.7,1-3.4,1.9-4.7,3.1l-10-8.8
	c0.9-1.3,1.6-3.4,1.8-4.8c0.2-1.8,2.9-10.2,4.6-12.4c0.7-0.9,1.5-1.2,2-0.8c0.5,0.4,0.7,1.3,0.2,2.2c-2.2,3.7-2,4.6-1.7,5.1
	c0.3,0.4,0.7,0.5,1.2,0.4c2.7-0.6,6.6-3.9,8.4-6.7c0.3-0.4,0.2-0.9-0.2-1.2c-0.2-0.2-0.6-0.2-0.8-0.1l-0.3-0.2l0.2-0.4
	c0.1-0.3,0.1-0.6-0.2-0.8c1-0.3,2.3-0.4,3-0.1c0.5,0.2,1.3,1.3,1.5,2.4c0.1,0.5,0.1,1.1-0.3,1.5c-0.9,0.9-2.1,2-3.1,2.9
	c-1.8,1.7-1.8,1.7-1.8,2.1c0,0.2,0.1,0.5,0.3,0.6c0.2,0.2,0.4,0.3,0.6,0.2c0.4,0,0.6-0.2,0.8-0.5c0.4-0.4,1.3-1.4,2.2-1.4
	c0.3,0,0.6,0.1,0.9,0.4c0.4,0.4,0.4,0.7,0.4,0.9c0,0.7-0.6,1.4-1.2,2c-0.2,0.2-0.4,0.3-0.5,0.5c0,0.1-0.1,0.1-0.1,0.1
	c-0.4,0.4-0.7,0.6-0.7,1c0,0.2,0.1,0.5,0.3,0.6s0.4,0.3,0.7,0.2c0.4,0,0.6-0.3,0.9-0.6c0.1-0.1,0.2-0.2,0.2-0.3
	c0.1-0.1,0.3-0.3,0.5-0.4c0.3-0.2,0.6-0.4,1-0.5c0.3,0,0.7,0.2,1.1,0.6c0.3,0.3,0.4,0.6,0.4,0.8c0,1-1.5,2.3-2,2.8
	c-0.4,0.3-0.6,0.6-0.6,0.9c0,0.2,0.1,0.5,0.3,0.6c0.3,0.3,0.7,0.5,1.4-0.2c1.8-1.6,2.4-1.3,2.8-1c0.2,0.2,0.2,0.4,0.2,0.5
	C65.2,87.5,63.4,89.2,62.4,90.2z"/>
<g class="st0">
	<path class="st1" d="M90.9,69.5c-3.7-1.7-7.9-1.9-11.7-0.6L56.4,46l32.4-32.4c0.3,0.3,0.7,0.5,1.2,0.5c0,0,0,0,0.1,0
		c0.5,0,0.9-0.2,1.2-0.6l5.3-6c0.6-0.7,0.6-1.7-0.1-2.3l-1.6-1.7c-0.6-0.6-1.7-0.7-2.3-0.1l-6,5.3c-0.3,0.3-0.6,0.8-0.6,1.2
		c0,0.4,0.2,0.9,0.5,1.2L54,43.6l-23-23c2.2-7.4-1.4-15.4-8.5-18.7C17.1-0.6,10.9,0.1,6.2,3.7c-0.5,0.4-0.7,1-0.7,1.5
		c0.1,0.6,0.4,1.1,1,1.4l7.3,3.4l0.5,5.5l-4.5,3.2l-7.3-3.4c-0.5-0.2-1.2-0.2-1.7,0.1S0,16.3,0,16.9C0.2,22.8,3.7,28,9.1,30.5
		c3.7,1.7,7.9,1.9,11.8,0.6l18.7,18.7l-0.5,1.2c-0.8,1.9-4,5.2-5.9,5.9l-1.6,0.7c-0.8,0.3-1.5,0.8-2.1,1.4l-24,24
		c-3.2,3.2-3.2,8.3,0,11.5c1.6,1.6,3.7,2.4,5.7,2.4s4.2-0.8,5.8-2.4l24-24c0.6-0.6,1.1-1.3,1.4-2.1l0.6-1.6c0.8-1.9,4-5.2,5.9-5.9
		l1.2-0.5l18.9,18.9c-2.2,7.4,1.4,15.5,8.5,18.8c2.1,1,4.4,1.5,6.7,1.5c3.4,0,6.8-1.1,9.6-3.3c0.5-0.4,0.7-0.9,0.7-1.5
		c-0.1-0.6-0.4-1.1-1-1.4L86.2,90l-0.5-5.5l4.5-3.2l7.3,3.4c0.5,0.2,1.2,0.2,1.7-0.1c0.5-0.3,0.8-0.9,0.8-1.5
		C99.8,77.2,96.3,72,90.9,69.5z M20.7,27.6c-3.2,1.4-6.9,1.3-10.1-0.1c-3.3-1.5-5.7-4.4-6.6-7.7l5.3,2.5c0.6,0.3,1.2,0.2,1.7-0.1
		l6.1-4.3c0.5-0.4,0.8-0.9,0.7-1.5l-0.6-7.5c0-0.6-0.4-1.1-1-1.4l-5.3-2.5C14.1,3.5,17.8,3.5,21,5c5.8,2.7,8.6,9.5,6.4,15.5
		c-0.2,0.6-0.1,1.3,0.4,1.8l23.8,23.8l-1.6,1.6l-3.3-3.3c-0.7-0.7-1.8-0.7-2.4,0L41.5,47l-19-19C22,27.5,21.3,27.3,20.7,27.6z
		 M39.8,65.5l-0.7,1.6c-0.2,0.4-0.4,0.7-0.7,1l-24,24c-1.8,1.8-4.8,1.8-6.7,0s-1.8-4.8,0-6.7l24-24c0.3-0.3,0.6-0.5,1-0.7l1.6-0.7
		c2.8-1.1,6.7-5.1,7.8-7.8l0.7-1.6c0.2-0.4,0.4-0.7,0.7-1l1.7-1.7l6.7,6.7l-1.7,1.7c-0.3,0.3-0.6,0.5-1,0.7l-1.6,0.7
		C44.9,58.8,40.9,62.7,39.8,65.5z M90.8,77.8c-0.6-0.3-1.2-0.2-1.7,0.2l-6.1,4.3c-0.5,0.3-0.8,0.9-0.7,1.6l0.7,7.5
		c0.1,0.6,0.4,1.1,1,1.4l5.3,2.5C86,96.5,82.3,96.5,79,95c-5.8-2.7-8.6-9.6-6.3-15.6c0.2-0.6,0.1-1.3-0.4-1.8L53,58.5l2.6-2.6
		c0.7-0.7,0.7-1.8,0-2.4l-3.3-3.3l1.6-1.6L77.5,72c0.5,0.5,1.2,0.6,1.9,0.4c3.2-1.4,6.9-1.3,10.1,0.2c3.3,1.5,5.7,4.3,6.6,7.7
		L90.8,77.8z"/>
	<path class="st1" d="M30.7,67.5L15.3,82.9c-0.5,0.5-0.5,1.3,0,1.8c0.2,0.2,0.6,0.4,0.9,0.4c0.3,0,0.7-0.1,0.9-0.4l15.4-15.4
		c0.5-0.5,0.5-1.3,0-1.8C32,67,31.2,67,30.7,67.5z"/>
	<path class="st1" d="M9,86.7c-0.6,0.6-0.9,1.3-0.9,2.1s0.3,1.6,0.9,2.1c0.6,0.6,1.3,0.9,2.1,0.9s1.6-0.3,2.1-0.9
		c0.6-0.6,0.9-1.3,0.9-2.1s-0.3-1.6-0.9-2.1C12.1,85.5,10.2,85.5,9,86.7z M12.1,89.7c-0.5,0.5-1.3,0.5-1.8,0
		c-0.2-0.2-0.4-0.6-0.4-0.9s0.1-0.7,0.4-0.9c0.2-0.2,0.6-0.4,0.9-0.4c0.3,0,0.7,0.1,0.9,0.4c0.2,0.2,0.4,0.6,0.4,0.9
		S12.3,89.5,12.1,89.7z"/>
</g>
<g class="st0">
	<path class="st1" d="M83.5,28.3L71.7,16.5c-0.4-0.4-0.9-0.6-1.4-0.6H17.9c-1.1,0-2,0.9-2,2v64.2c0,1.1,0.9,2,2,2h64.2
		c1.1,0,2-0.9,2-2V29.7C84.1,29.1,83.9,28.6,83.5,28.3z M33.8,19.9h18.6v11.5c0,0.8,0.7,1.5,1.5,1.5h6.6c0.8,0,1.5-0.7,1.5-1.5V19.9
		h4.2v17.2H33.8V19.9z M55.4,19.9H59v10h-3.6V19.9z M72.8,80.1H27.2V55.2h45.6V80.1z M80.1,80.1h-4.3V53.7c0-0.8-0.7-1.5-1.5-1.5
		H25.7c-0.8,0-1.5,0.7-1.5,1.5v26.4h-4.3V19.9h10.9v18.7c0,0.8,0.7,1.5,1.5,1.5h35.3c0.8,0,1.5-0.7,1.5-1.5V19.9h0.3l10.6,10.6V80.1
		z"/>
	<path class="st1" d="M32.1,65.1h35.9c0.8,0,1.5-0.7,1.5-1.5s-0.7-1.5-1.5-1.5H32.1c-0.8,0-1.5,0.7-1.5,1.5S31.2,65.1,32.1,65.1z"/>
	<path class="st1" d="M32.1,73.6h35.9c0.8,0,1.5-0.7,1.5-1.5s-0.7-1.5-1.5-1.5H32.1c-0.8,0-1.5,0.7-1.5,1.5S31.2,73.6,32.1,73.6z"/>
</g>
<path class="st0" d="M94.7,57.6c-0.3-0.7-1-1.2-1.8-1.2h-9.9c-1-20.5-18.1-36.9-38.9-36.9C22.6,19.5,5.1,37,5.1,58.4
	c0,1.1,0.9,2,2,2s2-0.9,2-2c0-15.9,12.9-28.8,28.8-28.8c15.2,0,27.6,11.8,28.7,26.8h-9.7c-0.8,0-1.5,0.5-1.8,1.2
	c-0.3,0.7-0.2,1.6,0.3,2.2l18,20.1c0.4,0.4,0.9,0.7,1.5,0.7s1.1-0.2,1.5-0.7l18-20.1C94.9,59.2,95,58.3,94.7,57.6z M74.8,75.5
	L61.3,60.4h7.4c1.1,0,2-0.9,2-2c0-0.2,0-0.3-0.1-0.5c-0.2-17.9-14.8-32.3-32.7-32.3c-3.1,0-6,0.4-8.9,1.2c4.6-2.2,9.7-3.4,15-3.4
	C63.3,23.5,79,39.2,79,58.4c0,1.1,0.9,2,2,2h7.4L74.8,75.5z"/>
<g>
	<path d="M96.8,80.9c-1.7-3.2-2.5-7.5-3.4-12.5c-1.1-5.7-2.2-12.2-5.2-18.5c-2.2-4.8-4.5-9.2-7.9-10.4c-1.4-0.5-2.8-0.4-4.2,0.3
		c-1.1,0.5-2.1,1.4-2.8,2.7c-0.7-0.6-1.4-1.1-2.3-1.5c-1.6-0.6-3.3-0.5-4.9,0.3c-1.6,0.8-2.8,1.8-3.5,3.1c-0.6-0.5-1.3-1-2.2-1.3
		c-1.7-0.6-3.4-0.5-5.2,0.4c-1.5,0.8-2.6,1.8-3.2,3.1c-3-5-6.4-11-7.7-13.6c-2.3-4.6-7-5.4-10.3-3.7c-3.3,1.6-5.4,5.6-3.2,10.2
		c2.1,4.4,5.2,9.1,8.1,13.7c3.4,5.3,7.1,11.2,8.2,14.8c-0.9-0.9-2.2-2.3-4.1-4.5c-3-3.6-7.3-3.6-9.8-1.8c-2.2,1.6-3.7,5.2-0.7,10
		c3.6,5.9,19.9,18.1,24,20c3,1.4,7.1,5,8.1,7.1c0.2,0.5,0.7,0.8,1.2,1c0.2,0.1,0.4,0.1,0.6,0.1c0.3,0,0.7-0.1,0.9-0.2l28.7-16.3
		C97,82.9,97.3,81.8,96.8,80.9z M67.1,95.6c-2.1-2.8-6-5.8-8.8-7.2C54.6,86.7,39,75,35.8,69.8c-1.3-2.2-1.5-4-0.3-4.9
		c0.4-0.3,0.9-0.4,1.5-0.4c1,0,2.2,0.5,3.1,1.6c5.5,6.6,7.5,7.6,9.2,7.2c0.9-0.2,1.6-1,1.8-2c0.9-4.1-2.9-10.3-9-20
		c-2.9-4.5-5.8-9.2-7.9-13.4c-1.3-2.6,0-4.3,1.5-5c1.7-0.8,4-0.6,5.2,2c1.5,3.1,5.8,10.5,7.1,12.7c5.7,9.7,5.8,9.7,6.6,10
		c0.5,0.2,1,0.1,1.5-0.1c0.5-0.2,0.8-0.6,1-1.1c0.3-0.8,0-1.4-0.4-2.1c-0.5-1-2-3.7-1.4-5.5c0.2-0.7,0.8-1.2,1.6-1.7
		c1.1-0.5,1.8-0.4,2.2-0.2c1.4,0.5,2.6,2.3,3.4,3.9c0.2,0.5,0.5,1,0.7,1.4c0.1,0.1,0.1,0.3,0.2,0.4c0.5,1.2,0.8,1.8,1.7,2.1
		c0.5,0.2,1.1,0.1,1.5-0.1c0.5-0.2,0.8-0.7,1-1.2c0.3-0.9-0.1-1.5-0.6-2.2c-0.1-0.2-0.3-0.5-0.4-0.7c-0.2-0.4-0.4-0.8-0.6-1.3
		c-0.3-0.8-0.5-1.6-0.3-2.3c0.2-0.7,0.9-1.4,2-1.9c0.9-0.5,1.5-0.3,1.9-0.2c2.1,0.8,3.8,4.8,4.4,6.3c0.4,1,0.7,1.7,1.5,2
		c0.5,0.2,1.1,0.2,1.5-0.1c0.8-0.4,1.5-1.2,0.7-3c-2.2-4.8-1.1-6-0.1-6.5c0.6-0.3,1-0.2,1.2-0.1c2.1,0.8,4.5,5.7,5.7,8.4
		c2.8,5.9,3.9,12.1,4.9,17.6c0.8,4.3,1.6,8.5,3,11.9L67.1,95.6z"/>
	<path d="M21.8,5.1c-0.5-0.9-1.7-1.2-2.6-0.7C18.3,4.9,18,6.1,18.5,7l7.6,13.2c0.4,0.6,1,1,1.6,1c0.3,0,0.6-0.1,1-0.3
		c0.9-0.5,1.2-1.7,0.7-2.6L21.8,5.1z"/>
	<path d="M4.2,26l14.3,5.2c0.2,0.1,0.4,0.1,0.6,0.1c0.8,0,1.5-0.5,1.8-1.2c0.4-1-0.1-2.1-1.1-2.4L5.5,22.4c-1-0.4-2.1,0.1-2.4,1.1
		S3.2,25.6,4.2,26z"/>
	<path d="M21,42.1c-0.4-1-1.5-1.5-2.4-1.1L4.2,46.2c-1,0.4-1.5,1.5-1.1,2.4c0.3,0.8,1,1.2,1.8,1.2c0.2,0,0.4,0,0.7-0.1l14.3-5.2
		C20.8,44.2,21.3,43.1,21,42.1z"/>
	<path d="M28.7,51.3c-0.9-0.5-2.1-0.2-2.6,0.7l-7.6,13.2c-0.5,0.9-0.2,2.1,0.7,2.6c0.3,0.2,0.6,0.2,1,0.2c0.7,0,1.3-0.3,1.6-0.9
		l7.6-13.2C29.9,53,29.6,51.8,28.7,51.3z"/>
	<path d="M55.1,36.1c0,1,0.8,1.9,1.9,1.9h15.2c1.1,0,1.9-0.8,1.9-1.9c0-1-0.8-1.9-1.9-1.9H57C55.9,34.2,55.1,35,55.1,36.1z"/>
	<path d="M52.4,25.5c0.4,0,0.9-0.1,1.2-0.5l11.7-9.8c0.8-0.7,0.9-1.9,0.2-2.7c-0.7-0.8-1.9-0.9-2.7-0.2l-11.7,9.8
		c-0.8,0.7-0.9,1.9-0.2,2.7C51.3,25.2,51.9,25.5,52.4,25.5z"/>
	<path d="M40.5,18.8c0.1,0,0.2,0,0.3,0c0.9,0,1.7-0.6,1.9-1.6l2.7-15c0.2-1-0.5-2-1.5-2.2c-1-0.2-2,0.5-2.2,1.5l-2.6,15
		C38.8,17.6,39.5,18.6,40.5,18.8z"/>
</g>
<g class="st0">
	<path class="st1" d="M98,80.8c-1.7-3.2-2.5-7.5-3.5-12.5c-1.1-5.7-2.3-12.2-5.2-18.6c-2.3-4.8-4.6-9.3-7.9-10.5
		c-1.4-0.5-2.8-0.4-4.2,0.3c-1.1,0.5-2.1,1.4-2.8,2.7c-0.7-0.6-1.5-1.1-2.3-1.5c-1.6-0.6-3.3-0.5-5,0.3c-1.6,0.8-2.8,1.8-3.5,3.1
		c-0.6-0.5-1.4-1-2.2-1.3c-1.7-0.6-3.4-0.5-5.2,0.4c-1.5,0.8-2.6,1.8-3.3,3.1c-3-5-6.4-11.1-7.7-13.7c-2.3-4.6-7.1-5.4-10.4-3.7
		c-3.3,1.6-5.5,5.6-3.2,10.2c2.2,4.4,5.2,9.2,8.1,13.8c3.4,5.4,7.1,11.3,8.3,14.9c-0.9-0.9-2.2-2.3-4.1-4.5c-3-3.6-7.3-3.6-9.8-1.8
		c-2.2,1.6-3.7,5.2-0.7,10c3.7,5.9,20,18.2,24.2,20.1c3,1.4,7.1,5,8.2,7.2c0.2,0.5,0.7,0.8,1.2,1c0.2,0.1,0.4,0.1,0.6,0.1
		c0.3,0,0.7-0.1,0.9-0.2l28.8-16.4C98.2,82.8,98.5,81.7,98,80.8z M68.1,95.5c-2.2-2.8-6-5.9-8.9-7.2c-3.7-1.7-19.3-13.5-22.5-18.7
		c-1.3-2.2-1.5-4.1-0.3-4.9c0.4-0.3,0.9-0.4,1.5-0.4c1,0,2.2,0.5,3.2,1.6c5.6,6.6,7.5,7.6,9.2,7.2c0.9-0.2,1.6-1,1.8-2
		C53,67,49.3,60.8,43.1,51c-2.9-4.5-5.9-9.3-7.9-13.5c-1.3-2.6,0-4.4,1.5-5.1c1.7-0.9,4-0.6,5.3,2c1.5,3.2,5.9,10.6,7.2,12.8
		c5.7,9.7,5.8,9.8,6.6,10c0.5,0.2,1,0.1,1.5-0.1c0.5-0.2,0.8-0.6,1-1.1c0.3-0.8,0-1.4-0.4-2.1c-0.5-1-2-3.8-1.4-5.6
		c0.2-0.7,0.8-1.2,1.6-1.7c1.1-0.5,1.8-0.4,2.2-0.2c1.4,0.5,2.6,2.3,3.4,3.9c0.2,0.5,0.5,1,0.7,1.4c0.1,0.1,0.1,0.3,0.2,0.4
		c0.5,1.2,0.8,1.8,1.7,2.2c0.5,0.2,1.1,0.1,1.5-0.1c0.5-0.2,0.9-0.7,1-1.2c0.3-0.9-0.1-1.5-0.6-2.2c-0.1-0.2-0.3-0.5-0.4-0.7
		c-0.2-0.4-0.4-0.8-0.6-1.3c-0.3-0.8-0.5-1.6-0.3-2.3c0.2-0.8,0.9-1.4,2-2c0.9-0.5,1.6-0.3,1.9-0.2c2.1,0.8,3.8,4.8,4.4,6.3
		c0.4,1,0.7,1.7,1.6,2c0.5,0.2,1.1,0.2,1.5-0.1c0.8-0.4,1.5-1.2,0.7-3.1c-2.2-4.9-1.1-6.1-0.1-6.6c0.6-0.3,1-0.2,1.3-0.1
		c2.2,0.8,4.5,5.8,5.7,8.5c2.8,5.9,3.9,12.2,4.9,17.7c0.8,4.4,1.6,8.5,3.1,12L68.1,95.5z"/>
	<path class="st1" d="M23.8,37.7c-0.3-3.9,1-7.7,3.6-10.7s6.2-4.8,10.1-5C45.1,21.5,52,27.1,53,34.8c0.1,0.8,0.8,1.3,1.6,1.2
		c0.8-0.1,1.3-0.8,1.2-1.6c-1.2-9.2-9.4-15.9-18.7-15.2c-4.7,0.3-9,2.5-12.1,6s-4.6,8.1-4.3,12.8c0.3,4.8,2.6,9.2,6.3,12.3
		c0.3,0.2,0.6,0.3,0.9,0.3c0.4,0,0.8-0.2,1.1-0.5c0.5-0.6,0.4-1.5-0.2-2C25.9,45.5,24,41.8,23.8,37.7z"/>
	<path class="st1" d="M15.2,38.3c-0.9-12.8,8.8-24,21.6-24.9c12.3-0.9,23.1,8,24.8,20.2c0.1,1,1.1,1.8,2.2,1.7
		c1.1-0.1,1.8-1.1,1.7-2.2C63.5,18.9,50.8,8.6,36.5,9.6c-7.2,0.5-13.8,3.8-18.6,9.3s-7.1,12.5-6.6,19.7c0.5,7.5,4,14.2,9.8,19
		c0.4,0.3,0.8,0.4,1.2,0.4c0.5,0,1.1-0.2,1.5-0.7c0.7-0.8,0.6-2-0.2-2.7C18.6,50.5,15.6,44.8,15.2,38.3z"/>
	<path class="st1" d="M6.6,38.9C5.4,21.4,18.7,6.1,36.2,4.9C53,3.7,67.9,15.8,70.1,32.5c0.2,1.3,1.4,2.2,2.7,2.1
		c1.3-0.2,2.2-1.4,2.1-2.7C72.3,12.7,55.2-1.3,35.9,0.1c-20.2,1.4-35.5,19-34,39.2C2.5,49.4,7.2,58.5,15,64.9c0.4,0.4,1,0.6,1.5,0.6
		c0.7,0,1.4-0.3,1.8-0.9c0.8-1,0.7-2.5-0.3-3.4C11.3,55.6,7.2,47.7,6.6,38.9z"/>
</g>
<g class="st0">
	<path class="st1" d="M94.4,68.3L46.3,37.1c-1-0.7-2.4-0.7-3.4,0c-1,0.7-1.5,1.9-1.2,3.1l12.2,57.3c0.3,1.2,1.2,2.1,2.4,2.4
		c0.2,0,0.4,0.1,0.6,0.1c1,0,2-0.5,2.5-1.4L67,86.9l6.8,9.8c0.5,0.7,1.2,1.2,2.1,1.3c0.8,0.1,1.7-0.1,2.3-0.6l8.3-6.7
		c1.2-1,1.5-2.8,0.6-4.1l-6.9-10l13.2-2.8c1.2-0.3,2.1-1.2,2.3-2.4C96,70.2,95.4,69,94.4,68.3z M73.8,74.1l9.7,14.1l-7.1,5.7
		l-9.5-13.8L57.2,95L45.8,41.3l45,29.2L73.8,74.1z"/>
	<path class="st1" d="M25.3,45.2c-0.2-1-1.3-1.7-2.3-1.4l-17.3,4c-1,0.2-1.7,1.3-1.4,2.3c0.2,0.9,1,1.5,1.9,1.5c0.1,0,0.3,0,0.4,0
		l17.3-4C24.9,47.3,25.5,46.3,25.3,45.2z"/>
	<path class="st1" d="M64.6,36.2c0.2,0.9,1,1.5,1.9,1.5c0.1,0,0.3,0,0.4,0l17.3-4c1-0.2,1.7-1.3,1.4-2.3c-0.2-1-1.3-1.7-2.3-1.4
		l-17.3,4C65,34.1,64.3,35.2,64.6,36.2z"/>
	<path class="st1" d="M34.2,57.8c-0.9-0.6-2.1-0.3-2.6,0.6l-9.4,15.1c-0.6,0.9-0.3,2.1,0.6,2.6c0.3,0.2,0.7,0.3,1,0.3
		c0.6,0,1.3-0.3,1.6-0.9l9.4-15.1C35.3,59.6,35,58.4,34.2,57.8z"/>
	<path class="st1" d="M55.5,23.6c0.3,0.2,0.7,0.3,1,0.3c0.6,0,1.3-0.3,1.6-0.9L67.6,8c0.6-0.9,0.3-2.1-0.6-2.6
		c-0.9-0.6-2.1-0.3-2.6,0.6L54.9,21C54.3,21.9,54.6,23.1,55.5,23.6z"/>
	<path class="st1" d="M10,21.2l15.1,9.4c0.3,0.2,0.7,0.3,1,0.3c0.6,0,1.3-0.3,1.6-0.9c0.6-0.9,0.3-2.1-0.6-2.6L12,18
		c-0.9-0.6-2.1-0.3-2.6,0.6C8.9,19.5,9.1,20.7,10,21.2z"/>
	<path class="st1" d="M41.7,18.8l-4-17.3c-0.2-1-1.3-1.7-2.3-1.4c-1,0.2-1.7,1.3-1.4,2.3l4,17.3c0.2,0.9,1,1.5,1.9,1.5
		c0.1,0,0.3,0,0.4,0C41.3,20.9,42,19.9,41.7,18.8z"/>
</g>
</svg>
