<?xml version="1.0" encoding="utf-8"?>
<!-- Generator: Adobe Illustrator 23.1.1, SVG Export Plug-In . SVG Version: 6.00 Build 0)  -->
<svg version="1.1" id="Layer_1" xmlns="http://www.w3.org/2000/svg" xmlns:xlink="http://www.w3.org/1999/xlink" x="0px" y="0px"
	 viewBox="0 0 22.8 20" style="enable-background:new 0 0 22.8 20;" xml:space="preserve">
<style type="text/css">
	.st0{fill:#B0AEAE;}
</style>
<title>ArrowLeft</title>
<path class="st0" d="M12.4,10l8.8-8.8c0.3-0.3,0.3-0.7,0-1c-0.3-0.3-0.7-0.3-1,0L11.4,9L2.6,0.2c-0.3-0.3-0.7-0.3-1,0
	c-0.3,0.3-0.3,0.7,0,1l8.8,8.8l-8.8,8.8c-0.3,0.3-0.3,0.7,0,1C1.7,19.9,1.9,20,2.1,20c0.2,0,0.4-0.1,0.5-0.2l8.8-8.8l8.8,8.8
	c0.1,0.1,0.3,0.2,0.5,0.2c0.2,0,0.4-0.1,0.5-0.2c0.3-0.3,0.3-0.7,0-1L12.4,10z"/>
</svg>
