<svg width="20" height="20" viewBox="0 0 20 20" fill="none" xmlns="http://www.w3.org/2000/svg">
<g clip-path="url(#clip0)">
<path d="M18.1207 5.02187L10.0299 13.4619L1.93919 5.02187C1.80486 4.88142 1.62277 4.80253 1.43292 4.80253C1.24307 4.80253 1.06098 4.88142 0.926654 5.02187C0.812954 5.16127 0.750488 5.33856 0.750488 5.52187C0.750488 5.70517 0.812954 5.88247 0.926654 6.02187L9.52367 15.0219C9.66033 15.1576 9.84154 15.2333 10.0299 15.2333C10.2183 15.2333 10.3995 15.1576 10.5362 15.0219L19.1332 6.02187C19.2674 5.88124 19.3427 5.69062 19.3427 5.49187C19.3427 5.29312 19.2674 5.10249 19.1332 4.96187C19.0636 4.89486 18.9819 4.84316 18.8928 4.80982C18.8038 4.77648 18.7093 4.76219 18.6148 4.76778C18.5204 4.77338 18.428 4.79875 18.3432 4.84239C18.2583 4.88604 18.1826 4.94707 18.1207 5.02187Z" fill="#BDBDBD"/>
</g>
<defs>
<clipPath id="clip0">
<path d="M0.477539 0H19.582V20H0.477539V0Z" fill="white"/>
</clipPath>
</defs>
</svg>
