<svg id="Layer_1" data-name="Layer 1" xmlns="http://www.w3.org/2000/svg" viewBox="0 0 96 96"><title>ConvertSubscription</title><path d="M28.2,62.71a2,2,0,0,0-.26-2.13L19,49.78a2.07,2.07,0,0,0-3.09,0L7.06,60.58A2,2,0,0,0,8.6,63.85h7.29a15.72,15.72,0,0,0,3.75,9.48c5.67,6.78,16.84,10.22,33.19,10.22a2,2,0,0,0,0-4c-18.72,0-26.67-4.73-30-8.7a11.61,11.61,0,0,1-2.9-7h6.5A2,2,0,0,0,28.2,62.71ZM12.84,59.85,17.5,54.2l4.66,5.65Z"/><path d="M43.17,11.87c13.23,0,22.89,3,27.93,8.58A14.91,14.91,0,0,1,75,29.27H68.59a2,2,0,0,0-1.54,3.27l8.89,10.8a2,2,0,0,0,3.09,0l8.9-10.8a2,2,0,0,0,.26-2.13,2,2,0,0,0-1.81-1.14H79a18.88,18.88,0,0,0-4.82-11.4c-5.89-6.63-16.31-10-31-10a2,2,0,0,0,0,4ZM77.49,38.92l-4.66-5.65h9.32Z"/><path d="M2.5,46.44h33a2,2,0,0,0,2-2V2.75a2,2,0,0,0-2-2H2.5a2,2,0,0,0-2,2V44.44A2,2,0,0,0,2.5,46.44ZM16.18,4.75h9.05L4.5,25.35V16.41a2.48,2.48,0,0,0,.3-.25L16.05,4.91A1,1,0,0,0,16.18,4.75ZM33.54,27.4a2,2,0,0,0-1,.52L18.14,42.37l-.06.07H8.22L33.54,17.11Zm-9.82,15,9.82-9.82v9.82Zm9.82-31-29,29V31L30.68,5a2.11,2.11,0,0,0,.19-.23h2.67Zm-23-6.71L4.5,10.81V4.75Z"/><path d="M93.5,49.56h-33a2,2,0,0,0-2,2V93.25a2,2,0,0,0,2,2h33a2,2,0,0,0,2-2V51.56A2,2,0,0,0,93.5,49.56Zm-2,41.69h-29V53.56h29Z"/><path d="M82,89.4h5.59a2,2,0,0,0,2-2V81.81a2,2,0,0,0-4,0V85.4H82a2,2,0,1,0,0,4Z"/></svg>