<svg width="32" height="32" viewBox="0 0 32 32" fill="none" xmlns="http://www.w3.org/2000/svg">
<path d="M16 0C7.16373 0 0 7.16373 0 16C0 24.8363 7.16373 32 16 32C24.8363 32 32 24.8363 32 16C32 7.16373 24.8363 0 16 0ZM14.1511 22.9063V15.5819C14.1511 15.0915 14.3459 14.6212 14.6926 14.2745C15.0394 13.9278 15.5096 13.733 16 13.733C16.4904 13.733 16.9606 13.9278 17.3074 14.2745C17.6541 14.6212 17.8489 15.0915 17.8489 15.5819V22.9063C17.8489 23.3967 17.6541 23.8669 17.3074 24.2137C16.9606 24.5604 16.4904 24.7552 16 24.7552C15.5096 24.7552 15.0394 24.5604 14.6926 24.2137C14.3459 23.8669 14.1511 23.3967 14.1511 22.9063ZM16 11.7156C15.5605 11.7156 15.1308 11.5852 14.7654 11.341C14.4 11.0969 14.1151 10.7498 13.9469 10.3437C13.7787 9.93768 13.7347 9.49087 13.8205 9.0598C13.9062 8.62873 14.1179 8.23277 14.4287 7.92199C14.7394 7.6112 15.1354 7.39956 15.5665 7.31381C15.9975 7.22807 16.4444 7.27207 16.8504 7.44027C17.2565 7.60846 17.6035 7.89329 17.8477 8.25873C18.0919 8.62418 18.2222 9.05382 18.2222 9.49333C18.2222 10.0827 17.9881 10.6479 17.5714 11.0647C17.1546 11.4814 16.5894 11.7156 16 11.7156Z" fill="#1C1C45"/>
</svg>
