<svg width="51" height="50" viewBox="0 0 51 50" fill="none" xmlns="http://www.w3.org/2000/svg">
<path d="M40.4694 24.0224L24.8206 39.5962C24.0388 40.3743 22.7712 40.3743 21.9894 39.5962C21.2076 38.8181 21.2076 37.5566 21.9894 36.7786L37.6382 21.2048H30.9362C29.8832 21.2048 29.0296 20.3553 29.0296 19.3073C29.0296 18.2593 29.8832 17.4098 30.9362 17.4098H42.3761C43.4291 17.4098 44.2827 18.2593 44.2827 19.3073V30.6923C44.2827 31.7402 43.4291 32.5898 42.3761 32.5898C41.3231 32.5898 40.4694 31.7402 40.4694 30.6923V24.0224ZM9.96318 25.9771L25.612 10.4034C26.3938 9.62531 27.6614 9.62531 28.4432 10.4034C29.225 11.1814 29.225 12.4429 28.4432 13.221L12.7944 28.7948H19.4964C20.5494 28.7948 21.403 29.6443 21.403 30.6923C21.403 31.7402 20.5494 32.5898 19.4964 32.5898H8.05654C7.00353 32.5898 6.1499 31.7402 6.1499 30.6923V19.3073C6.1499 18.2593 7.00353 17.4098 8.05654 17.4098C9.10955 17.4098 9.96318 18.2593 9.96318 19.3073V25.9771Z" fill="#F5F5F5"/>
</svg>
