<svg id="Layer_1" data-name="Layer 1" xmlns="http://www.w3.org/2000/svg" viewBox="0 0 100 100"><title>CreditCardCircle</title><path d="M72.77,49.32a3.35,3.35,0,0,0-2.35.94,3.39,3.39,0,0,0-2.32-.95h0A3.38,3.38,0,0,0,64.7,52.7a3.57,3.57,0,0,0,.37,1.55,3.38,3.38,0,0,0,5.35.9,3.43,3.43,0,0,0,2.33.94,3.38,3.38,0,0,0,3.39-3.38,3.36,3.36,0,0,0-3.37-3.39Z"/><path d="M38.59,64.54H41.9A2.26,2.26,0,0,0,44,62.18V61a2.26,2.26,0,0,0-2.13-2.36H38.59A2.33,2.33,0,0,0,36.36,61v1.18A2.33,2.33,0,0,0,38.59,64.54Z"/><path d="M42.85,67.49H38.13a1.18,1.18,0,0,0,0,2.36h4.72a1.18,1.18,0,0,0,0-2.36Z"/><path d="M52.87,67.49H48.16a1.18,1.18,0,0,0,0,2.36h4.71a1.18,1.18,0,0,0,0-2.36Z"/><path d="M62.31,67.49H57.59a1.18,1.18,0,1,0,0,2.36h4.72a1.18,1.18,0,0,0,0-2.36Z"/><path d="M72.33,67.49H67.62a1.18,1.18,0,0,0,0,2.36h4.71a1.18,1.18,0,0,0,0-2.36Z"/><path d="M61.77,31.46l-1.48-2.37A2.22,2.22,0,0,0,59.13,28l-.24,0a2.22,2.22,0,0,0-1.12.39l-35,21.84c-1.26.78-1.16,1.49-.52,2.5l1.43,2.31,2.79-1.73,5.78-3.57v-.41a4.32,4.32,0,0,1,1.08-3.18,4.13,4.13,0,0,1,3.05-1.1h3.44Z"/><polygon points="70.25 45.06 65.51 37.47 53.24 45.06 70.25 45.06"/><polygon points="27.4 61.05 32.22 68.78 32.22 58.06 31.29 58.65 27.4 61.05"/><path d="M50,2A48,48,0,1,0,98,50,48,48,0,0,0,50,2ZM80.58,71.16c0,.65,0,2.8-3,2.8H36.35a4.24,4.24,0,0,1-1.29-.19s0,.06,0,.09a1.18,1.18,0,0,1-1,.49,1.23,1.23,0,0,1-.49-.1,4.23,4.23,0,0,1-1.76-1.68L20.25,54.05c-2-3.28.19-5.16,1.24-5.81l35-21.84a4,4,0,0,1,3.14-.66,4.31,4.31,0,0,1,2.62,2.11l2,3.23a1.42,1.42,0,0,0,.12.13l2.47,4s0,.07,0,.1l6.42,10.3a1.15,1.15,0,0,1,.18.62h4.08a2.73,2.73,0,0,1,3,3.1Z"/></svg>