<svg id="Layer_1" data-name="Layer 1" xmlns="http://www.w3.org/2000/svg" viewBox="0 0 96 96"><title>CreditCard</title><path d="M9.18,89.19H76c2,0,6.69-.63,6.69-6.45V55.26l5-.74c2-.28,6.48-1.57,5.65-7.33l-5-35c-.79-5.41-4.68-6-6.31-6a8.69,8.69,0,0,0-1.33.1l-66.16,9.6A6.78,6.78,0,0,0,10,18.41a7,7,0,0,0-1,5.34L11.46,40.5H9.18a6.72,6.72,0,0,0-4.94,1.77A7.05,7.05,0,0,0,2.5,47.42V82.74C2.5,88.56,7.18,89.19,9.18,89.19ZM86.91,28.6l2.77,19.13c.21,1.43.17,2.64-2.46,3l-4.52.66v-4c0-4.34-2.5-6.92-6.69-6.92H15.3l-.25-1.72ZM13.07,20.7a3.11,3.11,0,0,1,2.12-1l66.13-9.6a5.54,5.54,0,0,1,.78-.06c1.26,0,2.17.46,2.51,2.72l.65,4.49L13.41,27.45l-.63-4.35A3.42,3.42,0,0,1,13.07,20.7ZM6.32,47.31A3.41,3.41,0,0,1,7,45a3.16,3.16,0,0,1,2.23-.64H76c2.09,0,2.87.84,2.87,3.1V82.74c0,1.44-.22,2.63-2.87,2.63H9.18c-2.64,0-2.86-1.19-2.86-2.63Z"/><path d="M44.51,79.64h7.64a1.91,1.91,0,0,0,0-3.82H44.51a1.91,1.91,0,1,0,0,3.82Z"/><path d="M13.74,71.05H19.1a3.65,3.65,0,0,0,3.45-3.82V65.32a4.2,4.2,0,0,0-.2-1.29A3.5,3.5,0,0,0,19.1,61.5H13.74a3.77,3.77,0,0,0-3.6,3.82v1.91A3.77,3.77,0,0,0,13.74,71.05Z"/><path d="M20.64,75.82H13a1.91,1.91,0,1,0,0,3.82h7.64a1.91,1.91,0,0,0,0-3.82Z"/><path d="M29.23,79.64h7.64a1.91,1.91,0,0,0,0-3.82H29.23a1.91,1.91,0,0,0,0,3.82Z"/><path d="M68.38,75.82H60.74a1.91,1.91,0,0,0,0,3.82h7.64a1.91,1.91,0,0,0,0-3.82Z"/><path d="M61.84,59.07a5.37,5.37,0,0,0,3.81-1.59,5.39,5.39,0,1,0,0-7.62,5.4,5.4,0,1,0-3.81,9.21Z"/></svg>