<svg id="Layer_1" data-name="Layer 1" xmlns="http://www.w3.org/2000/svg" viewBox="0 0 96 96"><title>CrossCircle</title><path d="M48,.68A47.32,47.32,0,1,0,95.32,48,47.38,47.38,0,0,0,48,.68Zm0,91A43.68,43.68,0,1,1,91.68,48,43.73,43.73,0,0,1,48,91.68Z"/><path d="M67.25,28.75a1.81,1.81,0,0,0-2.57,0L48,45.43,31.32,28.75a1.82,1.82,0,0,0-2.57,2.57L45.43,48,28.75,64.68a1.82,1.82,0,0,0,0,2.57,1.79,1.79,0,0,0,1.28.54,1.81,1.81,0,0,0,1.29-.54L48,50.57,64.68,67.25a1.81,1.81,0,0,0,1.29.54,1.79,1.79,0,0,0,1.28-.54,1.82,1.82,0,0,0,0-2.57L50.57,48,67.25,31.32A1.82,1.82,0,0,0,67.25,28.75Z"/></svg>