<svg width="76" height="76" viewBox="0 0 76 76" fill="none" xmlns="http://www.w3.org/2000/svg">
<path d="M38.0007 16.72C49.7414 16.72 59.2807 26.2593 59.2807 38C59.2807 49.7407 49.7414 59.28 38.0007 59.28C26.26 59.28 16.7207 49.7407 16.7207 38C16.7207 26.2593 26.26 16.72 38.0007 16.72ZM38.0007 19.3407C27.7276 19.3407 19.3414 27.7269 19.3414 38C19.3414 48.2731 27.7276 56.6593 38.0007 56.6593C48.2738 56.6593 56.66 48.2731 56.66 38C56.66 27.7269 48.2738 19.3407 38.0007 19.3407Z" fill="#005DAA" stroke="#005DAA"/>
<path d="M37.2091 42.7453C36.8896 42.7453 36.7298 42.5855 36.7298 42.266L36.4902 26.593C36.4902 26.2734 36.6499 26.1137 36.9694 26.1137H39.4139C39.7334 26.1137 39.8932 26.2734 39.8932 26.593L39.6056 42.266C39.6056 42.5855 39.4458 42.7453 39.1263 42.7453H37.2091ZM37.976 49.8868C37.2091 49.8868 36.57 49.6471 36.0588 49.1678C35.5795 48.6566 35.3398 48.0175 35.3398 47.2506C35.3398 46.4518 35.5795 45.8127 36.0588 45.3335C36.57 44.8222 37.2091 44.5666 37.976 44.5666C38.7748 44.5666 39.4139 44.8222 39.8932 45.3335C40.4044 45.8127 40.66 46.4518 40.66 47.2506C40.66 48.0175 40.4044 48.6566 39.8932 49.1678C39.4139 49.6471 38.7748 49.8868 37.976 49.8868Z" fill="#005DAA"/>
</svg>
