<svg width="81" height="81" viewBox="0 0 81 81" fill="none" xmlns="http://www.w3.org/2000/svg">
<path d="M27.4321 52.4551C26.6536 52.4551 26.0239 53.0849 26.0239 53.8633C26.0239 54.6416 26.6538 55.2736 27.4321 55.2736C28.2105 55.2736 28.8424 54.6418 28.8424 53.8633C28.8424 53.0848 28.2106 52.4551 27.4321 52.4551Z" fill="#005DAA"/>
<path d="M71.1306 41.1762L59.8131 29.9083L51.4773 29.901H51.3926V24.2629C51.3926 22.7061 50.1309 21.4434 48.5741 21.4434H17.5684C16.0115 21.4434 14.7499 22.7061 14.7499 24.2629H4.87979C4.10129 24.2631 3.46948 24.8938 3.46948 25.6723C3.46948 26.4508 4.10129 27.0816 4.87979 27.0816H14.7499L14.7477 32.7207H7.6983C6.9198 32.7207 6.2901 33.3505 6.2901 34.1289C6.2901 34.9073 6.9198 35.5392 7.6983 35.5392H14.7477V41.1783H10.5189C9.74042 41.1783 9.10861 41.8082 9.10861 42.5865C9.10861 43.3649 9.74042 43.9968 10.5189 43.9968H14.7477V49.6339H13.3374C12.5589 49.6339 11.9271 50.2658 11.9271 51.0442C11.9271 51.8225 12.5589 52.4545 13.3374 52.4545H14.7477C14.7477 54.0113 16.0094 55.273 17.5662 55.273H20.5272C21.1798 58.4901 24.023 60.9121 27.4321 60.9121C30.8431 60.9121 33.6865 58.4901 34.3391 55.273H48.5721H52.9474C53.6 58.4901 56.4432 60.9121 59.8523 60.9121C63.2634 60.9121 66.1067 58.4901 66.7593 55.273H71.1016L71.1306 41.1762ZM27.4321 58.0915C25.1008 58.0915 23.2054 56.1959 23.2054 53.8627C23.2054 51.5314 25.1009 49.6339 27.4321 49.6339C29.7653 49.6339 31.6609 51.5314 31.6609 53.8627C31.6609 56.1961 29.7653 58.0915 27.4321 58.0915ZM48.5721 52.4545H34.3391C33.6865 49.2374 30.8433 46.8153 27.4321 46.8153C24.023 46.8153 21.1798 49.2374 20.5272 52.4545H17.5662L17.5684 24.2631H48.5742L48.5721 52.4545ZM59.8523 58.0915C57.521 58.0915 55.6235 56.1959 55.6235 53.8627C55.6235 51.5314 57.521 49.6339 59.8523 49.6339C62.1856 49.6339 64.0811 51.5314 64.0811 53.8627C64.0811 56.1961 62.1856 58.0915 59.8523 58.0915ZM68.2893 52.4545H66.7593C66.1067 49.2374 63.2635 46.8153 59.8523 46.8153C56.4432 46.8153 53.6 49.2374 52.9474 52.4545H51.3906L51.3927 32.7207H51.4732L58.6486 32.7269L68.31 42.3471L68.2893 52.4545Z" fill="#005DAA"/>
<path d="M59.852 52.4551C59.0735 52.4551 58.4438 53.0849 58.4438 53.8633C58.4438 54.6416 59.0737 55.2736 59.852 55.2736C60.6304 55.2736 61.2624 54.6418 61.2624 53.8633C61.2624 53.0848 60.6305 52.4551 59.852 52.4551Z" fill="#005DAA"/>
</svg>
