<svg width="50" height="50" viewBox="0 0 50 50" fill="none" xmlns="http://www.w3.org/2000/svg">
<path d="M5.45656 35.4991H22.959L21.716 38.3341H19.6457C19.0287 38.3341 18.4371 38.5813 18.0008 39.0213C17.5646 39.4613 17.3195 40.058 17.3195 40.6803V42H33.6807V40.6803C33.6807 40.3722 33.6205 40.0671 33.5036 39.7824C33.3867 39.4978 33.2154 39.2391 32.9993 39.0213C32.7833 38.8034 32.5269 38.6306 32.2446 38.5127C31.9624 38.3948 31.6599 38.3341 31.3544 38.3341H29.2841L28.0412 35.4991H45.5437C45.6647 35.4991 45.7808 35.4506 45.8663 35.3643C45.9519 35.278 46 35.1609 46 35.0388L45.9999 8.4603C45.9999 8.39985 45.9881 8.34 45.9652 8.28415C45.9422 8.2283 45.9086 8.17755 45.8662 8.13481C45.8238 8.09207 45.7735 8.05816 45.7182 8.03503C45.6628 8.0119 45.6034 8 45.5435 8H5.45639C5.39645 8 5.3371 8.0119 5.28173 8.03503C5.22636 8.05816 5.17605 8.09207 5.13366 8.13481C5.09128 8.17755 5.05767 8.2283 5.03473 8.28415C5.0118 8.34 5 8.39985 5 8.4603L5.00011 35.0388C5.00013 35.1609 5.04823 35.278 5.13383 35.3643C5.21943 35.4506 5.33551 35.4991 5.45656 35.4991ZM6.82222 9.83784H44.1777V30.571H6.82222V9.83784Z" fill="black"/>
</svg>
