<svg id="Layer_1" data-name="Layer 1" xmlns="http://www.w3.org/2000/svg" viewBox="0 0 96 96"><title>DeviceAll</title><path d="M49.71,83.11H44.26a2,2,0,0,0,0,4h5.45a2,2,0,0,0,0-4Z"/><path d="M90.91,39.3V9.1s0-.06,0-.09,0-.06,0-.1V7.28c0-1,.08-3.4-1.44-5A4.18,4.18,0,0,0,86.41,1.1H6.2C2.74,1.1.5,3.59.5,7.45V62.93c0,3.2,1.85,6.64,5.9,6.64H28.68C28.22,71.13,27.34,73,25.77,73a2,2,0,1,0,0,4h8.77v9c0,3.62,2.1,5.86,5.48,5.86H54.26A4.73,4.73,0,0,0,59,88.57c.07,3.91,2.58,6.33,6.6,6.33H89.44c3.74,0,6.06-2.49,6.06-6.49v-43C95.5,42.07,93.77,39.85,90.91,39.3ZM63,85.23v-36H91.5v36Zm28.52-40H63c0-1.31.48-2.12,2.6-2.12H89.44C90.72,43.15,91.47,43.51,91.49,45.27ZM6.2,5.1H86.41a.67.67,0,0,1,.19,0c.06,0,.33.38.31,1.89H4.53C4.67,5.12,5.69,5.1,6.2,5.1ZM4.55,63.57h30v2H6.4C5.06,65.57,4.66,64.4,4.55,63.57ZM31.64,73a14.19,14.19,0,0,0,1.2-3.35l1.09,0L34.08,73Zm23.78,13c0,1.86-.67,1.86-1.16,1.86H40c-.66,0-1.48,0-1.48-1.86V49c0-1.38.46-1.61,1.48-1.61H54.26c.57,0,1.16,0,1.16,1.61ZM54.26,43.37H40c-3.38,0-5.48,2.15-5.48,5.61V59.57H4.5V11H86.91V39.15H65.57c-4.07,0-6.6,2.38-6.6,6.21v1.07A4.73,4.73,0,0,0,54.26,43.37ZM89.44,90.9H65.57c-1.55,0-2.31-.49-2.53-1.67h28.4A1.72,1.72,0,0,1,89.44,90.9Z"/></svg>