<svg id="Layer_1" data-name="Layer 1" xmlns="http://www.w3.org/2000/svg" viewBox="0 0 96 96"><title>DevicePhone</title><path d="M63.51.5H33.16C27.26.5,23.73,4,23.73,9.9V85.6c0,6.2,3.53,9.9,9.43,9.9H63.51c5.48,0,8.76-3.7,8.76-9.9V9.9C72.27,4,69,.5,63.51.5Zm-30.35,4H63.51c2,0,4.76.56,4.76,5.4v2.15H27.73V9.9C27.73,6.22,29.46,4.5,33.16,4.5ZM68.27,16.05V79H27.73V16.05ZM63.51,91.5H33.16c-1.34,0-5.43,0-5.43-5.9V83H68.27V85.6C68.27,91.5,64.69,91.5,63.51,91.5Z"/><path d="M47.74,10.77A2.58,2.58,0,1,0,45.16,8.2,2.57,2.57,0,0,0,47.74,10.77Zm0-4A1.43,1.43,0,1,1,46.31,8.2,1.43,1.43,0,0,1,47.74,6.77Z"/><path d="M53.81,85.72H42.19a2,2,0,0,0,0,4H53.81a2,2,0,0,0,0-4Z"/><path d="M64.76,83.94A2,2,0,0,0,63,86.09a1.28,1.28,0,0,1-.22.81,1.51,1.51,0,0,1-1.06.28,2,2,0,0,0,0,4,5.18,5.18,0,0,0,4-1.62,5.29,5.29,0,0,0,1.21-3.87A2,2,0,0,0,64.76,83.94Z"/></svg>