<svg id="Layer_1" data-name="Layer 1" xmlns="http://www.w3.org/2000/svg" viewBox="0 0 96 96"><title>DeviceTablet</title><path d="M69.8.5H27.17C20.78.5,17,4,17,9.9V85.6c0,6.2,3.82,9.9,10.21,9.9H69.8c5.79,0,9.24-3.7,9.24-9.9V9.9C79,4,75.59.5,69.8.5Zm-42.63,4H69.8C73.38,4.5,75,6.22,75,9.9v2.15H21V9.9C21,7.58,21.6,4.5,27.17,4.5ZM75,16.05V79H21V16.05ZM69.8,91.5H27.17C23,91.5,21,89.57,21,85.6V83H70.53a2,2,0,0,0-1.77,2.14,1.28,1.28,0,0,1-.22.81,1.51,1.51,0,0,1-1.06.28,2,2,0,0,0,0,4,5.18,5.18,0,0,0,4-1.62,5.29,5.29,0,0,0,1.21-3.87A2,2,0,0,0,71,83h4V85.6C75,91.5,71.1,91.5,69.8,91.5Z"/><polygon points="43.6 10.37 45.65 10.32 45.6 6.28 41.55 6.33 41.6 10.37 43.6 10.37"/><path d="M53.81,85.72H42.19a2,2,0,0,0,0,4H53.81a2,2,0,0,0,0-4Z"/><path d="M49.94,10.28h5.8a2,2,0,1,0,0-4h-5.8a2,2,0,0,0,0,4Z"/></svg>