<svg id="Layer_1" data-name="Layer 1" xmlns="http://www.w3.org/2000/svg" viewBox="0 0 96 96"><title>DeviceLaptop</title><path d="M88.34,66.33c-.07-.1-.14-.2-.21-.32a9.1,9.1,0,0,0-.95-1.3V19.31c0-5.55-2.8-8.86-7.5-8.86H15.47a7.4,7.4,0,0,0-7.09,4.1,11.12,11.12,0,0,0-1,4.76l0,45.54A8.7,8.7,0,0,0,6.22,66.5L1.15,75.23a8,8,0,0,0,.34,7c.86,1.51,2.67,3.3,6.4,3.3H88.62a6.4,6.4,0,0,0,6-3.44c1.21-2.38,1-5.69,0-7Zm-76.91-47a7.22,7.22,0,0,1,.55-3c.38-.79,1.16-1.84,3.49-1.84h64.2c1,0,3.5,0,3.5,4.86V62.5H82.13c-.35,0-.73,0-1.13,0H14.23c-.42,0-.82,0-1.2,0H11.41ZM91,80.55a2.44,2.44,0,0,1-2.33,1H7.89c-2.07,0-2.65-.85-2.84-1.13a4.52,4.52,0,0,1-.45-3.18l5.11-8.78c.43-.74,1-1.73,3.41-2H82a3,3,0,0,1,2.74,1.64c.13.19.24.38.36.54l6.27,8.62A4.54,4.54,0,0,1,91,80.55Z"/><path d="M83.31,73.35a2,2,0,0,0-.5,2.56,2,2,0,0,0-.2,4,8.34,8.34,0,0,0,.91.06,3.94,3.94,0,0,0,3.58-1.68c.74-1.3.4-2.84-1-4.6A2,2,0,0,0,83.31,73.35Z"/><path d="M53.39,75.52H42.61a2,2,0,0,0,0,4H53.39a2,2,0,0,0,0-4Z"/></svg>