<svg width="32" height="32" viewBox="0 0 32 32" fill="none" xmlns="http://www.w3.org/2000/svg">
<path d="M28.4436 11.5557H21.3325C20.861 11.5557 20.4088 11.743 20.0754 12.0764C19.742 12.4098 19.5547 12.8619 19.5547 13.3334V26.6668C19.5547 27.1383 19.742 27.5905 20.0754 27.9239C20.4088 28.2573 20.861 28.4446 21.3325 28.4446H28.4436C28.9151 28.4446 29.3673 28.2573 29.7007 27.9239C30.0341 27.5905 30.2214 27.1383 30.2214 26.6668V13.3334C30.2214 12.8619 30.0341 12.4098 29.7007 12.0764C29.3673 11.743 28.9151 11.5557 28.4436 11.5557ZM28.4436 13.3334V23.1112H21.3325V13.3334H28.4436ZM21.3325 26.6668V24.5334H28.4436V26.6668H21.3325Z" fill="black"/>
<path d="M17.7773 19.5557H3.55512V5.33344H24.8885V9.77789H26.6662V5.33344C26.6662 4.86195 26.4789 4.40976 26.1455 4.07636C25.8121 3.74297 25.3599 3.55566 24.8885 3.55566H3.55512C3.08363 3.55566 2.63144 3.74297 2.29804 4.07636C1.96464 4.40976 1.77734 4.86195 1.77734 5.33344V19.5557C1.77734 20.0272 1.96464 20.4793 2.29804 20.8127C2.63144 21.1461 3.08363 21.3334 3.55512 21.3334H17.7773V19.5557Z" fill="black"/>
<path d="M17.776 23.1113H7.99826C7.76252 23.1113 7.53642 23.205 7.36972 23.3717C7.20303 23.5384 7.10937 23.7645 7.10938 24.0002C7.10937 24.236 7.20303 24.4621 7.36972 24.6288C7.53642 24.7955 7.76252 24.8891 7.99826 24.8891H17.776V23.1113Z" fill="black"/>
</svg>
