<svg width="48" height="49" viewBox="0 0 48 49" fill="none" xmlns="http://www.w3.org/2000/svg">
<path d="M30.7958 8.18018H16.9807C15.5385 8.18018 14.3999 9.31878 14.3999 10.761V38.2393C14.3999 39.6436 15.5385 40.8202 16.9807 40.8202H30.7958C32.2001 40.8202 33.3767 39.6816 33.3767 38.2393V10.761C33.3767 9.31878 32.238 8.18018 30.7958 8.18018ZM31.8585 38.2393C31.8585 38.8086 31.3651 39.302 30.7958 39.302H16.9807C16.4114 39.302 15.918 38.8086 15.918 38.2393V10.761C15.918 10.1917 16.4114 9.69832 16.9807 9.69832H19.7134C19.7134 10.5333 20.3966 11.2165 21.2315 11.2165H26.545C27.38 11.2165 28.0632 10.5333 28.0632 9.69832H30.7958C31.3651 9.69832 31.8585 10.1917 31.8585 10.761V38.2393Z" fill="#005DAA" stroke="#005DAA" stroke-width="0.8"/>
</svg>
