<?xml version="1.0" encoding="utf-8"?>
<!-- Generator: Adobe Illustrator 23.1.1, SVG Export Plug-In . SVG Version: 6.00 Build 0)  -->
<svg version="1.1" id="Layer_1" xmlns="http://www.w3.org/2000/svg" xmlns:xlink="http://www.w3.org/1999/xlink" x="0px" y="0px"
	 viewBox="0 0 100 95.7" style="enable-background:new 0 0 100 95.7;" xml:space="preserve">
<g>
	<path d="M82.2,33.9c-1.9,0-3.6,0.8-4.7,2.2v-0.7c0-3.4-2.8-6.2-6.2-6.2c-1.9,0-3.6,0.8-4.7,2.2v-0.2c0-3.4-2.8-6.2-6.2-6.2
		c-1.9,0-3.6,0.8-4.7,2.2v-10c0-3.4-2.8-6.2-6.2-6.2c-3.4,0-6.2,2.8-6.2,6.2v28.8l-3.1-6.3c-1.5-3.1-5.2-4.4-8.3-2.9
		c-1.5,0.7-2.6,2-3.2,3.6c-0.5,1.6-0.4,3.3,0.3,4.8c0,0.1,4.8,9.2,6.6,13.7c0,0,0,0,0,0c0,0,0,0,0,0c0.8,1.8,1.5,3.4,2.1,4.8
		c4.6,10.6,5,11.4,15.5,22.3c0.1,0.2,0.3,0.2,0.5,0.2c0.2,0,0.4-0.1,0.5-0.2c0.3-0.3,0.3-0.8,0-1.1C44,74.2,43.7,73.6,39,63
		c-0.6-1.4-1.3-3-2.1-4.8c-1.9-4.7-6.5-13.5-6.7-13.8c-0.5-1.1-0.6-2.4-0.2-3.6c0.4-1.2,1.3-2.1,2.4-2.7c2.3-1.1,5.2-0.1,6.3,2.2
		l4.5,9.3c0.2,0.3,0.5,0.5,0.8,0.4c0.3-0.1,0.6-0.4,0.6-0.7V17.1c0-2.6,2.1-4.7,4.7-4.7c2.6,0,4.7,2.1,4.7,4.7v14
		c0,0.4,0.3,0.8,0.8,0.8c0.4,0,0.8-0.3,0.8-0.8c0-2.6,2.1-4.7,4.7-4.7c2.6,0,4.7,2.1,4.7,4.7v4.2c0,0.4,0.3,0.8,0.8,0.8
		c0.2,0,0.4-0.1,0.5-0.2c0.1-0.1,0.2-0.3,0.2-0.5c0-2.6,2.1-4.7,4.7-4.7c2.6,0,4.7,2.1,4.7,4.7v4.7c0,0.4,0.3,0.8,0.8,0.8
		s0.8-0.3,0.8-0.8c0-2.6,2.1-4.7,4.7-4.7c2.6,0,4.7,2.1,4.7,4.7v10.4c0,18.4-4.5,23.6-11.2,31.4c-0.8,1-1.7,2-2.6,3
		c-0.3,0.3-0.2,0.8,0.1,1.1c0.1,0.1,0.3,0.2,0.5,0.2c0.2,0,0.4-0.1,0.6-0.3c0.9-1.1,1.8-2.1,2.6-3c6.7-7.8,11.6-13.4,11.6-32.4V40.1
		C88.4,36.7,85.6,33.9,82.2,33.9z"/>
	<path d="M18.2,15.4c0.3-0.3,0.4-0.7,0.1-1.1c-0.3-0.3-0.7-0.4-1.1-0.1l-5.4,4.2c0,0,0,0,0,0c0,0,0,0-0.1,0.1c0,0,0,0,0,0
		c0,0,0,0.1-0.1,0.1c0,0,0,0,0,0.1c0,0,0,0,0,0c0,0.1-0.1,0.2-0.1,0.3l0,0l0,0l0,0l0,0c0,0.1,0,0.2,0.1,0.3c0,0,0,0,0,0
		c0,0,0,0,0,0.1c0,0,0,0.1,0.1,0.1c0,0,0,0,0,0c0,0,0,0,0.1,0.1c0,0,0,0,0,0l5.4,4.2c0.3,0.3,0.8,0.2,1.1-0.1
		c0.3-0.3,0.2-0.8-0.1-1.1l-3.7-2.8h19.6l-3.7,2.8c-0.2,0.1-0.3,0.4-0.3,0.6c0,0.2,0.1,0.3,0.2,0.5c0.3,0.3,0.7,0.4,1.1,0.1l5.4-4.2
		c0,0,0,0,0,0c0,0,0,0,0.1-0.1c0,0,0,0,0,0c0,0,0,0,0-0.1c0,0,0-0.1,0.1-0.1c0,0,0-0.1,0-0.1c0,0,0-0.1,0-0.1c0,0,0-0.1,0-0.1
		c0,0,0,0,0,0s0,0,0,0c0,0,0-0.1,0-0.1c0,0,0-0.1,0-0.1c0,0,0-0.1,0-0.1c0,0,0-0.1-0.1-0.1c0,0,0,0,0-0.1c0,0,0,0,0,0
		c0,0,0,0-0.1-0.1c0,0,0,0,0,0l-5.4-4.2c-0.3-0.3-0.8-0.2-1.1,0.1c-0.1,0.1-0.2,0.3-0.2,0.5c0,0.2,0.1,0.4,0.3,0.6l3.7,2.8H14.6
		L18.2,15.4z"/>
</g>
</svg>
