<svg width="51" height="51" viewBox="0 0 51 51" fill="none" xmlns="http://www.w3.org/2000/svg">
<path d="M36.5676 37.4417C36.5676 38.8398 35.427 39.9067 34.0657 39.9067H14.2717C12.8737 39.9067 11.7699 38.803 11.7699 37.4417V17.5741C11.7699 16.2128 12.9104 15.1091 14.2717 15.1091H24.3895L27.5904 11.9082H14.2717C11.1077 11.9082 8.53223 14.4468 8.53223 17.5741V37.4417C8.53223 40.6058 11.1077 43.1444 14.2717 43.1444H34.1025C37.2666 43.1444 39.842 40.6058 39.842 37.4417V24.0863L36.6411 27.2872V37.4417H36.5676Z" fill="#BDBDBD"/>
<path d="M42.7486 13.4178L38.26 8.96599C37.7817 8.48769 37.1194 8.19336 36.4572 8.19336C35.7581 8.19336 35.1327 8.4509 34.6544 8.92919L18.0981 25.4855C17.6566 25.927 17.399 26.5157 17.3622 27.1411L17.0679 31.8873C17.0311 32.6231 17.2887 33.3589 17.8037 33.874C18.282 34.3523 18.9443 34.6099 19.6065 34.6099C19.6433 34.6099 19.7169 34.6099 19.7537 34.6099L24.5366 34.3155C25.1621 34.2787 25.7508 34.0212 26.1923 33.5797L42.7118 17.0602C43.1901 16.5819 43.4476 15.9196 43.4476 15.2574C43.4844 14.5583 43.2269 13.8961 42.7486 13.4178ZM32.1893 15.9564L35.7581 19.5252L27.48 27.7666L23.9112 24.1978L32.1893 15.9564ZM24.0951 31.1514L20.3056 31.3722L20.5263 27.5826L21.5933 26.5157L25.1621 30.0845L24.0951 31.1514ZM38.0024 17.2073L34.4704 13.6753L36.4572 11.6886L40.026 15.2574L38.0024 17.2073Z" fill="#BDBDBD"/>
</svg>
