<svg width="50" height="51" viewBox="0 0 50 51" fill="none" xmlns="http://www.w3.org/2000/svg">
<path d="M35.5759 37.4417C35.5759 38.8398 34.4353 39.9067 33.074 39.9067H13.28C11.882 39.9067 10.7782 38.803 10.7782 37.4417V17.5741C10.7782 16.2128 11.9187 15.1091 13.28 15.1091H23.3978L26.5987 11.9082H13.28C10.116 11.9082 7.54053 14.4468 7.54053 17.5741V37.4417C7.54053 40.6058 10.116 43.1444 13.28 43.1444H33.1108C36.2749 43.1444 38.8503 40.6058 38.8503 37.4417V24.0863L35.6494 27.2872V37.4417H35.5759Z" fill="#333333"/>
<path d="M41.7569 13.4178L37.2683 8.96599C36.79 8.48769 36.1277 8.19336 35.4655 8.19336C34.7664 8.19336 34.141 8.4509 33.6627 8.92919L17.1064 25.4855C16.6649 25.927 16.4073 26.5157 16.3705 27.1411L16.0762 31.8873C16.0394 32.6231 16.297 33.3589 16.812 33.874C17.2903 34.3523 17.9526 34.6099 18.6148 34.6099C18.6516 34.6099 18.7252 34.6099 18.762 34.6099L23.5449 34.3155C24.1704 34.2787 24.7591 34.0212 25.2006 33.5797L41.7201 17.0602C42.1984 16.5819 42.4559 15.9196 42.4559 15.2574C42.4927 14.5583 42.2352 13.8961 41.7569 13.4178ZM31.1976 15.9564L34.7664 19.5252L26.4883 27.7666L22.9195 24.1978L31.1976 15.9564ZM23.1034 31.1514L19.3139 31.3722L19.5346 27.5826L20.6016 26.5157L24.1704 30.0845L23.1034 31.1514ZM37.0107 17.2073L33.4787 13.6753L35.4655 11.6886L39.0343 15.2574L37.0107 17.2073Z" fill="#333333"/>
</svg>
