<svg width="51" height="51" viewBox="0 0 51 51" fill="none" xmlns="http://www.w3.org/2000/svg">
<path d="M36.1222 37.4417C36.1222 38.8398 34.9817 39.9067 33.6204 39.9067H13.8264C12.4283 39.9067 11.3246 38.803 11.3246 37.4417V17.5741C11.3246 16.2128 12.4651 15.1091 13.8264 15.1091H23.9442L27.1451 11.9082H13.8264C10.6623 11.9082 8.08691 14.4468 8.08691 17.5741V37.4417C8.08691 40.6058 10.6623 43.1444 13.8264 43.1444H33.6572C36.8213 43.1444 39.3967 40.6058 39.3967 37.4417V24.0863L36.1958 27.2872V37.4417H36.1222Z" fill="#F5F5F5"/>
<path d="M42.3033 13.4178L37.8147 8.96599C37.3364 8.48769 36.6741 8.19336 36.0119 8.19336C35.3128 8.19336 34.6874 8.4509 34.2091 8.92919L17.6528 25.4855C17.2113 25.927 16.9537 26.5157 16.9169 27.1411L16.6226 31.8873C16.5858 32.6231 16.8433 33.3589 17.3584 33.874C17.8367 34.3523 18.499 34.6099 19.1612 34.6099C19.198 34.6099 19.2716 34.6099 19.3084 34.6099L24.0913 34.3155C24.7168 34.2787 25.3055 34.0212 25.747 33.5797L42.2665 17.0602C42.7448 16.5819 43.0023 15.9196 43.0023 15.2574C43.0391 14.5583 42.7816 13.8961 42.3033 13.4178ZM31.744 15.9564L35.3128 19.5252L27.0347 27.7666L23.4659 24.1978L31.744 15.9564ZM23.6498 31.1514L19.8603 31.3722L20.081 27.5826L21.148 26.5157L24.7168 30.0845L23.6498 31.1514ZM37.5571 17.2073L34.0251 13.6753L36.0119 11.6886L39.5807 15.2574L37.5571 17.2073Z" fill="#F5F5F5"/>
</svg>
