<svg width="48" height="49" viewBox="0 0 48 49" fill="none" xmlns="http://www.w3.org/2000/svg">
<path d="M26.0883 29.7847C24.202 29.7847 22.3157 29.7847 20.4219 29.7847C17.4277 29.7847 14.4336 29.7847 11.4469 29.7847C10.7583 29.7847 10.0771 29.7847 9.38843 29.7847C9.63545 30.0317 9.88995 30.2862 10.137 30.5332C10.137 28.6394 10.137 26.7456 10.137 24.8518C10.137 21.8352 10.137 18.8186 10.137 15.802C10.137 15.1133 10.137 14.4172 10.137 13.7285C9.88995 13.9755 9.63545 14.23 9.38843 14.4771C11.9709 14.4771 14.5459 14.4771 17.1283 14.4771C21.2078 14.4771 25.2799 14.4771 29.3594 14.4771C30.2876 14.4771 31.2233 14.4771 32.1515 14.4771C31.9045 14.23 31.65 13.9755 31.4029 13.7285C31.4029 15.8095 31.4029 17.8904 31.4029 19.9788C31.4029 20.9444 32.9 20.9444 32.9 19.9788C32.9 17.8979 32.9 15.8169 32.9 13.7285C32.9 13.3243 32.5557 12.98 32.1515 12.98C29.569 12.98 26.994 12.98 24.4116 12.98C20.3321 12.98 16.26 12.98 12.1805 12.98C11.2523 12.98 10.3166 12.98 9.38843 12.98C8.98422 12.98 8.63989 13.3243 8.63989 13.7285C8.63989 15.6223 8.63989 17.5161 8.63989 19.4099C8.63989 22.4265 8.63989 25.4431 8.63989 28.4597C8.63989 29.1484 8.63989 29.8445 8.63989 30.5332C8.63989 30.9374 8.98422 31.2817 9.38843 31.2817C11.2747 31.2817 13.1611 31.2817 15.0549 31.2817C18.049 31.2817 21.0432 31.2817 24.0298 31.2817C24.7185 31.2817 25.3997 31.2817 26.0883 31.2817C27.0539 31.2817 27.0539 29.7847 26.0883 29.7847Z" fill="#005DAA" stroke="#005DAA" stroke-width="0.8"/>
<path d="M19.9802 30.5406C19.9802 32.1051 19.9802 33.662 19.9802 35.2265C19.9802 36.1921 21.4773 36.1921 21.4773 35.2265C21.4773 33.662 21.4773 32.1051 21.4773 30.5406C21.4773 29.575 19.9802 29.575 19.9802 30.5406Z" fill="#005DAA" stroke="#005DAA" stroke-width="0.8"/>
<path d="M15.3618 36.0195C18.4982 36.0195 21.6345 36.0195 24.7784 36.0195C25.22 36.0195 25.6542 36.0195 26.0958 36.0195C27.0614 36.0195 27.0614 34.5225 26.0958 34.5225C22.9594 34.5225 19.8231 34.5225 16.6792 34.5225C16.2376 34.5225 15.8034 34.5225 15.3618 34.5225C14.4037 34.5225 14.3962 36.0195 15.3618 36.0195Z" fill="#005DAA" stroke="#005DAA" stroke-width="0.8"/>
<path d="M39.0455 34.5083C36.3059 34.5083 33.5737 34.5083 30.8341 34.5083C30.4373 34.5083 30.0406 34.5083 29.6514 34.5083C29.8984 34.7553 30.1529 35.0098 30.3999 35.2568C30.3999 33.5277 30.3999 31.8061 30.3999 30.0769C30.3999 27.3373 30.3999 24.6051 30.3999 21.8655C30.3999 21.2367 30.3999 20.6079 30.3999 19.9717C30.1529 20.2187 29.8984 20.4732 29.6514 20.7202C32.391 20.7202 35.1232 20.7202 37.8628 20.7202C38.2596 20.7202 38.6563 20.7202 39.0455 20.7202C38.7985 20.4732 38.544 20.2187 38.297 19.9717C38.297 21.7008 38.297 23.4224 38.297 25.1516C38.297 27.8912 38.297 30.6234 38.297 33.363C38.297 33.9918 38.297 34.6206 38.297 35.2568C38.297 36.2224 39.7941 36.2224 39.7941 35.2568C39.7941 33.5277 39.7941 31.8061 39.7941 30.0769C39.7941 27.3373 39.7941 24.6051 39.7941 21.8655C39.7941 21.2367 39.7941 20.6079 39.7941 19.9717C39.7941 19.5675 39.4497 19.2231 39.0455 19.2231C36.3059 19.2231 33.5737 19.2231 30.8341 19.2231C30.4373 19.2231 30.0406 19.2231 29.6514 19.2231C29.2472 19.2231 28.9028 19.5675 28.9028 19.9717C28.9028 21.7008 28.9028 23.4224 28.9028 25.1516C28.9028 27.8912 28.9028 30.6234 28.9028 33.363C28.9028 33.9918 28.9028 34.6206 28.9028 35.2568C28.9028 35.661 29.2472 36.0054 29.6514 36.0054C32.391 36.0054 35.1232 36.0054 37.8628 36.0054C38.2596 36.0054 38.6563 36.0054 39.0455 36.0054C40.0111 36.0054 40.0111 34.5083 39.0455 34.5083Z" fill="#005DAA" stroke="#005DAA" stroke-width="0.8"/>
</svg>
