<svg width="81" height="81" viewBox="0 0 81 81" fill="none" xmlns="http://www.w3.org/2000/svg">
<path d="M80.8417 38.3438C80.8466 38.2685 80.8466 38.193 80.8417 38.1177V37.9873C80.811 37.9058 80.7732 37.8272 80.7286 37.7525L80.6764 37.6481C80.6057 37.5438 80.5273 37.445 80.4417 37.3525L64.3207 21.4228V2.06718C64.3207 1.60595 64.1375 1.16362 63.8113 0.837481C63.4852 0.511346 63.0429 0.328125 62.5816 0.328125H19.1054C18.6441 0.328125 18.2018 0.511346 17.8757 0.837481C17.5495 1.16362 17.3663 1.60595 17.3663 2.06718V21.4228L1.35836 37.3525C1.27277 37.445 1.19429 37.5438 1.12358 37.6481L1.07141 37.7177C1.02686 37.7925 0.989029 37.871 0.958375 37.9525C0.958375 37.9525 0.958375 38.0394 0.958375 38.0829C0.938906 38.1572 0.924381 38.2328 0.914899 38.309C0.910623 38.3611 0.910623 38.4134 0.914899 38.4655L0.845337 38.5872V78.5854C0.845337 79.0466 1.02856 79.489 1.35469 79.8151C1.68083 80.1412 2.12316 80.3244 2.58439 80.3244H79.1026C79.5638 80.3244 80.0062 80.1412 80.3323 79.8151C80.6584 79.489 80.8417 79.0466 80.8417 78.5854V38.5872C80.8417 38.5872 80.8417 38.5264 80.8417 38.5003C80.8459 38.4482 80.8459 38.3959 80.8417 38.3438ZM64.3207 44.6739V39.8133L67.4597 42.9349L64.3207 44.6739ZM69.0509 42.0653L64.3207 37.3612V32.0049L72.5116 40.1959L69.0509 42.0653ZM74.1028 39.3089L64.3207 29.5529V26.3269L76.2245 38.1786L74.1028 39.3089ZM20.8444 3.80623H60.8426V46.5608L40.8435 57.4733L20.8444 46.5608V3.80623ZM17.3663 37.8394L12.9491 42.2566L9.47103 40.3698L17.3663 32.5006V37.8394ZM17.3663 40.3263V44.6739L14.5404 43.1349L17.3663 40.3263ZM17.3663 26.3269V30.0311L7.89719 39.5002L5.46252 38.1786L17.3663 26.3269ZM4.32344 76.8463V41.5175L18.2358 49.1259L39.974 60.9862C40.2299 61.1262 40.517 61.1996 40.8087 61.1996C41.1005 61.1996 41.3875 61.1262 41.6435 60.9862L63.4512 49.1259L77.3636 41.5175V76.8463H4.32344Z" fill="#1C1C45"/>
<path d="M26.9311 34.4136H54.7559C55.2171 34.4136 55.6594 34.2304 55.9856 33.9043C56.3117 33.5782 56.4949 33.1358 56.4949 32.6746C56.4949 32.2134 56.3117 31.771 55.9856 31.4449C55.6594 31.1188 55.2171 30.9355 54.7559 30.9355H26.9311C26.4698 30.9355 26.0275 31.1188 25.7014 31.4449C25.3752 31.771 25.192 32.2134 25.192 32.6746C25.192 33.1358 25.3752 33.5782 25.7014 33.9043C26.0275 34.2304 26.4698 34.4136 26.9311 34.4136Z" fill="#1C1C45"/>
<path d="M26.9311 43.6654H54.7559C55.2171 43.6654 55.6594 43.4821 55.9856 43.156C56.3117 42.8299 56.4949 42.3875 56.4949 41.9263C56.4949 41.4651 56.3117 41.0227 55.9856 40.6966C55.6594 40.3705 55.2171 40.1873 54.7559 40.1873H26.9311C26.4698 40.1873 26.0275 40.3705 25.7014 40.6966C25.3752 41.0227 25.192 41.4651 25.192 41.9263C25.192 42.3875 25.3752 42.8299 25.7014 43.156C26.0275 43.4821 26.4698 43.6654 26.9311 43.6654Z" fill="#1C1C45"/>
<path d="M26.9311 15.91H54.7559C55.2171 15.91 55.6594 15.7268 55.9856 15.4006C56.3117 15.0745 56.4949 14.6322 56.4949 14.1709C56.4949 13.7097 56.3117 13.2674 55.9856 12.9412C55.6594 12.6151 55.2171 12.4319 54.7559 12.4319H26.9311C26.4698 12.4319 26.0275 12.6151 25.7014 12.9412C25.3752 13.2674 25.192 13.7097 25.192 14.1709C25.192 14.6322 25.3752 15.0745 25.7014 15.4006C26.0275 15.7268 26.4698 15.91 26.9311 15.91Z" fill="#1C1C45"/>
<path d="M26.9311 25.1617H54.7559C55.2171 25.1617 55.6594 24.9785 55.9856 24.6523C56.3117 24.3262 56.4949 23.8839 56.4949 23.4226C56.4949 22.9614 56.3117 22.5191 55.9856 22.193C55.6594 21.8668 55.2171 21.6836 54.7559 21.6836H26.9311C26.4698 21.6836 26.0275 21.8668 25.7014 22.193C25.3752 22.5191 25.192 22.9614 25.192 23.4226C25.192 23.8839 25.3752 24.3262 25.7014 24.6523C26.0275 24.9785 26.4698 25.1617 26.9311 25.1617Z" fill="#1C1C45"/>
</svg>
