<svg width="33" height="33" viewBox="0 0 33 33" fill="none" xmlns="http://www.w3.org/2000/svg">
<g clip-path="url(#clip0)">
<path d="M31.6109 25.2398L19.6619 4.54327C18.9129 3.24615 17.5298 2.44727 16.0318 2.44727C14.5337 2.44727 13.1503 3.24578 12.4013 4.54327L0.453369 25.2398C-0.295654 26.5366 -0.295654 28.1347 0.453369 29.4322C1.20202 30.7286 2.58546 31.5278 4.08351 31.5278H27.9808C29.4785 31.5278 30.8623 30.7289 31.6113 29.4322C32.36 28.1347 32.36 26.5366 31.6109 25.2398ZM17.3051 25.8054C17.3051 26.4726 16.7641 27.0132 16.0973 27.0132H16.0318C15.365 27.0132 14.8243 26.4726 14.8243 25.8054V25.7403C14.8243 25.0731 15.365 24.5328 16.0318 24.5328H16.0973C16.7641 24.5328 17.3051 25.0731 17.3051 25.7403V25.8054ZM17.2392 22.0848C17.2392 22.752 16.699 23.2927 16.0318 23.2927C15.365 23.2927 14.8243 22.752 14.8243 22.0848L14.0415 11.1185C14.0415 10.4517 15.3654 9.64987 16.0322 9.64987C16.6993 9.64987 18.0232 10.4517 18.0232 11.1185L17.2392 22.0848Z" fill="#F5F5F5"/>
</g>
<defs>
<clipPath id="clip0">
<path d="M0.0322266 0.988281H32.0322V32.9883H0.0322266V0.988281Z" fill="white"/>
</clipPath>
</defs>
</svg>
