<?xml version="1.0" encoding="utf-8"?>
<!-- Generator: Adobe Illustrator 24.1.0, SVG Export Plug-In . SVG Version: 6.00 Build 0)  -->
<svg version="1.1" id="Layer_1" xmlns="http://www.w3.org/2000/svg" xmlns:xlink="http://www.w3.org/1999/xlink" x="0px" y="0px"
	 viewBox="0 0 33 33" style="enable-background:new 0 0 33 33;" xml:space="preserve">
<style type="text/css">
	.st0{clip-path:url(#SVGID_2_);}
	.st1{fill:#333333;}
</style>
<g>
	<defs>
		<rect id="SVGID_1_" x="0" y="1" width="32" height="32"/>
	</defs>
	<clipPath id="SVGID_2_">
		<use xlink:href="#SVGID_1_"  style="overflow:visible;"/>
	</clipPath>
	<g class="st0">
		<path class="st1" d="M31.6,25.2L19.7,4.5c-0.7-1.3-2.1-2.1-3.6-2.1c-1.5,0-2.9,0.8-3.6,2.1L0.5,25.2c-0.7,1.3-0.7,2.9,0,4.2
			c0.7,1.3,2.1,2.1,3.6,2.1H28c1.5,0,2.9-0.8,3.6-2.1C32.4,28.1,32.4,26.5,31.6,25.2z M17.3,25.8c0,0.7-0.5,1.2-1.2,1.2H16
			c-0.7,0-1.2-0.5-1.2-1.2v-0.1c0-0.7,0.5-1.2,1.2-1.2h0.1C16.8,24.5,17.3,25.1,17.3,25.8L17.3,25.8z M17.2,22.1
			c0,0.7-0.5,1.2-1.2,1.2c-0.7,0-1.2-0.5-1.2-1.2l-0.8-11c0-0.7,1.3-1.5,2-1.5c0.7,0,2,0.8,2,1.5L17.2,22.1z"/>
	</g>
</g>
</svg>
