<svg id="Layer_1" data-name="Layer 1" xmlns="http://www.w3.org/2000/svg" viewBox="0 0 96 96"><title>FindDeals</title><path d="M6.28,94.78A4,4,0,0,0,9.1,93.62L47.85,55a3.49,3.49,0,0,0,.52-.63,29.61,29.61,0,1,0-5.87-5.27l-.29.23L3.46,88a4,4,0,0,0,2.82,6.83ZM64.93,4.5A25.51,25.51,0,1,1,39.43,30,25.53,25.53,0,0,1,64.93,4.5Z"/><path d="M71.23,51a2,2,0,0,0,1.87,1.3,1.94,1.94,0,0,0,.71-.13c12.7-4.79,14.82-17.74,14.9-18.29a2,2,0,0,0-3.95-.6c-.08.45-1.89,11.19-12.36,15.15A2,2,0,0,0,71.23,51Z"/><path d="M62,45.35v4.58s0,1.39,2,1.39,1.94-1.39,1.94-1.39v-4.6h0c3.56-.34,6.21-1.49,8-3.46a9.81,9.81,0,0,0,2.64-6.66A8.24,8.24,0,0,0,75,30.39a8.6,8.6,0,0,0-3.68-3.12,35.18,35.18,0,0,0-6.88-1.92,8.21,8.21,0,0,1-3.61-1.3,2.55,2.55,0,0,1-.8-1.89c0-1.84,1.43-2.76,4.27-2.76A5,5,0,0,1,69.55,23a3.48,3.48,0,0,0,4.31,1.61A2.68,2.68,0,0,0,75.65,21q-2.3-6.45-9.76-7.15V10.08s0-1.39-1.94-1.39-2,1.39-2,1.39V13.9a10.31,10.31,0,0,0-6.52,3.17A9.05,9.05,0,0,0,53,23.51a8.68,8.68,0,0,0,2,5.65q2,2.39,8.89,3.82a12.81,12.81,0,0,1,4.26,1.38,2.43,2.43,0,0,1,1.09,2.11A2.77,2.77,0,0,1,68,38.74a5.91,5.91,0,0,1-3.68.95c-3.4,0-5.49-1.43-6.25-4.29a3.87,3.87,0,0,0-4.3-1.83,2.91,2.91,0,0,0-2.35,3.36Q53.26,44.43,62,45.35Z"/></svg>