<svg width="40" height="40" viewBox="0 0 40 40" fill="none" xmlns="http://www.w3.org/2000/svg">
<path fill-rule="evenodd" clip-rule="evenodd" d="M25.3653 11.6148C25.4814 11.4984 25.6193 11.406 25.7712 11.343C25.9231 11.28 26.0859 11.2476 26.2503 11.2476C26.4147 11.2476 26.5775 11.28 26.7294 11.343C26.8812 11.406 27.0192 11.4984 27.1353 11.6148L34.6353 19.1148C34.7517 19.2309 34.844 19.3688 34.9071 19.5207C34.9701 19.6726 35.0025 19.8354 35.0025 19.9998C35.0025 20.1642 34.9701 20.327 34.9071 20.4789C34.844 20.6307 34.7517 20.7687 34.6353 20.8848L27.1353 28.3848C26.9006 28.6195 26.5822 28.7514 26.2503 28.7514C25.9183 28.7514 25.6 28.6195 25.3653 28.3848C25.1306 28.1501 24.9987 27.8317 24.9987 27.4998C24.9987 27.1679 25.1306 26.8495 25.3653 26.6148L31.9828 19.9998L25.3653 13.3848C25.2489 13.2687 25.1565 13.1307 25.0935 12.9789C25.0305 12.827 24.998 12.6642 24.998 12.4998C24.998 12.3354 25.0305 12.1726 25.0935 12.0207C25.1565 11.8688 25.2489 11.7309 25.3653 11.6148Z" fill="black"/>
<path fill-rule="evenodd" clip-rule="evenodd" d="M5 20C5 19.6685 5.1317 19.3505 5.36612 19.1161C5.60054 18.8817 5.91848 18.75 6.25 18.75H32.5C32.8315 18.75 33.1495 18.8817 33.3839 19.1161C33.6183 19.3505 33.75 19.6685 33.75 20C33.75 20.3315 33.6183 20.6495 33.3839 20.8839C33.1495 21.1183 32.8315 21.25 32.5 21.25H6.25C5.91848 21.25 5.60054 21.1183 5.36612 20.8839C5.1317 20.6495 5 20.3315 5 20Z" fill="black"/>
</svg>
