<svg width="32" height="32" viewBox="0 0 32 32" fill="none" xmlns="http://www.w3.org/2000/svg">
<path d="M25.3333 10.6665H6.66667C5.19391 10.6665 4 11.8604 4 13.3332V26.6665C4 28.1393 5.19391 29.3332 6.66667 29.3332H25.3333C26.8061 29.3332 28 28.1393 28 26.6665V13.3332C28 11.8604 26.8061 10.6665 25.3333 10.6665Z" stroke="black" stroke-width="2" stroke-linecap="round" stroke-linejoin="round"/>
<path d="M16 6.66651C16 5.87538 15.7654 5.10202 15.3259 4.44423C14.8864 3.78643 14.2616 3.27374 13.5307 2.97099C12.7998 2.66824 11.9956 2.58902 11.2196 2.74336C10.4437 2.89771 9.73098 3.27867 9.17157 3.83808C8.61216 4.39749 8.2312 5.11022 8.07686 5.88614C7.92252 6.66207 8.00173 7.46634 8.30448 8.19724C8.60723 8.92814 9.11992 9.55286 9.77772 9.99238C10.4355 10.4319 11.2089 10.6665 12 10.6665" stroke="black" stroke-width="2" stroke-linecap="round" stroke-linejoin="round"/>
<path d="M20 10.6665C20.7911 10.6665 21.5645 10.4319 22.2223 9.99238C22.8801 9.55286 23.3928 8.92814 23.6955 8.19724C23.9983 7.46634 24.0775 6.66207 23.9231 5.88614C23.7688 5.11022 23.3878 4.39749 22.8284 3.83808C22.269 3.27867 21.5563 2.89771 20.7804 2.74336C20.0044 2.58902 19.2002 2.66824 18.4693 2.97099C17.7384 3.27374 17.1136 3.78643 16.6741 4.44423C16.2346 5.10202 16 5.87538 16 6.66651" stroke="black" stroke-width="2" stroke-linecap="round" stroke-linejoin="round"/>
<path d="M16 6.6665V29.3332" stroke="black" stroke-width="2" stroke-linecap="round" stroke-linejoin="round"/>
<path d="M28 20H4" stroke="black" stroke-width="2" stroke-linecap="round" stroke-linejoin="round"/>
</svg>
