<svg width="26" height="24" viewBox="0 0 26 24" fill="none" xmlns="http://www.w3.org/2000/svg">
<path d="M16.3134 19.0064C16.1912 19.0658 16.0079 19.1251 15.8857 19.1845C16.0079 19.0064 16.1301 18.8877 16.1912 18.7096L15.5801 17.2847C15.0301 18.4721 14.2968 19.3033 13.5634 19.6001V16.7503C14.1745 16.7503 14.8468 16.8097 15.4579 16.9285L14.9079 15.6817C14.4801 15.6223 14.0523 15.6223 13.5634 15.5629V12.5944H16.619C16.619 13.01 16.5579 13.4256 16.4968 13.7818L17.6579 14.2568C17.719 13.7225 17.7801 13.1288 17.7801 12.5944H20.8357C20.7746 13.5444 20.5301 14.4349 20.1023 15.2661L21.2023 15.741C21.7523 14.5536 22.0579 13.3069 22.0579 12.0007C22.0579 9.44782 20.8968 7.01364 18.9412 5.35128C17.3523 3.86703 15.2134 3.09521 12.9523 3.09521C10.6912 3.09521 8.55232 3.86703 6.90232 5.29191C4.94676 7.01364 3.78564 9.44782 3.78564 12.0007C3.78564 14.5536 4.94676 16.9878 6.90232 18.6502C8.55232 20.1344 10.6912 20.9063 12.9523 20.9063C14.2968 20.9063 15.5801 20.6094 16.8023 20.0751L16.3134 19.0064ZM19.1857 7.19175C20.1634 8.37916 20.7746 9.86341 20.8968 11.407H17.8412C17.7801 10.1603 17.5968 8.97286 17.2912 7.90419C17.9634 7.66671 18.6357 7.4886 19.1857 7.19175ZM18.2079 6.24183L18.269 6.3012C17.8412 6.47931 17.4134 6.65742 16.9245 6.77616C16.619 6.06372 16.2523 5.41065 15.8857 4.87632C16.7412 5.17317 17.5357 5.64813 18.2079 6.24183ZM13.5634 4.40136C14.3579 4.69821 15.1523 5.64813 15.7023 7.01364C15.0301 7.13238 14.2968 7.19175 13.5634 7.25112V4.40136ZM13.5634 8.43853C14.419 8.43853 15.2745 8.31979 16.1301 8.14167C16.3745 9.0916 16.5579 10.1603 16.619 11.407H13.5634V8.43853ZM7.69676 6.18246C8.36898 5.58876 9.16343 5.1138 10.019 4.81695C9.59121 5.35128 9.28565 6.00435 8.9801 6.71679C8.49121 6.59805 8.06343 6.47931 7.63565 6.3012C7.63565 6.24183 7.69676 6.24183 7.69676 6.18246ZM6.71898 7.19175C7.26898 7.42923 7.88009 7.66671 8.55232 7.84482C8.30787 8.97286 8.12454 10.1603 8.06343 11.407H5.00787C5.1912 9.86341 5.7412 8.37916 6.71898 7.19175ZM6.71898 16.8097C5.7412 15.6223 5.13009 14.1381 5.00787 12.5944H8.06343C8.12454 13.8412 8.30787 15.0286 8.61343 16.0973C7.94121 16.3348 7.26898 16.5129 6.71898 16.8097ZM7.69676 17.7596L7.63565 17.7003C8.06343 17.5222 8.49121 17.344 8.9801 17.2253C9.28565 17.9377 9.65232 18.5908 10.019 19.1251C9.16343 18.8283 8.36898 18.3533 7.69676 17.7596ZM12.3412 19.6001C11.5468 19.3033 10.7523 18.3533 10.2023 16.9878C10.8745 16.8691 11.6079 16.8097 12.3412 16.7503V19.6001ZM12.3412 15.5629C11.4857 15.5629 10.6301 15.6817 9.77454 15.8598C9.5301 14.9099 9.34676 13.7818 9.28565 12.5944H12.3412V15.5629ZM12.3412 11.407H9.28565C9.34676 10.2196 9.5301 9.0916 9.77454 8.14167C10.569 8.31979 11.4245 8.37916 12.3412 8.43853V11.407ZM12.3412 7.25112C11.6079 7.25112 10.8745 7.13238 10.2023 7.01364C10.7523 5.64813 11.5468 4.69821 12.3412 4.40136V7.25112Z" fill="#333333"/>
<path d="M22.119 20.0745L19.369 17.4028L22.0579 16.7498L14.7856 13.7812L17.8412 20.8463L18.5134 18.234L21.2634 20.9057L22.119 20.0745Z" fill="#333333"/>
</svg>
