<svg version="1.1" id="Layer_1" xmlns="http://www.w3.org/2000/svg" xmlns:xlink="http://www.w3.org/1999/xlink" x="0px" y="0px" viewBox="0 0 23 23" style="enable-background:new 0 0 23 23;" xml:space="preserve"> <g id="g782" transform="translate(1354.2764,902.77533)"><path d="M-1334.5-890.2h-16.6c-0.3,0-0.6-0.3-0.6-0.6s0.3-0.6,0.6-0.6h16.6c0.3,0,0.6,0.3,0.6,0.6S-1334.1-890.2-1334.5-890.2z"/>
</g> <g id="g786" transform="translate(1354.2764,912.77533)"><path d="M-1334.5-906.2h-16.6c-0.3,0-0.6-0.3-0.6-0.6s0.3-0.6,0.6-0.6h16.6c0.3,0,0.6,0.3,0.6,0.6S-1334.1-906.2-1334.5-906.2z"/>
</g><g id="g790" transform="translate(1354.2764,892.77533)"><path d="M-1334.5-874.2h-16.6c-0.3,0-0.6-0.3-0.6-0.6s0.3-0.6,0.6-0.6h16.6c0.3,0,0.6,0.3,0.6,0.6S-1334.1-874.2-1334.5-874.2z"/>
</g></svg>
