<svg width="24" height="25" viewBox="0 0 24 25" fill="none" xmlns="http://www.w3.org/2000/svg">
<g clip-path="url(#clip0)">
<path d="M12 2.32941C14.0411 2.32941 16.0364 2.93467 17.7335 4.06865C19.4306 5.20262 20.7533 6.81439 21.5344 8.70012C22.3155 10.5859 22.5199 12.6609 22.1217 14.6627C21.7235 16.6646 20.7406 18.5035 19.2973 19.9468C17.8541 21.39 16.0152 22.3729 14.0133 22.7711C12.0115 23.1693 9.93645 22.9649 8.05071 22.1839C6.16498 21.4028 4.55322 20.08 3.41924 18.3829C2.28526 16.6858 1.68001 14.6905 1.68001 12.6494C1.68001 9.91238 2.76729 7.28745 4.70266 5.35207C6.63804 3.4167 9.26297 2.32941 12 2.32941ZM12 0.649414C9.62663 0.649414 7.30655 1.3532 5.33316 2.67178C3.35977 3.99036 1.8217 5.8645 0.913451 8.05721C0.00519939 10.2499 -0.232441 12.6627 0.230582 14.9905C0.693605 17.3183 1.83649 19.4565 3.51472 21.1347C5.19295 22.8129 7.33115 23.9558 9.65892 24.4188C11.9867 24.8819 14.3995 24.6442 16.5922 23.736C18.7849 22.8277 20.6591 21.2896 21.9776 19.3163C23.2962 17.3429 24 15.0228 24 12.6494C24 9.46682 22.7357 6.41457 20.4853 4.16413C18.2349 1.9137 15.1826 0.649414 12 0.649414V0.649414Z" fill="#0A9FC2"/>
<path d="M12.1896 6.64941C12.6165 6.69401 13.0405 6.76373 13.4592 6.85821C14.7384 7.22061 15.4992 8.24301 15.5952 9.60142C15.6415 10.0367 15.5725 10.4765 15.3952 10.8766C15.2178 11.2768 14.9384 11.6233 14.5848 11.8814C14.244 12.1454 13.8864 12.3854 13.5432 12.6446C13.2945 12.8075 13.0931 13.033 12.9591 13.2984C12.8252 13.5638 12.7634 13.8598 12.78 14.1566C12.7885 14.3708 12.7251 14.5817 12.5998 14.7557C12.4746 14.9297 12.2947 15.0568 12.0888 15.1166C11.8696 15.201 11.6287 15.2102 11.4037 15.1429C11.1787 15.0756 10.9824 14.9355 10.8456 14.7446C10.7559 14.5942 10.7071 14.4229 10.704 14.2478C10.6869 13.7052 10.8026 13.1667 11.0411 12.679C11.2795 12.1913 11.6334 11.7692 12.072 11.4494C12.4572 11.1562 12.8206 10.8354 13.1592 10.4894C13.3206 10.2993 13.4188 10.0635 13.44 9.81502C13.4952 9.13582 13.0584 8.69901 12.3552 8.65341C11.5056 8.59821 10.7904 8.81901 10.2912 9.57022C10.187 9.74728 10.0312 9.8882 9.84451 9.97402C9.65787 10.0598 9.44942 10.0864 9.2472 10.0502C8.5272 9.93022 8.2176 9.34462 8.5128 8.67021C8.82183 8.01295 9.35308 7.48595 10.0128 7.18221C10.6912 6.84882 11.4339 6.66702 12.1896 6.64941Z" fill="#0A9FC2"/>
<path d="M12.9072 17.421C12.912 18.1914 12.48 18.6498 11.7239 18.6498C10.9679 18.6498 10.4639 18.2082 10.4615 17.5626C10.4615 16.6674 10.8623 16.221 11.6615 16.197C12.312 16.1778 12.9888 16.5762 12.9072 17.421Z" fill="#0A9FC2"/>
</g>
<defs>
<clipPath id="clip0">
<rect y="0.649414" width="24" height="24" fill="white"/>
</clipPath>
</defs>
</svg>
