<svg width="48" height="49" viewBox="0 0 48 49" fill="none" xmlns="http://www.w3.org/2000/svg">
<path d="M21.2193 19.9306C21.0869 20.3278 20.5573 20.5264 20.16 20.394C19.6966 20.1954 19.4979 19.6657 19.6966 19.2685C20.4248 17.6133 22.0138 16.4878 23.8676 16.4878C26.3835 16.4878 28.3697 18.6064 28.3697 21.1223C28.3697 22.9761 27.3104 24.6974 25.6552 25.4257C25.0593 25.6905 24.6621 26.2202 24.6621 26.8823V27.2133C24.6621 27.6768 24.331 28.074 23.8676 28.074C23.4042 28.074 23.0069 27.6768 23.0069 27.2133V26.8161C23.0069 25.5581 23.7352 24.3664 24.9931 23.8368C26.0524 23.3733 26.7145 22.314 26.7145 21.1223C26.7145 19.5333 25.4566 18.2092 23.8676 18.2092C22.6759 18.2092 21.6828 18.8712 21.2193 19.9306Z" fill="#005DAA" stroke="#005DAA"/>
<path fill-rule="evenodd" clip-rule="evenodd" d="M23.8677 29.4653C24.4636 29.4653 24.9932 29.9288 24.9932 30.5908C24.9932 31.1867 24.4636 31.7164 23.8677 31.7164C23.2056 31.7164 22.7422 31.1867 22.7422 30.5908C22.7422 29.9288 23.2056 29.4653 23.8677 29.4653Z" fill="#005DAA" stroke="#005DAA"/>
<path d="M24.0001 11.0601C31.4152 11.0601 37.4401 17.0849 37.4401 24.5001C37.4401 31.9152 31.4152 37.9401 24.0001 37.9401C16.5849 37.9401 10.5601 31.9152 10.5601 24.5001C10.5601 17.0849 16.5849 11.0601 24.0001 11.0601ZM24.0001 12.7152C17.5118 12.7152 12.2152 18.0118 12.2152 24.5001C12.2152 30.9883 17.5118 36.2849 24.0001 36.2849C30.4883 36.2849 35.7849 30.9883 35.7849 24.5001C35.7849 18.0118 30.4883 12.7152 24.0001 12.7152Z" fill="#005DAA" stroke="#005DAA"/>
</svg>
