<svg id="Layer_1" data-name="Layer 1" xmlns="http://www.w3.org/2000/svg" viewBox="0 0 500 385"><title>Artboard 1</title><path d="M461.93,53.88,373.33,7.18l-365.7,147L96.24,374.64l365.7-147,31.63-95Zm-20.48,72.48a16.85,16.85,0,1,1,9.35-21.92A16.85,16.85,0,0,1,441.45,126.36Z" fill="#fff"/><path d="M93.42,381.26,1,151.35,373.62,1.57,466,50.24l33,82.21-33,99-2.19.88ZM14.26,157,99.07,368,457.86,223.8l30.29-91L457.89,57.52,373,12.79Zm420.9-24.32a22,22,0,1,1,8.19-1.6A21.9,21.9,0,0,1,435.16,132.68Zm0-33.72a11.76,11.76,0,1,0,10.92,7.37A11.69,11.69,0,0,0,435.15,99Z"/><path d="M90.74,228.92l-16.6-41.3,26.1-10.49,3,7.36L86,191.41l3.82,9.49,12.6-5.06,3,7.36-12.6,5.06,6.87,17.08Z" fill="#231f20"/><path d="M115.83,201l-10.44-26,8.9-3.58,10.93,27.19q1.52,3.78,3.72,5t5.39,0q3.27-1.31,4.06-3.78t-.71-6.22l-10.93-27.19,8.9-3.58,10.47,26q3.15,7.84,1,13.41t-10,8.75q-7.76,3.12-12.9.6T115.83,201Z" fill="#231f20"/><path d="M159.23,201.39l-16.6-41.3,8.9-3.58,13.64,33.94,15.48-6.22,3,7.36Z" fill="#231f20"/><path d="M188.46,189.64l-16.6-41.3,8.9-3.58L194.4,178.7l15.48-6.22,3,7.36Z" fill="#231f20"/><path d="M191.65,140.39l9.91-4,8.73,8.3q1,.85,3,2.91t2.69,2.81l.22-.09q0-3.88.34-8.14l.67-12.08,9.13-3.67-3.15,29.79L229.93,173l-8.9,3.58-6.73-16.74Z" fill="#231f20"/><path d="M118.4,297.74l-16.6-41.3,12-4.81a34.34,34.34,0,0,1,5.44-1.72,20.62,20.62,0,0,1,5-.49,12.28,12.28,0,0,1,4.44.91A10.65,10.65,0,0,1,132.3,253a14.26,14.26,0,0,1,2.74,4.46q3.57,8.88-3.3,14.86l16.84,13.33-9.77,3.93-14.52-12.67-3.67,1.47,6.4,15.93Zm-.48-26.12L122,270q3.67-1.47,4.84-3.62T126.7,261a5.2,5.2,0,0,0-3.44-3.35,9.4,9.4,0,0,0-5.92.77l-4.06,1.63Z" fill="#231f20"/><path d="M152.95,283.85l-16.6-41.3,25.76-10.35,3,7.36-16.86,6.78,3.73,9.27,12.26-4.93,3,7.36L154.9,263l4,9.94,17.36-7,3,7.36Z" fill="#231f20"/><path d="M184.81,271l-16.6-41.3,10.9-4.38q10.23-4.11,17.19-1.06t11,13q4.19,10.42,1.16,17.92t-13.23,11.6Zm5.94-10.94,2.24-.9q5.6-2.25,6.88-6.55t-1.63-11.54q-2.83-7-6.41-9t-9.4.43l-2.35.95Z" fill="#231f20"/><path d="M221.33,256.36l-16.6-41.3,25.76-10.35,3,7.36-16.86,6.78,3.73,9.27,12.26-4.93,3,7.36-12.26,4.93,4,9.94,17.36-7,3,7.36Z" fill="#231f20"/><path d="M253.19,243.56l-16.6-41.3,25.76-10.35,3,7.36L248.45,206l3.73,9.27,12.26-4.93,3,7.36-12.26,4.93,4,9.94,17.36-7,3,7.36Z" fill="#231f20"/><path d="M285.05,230.75l-16.6-41.3,11.2-4.5,8.49,9.29q2,2.17,7.41,8.86l0,.1q-.82-8.75-.93-11.46l-.82-12.48,10.89-4.38,16.6,41.3-8.09,3.25-6.11-15.2q-2.62-6.52-5.41-14.28l-.35.14q.41,3.38.86,9.93L303,213.4l-7,2.81-8.52-10.31-6.15-7.8-.34.14q3.41,7.67,6,14.11l6.09,15.15Z" fill="#231f20"/><path d="M329.18,213l-16.6-41.3,25.76-10.35,3,7.36-16.86,6.78,3.73,9.27,12.26-4.93,3,7.36-12.26,4.93,4,9.94,17.36-7,3,7.36Z" fill="#231f20"/><path d="M361,200.2l-16.6-41.3,10.9-4.38q10.23-4.11,17.19-1.06t11,13q4.19,10.42,1.16,17.92T371.44,196ZM367,189.26l2.24-.9q5.6-2.25,6.88-6.55t-1.63-11.54q-2.83-7-6.41-9t-9.4.43l-2.35.95Z" fill="#231f20"/></svg>