<svg width="32" height="32" viewBox="0 0 32 32" fill="none" xmlns="http://www.w3.org/2000/svg">
<path d="M22.668 9.3335C19.876 9.3335 17.8533 11.4228 16 13.7948C14.1467 11.4228 12.1253 9.3335 9.33466 9.3335C5.65866 9.3335 2.66799 12.3242 2.66799 16.0002C2.66585 16.875 2.8366 17.7416 3.17045 18.5503C3.50429 19.3589 3.99464 20.0936 4.61332 20.7122C5.22955 21.3335 5.96305 21.8262 6.77125 22.1618C7.57944 22.4973 8.44624 22.669 9.32132 22.6668H9.33732C12.1227 22.6602 14.144 20.5708 15.9987 18.1988C17.8533 20.5748 19.876 22.6668 22.668 22.6668C26.344 22.6668 29.3347 19.6762 29.3347 16.0002C29.3347 12.3242 26.344 9.3335 22.668 9.3335ZM9.33199 20.0002L9.32132 21.3335V20.0002C8.25599 20.0002 7.25466 19.5842 6.50266 18.8295C5.94532 18.2689 5.56631 17.556 5.41337 16.7804C5.26043 16.0049 5.34039 15.2014 5.64319 14.4712C5.94598 13.741 6.45807 13.1168 7.11496 12.6771C7.77186 12.2373 8.54417 12.0018 9.33466 12.0002C11.108 12.0002 12.748 13.9175 14.3293 15.9975C12.7453 18.0762 11.1053 19.9962 9.33199 20.0002ZM22.668 20.0002C20.8947 20.0002 19.2533 18.0802 17.6693 15.9975C19.252 13.9175 20.892 12.0002 22.668 12.0002C24.8733 12.0002 26.668 13.7948 26.668 16.0002C26.668 18.2055 24.8733 20.0002 22.668 20.0002Z" fill="black"/>
</svg>
