<?xml version="1.0" encoding="utf-8"?>
<!-- Generator: Adobe Illustrator 25.1.0, SVG Export Plug-In . SVG Version: 6.00 Build 0)  -->
<svg version="1.1" id="Layer_1" xmlns="http://www.w3.org/2000/svg" xmlns:xlink="http://www.w3.org/1999/xlink" x="0px" y="0px"
	 viewBox="0 0 32 33" style="enable-background:new 0 0 32 33;" xml:space="preserve">
<style type="text/css">
	.st0{clip-path:url(#SVGID_2_);}
	.st1{fill:#2296BC;}
</style>
<g>
	<defs>
		<rect id="SVGID_1_" y="1" width="32" height="32"/>
	</defs>
	<clipPath id="SVGID_2_">
		<use xlink:href="#SVGID_1_"  style="overflow:visible;"/>
	</clipPath>
	<g class="st0">
		<path class="st1" d="M16,1C7.2,1,0,8.2,0,17c0,8.8,7.2,16,16,16c8.8,0,16-7.2,16-16C32,8.2,24.8,1,16,1z M14.2,23.9v-7.3
			c0-0.5,0.2-1,0.5-1.3c0.3-0.3,0.8-0.5,1.3-0.5s1,0.2,1.3,0.5c0.3,0.3,0.5,0.8,0.5,1.3v7.3c0,0.5-0.2,1-0.5,1.3
			c-0.3,0.3-0.8,0.5-1.3,0.5s-1-0.2-1.3-0.5C14.3,24.9,14.2,24.4,14.2,23.9L14.2,23.9z M16,12.7c-0.4,0-0.9-0.1-1.2-0.4
			s-0.7-0.6-0.8-1c-0.2-0.4-0.2-0.9-0.1-1.3c0.1-0.4,0.3-0.8,0.6-1.1c0.3-0.3,0.7-0.5,1.1-0.6c0.4-0.1,0.9,0,1.3,0.1
			c0.4,0.2,0.8,0.5,1,0.8c0.2,0.4,0.4,0.8,0.4,1.2c0,0.6-0.2,1.2-0.7,1.6C17.2,12.5,16.6,12.7,16,12.7z"/>
	</g>
</g>
</svg>
