<svg width="18" height="19" viewBox="0 0 18 19" fill="none" xmlns="http://www.w3.org/2000/svg">
<g clip-path="url(#clip0)">
<path d="M9 0.0727539C4.0296 0.0727539 0 4.10235 0 9.07275C0 14.0432 4.0296 18.0728 9 18.0728C13.9704 18.0728 18 14.0432 18 9.07275C18 4.10235 13.9704 0.0727539 9 0.0727539ZM7.96 12.9576V8.83755C7.96 8.56173 8.06957 8.2972 8.26461 8.10216C8.45965 7.90712 8.72417 7.79755 9 7.79755C9.27582 7.79755 9.54035 7.90712 9.73539 8.10216C9.93043 8.2972 10.04 8.56173 10.04 8.83755V12.9576C10.04 13.2334 9.93043 13.4979 9.73539 13.6929C9.54035 13.888 9.27582 13.9976 9 13.9976C8.72417 13.9976 8.45965 13.888 8.26461 13.6929C8.06957 13.4979 7.96 13.2334 7.96 12.9576ZM9 6.66275C8.75277 6.66275 8.5111 6.58944 8.30554 6.45209C8.09998 6.31474 7.93976 6.11952 7.84515 5.89111C7.75054 5.6627 7.72579 5.41137 7.77402 5.16889C7.82225 4.92641 7.9413 4.70369 8.11612 4.52887C8.29093 4.35405 8.51366 4.235 8.75614 4.18677C8.99861 4.13854 9.24995 4.16329 9.47835 4.2579C9.70676 4.35251 9.90199 4.51273 10.0393 4.71829C10.1767 4.92385 10.25 5.16553 10.25 5.41275C10.25 5.74427 10.1183 6.06222 9.88388 6.29664C9.64946 6.53106 9.33152 6.66275 9 6.66275Z" fill="#D8000C"/>
</g>
<defs>
<clipPath id="clip0">
<rect y="0.0727539" width="18" height="18" fill="white"/>
</clipPath>
</defs>
</svg>
