<svg width="32" height="34" viewBox="0 0 32 34" fill="none" xmlns="http://www.w3.org/2000/svg">
<path d="M14.2481 10.3151C14.2373 8.9991 15.2893 7.91532 16.58 7.9043C17.8924 7.9043 18.9228 8.95487 18.9228 10.3041C18.9336 11.6201 17.9033 12.7038 16.6234 12.726C15.3328 12.737 14.2698 11.6532 14.2481 10.3151Z" fill="#5BA6C6"/>
<path d="M19.9428 24.0044C19.9103 24.2035 19.791 24.4136 19.65 24.5685C18.7931 25.4643 17.7627 25.995 16.5263 26.0172C15.9731 26.0283 15.3983 26.0503 14.8668 25.9287C13.4568 25.6301 12.6541 24.4025 12.882 22.9649C13.1531 21.2287 13.4568 19.5146 13.7496 17.7894C13.8365 17.2696 13.9449 16.7499 14.01 16.23C14.0425 16.0421 14.0208 15.832 13.9883 15.6551C13.9232 15.3012 13.7497 15.1463 13.4135 15.091C13.2291 15.0689 13.0446 15.0799 12.8711 15.0358C12.6542 14.9694 12.4048 14.892 12.2312 14.7593C11.9275 14.5271 11.9926 14.0737 12.3397 13.9189C12.5132 13.8303 12.7301 13.7862 12.9254 13.7862C13.6955 13.7751 14.4764 13.7862 15.2356 13.7862H17.5459C18.0991 13.7862 18.3811 14.0737 18.457 14.6377C18.5329 15.2017 18.3376 15.7325 18.2401 16.2745C17.9581 17.9001 17.6543 19.5147 17.3724 21.1293C17.2748 21.6822 17.1771 22.2352 17.0904 22.7992C17.0687 22.9651 17.0795 23.1531 17.0904 23.319C17.188 24.0378 17.5893 24.3032 18.2618 24.1263C18.4678 24.071 18.6523 23.9494 18.8475 23.8498C19.0319 23.7613 19.2163 23.6397 19.4115 23.5623C19.7475 23.4294 20.0187 23.6506 19.9428 24.0044Z" fill="#5BA6C6"/>
<path d="M5.07565 32.956H4.95015C3.73896 32.9484 2.9954 32.6256 2.67765 31.9678C2.56377 31.7314 2.35621 31.1071 2.88421 30.3987L4.56834 28.1059C4.76802 27.8435 4.8824 27.6809 4.92796 27.5578C2.15552 24.6132 0.631836 20.7664 0.631836 16.6928C0.631836 8.04924 7.52827 1.01758 16.0056 1.01758C24.4771 1.01758 31.3682 8.04924 31.3682 16.6928C31.3682 25.3298 24.477 32.3566 16.0056 32.3566C14.3416 32.3566 12.7083 32.0855 11.1491 31.5509C11.0782 31.5671 11.0326 31.5866 11.0093 31.6007C10.394 31.8944 9.8474 32.1158 9.26852 32.3123C9.06621 32.3771 8.87871 32.4268 8.69127 32.4765L8.43121 32.5467C7.45302 32.8189 6.32496 32.956 5.07565 32.956ZM16.0055 3.22936C8.72458 3.22936 2.80102 9.26907 2.80102 16.6928C2.80102 20.275 4.17377 23.6537 6.66602 26.2067L6.79734 26.3412L6.87734 26.5119C7.12677 27.048 7.16809 27.6404 6.99596 28.2257C6.82646 28.7263 6.57177 29.0811 6.30271 29.4342L5.34996 30.7421C6.29477 30.7248 7.13684 30.6146 7.85709 30.4138L8.1489 30.3349C8.29877 30.2961 8.44921 30.2572 8.59909 30.2086C9.08365 30.0433 9.55552 29.8527 10.0253 29.6303C10.2933 29.4759 10.6756 29.3641 11.1268 29.3246L11.4647 29.3209L11.6405 29.3846C13.0365 29.8889 14.5056 30.1449 16.0055 30.1449C23.28 30.1449 29.1988 24.1105 29.1988 16.6928C29.1989 9.26907 23.2801 3.22936 16.0055 3.22936Z" fill="#5BA6C6"/>
</svg>
