<svg width="32" height="32" viewBox="0 0 32 32" fill="none" xmlns="http://www.w3.org/2000/svg">
<g clip-path="url(#clip0)">
<path d="M16.4922 -0.25C7.65592 -0.25 0.492188 6.91373 0.492188 15.75C0.492188 24.5863 7.65592 31.75 16.4922 31.75C25.3285 31.75 32.4922 24.5863 32.4922 15.75C32.4922 6.91373 25.3285 -0.25 16.4922 -0.25ZM14.6433 22.6563V15.3319C14.6433 14.8415 14.8381 14.3712 15.1848 14.0245C15.5316 13.6778 16.0018 13.483 16.4922 13.483C16.9825 13.483 17.4528 13.6778 17.7996 14.0245C18.1463 14.3712 18.3411 14.8415 18.3411 15.3319V22.6563C18.3411 23.1467 18.1463 23.6169 17.7996 23.9637C17.4528 24.3104 16.9825 24.5052 16.4922 24.5052C16.0018 24.5052 15.5316 24.3104 15.1848 23.9637C14.8381 23.6169 14.6433 23.1467 14.6433 22.6563V22.6563ZM16.4922 11.4656C16.0527 11.4656 15.623 11.3352 15.2576 11.091C14.8921 10.8469 14.6073 10.4998 14.4391 10.0937C14.2709 9.68768 14.2269 9.24087 14.3127 8.8098C14.3984 8.37873 14.6101 7.98277 14.9208 7.67199C15.2316 7.3612 15.6276 7.14956 16.0587 7.06381C16.4897 6.97807 16.9365 7.02207 17.3426 7.19027C17.7487 7.35846 18.0957 7.64329 18.3399 8.00873C18.5841 8.37418 18.7144 8.80382 18.7144 9.24333C18.7144 9.8327 18.4803 10.3979 18.0635 10.8147C17.6468 11.2314 17.0816 11.4656 16.4922 11.4656Z" fill="#EEEEEE"/>
</g>
<defs>
<clipPath id="clip0">
<rect width="32" height="32" fill="white"/>
</clipPath>
</defs>
</svg>
