<svg width="33" height="32" viewBox="0 0 33 32" fill="none" xmlns="http://www.w3.org/2000/svg">
<g clip-path="url(#clip0)">
<path d="M17.4819 -0.25C8.64567 -0.25 1.48193 6.91373 1.48193 15.75C1.48193 24.5863 8.64567 31.75 17.4819 31.75C26.3182 31.75 33.4819 24.5863 33.4819 15.75C33.4819 6.91373 26.3182 -0.25 17.4819 -0.25ZM15.633 22.6563V15.3319C15.633 14.8415 15.8278 14.3712 16.1746 14.0245C16.5213 13.6778 16.9916 13.483 17.4819 13.483C17.9723 13.483 18.4426 13.6778 18.7893 14.0245C19.136 14.3712 19.3308 14.8415 19.3308 15.3319V22.6563C19.3308 23.1467 19.136 23.6169 18.7893 23.9637C18.4426 24.3104 17.9723 24.5052 17.4819 24.5052C16.9916 24.5052 16.5213 24.3104 16.1746 23.9637C15.8278 23.6169 15.633 23.1467 15.633 22.6563V22.6563ZM17.4819 11.4656C17.0424 11.4656 16.6128 11.3352 16.2473 11.091C15.8819 10.8469 15.5971 10.4998 15.4289 10.0937C15.2607 9.68768 15.2167 9.24087 15.3024 8.8098C15.3882 8.37873 15.5998 7.98277 15.9106 7.67199C16.2214 7.3612 16.6173 7.14956 17.0484 7.06381C17.4795 6.97807 17.9263 7.02207 18.3323 7.19027C18.7384 7.35846 19.0855 7.64329 19.3296 8.00873C19.5738 8.37418 19.7042 8.80382 19.7042 9.24333C19.7042 9.8327 19.47 10.3979 19.0533 10.8147C18.6365 11.2314 18.0713 11.4656 17.4819 11.4656Z" fill="#F36B3A"/>
</g>
<defs>
<clipPath id="clip0">
<rect width="32" height="32" fill="white" transform="translate(0.989746)"/>
</clipPath>
</defs>
</svg>
