<svg width="76" height="76" viewBox="0 0 76 76" fill="none" xmlns="http://www.w3.org/2000/svg">
<path d="M22.9131 62.32C22.4723 62.3197 22.0349 62.2445 21.6204 62.0977C20.9226 61.8577 20.3168 61.4136 19.8848 60.8253C19.4529 60.2371 19.2156 59.533 19.2051 58.8084V17.8472C19.2051 16.742 19.6531 15.6821 20.4505 14.9005C21.248 14.119 22.3296 13.68 23.4574 13.68H52.543C53.6707 13.68 54.7523 14.119 55.5498 14.9005C56.3472 15.6821 56.7952 16.742 56.7952 17.8472V58.8084C56.7848 59.5332 56.5468 60.2372 56.1136 60.8247C55.6804 61.4123 55.0731 61.8548 54.3743 62.0922C53.6589 62.3496 52.8799 62.3848 52.1434 62.1929C51.4069 62.001 50.7486 61.5914 50.2581 61.0198L48.7443 59.2696C48.6123 59.1127 48.4458 58.9872 48.2573 58.9026C48.0687 58.8179 47.863 58.7762 47.6557 58.7806C47.4485 58.7796 47.2438 58.8239 47.0564 58.9104C46.8691 58.997 46.7038 59.1235 46.5728 59.2807L46.1022 59.8363C45.702 60.3055 45.2016 60.6829 44.6364 60.9419C44.0711 61.2008 43.4547 61.3351 42.8308 61.3351C42.2068 61.3351 41.5904 61.2008 41.0251 60.9419C40.4599 60.6829 39.9595 60.3055 39.5593 59.8363L39.1114 59.2807C38.9779 59.1242 38.8109 58.9984 38.6223 58.9121C38.4337 58.8258 38.2281 58.781 38.02 58.781C37.8119 58.781 37.6063 58.8258 37.4177 58.9121C37.2291 58.9984 37.0622 59.1242 36.9286 59.2807L36.4807 59.8363C36.0805 60.3055 35.5801 60.6829 35.0149 60.9419C34.4496 61.2008 33.8332 61.3351 33.2093 61.3351C32.5853 61.3351 31.9689 61.2008 31.4036 60.9419C30.8384 60.6829 30.338 60.3055 29.9378 59.8363L29.4616 59.2807C29.3308 59.1232 29.1656 58.9965 28.9782 58.9099C28.7907 58.8233 28.5859 58.7792 28.3787 58.7806C28.1725 58.7805 27.9688 58.8235 27.781 58.9069C27.5933 58.9903 27.4259 59.112 27.2901 59.264L25.7423 61.0476C25.3932 61.4482 24.9593 61.7696 24.4707 61.9893C23.9822 62.2091 23.4506 62.3219 22.9131 62.32ZM23.48 16.4581C23.1041 16.4581 22.7436 16.6045 22.4778 16.865C22.2119 17.1255 22.0626 17.4788 22.0626 17.8472V58.7417C22.0585 58.9055 22.1089 59.0661 22.206 59.1993C22.3032 59.3326 22.4419 59.4314 22.6012 59.4807C22.7743 59.546 22.9638 59.5569 23.1436 59.5122C23.3234 59.4674 23.4845 59.369 23.6048 59.2307L25.1583 57.4526C25.556 56.9933 26.0512 56.6245 26.6094 56.3721C27.1676 56.1197 27.7753 55.9898 28.39 55.9913H28.4184C29.0313 55.9993 29.6351 56.1376 30.1882 56.3966C30.7413 56.6556 31.2304 57.0292 31.6217 57.4915L32.1037 58.0472C32.2367 58.2035 32.4031 58.3293 32.5913 58.4156C32.7794 58.5019 32.9845 58.5466 33.1922 58.5466C33.4 58.5466 33.6051 58.5019 33.7932 58.4156C33.9813 58.3293 34.1478 58.2035 34.2808 58.0472L34.7344 57.5193C35.1329 57.0485 35.6324 56.6695 36.1973 56.4095C36.7623 56.1494 37.3788 56.0145 38.003 56.0145C38.6272 56.0145 39.2437 56.1494 39.8086 56.4095C40.3736 56.6695 40.8731 57.0485 41.2716 57.5193L41.7252 58.0472C41.8582 58.2035 42.0246 58.3293 42.2128 58.4156C42.4009 58.5019 42.606 58.5466 42.8137 58.5466C43.0215 58.5466 43.2266 58.5019 43.4147 58.4156C43.6028 58.3293 43.7693 58.2035 43.9023 58.0472L44.3729 57.4915C44.7701 57.0231 45.2674 56.6459 45.8298 56.3866C46.3922 56.1274 47.0058 55.9924 47.6273 55.9913C48.2503 55.9883 48.8663 56.1197 49.4316 56.376C49.997 56.6324 50.4979 57.0076 50.8987 57.4749L52.4126 59.2251C52.5314 59.3637 52.6916 59.4623 52.8705 59.5071C53.0495 59.552 53.2383 59.5408 53.4104 59.4751C53.5723 59.4355 53.716 59.344 53.8188 59.2151C53.9215 59.0863 53.9773 58.9275 53.9774 58.7639V17.8472C53.9774 17.4788 53.8281 17.1255 53.5622 16.865C53.2964 16.6045 52.9359 16.4581 52.56 16.4581H23.48Z" fill="#005DAA"/>
<path d="M50.6371 43.4129H25.3842C25.0083 43.4129 24.6478 43.2666 24.382 43.0061C24.1161 42.7456 23.9668 42.3923 23.9668 42.0238C23.9668 41.6554 24.1161 41.3021 24.382 41.0416C24.6478 40.7811 25.0083 40.6348 25.3842 40.6348H50.6371C51.013 40.6348 51.3736 40.7811 51.6394 41.0416C51.9052 41.3021 52.0545 41.6554 52.0545 42.0238C52.0545 42.3923 51.9052 42.7456 51.6394 43.0061C51.3736 43.2666 51.013 43.4129 50.6371 43.4129Z" fill="#005DAA"/>
<path d="M32.1879 49.6072H25.3842C25.0083 49.6072 24.6478 49.4609 24.382 49.2004C24.1161 48.9399 23.9668 48.5865 23.9668 48.2181C23.9668 47.8497 24.1161 47.4964 24.382 47.2359C24.6478 46.9754 25.0083 46.8291 25.3842 46.8291H32.1879C32.5638 46.8291 32.9243 46.9754 33.1902 47.2359C33.456 47.4964 33.6053 47.8497 33.6053 48.2181C33.6053 48.5865 33.456 48.9399 33.1902 49.2004C32.9243 49.4609 32.5638 49.6072 32.1879 49.6072Z" fill="#005DAA"/>
<path d="M50.6382 49.6072H37.2123C36.8364 49.6072 36.4759 49.4609 36.2101 49.2004C35.9443 48.9399 35.7949 48.5865 35.7949 48.2181C35.7949 47.8497 35.9443 47.4964 36.2101 47.2359C36.4759 46.9754 36.8364 46.8291 37.2123 46.8291H50.6382C51.0141 46.8291 51.3747 46.9754 51.6405 47.2359C51.9063 47.4964 52.0556 47.8497 52.0556 48.2181C52.0556 48.5865 51.9063 48.9399 51.6405 49.2004C51.3747 49.4609 51.0141 49.6072 50.6382 49.6072Z" fill="#005DAA"/>
<path d="M41.9402 32.6319C41.2333 33.314 40.3388 33.7793 39.3662 33.971V35.1378C39.3702 35.2904 39.342 35.4422 39.2835 35.5837C39.225 35.7252 39.1373 35.8533 39.026 35.9601C38.9147 36.0673 38.7826 36.1516 38.6375 36.2079C38.4924 36.2642 38.3372 36.2914 38.1812 36.288C38.0304 36.2907 37.8805 36.2631 37.7411 36.2067C37.6016 36.1503 37.4754 36.0664 37.3705 35.9601C37.2612 35.8524 37.1756 35.7238 37.1191 35.5824C37.0625 35.4409 37.0362 35.2896 37.0416 35.1378V34.0821C36.3882 34.0311 35.7461 33.885 35.1366 33.6487C34.5173 33.402 33.9429 33.0586 33.4357 32.6319C33.2792 32.5129 33.1513 32.3617 33.0611 32.1888C32.971 32.016 32.9208 31.8258 32.9141 31.6318C32.9144 31.4898 32.9437 31.3494 33.0002 31.2187C33.0567 31.088 33.1392 30.9696 33.2429 30.8706C33.3444 30.7641 33.4673 30.6794 33.604 30.622C33.7407 30.5646 33.888 30.5357 34.0367 30.5372C34.2762 30.5365 34.5085 30.6169 34.6944 30.765C35.0462 31.0494 35.4261 31.2988 35.8283 31.5095C36.1975 31.696 36.5962 31.82 37.0076 31.8763V28.2035C34.4411 27.7368 33.156 26.47 33.1522 24.403C33.1363 23.9235 33.2246 23.4461 33.4113 23.0026C33.598 22.559 33.8788 22.1595 34.2351 21.8304C35.0179 21.1278 36.0132 20.6947 37.07 20.5969V19.9857C37.0668 19.834 37.0953 19.6833 37.1538 19.5429C37.2123 19.4024 37.2995 19.2751 37.4101 19.169C37.5191 19.0599 37.6499 18.974 37.7943 18.9166C37.9386 18.8593 38.0935 18.8317 38.2493 18.8356C38.4015 18.8324 38.5528 18.8604 38.6934 18.9178C38.834 18.9752 38.9608 19.0608 39.0657 19.169C39.1743 19.2761 39.2594 19.4037 39.3159 19.5442C39.3725 19.6846 39.3992 19.8348 39.3945 19.9857V20.6858C40.3865 20.83 41.3206 21.233 42.099 21.8527C42.2676 21.9634 42.4069 22.1119 42.5055 22.2858C42.604 22.4597 42.659 22.654 42.666 22.8528C42.6669 22.9949 42.6382 23.1358 42.5816 23.2666C42.5251 23.3975 42.4419 23.5157 42.3371 23.614C42.2395 23.7189 42.1203 23.8023 41.9874 23.8588C41.8545 23.9153 41.7109 23.9436 41.566 23.9418C41.3782 23.9439 41.1949 23.8853 41.0444 23.7751C40.5518 23.4081 39.9945 23.1331 39.4002 22.9639V26.4533C40.3991 26.6369 41.3292 27.0802 42.0933 27.7368C42.3969 28.0671 42.6301 28.4535 42.7791 28.8733C42.928 29.2932 42.9898 29.738 42.9608 30.1816C42.9704 30.6367 42.8848 31.0888 42.7093 31.5102C42.5337 31.9317 42.272 32.3134 41.9402 32.6319ZM35.8396 25.3309C36.185 25.6254 36.5971 25.8349 37.0416 25.9421V22.8139C36.594 22.8796 36.176 23.0728 35.8396 23.3695C35.7087 23.494 35.6054 23.6436 35.5361 23.809C35.4669 23.9744 35.4331 24.152 35.4371 24.3308C35.4304 24.5157 35.4627 24.6999 35.5319 24.872C35.6012 25.0441 35.7059 25.2003 35.8396 25.3309ZM40.2733 31.115C40.491 30.9029 40.6151 30.6157 40.6192 30.3149C40.6251 29.986 40.5172 29.6648 40.313 29.4037C40.0567 29.1141 39.7315 28.8908 39.3662 28.7536V31.7151C39.709 31.5811 40.0184 31.3765 40.2733 31.115Z" fill="#005DAA"/>
</svg>
