<svg id="Layer_1" data-name="Layer 1" xmlns="http://www.w3.org/2000/svg" viewBox="0 0 96 96"><defs><style>.cls-1{fill:#fffdfd;}</style></defs><title>LoginFilled</title><path d="M66.54,37.06c-1.92,6.17-5,9.42-11.07,11.57a2.29,2.29,0,0,1-.67.11,2,2,0,0,1-.67-3.88c4.87-1.74,7-4,8.59-9a2,2,0,0,1,3.82,1.19Z"/><path id="path868-9" d="M54.8,46.74c5.49-2,8.1-4.72,9.83-10.27Z"/><path class="cls-1" d="M66.54,37.06c-1.92,6.17-5,9.42-11.07,11.57a2.29,2.29,0,0,1-.67.11,2,2,0,0,1-.67-3.88c4.87-1.74,7-4,8.59-9a2,2,0,0,1,3.82,1.19Z"/><path d="M83.33,91.73h-4V56.59c0-3.34-3.24-6.09-9.41-8a29.16,29.16,0,1,0-44.18.2c-5.89,1.92-9,4.59-9,7.81V91.73h-4a2,2,0,0,0,0,4H83.33a2,2,0,0,0,0-4ZM66.54,37.06c-1.92,6.17-5,9.42-11.07,11.57a2.29,2.29,0,0,1-.67.11,2,2,0,0,1-.67-3.88c4.87-1.74,7-4,8.59-9a2,2,0,0,1,3.82,1.19Z"/></svg>