<svg id="Layer_1" data-name="Layer 1" xmlns="http://www.w3.org/2000/svg" viewBox="0 0 96 96"><title>Login</title><path d="M54.8,48.74a2.29,2.29,0,0,0,.67-.11c6-2.15,9.15-5.4,11.07-11.57a2,2,0,0,0-3.82-1.19c-1.55,5-3.72,7.25-8.59,9a2,2,0,0,0,.67,3.88Z"/><path d="M83.63,91.75H79.28V56.59c0-3.35-3.24-6.08-9.41-8a29.16,29.16,0,1,0-44.18.2c-5.88,1.91-9,4.58-9,7.8V91.75H12.38a2,2,0,1,0,0,4H83.63a2,2,0,0,0,0-4ZM47.7,4.5A25.17,25.17,0,1,1,30.81,48.33h0A25.17,25.17,0,0,1,47.7,4.5Zm-27,52.09c0-1,2.22-3,8.22-4.59a29.15,29.15,0,0,0,37.7-.17c6.31,1.6,8.64,3.69,8.64,4.76V91.75H20.72Z"/></svg>