<svg width="160" height="145" viewBox="0 0 160 145" fill="none" xmlns="http://www.w3.org/2000/svg">
<path d="M122.118 129.53H20.6259C19.5786 129.53 18.7295 130.378 18.7295 131.427C18.7295 132.475 19.5786 133.323 20.6259 133.323H122.118C123.166 133.323 124.015 132.475 124.015 131.427C124.015 130.378 123.166 129.53 122.118 129.53Z" fill="#333333"/>
<path d="M122.118 113.438H20.6259C19.5786 113.438 18.7295 114.287 18.7295 115.335C18.7295 116.383 19.5786 117.231 20.6259 117.231H122.118C123.166 117.231 124.015 116.383 124.015 115.335C124.015 114.287 123.166 113.438 122.118 113.438Z" fill="#333333"/>
<path d="M20.6259 100.723H53.2462C54.2934 100.723 55.1426 99.8748 55.1426 98.8266C55.1426 97.7784 54.2934 96.9302 53.2462 96.9302H20.6259C19.5786 96.9302 18.7295 97.7784 18.7295 98.8266C18.7295 99.8748 19.5786 100.723 20.6259 100.723Z" fill="#333333"/>
<path d="M20.6259 84.8148H42.3752C43.4225 84.8148 44.2716 83.9666 44.2716 82.9184C44.2716 81.8702 43.4225 81.022 42.3752 81.022H20.6259C19.5786 81.022 18.7295 81.8702 18.7295 82.9184C18.7295 83.9666 19.5786 84.8148 20.6259 84.8148Z" fill="#333333"/>
<path d="M20.6259 68.6082H32.3015C33.3488 68.6082 34.1979 67.76 34.1979 66.7118C34.1979 65.6636 33.3488 64.8154 32.3015 64.8154H20.6259C19.5786 64.8154 18.7295 65.6636 18.7295 66.7118C18.7295 67.76 19.5786 68.6082 20.6259 68.6082Z" fill="#333333"/>
<mask id="path-6-inside-1" fill="white">
<rect x="0.5" y="19.2422" width="140.771" height="125.58" rx="2"/>
</mask>
<rect x="0.5" y="19.2422" width="140.771" height="125.58" rx="2" stroke="#333333" stroke-width="7" mask="url(#path-6-inside-1)"/>
<mask id="path-7-inside-2" fill="white">
<rect x="0.5" y="45.5732" width="140.771" height="99.2484" rx="2"/>
</mask>
<rect x="0.5" y="45.5732" width="140.771" height="99.2484" rx="2" stroke="#333333" stroke-width="7" mask="url(#path-7-inside-2)"/>
<circle cx="107.344" cy="52.156" r="52.156" fill="#F5F5F5"/>
<path d="M153.423 44.4591L145.929 43.6489C143.093 43.345 140.764 41.5221 139.65 38.7877C139.65 38.7877 139.65 38.7877 139.65 38.6865C138.536 36.0533 138.84 33.0151 140.662 30.7871L145.422 24.9132C146.131 24.0017 146.03 22.6852 145.22 21.875L137.523 14.1782C136.713 13.368 135.396 13.2667 134.485 13.9756L128.611 18.8368C126.383 20.6597 123.345 20.9635 120.712 19.8495C120.712 19.8495 120.712 19.8495 120.61 19.8495C117.977 18.7355 116.154 16.4062 115.749 13.5705L114.939 6.07626C114.838 4.86097 113.825 4.05078 112.711 4.05078H101.875C100.761 4.05078 99.7478 4.86097 99.6466 6.07626L98.8364 13.4693C98.5325 16.3049 96.6083 18.6342 93.9752 19.7482H93.874C91.2408 20.8622 88.2026 20.5584 85.9746 18.7355L80.202 14.0769C79.2905 13.368 77.9739 13.4693 77.1638 14.2794L69.4669 21.9763C68.6568 22.7864 68.5555 24.103 69.2644 25.0145L73.923 30.7871C75.7459 33.0151 76.0497 36.0533 74.9357 38.6865V38.7877C73.8217 41.4208 71.4924 43.345 68.6568 43.6489L61.2638 44.4591C60.1497 44.5603 59.2383 45.5731 59.2383 46.6871V57.6247C59.2383 58.7387 60.1497 59.7514 61.2638 59.8527L68.758 60.6629C71.5937 60.9667 73.923 62.8909 75.037 65.524C75.037 65.524 75.037 65.524 75.037 65.6253C76.151 68.2584 75.8472 71.2966 74.0243 73.5247L69.2644 79.3986C68.5555 80.31 68.6568 81.6266 69.4669 82.4368L77.1638 90.1336C77.9739 90.9438 79.2905 91.045 80.202 90.3361L86.0759 85.6775C88.3039 83.8546 91.3421 83.5508 93.9752 84.6648H94.0765C96.7096 85.7788 98.5325 88.1081 98.8364 90.9438L99.6466 98.438C99.7478 99.552 100.761 100.464 101.875 100.464H112.812C114.027 100.464 114.939 99.6533 115.04 98.438L115.85 90.9438C116.053 89.0196 116.964 87.3992 118.281 86.2852L108.66 76.0565C108.255 76.1578 107.85 76.1578 107.343 76.1578C94.1778 75.9552 83.544 65.3215 83.544 52.1559C83.544 38.9903 94.1778 28.3565 107.343 28.3565C120.509 28.3565 131.143 38.9903 131.143 52.1559C131.143 52.561 131.143 52.9661 131.041 53.4724L141.27 63.0935C142.485 61.7769 144.106 60.8654 145.929 60.6629L153.423 59.8527C154.537 59.7514 155.448 58.7387 155.448 57.6247V46.6871C155.448 45.5731 154.638 44.5603 153.423 44.4591Z" fill="#66C18C"/>
<path d="M121.521 55.8016C122.534 51.9532 121.926 47.801 119.698 44.3577C116.255 38.9901 110.28 36.7621 104.811 37.7749C103.494 37.9774 102.988 39.6991 103.899 40.7118L107.444 44.2564C109.672 46.4844 109.672 50.1303 107.444 52.4596C105.216 54.6876 101.57 54.6876 99.2408 52.4596L95.6962 48.915C94.6835 47.9022 93.0631 48.4086 92.7593 49.8265C91.9491 54.3838 93.3669 59.1437 96.8103 62.6882C100.557 66.4354 105.925 67.6507 110.685 66.4354L132.864 89.6271C134.18 91.0449 136.51 91.1462 137.826 89.7284L144.915 82.6392C146.333 81.2214 146.232 78.9933 144.814 77.6768L121.521 55.8016Z" fill="#66C18C"/>
</svg>
