<svg width="80" height="75" viewBox="0 0 80 75" fill="none" xmlns="http://www.w3.org/2000/svg">
<path d="M76.5854 14.948H65.7317V6.28945H63.9024V21.4114C63.9024 22.9968 62.6829 24.2163 61.0976 24.2163C59.5122 24.2163 58.2927 22.9968 58.2927 21.4114V4.82604C58.2927 2.26507 56.2195 0.191895 53.6585 0.191895C53.5366 0.191895 53.4146 0.191895 53.2927 0.191895H31.2195H25.6098C23.0488 0.191895 20.9756 2.26507 20.9756 4.82604V14.948H3.41463C1.58537 14.948 0 16.4114 0 18.3626V62.2651C0 64.0943 1.46341 65.6797 3.41463 65.6797H29.1463V72.6309H23.6585V74.4602H56.3415V72.6309H50.8537V65.6797H76.5854C78.4146 65.6797 80 64.2163 80 62.2651V18.3626C80 16.5334 78.4146 14.948 76.5854 14.948ZM25.4878 2.02116H49.878C49.2683 2.75287 48.9024 3.85043 48.9024 4.82604V36.4114C48.9024 37.9968 47.6829 39.2163 46.0976 39.2163C44.5122 39.2163 43.2927 37.9968 43.2927 36.4114C43.2927 36.2895 43.2927 35.9236 43.4146 35.6797L43.6585 34.5821H22.6829V4.82604C22.561 3.36263 23.9024 2.02116 25.4878 2.02116ZM41.3415 36.4114C41.3415 36.5334 41.3415 36.5334 41.3415 36.4114C41.3415 37.509 41.7073 38.4846 42.3171 39.3382H19.5122C18.7805 39.3382 16.5854 39.0943 16.2195 36.4114H41.3415ZM4.41463 17.7773H20.7317V34.5821H14.1463V35.5577C14.1463 39.7041 16.9512 41.1675 19.3902 41.1675H45.9756C48.5366 41.1675 50.7317 39.0943 50.7317 36.5334V4.82604C50.7317 3.24067 51.9512 2.02116 53.5366 2.02116C55.1219 2.02116 56.3415 3.24067 56.3415 4.82604V21.4114C56.3415 23.9724 58.4146 26.0455 60.9756 26.0455C63.5366 26.0455 65.6097 23.9724 65.6097 21.4114V17.7773H75.4634C76.5854 17.7773 77.0488 18.3626 77.0488 19.3626V58.1187H2.95122V19.3626C2.95122 18.2454 3.41463 17.7773 4.41463 17.7773ZM49.0244 72.509H30.9756V65.5577H49.0244V72.509Z" fill="#1C1C45"/>
<path d="M46.7075 8.97241H36.2197V10.8017H46.7075V8.97241Z" fill="#1C1C45"/>
<path d="M43.4148 12.6311H36.2197V14.4604H43.4148V12.6311Z" fill="#1C1C45"/>
<path d="M46.7075 22.387H36.2197V24.2162H46.7075V22.387Z" fill="#1C1C45"/>
<path d="M43.4148 26.0454H36.2197V27.8747H43.4148V26.0454Z" fill="#1C1C45"/>
<path d="M34.5123 6.89893H24.7562V16.5331H34.5123V6.89893ZM32.6831 14.7038H26.7074V8.72819H32.6831V14.7038Z" fill="#1C1C45"/>
<path d="M34.5123 20.314H24.7562V29.9481H34.5123V20.314ZM32.6831 28.1188H26.7074V22.1432H32.6831V28.1188Z" fill="#1C1C45"/>
<path d="M74.7561 45.0698H28.6586V55.4357H74.7561V45.0698ZM72.9269 53.6064H30.4878V46.8991H72.9269V53.6064Z" fill="#1C1C45"/>
<path d="M25.9756 45.0698H5.2439V55.4357H25.9756V45.0698ZM24.1463 53.6064H7.07316V46.8991H24.1463V53.6064Z" fill="#1C1C45"/>
</svg>
