<svg width="51" height="50" viewBox="0 0 51 50" fill="none" xmlns="http://www.w3.org/2000/svg">
<path d="M32.7705 8H18.3798C16.8775 8 15.6914 9.18605 15.6914 10.6884V39.3116C15.6914 40.7744 16.8775 42 18.3798 42H32.7705C34.2333 42 35.4588 40.814 35.4588 39.3116V10.6884C35.4588 9.18605 34.2728 8 32.7705 8ZM33.8775 39.3116C33.8775 39.9047 33.3635 40.4186 32.7705 40.4186H18.3798C17.7868 40.4186 17.2728 39.9047 17.2728 39.3116V10.6884C17.2728 10.0953 17.7868 9.5814 18.3798 9.5814H21.2263C21.2263 10.4512 21.9379 11.1628 22.8077 11.1628H28.3426C29.2123 11.1628 29.924 10.4512 29.924 9.5814H32.7705C33.3635 9.5814 33.8775 10.0953 33.8775 10.6884V39.3116Z" fill="#1C1C45" stroke="#1C1C45"/>
</svg>
