<svg id="Layer_1" data-name="Layer 1" xmlns="http://www.w3.org/2000/svg" viewBox="0 0 96 96"><title>Newspaper</title><path d="M66.57,9.91H47.74a2,2,0,0,0,0,4H66.57a2,2,0,0,0,0-4Z"/><path d="M66.57,16.19H47.74a2,2,0,0,0,0,4H66.57a2,2,0,0,0,0-4Z"/><path d="M66.57,22.47H47.74a2,2,0,0,0,0,4H66.57a2,2,0,0,0,0-4Z"/><path d="M66.57,53.84H47.74a2,2,0,0,0,0,4H66.57a2,2,0,0,0,0-4Z"/><path d="M66.57,60.12H47.74a2,2,0,1,0,0,4H66.57a2,2,0,0,0,0-4Z"/><path d="M66.57,66.4H47.74a2,2,0,0,0,0,4H66.57a2,2,0,0,0,0-4Z"/><path d="M32.05,53.84H13.22a2,2,0,1,0,0,4H32.05a2,2,0,0,0,0-4Z"/><path d="M66.57,47.57H13.22a2,2,0,1,0,0,4H66.57a2,2,0,0,0,0-4Z"/><path d="M32.05,60.12H13.22a2,2,0,1,0,0,4H32.05a2,2,0,0,0,0-4Z"/><path d="M32.05,66.4H13.22a2,2,0,1,0,0,4H32.05a2,2,0,0,0,0-4Z"/><path d="M32.05,72.67H13.22a2,2,0,1,0,0,4H32.05a2,2,0,0,0,0-4Z"/><path d="M66.57,72.67H47.74a2,2,0,1,0,0,4H66.57a2,2,0,0,0,0-4Z"/><path d="M92.19,41.29H79V2.5a2,2,0,0,0-2-2H3.81a2,2,0,0,0-2,2V76.94c0,18.35,16.3,18.56,16.47,18.56H85.39c8.8,0,8.8-8.78,8.8-14.58V43.29A2,2,0,0,0,92.19,41.29ZM5.81,76.94V4.5H75V80.92c0,5,1,8.39,2.51,10.58H18.28C17.77,91.5,5.81,91.33,5.81,76.94Zm84.38,4c0,8.3-1,10.58-4.8,10.58-1.57,0-6.36,0-6.36-10.58V45.29H90.19Z"/><path d="M13.22,40.06H39.37a2,2,0,0,0,2-2V11.91a2,2,0,0,0-2-2H13.22a2,2,0,0,0-2,2V38.06A2,2,0,0,0,13.22,40.06Zm14.86-4-.66-1.44,1.87-3.94,2.44,5.38Zm-4.39,0H17.48l3.11-6.85ZM37.37,13.91V36.06h-1.3a2,2,0,0,0-.13-.39L31.16,25.1a2,2,0,0,0-3.63,0l-2.27,4.77-2.85-6.31a2,2,0,0,0-3.65,0l-3.54,7.83V13.91Z"/></svg>