<svg width="32" height="32" viewBox="0 0 32 32" fill="none" xmlns="http://www.w3.org/2000/svg">
<path d="M2.66797 8C2.66797 6.93913 3.0894 5.92172 3.83954 5.17157C4.58969 4.42143 5.6071 4 6.66797 4H25.3346C26.3955 4 27.4129 4.42143 28.1631 5.17157C28.9132 5.92172 29.3346 6.93913 29.3346 8V24C29.3346 25.0609 28.9132 26.0783 28.1631 26.8284C27.4129 27.5786 26.3955 28 25.3346 28H6.66797C5.6071 28 4.58969 27.5786 3.83954 26.8284C3.0894 26.0783 2.66797 25.0609 2.66797 24V8ZM6.66797 6.66667C6.31435 6.66667 5.97521 6.80714 5.72516 7.05719C5.47511 7.30724 5.33464 7.64638 5.33464 8V24C5.33464 24.3536 5.47511 24.6928 5.72516 24.9428C5.97521 25.1929 6.31435 25.3333 6.66797 25.3333H25.3346C25.6883 25.3333 26.0274 25.1929 26.2774 24.9428C26.5275 24.6928 26.668 24.3536 26.668 24V8C26.668 7.64638 26.5275 7.30724 26.2774 7.05719C26.0274 6.80714 25.6883 6.66667 25.3346 6.66667H6.66797Z" fill="black"/>
<path d="M8 10.6668C8 10.3132 8.14048 9.97407 8.39052 9.72402C8.64057 9.47397 8.97971 9.3335 9.33333 9.3335H14.6667C15.0203 9.3335 15.3594 9.47397 15.6095 9.72402C15.8595 9.97407 16 10.3132 16 10.6668V16.0002C16 16.3538 15.8595 16.6929 15.6095 16.943C15.3594 17.193 15.0203 17.3335 14.6667 17.3335H9.33333C8.97971 17.3335 8.64057 17.193 8.39052 16.943C8.14048 16.6929 8 16.3538 8 16.0002V10.6668ZM10.6667 12.0002V14.6668H13.3333V12.0002H10.6667ZM18.6667 10.6668C18.6667 10.3132 18.8071 9.97407 19.0572 9.72402C19.3072 9.47397 19.6464 9.3335 20 9.3335H22.6667C23.0203 9.3335 23.3594 9.47397 23.6095 9.72402C23.8595 9.97407 24 10.3132 24 10.6668C24 11.0205 23.8595 11.3596 23.6095 11.6096C23.3594 11.8597 23.0203 12.0002 22.6667 12.0002H20C19.6464 12.0002 19.3072 11.8597 19.0572 11.6096C18.8071 11.3596 18.6667 11.0205 18.6667 10.6668ZM18.6667 16.0002C18.6667 15.6465 18.8071 15.3074 19.0572 15.0574C19.3072 14.8073 19.6464 14.6668 20 14.6668H22.6667C23.0203 14.6668 23.3594 14.8073 23.6095 15.0574C23.8595 15.3074 24 15.6465 24 16.0002C24 16.3538 23.8595 16.6929 23.6095 16.943C23.3594 17.193 23.0203 17.3335 22.6667 17.3335H20C19.6464 17.3335 19.3072 17.193 19.0572 16.943C18.8071 16.6929 18.6667 16.3538 18.6667 16.0002ZM8 21.3335C8 20.9799 8.14048 20.6407 8.39052 20.3907C8.64057 20.1406 8.97971 20.0002 9.33333 20.0002H22.6667C23.0203 20.0002 23.3594 20.1406 23.6095 20.3907C23.8595 20.6407 24 20.9799 24 21.3335C24 21.6871 23.8595 22.0263 23.6095 22.2763C23.3594 22.5264 23.0203 22.6668 22.6667 22.6668H9.33333C8.97971 22.6668 8.64057 22.5264 8.39052 22.2763C8.14048 22.0263 8 21.6871 8 21.3335Z" fill="black"/>
</svg>
