<svg id="Layer_1" data-name="Layer 1" xmlns="http://www.w3.org/2000/svg" viewBox="0 0 100 100"><title>NewspaperCircle</title><path d="M36.44,37.32a1,1,0,0,1,.9.58L38.76,41l1.12-2.36a1,1,0,0,1,.89-.57h0a1,1,0,0,1,.89.59L44,43.9a.71.71,0,0,1,0,.2h.66v-11h-11v8.63l1.75-3.87A1,1,0,0,1,36.44,37.32Z"/><polygon points="34.91 44.1 37.98 44.1 36.44 40.71 34.91 44.1"/><polygon points="39.82 43.38 40.15 44.1 41.95 44.1 40.75 41.44 39.82 43.38"/><path d="M63.36,64.74V28.49H29.14V64.31c0,7.07,5.91,7.2,6.17,7.2H64.62a9.12,9.12,0,0,1-1.26-5.23ZM31.81,32.16a1,1,0,0,1,1-1H45.73a1,1,0,0,1,1,1V45.09a1,1,0,0,1-1,1H32.8a1,1,0,0,1-1-1Zm10.3,32H32.8a1,1,0,0,1,0-2h9.31a1,1,0,0,1,0,2Zm0-3.1H32.8a1,1,0,0,1,0-2h9.31a1,1,0,1,1,0,2Zm0-3.11H32.8a1,1,0,1,1,0-2h9.31a1,1,0,1,1,0,2Zm0-3.1H32.8a1,1,0,0,1,0-2h9.31a1,1,0,1,1,0,2Zm17.07,9.31H49.87a1,1,0,0,1,0-2h9.31a1,1,0,1,1,0,2Zm0-3.1H49.87a1,1,0,0,1,0-2h9.31a1,1,0,0,1,0,2Zm0-3.11H49.87a1,1,0,0,1,0-2h9.31a1,1,0,1,1,0,2Zm0-3.1H49.87a1,1,0,0,1,0-2h9.31a1,1,0,0,1,0,2Zm0-3.11H32.8a1,1,0,1,1,0-2H59.18a1,1,0,1,1,0,2Zm0-12.41H49.87a1,1,0,0,1,0-2h9.31a1,1,0,0,1,0,2Zm0-3.1H49.87a1,1,0,0,1,0-2h9.31a1,1,0,1,1,0,2Zm0-3.11H49.87a1,1,0,1,1,0-2h9.31a1,1,0,1,1,0,2Z"/><path d="M65.34,64.74v1.54c0,5.23,2.37,5.23,3.15,5.23,1.86,0,2.37-1.12,2.37-5.23V48.66H65.34Z"/><path d="M50,2A48,48,0,1,0,98,50,48,48,0,0,0,50,2ZM72.84,66.28c0,2.87,0,7.21-4.35,7.21H35.3c-.08,0-8.14-.11-8.14-9.18V27.5a1,1,0,0,1,1-1h36.2a1,1,0,0,1,1,1V46.68h6.51a1,1,0,0,1,1,1Z"/></svg>