<svg width="30" height="22" viewBox="0 0 30 22" fill="none" xmlns="http://www.w3.org/2000/svg">
<path opacity="0.4" d="M15.4225 14.5538C15.4225 12.8832 15.7746 11.2447 16.4789 9.63828C17.2535 7.96765 18.169 6.58616 19.2254 5.49382C20.2817 4.40148 21.3732 3.43765 22.5 2.60234C23.6972 1.70276 24.6831 1.06021 25.4577 0.67468C26.3028 0.224893 26.831 0 27.0423 0C27.4648 0 27.993 0.224893 28.6268 0.67468C29.331 1.12447 29.7887 1.60638 30 2.12042C28.0986 3.14851 26.5141 4.33723 25.2465 5.68659C24.0493 7.03595 23.2746 8.12829 22.9225 8.9636C22.6408 9.73467 22.5 10.3451 22.5 10.7949C22.5 11.6302 23.2042 12.7868 24.6127 14.2647C26.0915 15.6783 26.831 16.8349 26.831 17.7344C26.831 18.891 26.1268 19.887 24.7183 20.7223C23.3099 21.5576 21.7606 21.9753 20.0704 21.9753C18.9437 21.9753 17.8873 21.7504 16.9014 21.3006C15.9155 20.0155 15.4225 17.7666 15.4225 14.5538ZM0 14.5538C0 12.8832 0.352113 11.2447 1.05634 9.63828C1.83099 7.96765 2.74648 6.58616 3.80282 5.49382C4.85916 4.40148 5.9507 3.43765 7.07747 2.60234C8.27465 1.70276 9.26056 1.06021 10.0352 0.67468C10.8803 0.224893 11.4085 0 11.6197 0C12.0423 0 12.5704 0.224893 13.2042 0.67468C13.9085 1.12447 14.3662 1.60638 14.5775 2.12042C12.6761 3.14851 11.1268 4.33723 9.92958 5.68659C8.73239 7.03595 7.95775 8.12829 7.60563 8.9636C7.32394 9.73467 7.1831 10.3451 7.1831 10.7949C7.1831 11.6302 7.88732 12.7868 9.29577 14.2647C10.7746 15.6783 11.5141 16.8349 11.5141 17.7344C11.5141 18.891 10.8099 19.887 9.40141 20.7223C7.99296 21.5576 6.40845 21.9753 4.64789 21.9753C3.59155 21.9753 2.57042 21.7504 1.58451 21.3006C0.528169 19.887 0 17.6381 0 14.5538Z" fill="#333333"/>
</svg>
