<svg width="51" height="50" viewBox="0 0 51 50" fill="none" xmlns="http://www.w3.org/2000/svg">
<g clip-path="url(#clip0)">
<path d="M37.7346 9.32227H24.8482C24.2957 9.32227 23.7659 9.5435 23.3752 9.9373C22.9845 10.3311 22.765 10.8652 22.765 11.4221V17.7088C21.6423 17.956 20.5476 18.3181 19.4978 18.7894C18.5937 19.1889 17.7114 19.6368 16.8546 20.1313C16.0019 20.6179 15.2674 21.2898 14.7045 22.0982C14.1416 22.9067 13.7644 23.8314 13.6002 24.8051L11.3954 37.6108C11.3594 37.8216 11.4079 38.0383 11.5303 38.2132C11.6527 38.388 11.839 38.5066 12.0482 38.543C12.2574 38.5793 12.4724 38.5304 12.6458 38.407C12.8193 38.2836 12.937 38.0958 12.973 37.885L15.1778 25.0664C15.3049 24.3298 15.5927 23.6308 16.0205 23.02C16.4483 22.4091 17.0054 21.9017 17.6514 21.5344C18.4567 21.0753 19.2856 20.6596 20.1346 20.2893C20.9835 19.9112 21.8637 19.609 22.765 19.3861V24.7632C22.5758 24.6877 22.3824 24.623 22.1858 24.5697C22.0843 24.5415 21.9783 24.5338 21.8739 24.5469C21.7694 24.56 21.6686 24.5937 21.5771 24.6462C21.3922 24.752 21.2567 24.9276 21.2002 25.1342C21.1723 25.2365 21.1646 25.3433 21.1776 25.4486C21.1906 25.5539 21.2241 25.6556 21.2761 25.7478C21.3811 25.9341 21.5553 26.0708 21.7602 26.1276C22.18 26.2346 22.5733 26.4279 22.9154 26.6953C22.4257 27.4598 21.7892 28.1178 21.0434 28.6307C20.8678 28.753 20.7475 28.9407 20.7091 29.1524C20.6707 29.3642 20.7173 29.5826 20.8386 29.7597C20.96 29.9368 21.1462 30.058 21.3562 30.0967C21.5663 30.1354 21.783 30.0884 21.9586 29.9661C22.9071 29.3096 23.711 28.463 24.3202 27.4792L26.925 23.3375C27.1245 23.018 27.4417 22.7914 27.8068 22.7076C28.172 22.6238 28.5552 22.6897 28.8722 22.8908C29.1892 23.0918 29.414 23.4115 29.4971 23.7796C29.5802 24.1477 29.5149 24.534 29.3154 24.8535L27.3698 28.0307C26.5886 29.294 26.1956 30.7619 26.2402 32.2498C26.2717 33.2458 26.0536 34.2336 25.6062 35.1221C25.1588 36.0106 24.4964 36.7711 23.6802 37.3334L23.469 37.4818C22.6212 38.066 21.9022 38.8204 21.357 39.6977C21.3011 39.788 21.2634 39.8884 21.246 39.9933C21.2287 40.0982 21.232 40.2056 21.2557 40.3092C21.2795 40.4128 21.3233 40.5107 21.3846 40.5973C21.4459 40.6839 21.5235 40.7575 21.613 40.8138C21.7025 40.8701 21.8022 40.9081 21.9063 40.9257C22.0103 40.9432 22.1168 40.9399 22.2197 40.9159C22.3225 40.892 22.4196 40.8478 22.5055 40.786C22.5914 40.7242 22.6643 40.646 22.7202 40.5557C23.1488 39.8651 23.7142 39.271 24.381 38.8107L24.5922 38.6623C25.7874 37.8336 26.718 36.6726 27.2706 35.3206L27.4658 35.5206C27.7729 35.8341 28.1554 36.062 28.5759 36.182C28.9964 36.3021 29.4406 36.3102 29.8651 36.2055C30.2897 36.1009 30.6801 35.8871 30.9982 35.585C31.3163 35.2829 31.5513 34.9029 31.6802 34.4819C32.1068 34.5785 32.5513 34.5583 32.9675 34.4234C33.3838 34.2886 33.7566 34.0439 34.0475 33.7149C34.3383 33.3858 34.5366 32.9843 34.6217 32.5521C34.7068 32.1198 34.6756 31.6724 34.5314 31.2563L34.493 31.1434H37.7346C38.0082 31.1434 38.2791 31.0891 38.5318 30.9836C38.7846 30.8781 39.0142 30.7234 39.2077 30.5284C39.4011 30.3334 39.5546 30.1019 39.6593 29.8472C39.7639 29.5924 39.8178 29.3193 39.8178 29.0436V11.4221C39.8178 11.1464 39.7639 10.8733 39.6593 10.6185C39.5546 10.3638 39.4011 10.1323 39.2077 9.9373C39.0142 9.74231 38.7846 9.58764 38.5318 9.48211C38.2791 9.37658 38.0082 9.32227 37.7346 9.32227ZM30.6946 25.7083C31.0905 25.0281 31.2082 24.2193 31.0227 23.4532C30.8373 22.6871 30.3634 22.0238 29.7013 21.6037C29.0392 21.1836 28.2409 21.0398 27.4754 21.2027C26.71 21.3655 26.0374 21.8223 25.6002 22.4763L24.3778 24.4116V11.4221C24.3778 11.2952 24.4269 11.1732 24.5148 11.0822C24.6027 10.9912 24.7223 10.9384 24.8482 10.9351H34.2562V29.5242H28.3874C28.4884 29.3023 28.6027 29.0869 28.7298 28.8791L30.6946 25.7083ZM29.8594 34.4561C29.6798 34.6041 29.4517 34.6788 29.2202 34.6657C28.9886 34.6526 28.7703 34.5525 28.6082 34.3852L27.7602 33.5143C27.8243 33.0798 27.8511 32.6406 27.8402 32.2014C27.831 31.8453 27.8535 31.4891 27.9074 31.137H28.8002C28.8002 31.137 28.8002 31.1693 28.8226 31.1854L30.0706 33.2304C30.1892 33.4257 30.2332 33.6578 30.1944 33.8834C30.1555 34.109 30.0364 34.3126 29.8594 34.4561ZM33.0274 31.7853C33.0947 31.984 33.0875 32.2005 33.007 32.3941C32.9266 32.5877 32.7786 32.7449 32.5909 32.8359C32.4033 32.9268 32.1891 32.9454 31.9888 32.8879C31.7886 32.8304 31.6162 32.701 31.5042 32.524C31.4786 32.4788 31.4562 32.4337 31.4306 32.3885L30.6722 31.1434H32.8002L33.0274 31.7853ZM38.2146 29.0371C38.2146 29.1663 38.1637 29.2902 38.0731 29.3815C37.9825 29.4729 37.8596 29.5242 37.7314 29.5242H35.8562V10.9351H37.7346C37.8628 10.9351 37.9857 10.9864 38.0763 11.0777C38.1669 11.1691 38.2178 11.293 38.2178 11.4221L38.2146 29.0371Z" fill="#333333" stroke="#333333" stroke-width="0.5"/>
</g>
<defs>
<clipPath id="clip0">
<rect x="9.6001" y="9" width="32" height="32" fill="white"/>
</clipPath>
</defs>
</svg>
