<svg width="81" height="81" viewBox="0 0 81 81" fill="none" xmlns="http://www.w3.org/2000/svg">
<g clip-path="url(#clip0)">
<path d="M59.915 15.8281H39.2968C38.4128 15.8281 37.565 16.1821 36.9399 16.8122C36.3148 17.4423 35.9636 18.2968 35.9636 19.1879V29.2466C34.1673 29.6422 32.4157 30.2215 30.7361 30.9755C29.2895 31.6148 27.8778 32.3315 26.507 33.1225C25.1427 33.9011 23.9675 34.9762 23.0668 36.2697C22.1661 37.5632 21.5626 39.0427 21.3 40.6007L17.7723 61.0897C17.7146 61.4271 17.7922 61.7738 17.9881 62.0535C18.184 62.3333 18.482 62.5231 18.8168 62.5813C19.1515 62.6394 19.4954 62.5612 19.7729 62.3637C20.0504 62.1663 20.2387 61.8658 20.2964 61.5284L23.8241 41.0188C24.0275 39.8401 24.488 38.7218 25.1724 37.7444C25.8569 36.7671 26.7482 35.9552 27.7819 35.3675C29.0703 34.6329 30.3965 33.9679 31.755 33.3754C33.1132 32.7704 34.5215 32.2869 35.9636 31.9303V40.5336C35.6608 40.4128 35.3514 40.3094 35.0369 40.224C34.8746 40.1789 34.705 40.1665 34.5378 40.1875C34.3707 40.2085 34.2093 40.2625 34.0629 40.3464C33.7671 40.5157 33.5503 40.7966 33.46 41.1271C33.4153 41.2908 33.403 41.4618 33.4238 41.6302C33.4446 41.7987 33.4982 41.9614 33.5814 42.109C33.7494 42.4071 34.028 42.6257 34.356 42.7167C35.0276 42.8879 35.6568 43.1972 36.2043 43.6251C35.4207 44.8482 34.4023 45.901 33.2091 46.7216C32.928 46.9174 32.7356 47.2176 32.6741 47.5564C32.6127 47.8951 32.6872 48.2446 32.8814 48.528C33.0756 48.8113 33.3735 49.0053 33.7095 49.0672C34.0456 49.1292 34.3923 49.054 34.6734 48.8583C36.1909 47.8078 37.4772 46.4533 38.452 44.8792L42.6196 38.2525C42.9388 37.7413 43.4463 37.3787 44.0305 37.2447C44.6148 37.1106 45.228 37.216 45.7352 37.5377C46.2423 37.8594 46.602 38.3709 46.735 38.9599C46.868 39.5488 46.7634 40.1669 46.4443 40.6781L43.3313 45.7617C42.0814 47.7829 41.4526 50.1316 41.524 52.5122C41.5743 54.1057 41.2254 55.6863 40.5095 57.1079C39.7936 58.5295 38.7338 59.7463 37.428 60.6459L37.09 60.8833C35.7335 61.8181 34.5831 63.0251 33.7108 64.4289C33.6214 64.5732 33.5611 64.7339 33.5333 64.9018C33.5055 65.0697 33.5107 65.2414 33.5488 65.4072C33.5868 65.573 33.6569 65.7297 33.7549 65.8682C33.853 66.0067 33.9772 66.1244 34.1204 66.2146C34.2637 66.3047 34.4231 66.3655 34.5896 66.3936C34.7562 66.4216 34.9265 66.4163 35.091 66.378C35.2555 66.3396 35.4109 66.269 35.5484 66.1701C35.6858 66.0712 35.8025 65.9461 35.892 65.8017C36.5777 64.6966 37.4823 63.7461 38.5492 63.0096L38.8872 62.7722C40.7995 61.4462 42.2883 59.5887 43.1726 57.4255L43.4849 57.7454C43.9762 58.247 44.5882 58.6116 45.261 58.8037C45.9338 58.9958 46.6445 59.0088 47.3238 58.8413C48.0031 58.6739 48.6277 58.3319 49.1367 57.8485C49.6457 57.3652 50.0217 56.7571 50.228 56.0836C50.9105 56.2381 51.6216 56.2058 52.2876 55.99C52.9536 55.7742 53.5502 55.3828 54.0156 54.8563C54.481 54.3298 54.7982 53.6875 54.9343 52.9958C55.0705 52.3041 55.0206 51.5883 54.7899 50.9226L54.7284 50.742H59.915C60.3527 50.742 60.7861 50.6551 61.1905 50.4863C61.5949 50.3174 61.9624 50.0699 62.2719 49.758C62.5814 49.446 62.8269 49.0756 62.9944 48.668C63.1619 48.2603 63.2481 47.8234 63.2481 47.3822V19.1879C63.2481 18.7467 63.1619 18.3098 62.9944 17.9022C62.8269 17.4945 62.5814 17.1242 62.2719 16.8122C61.9624 16.5002 61.5949 16.2527 61.1905 16.0839C60.7861 15.915 60.3527 15.8281 59.915 15.8281ZM48.651 42.0458C49.2844 40.9575 49.4726 39.6634 49.176 38.4376C48.8793 37.2118 48.1211 36.1505 47.0617 35.4784C46.0023 34.8063 44.725 34.5762 43.5003 34.8368C42.2756 35.0974 41.1995 35.8282 40.5 36.8745L38.5441 39.9711V19.1879C38.5441 18.9848 38.6227 18.7896 38.7633 18.644C38.9039 18.4985 39.0953 18.414 39.2968 18.4086H54.3496V48.1512H44.9595C45.121 47.7962 45.304 47.4515 45.5073 47.119L48.651 42.0458ZM47.3147 56.0423C47.0273 56.279 46.6624 56.3986 46.2918 56.3776C45.9213 56.3566 45.572 56.1965 45.3128 55.9288L43.956 54.5353C44.0585 53.8402 44.1014 53.1374 44.084 52.4348C44.0693 51.865 44.1053 51.295 44.1915 50.7317H45.62C45.62 50.7317 45.62 50.7833 45.6558 50.8091L47.6526 54.0812C47.8424 54.3936 47.9128 54.765 47.8506 55.126C47.7884 55.4869 47.5979 55.8127 47.3147 56.0423ZM52.3835 51.769C52.4912 52.0868 52.4796 52.4334 52.3509 52.7431C52.2222 53.0528 51.9853 53.3043 51.6851 53.4499C51.3849 53.5955 51.0422 53.6251 50.7218 53.5331C50.4013 53.4412 50.1255 53.234 49.9464 52.9509C49.9054 52.8787 49.8696 52.8064 49.8286 52.7341L48.6152 50.742H52.02L52.3835 51.769ZM60.683 47.3719C60.683 47.5786 60.6016 47.7768 60.4566 47.923C60.3116 48.0691 60.1149 48.1512 59.9099 48.1512H56.9096V18.4086H59.915C60.12 18.4086 60.3167 18.4907 60.4617 18.6369C60.6067 18.783 60.6881 18.9812 60.6881 19.1879L60.683 47.3719Z" fill="#005DAA" stroke="#005DAA" stroke-width="0.5"/>
</g>
<defs>
<clipPath id="clip0">
<rect x="14.8999" y="15.312" width="51.2" height="51.2" fill="white"/>
</clipPath>
</defs>
</svg>
