<svg width="51" height="50" viewBox="0 0 51 50" fill="none" xmlns="http://www.w3.org/2000/svg">
<g clip-path="url(#clip0)">
<path d="M37.7263 9.32227H24.8399C24.2874 9.32227 23.7576 9.5435 23.3669 9.9373C22.9762 10.3311 22.7567 10.8652 22.7567 11.4221V17.7088C21.634 17.956 20.5393 18.3181 19.4895 18.7894C18.5854 19.1889 17.7031 19.6368 16.8463 20.1313C15.9936 20.6179 15.2591 21.2898 14.6962 22.0982C14.1333 22.9067 13.7561 23.8314 13.5919 24.8051L11.3871 37.6108C11.3511 37.8216 11.3996 38.0383 11.522 38.2132C11.6444 38.388 11.8307 38.5066 12.0399 38.543C12.2491 38.5793 12.4641 38.5304 12.6375 38.407C12.811 38.2836 12.9287 38.0958 12.9647 37.885L15.1695 25.0664C15.2966 24.3298 15.5844 23.6308 16.0122 23.02C16.44 22.4091 16.9971 21.9017 17.6431 21.5344C18.4484 21.0753 19.2773 20.6596 20.1263 20.2893C20.9752 19.9112 21.8554 19.609 22.7567 19.3861V24.7632C22.5675 24.6877 22.3741 24.623 22.1775 24.5697C22.076 24.5415 21.97 24.5338 21.8656 24.5469C21.7611 24.56 21.6603 24.5937 21.5688 24.6462C21.3839 24.752 21.2484 24.9276 21.1919 25.1342C21.164 25.2365 21.1563 25.3433 21.1693 25.4486C21.1823 25.5539 21.2158 25.6556 21.2678 25.7478C21.3728 25.9341 21.547 26.0708 21.7519 26.1276C22.1717 26.2346 22.565 26.4279 22.9071 26.6953C22.4174 27.4598 21.7809 28.1178 21.0351 28.6307C20.8595 28.753 20.7392 28.9407 20.7008 29.1524C20.6624 29.3642 20.709 29.5826 20.8303 29.7597C20.9517 29.9368 21.1379 30.058 21.3479 30.0967C21.558 30.1354 21.7747 30.0884 21.9503 29.9661C22.8988 29.3096 23.7027 28.463 24.3119 27.4792L26.9167 23.3375C27.1162 23.018 27.4334 22.7914 27.7985 22.7076C28.1637 22.6238 28.5469 22.6897 28.8639 22.8908C29.1809 23.0918 29.4057 23.4115 29.4888 23.7796C29.5719 24.1477 29.5066 24.534 29.3071 24.8535L27.3615 28.0307C26.5803 29.294 26.1873 30.7619 26.2319 32.2498C26.2634 33.2458 26.0453 34.2336 25.5979 35.1221C25.1505 36.0106 24.4881 36.7711 23.6719 37.3334L23.4607 37.4818C22.6129 38.066 21.8939 38.8204 21.3487 39.6977C21.2928 39.788 21.2551 39.8884 21.2377 39.9933C21.2204 40.0982 21.2237 40.2056 21.2474 40.3092C21.2712 40.4128 21.315 40.5107 21.3763 40.5973C21.4376 40.6839 21.5152 40.7575 21.6047 40.8138C21.6942 40.8701 21.7939 40.9081 21.898 40.9257C22.002 40.9432 22.1085 40.9399 22.2113 40.9159C22.3142 40.892 22.4113 40.8478 22.4972 40.786C22.5831 40.7242 22.656 40.646 22.7119 40.5557C23.1405 39.8651 23.7059 39.271 24.3727 38.8107L24.5839 38.6623C25.7791 37.8336 26.7097 36.6726 27.2623 35.3206L27.4575 35.5206C27.7646 35.8341 28.1471 36.062 28.5676 36.182C28.9881 36.3021 29.4323 36.3102 29.8568 36.2055C30.2814 36.1009 30.6718 35.8871 30.9899 35.585C31.308 35.2829 31.543 34.9029 31.6719 34.4819C32.0985 34.5785 32.543 34.5583 32.9592 34.4234C33.3755 34.2886 33.7483 34.0439 34.0392 33.7149C34.33 33.3858 34.5283 32.9843 34.6134 32.5521C34.6985 32.1198 34.6673 31.6724 34.5231 31.2563L34.4847 31.1434H37.7263C37.9999 31.1434 38.2708 31.0891 38.5235 30.9836C38.7763 30.8781 39.0059 30.7234 39.1994 30.5284C39.3928 30.3334 39.5463 30.1019 39.651 29.8472C39.7556 29.5924 39.8095 29.3193 39.8095 29.0436V11.4221C39.8095 11.1464 39.7556 10.8733 39.651 10.6185C39.5463 10.3638 39.3928 10.1323 39.1994 9.9373C39.0059 9.74231 38.7763 9.58764 38.5235 9.48211C38.2708 9.37658 37.9999 9.32227 37.7263 9.32227ZM30.6863 25.7083C31.0822 25.0281 31.1998 24.2193 31.0144 23.4532C30.829 22.6871 30.3551 22.0238 29.693 21.6037C29.0309 21.1836 28.2326 21.0398 27.4671 21.2027C26.7017 21.3655 26.0291 21.8223 25.5919 22.4763L24.3695 24.4116V11.4221C24.3695 11.2952 24.4186 11.1732 24.5065 11.0822C24.5944 10.9912 24.714 10.9384 24.8399 10.9351H34.2479V29.5242H28.3791C28.4801 29.3023 28.5944 29.0869 28.7215 28.8791L30.6863 25.7083ZM29.8511 34.4561C29.6715 34.6041 29.4434 34.6788 29.2119 34.6657C28.9803 34.6526 28.762 34.5525 28.5999 34.3852L27.7519 33.5143C27.816 33.0798 27.8428 32.6406 27.8319 32.2014C27.8227 31.8453 27.8452 31.4891 27.8991 31.137H28.7919C28.7919 31.137 28.7919 31.1693 28.8143 31.1854L30.0623 33.2304C30.1809 33.4257 30.2249 33.6578 30.1861 33.8834C30.1472 34.109 30.0281 34.3126 29.8511 34.4561ZM33.0191 31.7853C33.0864 31.984 33.0792 32.2005 32.9987 32.3941C32.9183 32.5877 32.7703 32.7449 32.5826 32.8359C32.395 32.9268 32.1808 32.9454 31.9805 32.8879C31.7803 32.8304 31.6079 32.701 31.4959 32.524C31.4703 32.4788 31.4479 32.4337 31.4223 32.3885L30.6639 31.1434H32.7919L33.0191 31.7853ZM38.2063 29.0371C38.2063 29.1663 38.1554 29.2902 38.0648 29.3815C37.9742 29.4729 37.8513 29.5242 37.7231 29.5242H35.8479V10.9351H37.7263C37.8545 10.9351 37.9774 10.9864 38.068 11.0777C38.1586 11.1691 38.2095 11.293 38.2095 11.4221L38.2063 29.0371Z" fill="#BDBDBD" stroke="#BDBDBD" stroke-width="0.5"/>
</g>
<defs>
<clipPath id="clip0">
<rect x="9.5918" y="9" width="32" height="32" fill="white"/>
</clipPath>
</defs>
</svg>
