<?xml version="1.0" encoding="UTF-8"?>
<svg width="83px" height="80px" viewBox="0 0 83 80" version="1.1" xmlns="http://www.w3.org/2000/svg" xmlns:xlink="http://www.w3.org/1999/xlink">
    <!-- Generator: Sketch 58 (84663) - https://sketch.com -->
    <title>Path 2</title>
    <desc>Created with Sketch.</desc>
    <g id="Payment-Flow" stroke="none" stroke-width="1" fill="none" fill-rule="evenodd">
        <g id="2.4.1-Payment-Method---Payment-Successful" transform="translate(-359.000000, -182.000000)" fill="#0ABFC2" fill-rule="nonzero">
            <g id="Unlock---Use-new-CC" transform="translate(96.000000, 142.000000)">
                <path d="M263.23876,83.9984924 C259.710083,51.1537947 296.017988,29.5230744 324.278131,45.2306967 C327.652227,47.1061265 324.62275,52.2500985 321.248919,50.3749051 C305.55107,41.6496254 285.497976,45.4510066 275.123088,60.3711655 C266.228596,73.162225 267.261139,90.7475438 277.530302,102.459569 C287.770726,114.138714 305.282913,117.53975 319.19512,110.51868 C334.770413,102.658432 341.356656,84.9364472 336.273162,68.6635741 C335.124643,64.9870607 340.920178,63.4294064 342.06052,67.0798231 C347.272207,83.7631719 341.830801,101.915527 327.53913,112.373499 C302.660623,130.578284 266.487754,114.239636 263.23876,83.9984924 Z M341.039309,42.969415 C343.53612,40.0890118 347.721553,44.2716776 345.241864,47.1322987 C331.36933,63.1363541 317.496945,79.1402906 303.624384,95.1443484 C302.617459,96.3059053 300.437786,96.2643398 299.421711,95.1443484 L299.421711,95.1443484 L281.793946,75.7121382 C279.242549,72.8995585 283.434645,68.7250146 285.996594,71.5491377 C291.156149,77.2369372 296.315826,82.9246244 301.475263,88.6123117 C314.663357,73.3979716 327.851329,58.1837529 341.039309,42.969415 Z" id="Path-2"></path>
            </g>
        </g>
    </g>
</svg>