<svg width="53" height="40" viewBox="0 0 53 40" fill="none" xmlns="http://www.w3.org/2000/svg">
<path fill-rule="evenodd" clip-rule="evenodd" d="M46.8194 25.7313C46.3738 25.2806 45.6449 25.2863 45.1926 25.7495L42.7933 28.1858L40.3818 25.7347C39.9272 25.2704 39.1961 25.2659 38.7505 25.7165C38.3027 26.1717 38.3105 26.9147 38.7662 27.3767L41.18 29.8279L38.7808 32.2642C38.3262 32.7262 38.3172 33.4693 38.7628 33.9199C39.2084 34.3729 39.9373 34.3649 40.3896 33.9017L42.7889 31.4654L45.2005 33.9165C45.655 34.3808 46.3883 34.3899 46.8339 33.9347C47.2795 33.4818 47.2739 32.7365 46.8183 32.2745L44.4044 29.8233L46.8015 27.387C47.256 26.925 47.265 26.1853 46.8194 25.7313ZM1.8266 11.2281H41.8708V19.0925C36.8965 19.4544 32.8962 23.4133 32.3778 28.4225H3.35483C2.25764 28.4225 1.8266 27.9844 1.8266 26.8692V11.2281ZM41.8708 4.91252H1.8266V3.30688C1.8266 2.19169 2.25764 1.75358 3.35483 1.75358H40.3437C41.4398 1.75358 41.8697 2.19169 41.8697 3.30688V4.91252H41.8708ZM2.4211 0C1.13917 0 0.101318 1.05601 0.101318 2.35783V27.8183C0.101318 29.1224 1.14029 30.1761 2.4211 30.1761H32.3387C32.6667 35.6599 37.145 40 42.6187 40C48.3062 40 52.9178 35.3151 52.9178 29.532C52.9178 24.0892 48.8246 19.6125 43.5961 19.113V2.35897C43.5961 1.05602 42.5571 0.00113841 41.2763 0.00113841H2.4211V0ZM34.2767 29.6504C34.2767 24.9028 38.0642 21.0554 42.7351 21.0554C47.406 21.0554 51.1936 24.9028 51.1936 29.6504C51.1936 34.3979 47.406 38.2476 42.7351 38.2476C38.0642 38.2476 34.2767 34.3979 34.2767 29.6504Z" fill="black"/>
</svg>
