<svg width="51" height="50" viewBox="0 0 51 50" fill="none" xmlns="http://www.w3.org/2000/svg">
<g clip-path="url(#clip0)">
<path d="M37.281 9.32227H24.3946C23.8421 9.32227 23.3122 9.5435 22.9216 9.9373C22.5309 10.3311 22.3114 10.8652 22.3114 11.4221V17.7088C21.1887 17.956 20.094 18.3181 19.0442 18.7894C18.1401 19.1889 17.2578 19.6368 16.401 20.1313C15.5483 20.6179 14.8138 21.2898 14.2509 22.0982C13.688 22.9067 13.3108 23.8314 13.1466 24.8051L10.9418 37.6108C10.9057 37.8216 10.9543 38.0383 11.0767 38.2132C11.1991 38.388 11.3854 38.5066 11.5946 38.543C11.8038 38.5793 12.0188 38.5304 12.1922 38.407C12.3657 38.2836 12.4833 38.0958 12.5194 37.885L14.7242 25.0664C14.8513 24.3298 15.1391 23.6308 15.5669 23.02C15.9947 22.4091 16.5517 21.9017 17.1978 21.5344C18.0031 21.0753 18.832 20.6596 19.681 20.2893C20.5299 19.9112 21.4101 19.609 22.3114 19.3861V24.7632C22.1222 24.6877 21.9288 24.623 21.7322 24.5697C21.6307 24.5415 21.5247 24.5338 21.4203 24.5469C21.3158 24.56 21.215 24.5937 21.1234 24.6462C20.9386 24.752 20.8031 24.9276 20.7466 25.1342C20.7187 25.2365 20.711 25.3433 20.724 25.4486C20.737 25.5539 20.7705 25.6556 20.8225 25.7478C20.9275 25.9341 21.1017 26.0708 21.3066 26.1276C21.7264 26.2346 22.1197 26.4279 22.4618 26.6953C21.9721 27.4598 21.3356 28.1178 20.5898 28.6307C20.4141 28.753 20.2939 28.9407 20.2555 29.1524C20.2171 29.3642 20.2637 29.5826 20.385 29.7597C20.5064 29.9368 20.6926 30.058 20.9026 30.0967C21.1126 30.1354 21.3293 30.0884 21.505 29.9661C22.4535 29.3096 23.2574 28.463 23.8666 27.4792L26.4714 23.3375C26.6709 23.018 26.9881 22.7914 27.3532 22.7076C27.7184 22.6238 28.1016 22.6897 28.4186 22.8908C28.7356 23.0918 28.9604 23.4115 29.0435 23.7796C29.1266 24.1477 29.0613 24.534 28.8618 24.8535L26.9162 28.0307C26.135 29.294 25.742 30.7619 25.7866 32.2498C25.8181 33.2458 25.6 34.2336 25.1526 35.1221C24.7052 36.0106 24.0428 36.7711 23.2266 37.3334L23.0154 37.4818C22.1676 38.066 21.4486 38.8204 20.9034 39.6977C20.8475 39.788 20.8098 39.8884 20.7924 39.9933C20.775 40.0982 20.7783 40.2056 20.8021 40.3092C20.8259 40.4128 20.8697 40.5107 20.931 40.5973C20.9923 40.6839 21.0699 40.7575 21.1594 40.8138C21.2489 40.8701 21.3486 40.9081 21.4527 40.9257C21.5567 40.9432 21.6632 40.9399 21.766 40.9159C21.8689 40.892 21.966 40.8478 22.0519 40.786C22.1378 40.7242 22.2107 40.646 22.2666 40.5557C22.6952 39.8651 23.2606 39.271 23.9274 38.8107L24.1386 38.6623C25.3338 37.8336 26.2644 36.6726 26.817 35.3206L27.0122 35.5206C27.3193 35.8341 27.7017 36.062 28.1223 36.182C28.5428 36.3021 28.987 36.3102 29.4115 36.2055C29.8361 36.1009 30.2264 35.8871 30.5446 35.585C30.8627 35.2829 31.0977 34.9029 31.2266 34.4819C31.6532 34.5785 32.0977 34.5583 32.5139 34.4234C32.9301 34.2886 33.303 34.0439 33.5939 33.7149C33.8847 33.3858 34.083 32.9843 34.1681 32.5521C34.2532 32.1198 34.222 31.6724 34.0778 31.2563L34.0394 31.1434H37.281C37.5546 31.1434 37.8255 31.0891 38.0782 30.9836C38.331 30.8781 38.5606 30.7234 38.7541 30.5284C38.9475 30.3334 39.101 30.1019 39.2056 29.8472C39.3103 29.5924 39.3642 29.3193 39.3642 29.0436V11.4221C39.3642 11.1464 39.3103 10.8733 39.2056 10.6185C39.101 10.3638 38.9475 10.1323 38.7541 9.9373C38.5606 9.74231 38.331 9.58764 38.0782 9.48211C37.8255 9.37658 37.5546 9.32227 37.281 9.32227ZM30.241 25.7083C30.6369 25.0281 30.7545 24.2193 30.5691 23.4532C30.3837 22.6871 29.9098 22.0238 29.2477 21.6037C28.5856 21.1836 27.7873 21.0398 27.0218 21.2027C26.2564 21.3655 25.5838 21.8223 25.1466 22.4763L23.9242 24.4116V11.4221C23.9242 11.2952 23.9733 11.1732 24.0612 11.0822C24.1491 10.9912 24.2687 10.9384 24.3946 10.9351H33.8026V29.5242H27.9338C28.0348 29.3023 28.1491 29.0869 28.2762 28.8791L30.241 25.7083ZM29.4058 34.4561C29.2262 34.6041 28.9981 34.6788 28.7665 34.6657C28.535 34.6526 28.3166 34.5525 28.1546 34.3852L27.3066 33.5143C27.3707 33.0798 27.3975 32.6406 27.3866 32.2014C27.3774 31.8453 27.3999 31.4891 27.4538 31.137H28.3466C28.3466 31.137 28.3466 31.1693 28.369 31.1854L29.617 33.2304C29.7356 33.4257 29.7796 33.6578 29.7408 33.8834C29.7019 34.109 29.5828 34.3126 29.4058 34.4561ZM32.5738 31.7853C32.6411 31.984 32.6339 32.2005 32.5534 32.3941C32.473 32.5877 32.325 32.7449 32.1373 32.8359C31.9497 32.9268 31.7355 32.9454 31.5352 32.8879C31.335 32.8304 31.1626 32.701 31.0506 32.524C31.025 32.4788 31.0026 32.4337 30.977 32.3885L30.2186 31.1434H32.3466L32.5738 31.7853ZM37.761 29.0371C37.761 29.1663 37.7101 29.2902 37.6195 29.3815C37.5289 29.4729 37.406 29.5242 37.2778 29.5242H35.4026V10.9351H37.281C37.4092 10.9351 37.5321 10.9864 37.6227 11.0777C37.7133 11.1691 37.7642 11.293 37.7642 11.4221L37.761 29.0371Z" fill="#F5F5F5" stroke="#F5F5F5" stroke-width="0.5"/>
</g>
<defs>
<clipPath id="clip0">
<rect x="9.14648" y="9" width="32" height="32" fill="white"/>
</clipPath>
</defs>
</svg>
