<svg width="20" height="25" viewBox="0 0 20 25" fill="none" xmlns="http://www.w3.org/2000/svg">
<path d="M17.9803 2.58995C18.0133 2.62782 18.0613 2.64942 18.1115 2.64942C18.1621 2.64942 18.2096 2.62782 18.2432 2.58995L19.4565 1.36649C19.5024 1.31449 19.5136 1.24089 19.4853 1.17769C19.4565 1.11502 19.3936 1.07449 19.3245 1.07449H18.8896V0.212088C18.8899 0.115021 18.8117 0.0366211 18.7147 0.0366211H17.5085C17.4115 0.0366211 17.3331 0.115021 17.3331 0.212088V1.07449H16.8984C16.8293 1.07449 16.7664 1.11502 16.7381 1.17769C16.7096 1.24089 16.7213 1.31449 16.7669 1.36649L17.9803 2.58995Z" fill="#333333"/>
<path d="M12.1572 10.9391C11.6556 10.3799 11.1602 9.75514 10.714 9.193C10.5036 8.9274 10.3023 8.67407 10.114 8.44394L10.1002 8.42714C10.3759 7.6418 10.5335 6.99914 10.5687 6.51647C10.658 5.28687 10.5207 4.49487 10.1492 4.09567C9.89829 3.82554 9.52149 3.7314 9.16709 3.8506C8.91323 3.93567 8.56949 4.16367 8.37296 4.7658C8.08016 5.6634 8.22203 7.253 9.05456 8.56767C8.68309 9.54047 8.16523 10.6583 7.59323 11.7226C6.50389 12.1045 5.63563 12.6066 5.01243 13.2157C4.19829 14.0103 3.86736 14.7991 4.10416 15.3794C4.25003 15.7389 4.58736 15.9533 5.00629 15.9533C5.29803 15.9533 5.61349 15.8479 5.91883 15.649C6.68976 15.145 7.69642 13.4658 8.23642 12.4927C9.35349 12.1439 10.4564 12.0013 11.017 11.9471C11.2706 11.9226 11.5223 11.9031 11.7647 11.8895C12.7458 12.9255 13.5482 13.4719 14.2874 13.6082C14.4362 13.6359 14.585 13.6498 14.7303 13.6498C15.3327 13.6498 15.8306 13.4095 16.0628 13.0071C16.238 12.7031 16.2346 12.3485 16.053 12.0338C15.6428 11.3237 14.405 10.9327 12.5674 10.9327C12.4351 10.933 12.2986 10.9349 12.1572 10.9391ZM5.40736 14.8677C5.26149 14.9629 5.11163 15.0197 5.00603 15.0197C4.98603 15.0197 4.97243 15.0175 4.96469 15.0157C4.94629 14.9226 5.01243 14.5202 5.66443 13.8831C5.97056 13.5839 6.35776 13.3109 6.81616 13.0693C6.23776 13.9999 5.71722 14.6653 5.40736 14.8677ZM9.25989 5.05567C9.32789 4.8474 9.41216 4.75327 9.46469 4.73567C9.46602 4.7354 9.46709 4.73487 9.46816 4.7346C9.51882 4.79167 9.73429 5.1178 9.63776 6.44954C9.62096 6.6818 9.56443 6.9754 9.46923 7.3242C9.15776 6.52207 9.07216 5.63087 9.25989 5.05567ZM10.9268 11.0186C10.4303 11.0663 9.67403 11.1647 8.83029 11.3645C9.15749 10.7111 9.46043 10.049 9.71349 9.4354C9.80123 9.54527 9.89109 9.65807 9.98229 9.77354C10.2876 10.1583 10.6306 10.5909 10.986 11.0133L10.9268 11.0186ZM15.2439 12.5007C15.2578 12.5247 15.2575 12.5343 15.254 12.5407C15.2148 12.6087 15.0375 12.7167 14.729 12.7167C14.6428 12.7167 14.5511 12.7079 14.4564 12.6903C14.0714 12.6191 13.6223 12.353 13.0871 11.8783C14.5394 11.9477 15.1263 12.2978 15.2439 12.5007Z" fill="#333333"/>
<path d="M14.1348 0.0366211H2.06008C1.32008 0.0366211 0.71875 0.636355 0.71875 1.37822V22.695C0.71875 23.4361 1.32008 24.0366 2.06008 24.0366H18.1596C18.9012 24.0366 19.5009 23.4361 19.5009 22.695V5.40302L14.1348 0.0366211ZM14.1348 1.93342L17.6043 5.40302H14.1348V1.93342ZM18.1598 22.695H2.06008V1.37822H12.7932V5.40302C12.7932 6.14409 13.3932 6.74462 14.1345 6.74462H18.1596V22.695H18.1598Z" fill="#333333"/>
<path d="M7.89328 17.1983C7.78368 17.1015 7.65221 17.0311 7.50288 16.9897C7.35541 16.9476 7.14421 16.9263 6.87514 16.9263H5.98208C5.81221 16.9263 5.68421 16.9652 5.60128 17.0428C5.51754 17.1212 5.47461 17.2481 5.47461 17.4196V20.0681C5.47461 20.2223 5.51274 20.3423 5.58794 20.4255C5.66448 20.5108 5.76634 20.5543 5.89061 20.5543C6.00954 20.5543 6.10981 20.5108 6.18821 20.4249C6.26501 20.3407 6.30421 20.2191 6.30421 20.0636V19.1577H6.87514C7.31594 19.1577 7.65461 19.0615 7.88101 18.8713C8.11141 18.6788 8.22848 18.394 8.22848 18.0247C8.22848 17.8527 8.20021 17.6953 8.14394 17.5567C8.08741 17.4161 8.00314 17.2959 7.89328 17.1983ZM7.31621 18.3057C7.26634 18.3729 7.19514 18.4201 7.09808 18.4505C6.99488 18.4825 6.86341 18.4991 6.70661 18.4991H6.30448V17.5823H6.70661C7.06901 17.5823 7.21594 17.6545 7.27434 17.7135C7.35221 17.7967 7.39008 17.9031 7.39008 18.0383C7.39008 18.1497 7.36528 18.2396 7.31621 18.3057Z" fill="#333333"/>
<path d="M11.192 17.2538C11.0472 17.1271 10.8835 17.0394 10.7054 16.9933C10.532 16.9485 10.3219 16.9255 10.0816 16.9255H9.17471C9.00697 16.9255 8.88164 16.9658 8.80191 17.0458C8.72217 17.1258 8.68164 17.2511 8.68164 17.4186V19.9381C8.68164 20.0562 8.69204 20.1509 8.71337 20.2269C8.73764 20.3133 8.78991 20.3807 8.86857 20.4274C8.94351 20.4727 9.04857 20.4946 9.18884 20.4946H10.0958C10.2563 20.4946 10.403 20.4842 10.5318 20.4634C10.663 20.4421 10.7875 20.4047 10.9016 20.3527C11.0168 20.3002 11.124 20.2293 11.2214 20.1418C11.3432 20.0298 11.4448 19.901 11.5232 19.7583C11.6008 19.6162 11.6592 19.4549 11.696 19.2794C11.7328 19.1055 11.7515 18.9106 11.7515 18.7007C11.7512 18.0586 11.5627 17.5717 11.192 17.2538ZM10.5859 19.6637C10.5408 19.7029 10.4867 19.7343 10.4248 19.7565C10.36 19.7794 10.2971 19.7941 10.2371 19.7997C10.1739 19.8055 10.0846 19.8087 9.97151 19.8087H9.51071V17.6098H9.90351C10.1091 17.6098 10.2854 17.6322 10.4278 17.6762C10.5608 17.7167 10.6755 17.8151 10.7686 17.9693C10.864 18.1269 10.9126 18.3714 10.9126 18.6965C10.9126 19.1549 10.803 19.4799 10.5859 19.6637Z" fill="#333333"/>
<path d="M14.3507 16.9263H12.7101C12.6008 16.9263 12.5123 16.9425 12.4397 16.9759C12.3621 17.0111 12.3043 17.0684 12.2675 17.1465C12.2333 17.2196 12.2168 17.3089 12.2168 17.4196V20.0633C12.2168 20.2225 12.2557 20.3449 12.3317 20.4271C12.4093 20.5113 12.5107 20.5543 12.6328 20.5543C12.7525 20.5543 12.8531 20.5121 12.9315 20.4287C13.0077 20.3463 13.0464 20.2233 13.0464 20.0633V18.998H14.1259C14.2467 18.998 14.3413 18.9689 14.4067 18.9111C14.4747 18.8511 14.5091 18.7705 14.5091 18.6713C14.5091 18.5724 14.4755 18.4916 14.4088 18.4313C14.344 18.3721 14.2488 18.3423 14.1259 18.3423H13.0464V17.5967H14.3509C14.4787 17.5967 14.5771 17.566 14.6435 17.5052C14.7115 17.4433 14.7459 17.3609 14.7459 17.2604C14.7459 17.162 14.7115 17.0804 14.6432 17.0175C14.576 16.9567 14.4779 16.9263 14.3507 16.9263Z" fill="#333333"/>
</svg>
