<svg id="Layer_1" data-name="Layer 1" xmlns="http://www.w3.org/2000/svg" viewBox="0 0 96 96"><defs><style>.cls-1{fill:none;stroke:#000;stroke-linecap:round;stroke-linejoin:round;stroke-width:4px;}.cls-2{opacity:0.99;isolation:isolate;}</style></defs><title>PersonalDetails</title><path d="M75.56,30.49H53.51a2,2,0,0,1,0-4H75.56a2,2,0,0,1,0,4Z"/><path class="cls-1" d="M2.5,19.09V68.53H64a15.52,15.52,0,0,1-1.81-7.31A15.69,15.69,0,0,1,77.83,45.53,15.48,15.48,0,0,1,84.46,47V19.09Zm36.15,48H13.57V51c0-1.2,1.76-2.26,4.59-3a11.94,11.94,0,0,1-3.81-8.78,11.63,11.63,0,1,1,23.26,0,11.9,11.9,0,0,1-3.74,8.7c3,.7,4.78,1.81,4.78,3.05Z"/><path d="M75.56,37.83H53.51a2,2,0,0,1,0-4H75.56a2,2,0,0,1,0,4Z"/><path d="M38.65,69.06H13.57a2,2,0,0,1-2-2V51c0-2.25,2.06-3.9,6.11-4.9a2,2,0,0,1,1.83.47,9.48,9.48,0,0,0,13-.07A2,2,0,0,1,34.33,46c5.22,1.24,6.32,3.41,6.32,5v16.1A2,2,0,0,1,38.65,69.06Zm-23.08-4H36.65V51.18a6,6,0,0,0-2.27-1.06,13.47,13.47,0,0,1-16.7.08,6,6,0,0,0-2.11,1Z"/><path d="M26,53.06a13.52,13.52,0,0,1-9.17-3.6,14,14,0,0,1-4.46-10.25A13.76,13.76,0,0,1,26,25.35,13.76,13.76,0,0,1,39.61,39.21a14,14,0,0,1-4.37,10.16A13.48,13.48,0,0,1,26,53.06Zm0-23.71a9.76,9.76,0,0,0-9.63,9.86,10,10,0,0,0,3.17,7.31,9.47,9.47,0,0,0,13-.07,9.93,9.93,0,0,0,3.11-7.24A9.76,9.76,0,0,0,26,29.35Z"/><path class="cls-2" d="M77.83,78.91a17.69,17.69,0,0,1,0-35.38,17.32,17.32,0,0,1,7.48,1.67,17.69,17.69,0,0,1-7.48,33.71Zm0-31.38A13.7,13.7,0,0,0,64.15,61.22a13.51,13.51,0,0,0,1.58,6.37A13.67,13.67,0,1,0,83.61,48.82,13.37,13.37,0,0,0,77.83,47.53Z"/><path d="M73.14,68.59a1.87,1.87,0,0,1-.4,0,2,2,0,0,1-1.42-1.11L69,62.34a2,2,0,0,1,3.63-1.69l1.22,2.63,9.73-8.89a2,2,0,0,1,2.7,3L74.49,68.07A2,2,0,0,1,73.14,68.59Z"/></svg>