<svg id="Layer_1" data-name="Layer 1" xmlns="http://www.w3.org/2000/svg" viewBox="0 0 96 96"><title>PlanSelection</title><path d="M16.72,17.3H56.81a2,2,0,0,0,0-4H16.72a2,2,0,1,0,0,4Z"/><path d="M16.72,25.83H48.28a2,2,0,0,0,0-4H16.72a2,2,0,1,0,0,4Z"/><path d="M16.72,34.36H56.81a2,2,0,0,0,0-4H16.72a2,2,0,1,0,0,4Z"/><path d="M16.72,51.42H56.81a2,2,0,0,0,0-4H16.72a2,2,0,1,0,0,4Z"/><path d="M16.72,42.89H48.28a2,2,0,0,0,0-4H16.72a2,2,0,1,0,0,4Z"/><path d="M37.89,64.7H16.72a2,2,0,1,0,0,4H37.89a2,2,0,0,0,0-4Z"/><path d="M42.85,56.17H16.72a2,2,0,1,0,0,4H42.85a2,2,0,1,0,0-4Z"/><path d="M70.33,51.38V2.5a2,2,0,0,0-2-2H8.61a2,2,0,0,0-2,2V76.72a2,2,0,0,0,2,2h37.1A22.16,22.16,0,1,0,70.33,51.38ZM10.61,74.72V4.5H66.33V51.14A22.21,22.21,0,0,0,45,73.31c0,.48,0,1,0,1.41ZM67.19,91.53a18.15,18.15,0,0,1-17.91-15c0-.06,0-.12,0-.18A18.2,18.2,0,0,1,67.19,55.12c.35,0,.7,0,1,0h.17a18.21,18.21,0,0,1-1.21,36.39Z"/><path d="M74.4,66.79l-12,11-1.68-3.61a2,2,0,0,0-3.63,1.69l2.83,6.08A2,2,0,0,0,61.35,83a1.72,1.72,0,0,0,.39,0,2,2,0,0,0,1.35-.52l14-12.81a2,2,0,1,0-2.7-2.95Z"/></svg>