<svg id="Layer_1" data-name="Layer 1" xmlns="http://www.w3.org/2000/svg" viewBox="0 0 100 100"><title>PlanInspectCircle</title><path d="M62.94,58.9a2.48,2.48,0,0,0-1.26,4.6,2.53,2.53,0,0,0,1.26.34,2.47,2.47,0,0,0,0-4.94Z"/><path d="M50.79,56.79c.13-.17.25-.35.38-.51s.23-.26.34-.39.28-.32.43-.47l.38-.35.47-.43.41-.32c.17-.13.33-.26.51-.38s.29-.19.44-.28l.54-.33.47-.24c.19-.09.38-.19.57-.27l.5-.2c.2-.07.39-.15.59-.21l.54-.16.6-.15.56-.1.62-.1.59,0c.15,0,.29,0,.44,0V26H29.36V64.78H48.48q0-.44,0-.87a10.14,10.14,0,0,1,.07-1.23c0-.13,0-.26,0-.39s.07-.53.13-.79.07-.31.11-.46.11-.47.18-.69.11-.31.17-.47.14-.43.23-.64.14-.3.22-.45.18-.4.28-.6.18-.29.26-.43.22-.38.34-.56S50.69,56.93,50.79,56.79ZM32.81,31h22a1,1,0,0,1,0,2h-22a1,1,0,0,1,0-2Zm0,4.69H50.16a1,1,0,0,1,0,2H32.81a1,1,0,0,1,0-2Zm0,4.69h22a1,1,0,0,1,0,2h-22a1,1,0,0,1,0-2Zm0,4.68H50.16a1,1,0,0,1,0,2H32.81a1,1,0,0,1,0-2ZM44.44,61.27H32.81a1,1,0,0,1,0-2H44.44a1,1,0,0,1,0,2Zm2.73-4.68H32.81a1,1,0,0,1,0-2H47.17a1,1,0,0,1,0,2ZM32.81,51.78a1,1,0,0,1,0-2h22a1,1,0,0,1,0,2Z"/><path d="M50,2A48,48,0,1,0,98,50,48,48,0,0,0,50,2ZM60.54,76a12,12,0,0,1-11.73-9.22H28.36a1,1,0,0,1-1-1V25a1,1,0,0,1,1-1H61.17a1,1,0,0,1,1,1V51.93A12.09,12.09,0,0,1,60.54,76Z"/><path d="M61.12,53.83l-.58,0a10.11,10.11,0,0,0-10.09,10.1,9.51,9.51,0,0,0,.15,1.7A10.09,10.09,0,1,0,61.12,53.83Zm1.82,12a4.36,4.36,0,0,1-2.18-.58c-4.2,4.3-4.33,4.45-4.9,4.94a1.07,1.07,0,0,1-1.58,0c-.58-.58.16-1.4.16-1.4.29-.26,3.7-3.68,4.84-4.85a4.47,4.47,0,0,1-.8-2.54,4.52,4.52,0,0,1,2.18-3.84,4.47,4.47,0,1,1,2.28,8.31Z"/></svg>