<svg id="Layer_1" data-name="Layer 1" xmlns="http://www.w3.org/2000/svg" viewBox="0 0 96 96"><title>PlanInspect</title><path d="M16.72,17.3H56.81a2,2,0,0,0,0-4H16.72a2,2,0,1,0,0,4Z"/><path d="M16.72,25.83H48.28a2,2,0,0,0,0-4H16.72a2,2,0,1,0,0,4Z"/><path d="M16.72,34.36H56.81a2,2,0,0,0,0-4H16.72a2,2,0,1,0,0,4Z"/><path d="M16.72,51.42H56.81a2,2,0,0,0,0-4H16.72a2,2,0,1,0,0,4Z"/><path d="M16.72,42.89H48.28a2,2,0,0,0,0-4H16.72a2,2,0,1,0,0,4Z"/><path d="M37.89,64.7H16.72a2,2,0,1,0,0,4H37.89a2,2,0,0,0,0-4Z"/><path d="M42.85,56.17H16.72a2,2,0,1,0,0,4H42.85a2,2,0,1,0,0-4Z"/><path d="M70.33,51.35V2.5a2,2,0,0,0-2-2H8.61a2,2,0,0,0-2,2V76.72a2,2,0,0,0,2,2H45.68A22.19,22.19,0,1,0,70.33,51.35ZM10.61,74.72V4.5H66.33V51.14h-.08c-.66,0-1.32.09-2,.18a2,2,0,0,0-.24,0c-.64.09-1.27.21-1.89.35l-.25.06c-.61.15-1.21.33-1.8.53l-.25.08c-.59.21-1.16.44-1.72.69l-.25.11c-.55.26-1.1.54-1.63.84l-.23.14c-.53.3-1,.63-1.54,1l-.22.16c-.49.35-1,.73-1.43,1.12l-.2.17c-.46.4-.9.82-1.33,1.26l-.18.18c-.42.45-.82.9-1.21,1.38l-.15.19q-.57.73-1.08,1.5l-.13.2c-.34.52-.66,1.06-1,1.61a1.14,1.14,0,0,0-.1.19c-.29.56-.57,1.13-.81,1.72l-.07.18c-.24.6-.46,1.21-.65,1.83,0,.05,0,.1,0,.15-.19.64-.35,1.28-.49,1.94a.5.5,0,0,1,0,.12c-.13.67-.23,1.36-.3,2a.17.17,0,0,0,0,.07c-.07.71-.11,1.43-.11,2.16,0,.48,0,1,0,1.41ZM67.19,91.5a18.19,18.19,0,1,1,0-36.38c.35,0,.7,0,1,0h0a18.19,18.19,0,0,1-1,36.35Z"/><path d="M71.55,60.38a8.27,8.27,0,0,0-4.24,1.18,8.26,8.26,0,0,0-2.65,11.73C62.49,75.51,56.47,81.55,56,82l1.29,1.52L56.15,85.2a2,2,0,0,0,1.08.38c.83,0,1.55-.72,2.62-1.78l2.71-2.7c1.93-1.94,4-4.08,5-5.1a8.31,8.31,0,1,0,3.94-15.62Zm0,12.63a4.22,4.22,0,0,1-2.19-.6,4.3,4.3,0,1,1,2.19.6Z"/></svg>