<?xml version="1.0" encoding="utf-8"?>
<!-- Generator: Adobe Illustrator 23.1.1, SVG Export Plug-In . SVG Version: 6.00 Build 0)  -->
<svg version="1.1" xmlns="http://www.w3.org/2000/svg" xmlns:xlink="http://www.w3.org/1999/xlink" x="0px" y="0px"
	 viewBox="0 0 100 100" style="enable-background:new 0 0 100 100;" xml:space="preserve">
<style type="text/css">
	.st0{fill:#F91E51;}
</style>
<g id="Layer_2">
</g>
<g id="Layer_1">
	<g>
		<g>
			<path class="st0" d="M83.6,16.4c-1.7-1.7-4.4-1.7-6.1,0s-1.7,4.4,0,6.1c15.2,15.2,15.2,39.9,0,55.1c-1.7,1.7-1.7,4.4,0,6.1
				c0.8,0.8,1.9,1.3,3,1.3s2.2-0.4,3-1.3C102.1,65.1,102.1,34.9,83.6,16.4z"/>
			<path class="st0" d="M69.3,30.6c-1.7-1.7-4.4-1.7-6.1,0c-1.7,1.7-1.7,4.4,0,6.1c7.3,7.3,7.4,19.3,0,26.6c-1.7,1.7-1.7,4.4,0,6.1
				c0.8,0.8,1.9,1.3,3,1.3s2.2-0.4,3-1.3C80.1,58.7,80,41.3,69.3,30.6z"/>
			<path class="st0" d="M22.5,22.5c1.7-1.7,1.7-4.4,0-6.1s-4.4-1.7-6.1,0c-18.5,18.5-18.5,48.7,0,67.2c0.8,0.8,1.9,1.3,3,1.3
				s2.2-0.4,3-1.3c1.7-1.7,1.7-4.4,0-6.1C7.3,62.4,7.3,37.7,22.5,22.5z"/>
			<path class="st0" d="M36.7,36.7c1.7-1.7,1.7-4.4,0-6.1c-1.7-1.7-4.4-1.7-6.1,0c-10.7,10.7-10.7,28.1,0,38.8
				c0.8,0.8,1.9,1.3,3,1.3s2.2-0.4,3-1.3c1.7-1.7,1.7-4.4,0-6.1C29.4,56,29.4,44,36.7,36.7z"/>
		</g>
		<circle class="st0" cx="50" cy="50" r="7.3"/>
	</g>
</g>
</svg>
