<svg id="Layer_1" data-name="Layer 1" xmlns="http://www.w3.org/2000/svg" viewBox="0 0 96 96"><title>QuestionMark</title><path d="M48,.68A47.32,47.32,0,1,0,95.32,48,47.38,47.38,0,0,0,48,.68Zm0,91A43.68,43.68,0,1,1,91.68,48,43.73,43.73,0,0,1,48,91.68Z"/><path d="M57.77,28.39a13.36,13.36,0,0,0-4.36-2.52A16,16,0,0,0,48,25a14.23,14.23,0,0,0-5.3,1,13.9,13.9,0,0,0-4.36,2.79,13.18,13.18,0,0,0-3,4.18,13.87,13.87,0,0,0-1.17,5.28,1.88,1.88,0,0,0,1.6,1.65,1.83,1.83,0,0,0,1.75-1.76,9.72,9.72,0,0,1,.81-4A8.88,8.88,0,0,1,40.59,31a9.68,9.68,0,0,1,3.29-2A11.87,11.87,0,0,1,48,28.34a13.09,13.09,0,0,1,4.1.63,9.4,9.4,0,0,1,3.38,1.81,8.39,8.39,0,0,1,2.27,2.89,9,9,0,0,1,.83,3.93,7.35,7.35,0,0,1-.57,3,8.84,8.84,0,0,1-1.47,2.35,13.94,13.94,0,0,1-2,2c-.77.59-1.56,1.17-2.38,1.75s-1.59,1.12-2.36,1.72a13,13,0,0,0-2.06,1.92,10,10,0,0,0-1.46,2.35,7.44,7.44,0,0,0-.55,3v4.84a1.83,1.83,0,0,0,1.78,1.78,1.8,1.8,0,0,0,1.78-1.78v-4.9a4.18,4.18,0,0,1,.54-2.12,8.35,8.35,0,0,1,1.41-1.84,17.08,17.08,0,0,1,2-1.66c.76-.54,1.53-1.1,2.29-1.7s1.55-1.22,2.3-1.89a12.79,12.79,0,0,0,2-2.29,11.87,11.87,0,0,0,1.44-2.87,11.16,11.16,0,0,0,.54-3.62,12,12,0,0,0-1.09-5.19A11.54,11.54,0,0,0,57.77,28.39Z"/><path d="M47.43,67.1a2.48,2.48,0,1,0,2.49,2.48A2.48,2.48,0,0,0,47.43,67.1Z"/></svg>