<?xml version="1.0" encoding="UTF-8"?>
<svg width="12px" height="14px" viewBox="0 0 12 14" version="1.1" xmlns="http://www.w3.org/2000/svg" xmlns:xlink="http://www.w3.org/1999/xlink">
    <!-- Generator: Sketch 58 (84663) - https://sketch.com -->
    <title>ic/material/keyboard_arrow_right</title>
    <desc>Created with Sketch.</desc>
    <defs>
        <path d="M8,7.36333333 C6.42333333,5.9 4.32,5 2,5 L2,12.3333333 C4.32,12.3333333 6.42333333,13.2333337 8,14.6966667 C9.57666667,13.2333337 11.68,12.3333333 14,12.3333333 L14,5 C11.68,5 9.57666667,5.9 8,7.36333333 Z M8,5 C9.10333333,5 10,4.10333333 10,3 C10,1.89666667 9.10333333,1 8,1 C6.89666667,1 6,1.89666667 6,3 C6,4.10333333 6.89666667,5 8,5 Z" id="path-1"></path>
        <rect id="path-3" x="0" y="0" width="16" height="16"></rect>
    </defs>
    <g id="Payment-Flow" stroke="none" stroke-width="1" fill="none" fill-rule="evenodd">
        <g id="2.4.1-Payment-Method---Payment-Successful" transform="translate(-490.000000, -555.000000)">
            <g id="Unlock---Use-new-CC" transform="translate(96.000000, 142.000000)">
                <g id="button/en/CTA/solid" transform="translate(184.000000, 400.000000)">
                    <g id="ic/read" transform="translate(208.000000, 12.000000)">
                        <mask id="mask-2" fill="white">
                            <use xlink:href="#path-1"></use>
                        </mask>
                        <use id="Fill-1" fill="#000000" fill-rule="evenodd" xlink:href="#path-1"></use>
                        <g id="colour/neutral/greyishBlue" mask="url(#mask-2)">
                            <mask id="mask-4" fill="white">
                                <use xlink:href="#path-3"></use>
                            </mask>
                            <use id="colour" fill="#F0F3F4" fill-rule="evenodd" xlink:href="#path-3"></use>
                        </g>
                    </g>
                </g>
            </g>
        </g>
    </g>
</svg>