<svg id="Layer_1" data-name="Layer 1" xmlns="http://www.w3.org/2000/svg" viewBox="0 0 96 96"><title>Rewards</title><path d="M70.84,88.23h.29l.75,0a6.28,6.28,0,0,0,4.51-1.62c1.42-1.36,2.13-3.47,2.13-6.3a2,2,0,0,0-4,0,5,5,0,0,1-.89,3.41,3.11,3.11,0,0,1-2.33.5l-.46,0a2,2,0,0,0,0,4Z"/><path d="M7.86,42.22h3V93a2,2,0,0,0,2,2H83.54a2,2,0,0,0,2-2V42.22h2.71a2,2,0,0,0,2-2V22.56a2,2,0,0,0-2-2H73.45a11.44,11.44,0,0,0,3.17-7.71A11.63,11.63,0,0,0,65.2,1c-4.38-.09-8.05,2.36-11,7.22L47.77,18.63,41.33,8.27C38.44,3.47,34.81,1,30.54,1h-.2A11.63,11.63,0,0,0,18.92,12.85a11.44,11.44,0,0,0,3.17,7.71H7.86a2,2,0,0,0-2,2V40.22A2,2,0,0,0,7.86,42.22Zm7,0H41V91H14.83Zm30.17-2V24.56h6V91H45ZM81.54,91H55V42.22H81.54Zm4.6-52.75H55V24.56H86.14ZM57.64,10.33C59.82,6.72,62.25,5,65.13,5a7.63,7.63,0,0,1,7.49,7.75h0a7.48,7.48,0,0,1-2.33,5.3,7.68,7.68,0,0,1-5.43,2.11l-1.5,0H51.52ZM22.92,12.78A7.63,7.63,0,0,1,30.41,5h.12c2.81,0,5.22,1.74,7.38,5.33L44,20.17H32.14l-1.46,0a7.68,7.68,0,0,1-5.44-2.11,7.47,7.47,0,0,1-2.32-5.3ZM9.86,24.56H41V38.22H9.86Z"/></svg>