<svg width="48" height="49" viewBox="0 0 48 49" fill="none" xmlns="http://www.w3.org/2000/svg">
<path d="M22.3168 16.7894L22.0769 18.2608C22.0626 18.3481 22.0732 18.4377 22.1075 18.5194C22.1417 18.601 22.1983 18.6713 22.2706 18.7223C22.343 18.7733 22.4283 18.8028 22.5166 18.8076C22.605 18.8124 22.693 18.7922 22.7704 18.7494L23.9996 18.0701L25.2287 18.7494C25.3062 18.7922 25.3941 18.8124 25.4825 18.8076C25.5709 18.8028 25.6562 18.7733 25.7285 18.7223C25.8009 18.6713 25.8574 18.601 25.8917 18.5194C25.926 18.4377 25.9366 18.3481 25.9223 18.2608L25.6823 16.7894L26.695 15.7516C26.7556 15.6895 26.7978 15.612 26.8171 15.5275C26.8365 15.4429 26.8321 15.3547 26.8046 15.2725C26.7771 15.1903 26.7274 15.1173 26.6611 15.0614C26.5948 15.0056 26.5143 14.9691 26.4286 14.956L25.0482 14.7454L24.4265 13.4207C24.3884 13.3396 24.3281 13.271 24.2525 13.223C24.1769 13.1749 24.0892 13.1494 23.9996 13.1494C23.91 13.1494 23.8223 13.1749 23.7467 13.223C23.6711 13.271 23.6107 13.3396 23.5727 13.4207L22.951 14.7454L21.5705 14.956C21.4848 14.9691 21.4044 15.0056 21.3381 15.0614C21.2718 15.1173 21.2221 15.1903 21.1946 15.2725C21.167 15.3547 21.1627 15.4429 21.182 15.5275C21.2014 15.612 21.2436 15.6895 21.3041 15.7516L22.3168 16.7894ZM23.3422 15.6397C23.4187 15.6279 23.4912 15.5975 23.5533 15.5511C23.6153 15.5047 23.665 15.4438 23.6979 15.3737L23.9996 14.7311L24.3012 15.3737C24.3342 15.4438 24.3839 15.5047 24.4459 15.5511C24.5079 15.5975 24.5804 15.6279 24.657 15.6397L25.3789 15.75L24.841 16.3012C24.7894 16.354 24.751 16.4182 24.7288 16.4886C24.7066 16.559 24.7012 16.6336 24.7132 16.7065L24.8352 17.4544L24.2278 17.1187C24.1579 17.08 24.0794 17.0597 23.9996 17.0597C23.9198 17.0597 23.8412 17.08 23.7714 17.1187L23.164 17.4544L23.286 16.7065C23.2979 16.6337 23.2926 16.559 23.2704 16.4886C23.2482 16.4182 23.2098 16.3541 23.1582 16.3012L22.6203 15.75L23.3422 15.6397Z" fill="#005DAA"/>
<path d="M33.2817 12.4796L33.0696 13.7804C33.0554 13.8678 33.066 13.9574 33.1002 14.039C33.1345 14.1206 33.191 14.1909 33.2634 14.2419C33.3358 14.2929 33.421 14.3225 33.5094 14.3273C33.5978 14.3321 33.6857 14.3119 33.7632 14.269L34.8466 13.6701L35.93 14.269C36.0074 14.3119 36.0954 14.3321 36.1838 14.3273C36.2722 14.3225 36.3574 14.2929 36.4298 14.2419C36.5021 14.1909 36.5587 14.1206 36.593 14.039C36.6272 13.9574 36.6378 13.8678 36.6235 13.7804L36.4115 12.4796L37.3063 11.5625C37.3668 11.5005 37.409 11.4229 37.4284 11.3384C37.4477 11.2539 37.4434 11.1657 37.4158 11.0835C37.3883 11.0013 37.3386 10.9283 37.2723 10.8725C37.206 10.8167 37.1255 10.7803 37.0398 10.7672L35.8224 10.5811L35.2735 9.41186C35.2354 9.33078 35.1751 9.2622 35.0995 9.21417C35.0239 9.16613 34.9362 9.14062 34.8466 9.14062C34.757 9.14062 34.6693 9.16613 34.5937 9.21417C34.5181 9.2622 34.4577 9.33078 34.4197 9.41186L33.8707 10.5811L32.6533 10.7672C32.5676 10.7803 32.4872 10.8167 32.4209 10.8725C32.3545 10.9283 32.3049 11.0013 32.2773 11.0835C32.2498 11.1657 32.2455 11.2539 32.2648 11.3384C32.2841 11.4229 32.3264 11.5005 32.3869 11.5625L33.2817 12.4796ZM34.2619 11.4755C34.3385 11.4637 34.411 11.4333 34.473 11.3869C34.5351 11.3405 34.5847 11.2796 34.6177 11.2095L34.8466 10.722L35.0755 11.2095C35.1084 11.2796 35.1581 11.3405 35.2201 11.3869C35.2822 11.4333 35.3547 11.4637 35.4312 11.4755L35.9903 11.5609L35.5701 11.9915C35.5185 12.0443 35.4801 12.1085 35.4579 12.1789C35.4357 12.2493 35.4303 12.3239 35.4423 12.3967L35.5364 12.9738L35.0748 12.7187C35.0049 12.68 34.9264 12.6597 34.8466 12.6597C34.7668 12.6597 34.6882 12.68 34.6184 12.7187L34.1567 12.9738L34.2509 12.3967C34.2628 12.3239 34.2575 12.2493 34.2353 12.1789C34.2131 12.1085 34.1747 12.0443 34.1231 11.9915L33.7029 11.5609L34.2619 11.4755Z" fill="#005DAA"/>
<path d="M11.5888 12.4796L11.3768 13.7804C11.3625 13.8678 11.3731 13.9574 11.4073 14.039C11.4416 14.1206 11.4982 14.1909 11.5705 14.2419C11.6429 14.2929 11.7281 14.3225 11.8165 14.3273C11.9049 14.3321 11.9929 14.3119 12.0703 14.269L13.1537 13.6701L14.2371 14.269C14.3146 14.3119 14.4025 14.3321 14.4909 14.3273C14.5793 14.3225 14.6645 14.2929 14.7369 14.2419C14.8093 14.1909 14.8658 14.1206 14.9001 14.039C14.9343 13.9574 14.9449 13.8678 14.9307 13.7804L14.7186 12.4796L15.6134 11.5625C15.6739 11.5005 15.7162 11.4229 15.7355 11.3384C15.7548 11.2539 15.7505 11.1657 15.723 11.0835C15.6954 11.0013 15.6458 10.9283 15.5794 10.8725C15.5131 10.8167 15.4327 10.7803 15.347 10.7672L14.1296 10.5811L13.5806 9.41186C13.5426 9.33078 13.4822 9.2622 13.4066 9.21417C13.331 9.16613 13.2433 9.14062 13.1537 9.14062C13.0641 9.14062 12.9764 9.16613 12.9008 9.21417C12.8252 9.2622 12.7649 9.33078 12.7268 9.41186L12.1779 10.5811L10.9605 10.7672C10.8748 10.7803 10.7943 10.8167 10.728 10.8725C10.6617 10.9283 10.612 11.0013 10.5845 11.0835C10.5569 11.1657 10.5526 11.2539 10.5719 11.3384C10.5913 11.4229 10.6335 11.5005 10.6941 11.5625L11.5888 12.4796ZM12.5691 11.4755C12.6456 11.4637 12.7181 11.4333 12.7802 11.3869C12.8422 11.3405 12.8919 11.2796 12.9248 11.2095L13.1537 10.722L13.3826 11.2095C13.4155 11.2796 13.4652 11.3405 13.5273 11.3869C13.5893 11.4333 13.6618 11.4637 13.7384 11.4755L14.2974 11.5609L13.8772 11.9915C13.8256 12.0443 13.7872 12.1085 13.765 12.1789C13.7428 12.2493 13.7375 12.3239 13.7494 12.3967L13.8436 12.9738L13.3819 12.7187C13.3121 12.68 13.2335 12.6597 13.1537 12.6597C13.0739 12.6597 12.9954 12.68 12.9255 12.7187L12.4638 12.9738L12.558 12.3967C12.57 12.3239 12.5646 12.2493 12.5424 12.1789C12.5202 12.1085 12.4818 12.0443 12.4302 11.9915L12.01 11.5609L12.5691 11.4755Z" fill="#005DAA"/>
<path d="M36.2186 16.686C36.0464 16.6863 35.8762 16.7229 35.7191 16.7933L24.2992 21.87C24.1823 21.922 24.0559 21.9496 23.928 21.951C23.8 21.9525 23.673 21.9279 23.5549 21.8786L12.255 17.1644C12.0699 17.0863 11.8683 17.0551 11.6683 17.0736C11.4682 17.0921 11.2758 17.1597 11.1081 17.2704C10.9405 17.3811 10.8027 17.5315 10.7071 17.7082C10.6115 17.8849 10.561 18.0825 10.5601 18.2834V33.2096C10.5605 33.452 10.6335 33.6888 10.7697 33.8894C10.906 34.0899 11.0991 34.2451 11.3244 34.3349L23.5875 39.2541C23.807 39.3422 24.0516 39.3443 24.2726 39.2601L36.6558 34.5418C36.8859 34.4547 37.0842 34.2997 37.2243 34.0973C37.3643 33.8949 37.4396 33.6548 37.44 33.4086V17.9011C37.4389 17.5781 37.3096 17.2687 37.0806 17.0409C36.8516 16.8131 36.5416 16.6855 36.2186 16.686ZM36.4968 33.4086C36.4966 33.4637 36.4795 33.5173 36.4479 33.5623C36.4163 33.6073 36.3716 33.6416 36.3199 33.6604L24.4716 38.1757V33.5555L24 33.2949L23.5284 33.5555V38.2142L11.6755 33.4595C11.625 33.44 11.5816 33.4057 11.5508 33.3611C11.5201 33.3165 11.5035 33.2637 11.5032 33.2096V18.2834C11.5045 18.2107 11.5344 18.1414 11.5864 18.0905C11.6384 18.0397 11.7083 18.0113 11.7811 18.0116C11.8192 18.0118 11.8569 18.0197 11.8919 18.0349L23.1918 22.749C23.3005 22.7942 23.4132 22.829 23.5284 22.853V26.4378C23.8328 26.3253 24.1673 26.3253 24.4716 26.4378V22.8175H24.4426C24.5243 22.7943 24.6045 22.7657 24.6824 22.7318L36.1022 17.6551C36.1387 17.6383 36.1784 17.6294 36.2186 17.6292C36.2914 17.6289 36.3614 17.6572 36.4134 17.7081C36.4655 17.7589 36.4955 17.8283 36.4968 17.9011V33.4086Z" fill="#005DAA" stroke="#005DAA"/>
<path d="M26.4286 29.104L25.0482 28.8933L24.4265 27.5686C24.3884 27.4875 24.3281 27.4189 24.2525 27.3709C24.1769 27.3229 24.0892 27.2974 23.9996 27.2974C23.91 27.2974 23.8223 27.3229 23.7467 27.3709C23.6711 27.4189 23.6107 27.4875 23.5727 27.5686L22.951 28.8933L21.5705 29.104C21.4848 29.1171 21.4044 29.1536 21.3381 29.2094C21.2718 29.2652 21.2221 29.3383 21.1946 29.4205C21.167 29.5027 21.1627 29.5909 21.182 29.6754C21.2014 29.7599 21.2436 29.8375 21.3041 29.8995L22.3168 30.9373L22.0769 32.4087C22.0626 32.4961 22.0732 32.5857 22.1075 32.6673C22.1417 32.7489 22.1983 32.8193 22.2706 32.8702C22.343 32.9212 22.4283 32.9508 22.5166 32.9556C22.605 32.9604 22.693 32.9402 22.7704 32.8973L23.9996 32.2181L25.2287 32.8973C25.3062 32.9402 25.3941 32.9604 25.4825 32.9556C25.5709 32.9508 25.6562 32.9212 25.7285 32.8702C25.8009 32.8193 25.8574 32.7489 25.8917 32.6673C25.926 32.5857 25.9366 32.4961 25.9223 32.4087L25.6823 30.9373L26.695 29.8995C26.7556 29.8375 26.7978 29.7599 26.8171 29.6754C26.8365 29.5909 26.8321 29.5027 26.8046 29.4205C26.7771 29.3383 26.7274 29.2652 26.6611 29.2094C26.5948 29.1536 26.5143 29.1171 26.4286 29.104V29.104ZM24.841 30.4492C24.7894 30.502 24.751 30.5662 24.7288 30.6366C24.7066 30.707 24.7012 30.7816 24.7132 30.8544L24.8352 31.6023L24.2278 31.2666C24.1579 31.228 24.0794 31.2077 23.9996 31.2077C23.9198 31.2077 23.8412 31.228 23.7714 31.2666L23.164 31.6023L23.286 30.8544C23.2979 30.7816 23.2926 30.707 23.2704 30.6366C23.2482 30.5662 23.2098 30.502 23.1582 30.4492L22.6203 29.8979L23.3422 29.7876C23.4187 29.7759 23.4912 29.7455 23.5533 29.6991C23.6153 29.6527 23.665 29.5918 23.6979 29.5217L23.9996 28.879L24.3012 29.5217C24.3342 29.5918 24.3839 29.6527 24.4459 29.6991C24.5079 29.7455 24.5804 29.7759 24.657 29.7876L25.3789 29.8979L24.841 30.4492Z" fill="#005DAA"/>
</svg>
