<svg width="32" height="33" viewBox="0 0 32 33" fill="none" xmlns="http://www.w3.org/2000/svg">
<path d="M20.5806 14.4251C22.2637 14.4251 23.6282 13.0606 23.6282 11.3775C23.6282 9.6943 22.2637 8.32983 20.5806 8.32983C18.8974 8.32983 17.533 9.6943 17.533 11.3775C17.533 13.0606 18.8974 14.4251 20.5806 14.4251Z" stroke="#333333" stroke-miterlimit="10" stroke-linecap="round"/>
<path d="M8.57301 20.5203C10.2562 20.5203 11.6206 19.1558 11.6206 17.4727C11.6206 15.7895 10.2562 14.425 8.57301 14.425C6.88986 14.425 5.52539 15.7895 5.52539 17.4727C5.52539 19.1558 6.88986 20.5203 8.57301 20.5203Z" stroke="#333333" stroke-miterlimit="10" stroke-linecap="round"/>
<path d="M20.5806 25.823C22.2637 25.823 23.6282 24.4586 23.6282 22.7754C23.6282 21.0922 22.2637 19.7278 20.5806 19.7278C18.8974 19.7278 17.533 21.0922 17.533 22.7754C17.533 24.4586 18.8974 25.823 20.5806 25.823Z" stroke="#333333" stroke-miterlimit="10" stroke-linecap="round"/>
<path d="M17.9598 21.1906L11.3464 18.783" stroke="#333333" stroke-miterlimit="10" stroke-linecap="round"/>
<path d="M10.8589 15.4914L17.777 12.5657" stroke="#333333" stroke-miterlimit="10" stroke-linecap="round"/>
</svg>
