<svg width="32" height="33" viewBox="0 0 32 33" fill="none" xmlns="http://www.w3.org/2000/svg">
<path d="M20.5805 14.2588C22.2637 14.2588 23.6281 12.8943 23.6281 11.2111C23.6281 9.52798 22.2637 8.16351 20.5805 8.16351C18.8974 8.16351 17.5329 9.52798 17.5329 11.2111C17.5329 12.8943 18.8974 14.2588 20.5805 14.2588Z" stroke="white" stroke-miterlimit="10" stroke-linecap="round"/>
<path d="M8.57295 20.354C10.2561 20.354 11.6206 18.9895 11.6206 17.3063C11.6206 15.6232 10.2561 14.2587 8.57295 14.2587C6.8898 14.2587 5.52533 15.6232 5.52533 17.3063C5.52533 18.9895 6.8898 20.354 8.57295 20.354Z" stroke="white" stroke-miterlimit="10" stroke-linecap="round"/>
<path d="M20.5805 25.6567C22.2637 25.6567 23.6281 24.2922 23.6281 22.6091C23.6281 20.9259 22.2637 19.5615 20.5805 19.5615C18.8974 19.5615 17.5329 20.9259 17.5329 22.6091C17.5329 24.2922 18.8974 25.6567 20.5805 25.6567Z" stroke="white" stroke-miterlimit="10" stroke-linecap="round"/>
<path d="M17.9596 21.0243L11.3463 18.6166" stroke="white" stroke-miterlimit="10" stroke-linecap="round"/>
<path d="M10.8588 15.3251L17.7769 12.3994" stroke="white" stroke-miterlimit="10" stroke-linecap="round"/>
</svg>
