<svg width="48" height="49" viewBox="0 0 48 49" fill="none" xmlns="http://www.w3.org/2000/svg">
<path d="M37.8201 35.0584C37.7157 35.0584 37.6136 35.0316 37.5208 34.9756C34.7345 33.2974 28.4925 33.94 25.2433 35.0281C25.1842 35.0502 25.1227 35.0584 25.0601 35.0584H23.9001C23.8374 35.0584 23.7759 35.0479 23.7168 35.0281C20.4688 33.9412 14.2257 33.2962 11.4393 34.9756C11.2595 35.0841 11.0368 35.0887 10.8547 34.9849C10.6737 34.8788 10.5601 34.684 10.5601 34.4753V15.8159C10.5601 15.6106 10.6668 15.4217 10.8419 15.3156C14.0551 13.3785 21.7831 13.5103 25.3477 15.5651C25.5287 15.6689 25.6401 15.8625 25.6401 16.0713V31.5586C25.6401 31.8805 25.3791 32.1417 25.0601 32.1417C24.7411 32.1417 24.4801 31.8805 24.4801 31.5586V16.42C21.0917 14.6893 14.4507 14.7826 11.7201 16.1611V33.5435C15.0423 32.2198 20.7367 32.8251 23.9929 33.8922H24.9673C28.2222 32.8251 33.919 32.2198 37.2412 33.5435V16.1587C34.8621 14.9365 30.0214 14.7616 26.9938 15.8287C26.6922 15.9383 26.3616 15.7762 26.2549 15.4707C26.1481 15.1663 26.3071 14.8339 26.6087 14.7266C30.1501 13.4776 35.5279 13.7528 38.1205 15.3144C38.2933 15.4193 38.4001 15.6094 38.4001 15.8147V34.4741C38.4001 34.6852 38.2887 34.88 38.1077 34.9849C38.0173 35.0339 37.9175 35.0584 37.8201 35.0584V35.0584Z" fill="#005DAA" stroke="#005DAA"/>
</svg>
