<svg width="51" height="50" viewBox="0 0 51 50" fill="none" xmlns="http://www.w3.org/2000/svg">
<path d="M10.157 10.819C8.8215 10.7783 8.59755 12.7131 9.90703 12.9787L12.3195 13.5072C13.5957 19.612 14.9867 25.6919 16.3357 31.7814C16.4466 32.2807 16.8895 32.6359 17.401 32.6358H36.5582C38.0341 32.6576 38.0341 30.4323 36.5582 30.454H18.2766L17.7937 28.2728H37.5247C38.0362 28.273 38.4791 27.9177 38.59 27.4184L41.006 16.5107C41.1566 15.8298 40.6387 15.1844 39.9415 15.184C31.5948 15.1842 23.2482 15.1838 14.9018 15.1799L14.3088 12.3664C14.2204 11.9465 13.8941 11.6175 13.4751 11.5255L10.373 10.8465C10.3021 10.8302 10.2297 10.8208 10.157 10.819ZM15.3762 17.3623C23.1115 17.3664 30.847 17.3664 38.5821 17.3664L36.649 26.0917H17.31L15.3762 17.3623ZM21.9418 33.3639C20.3482 33.3639 19.0329 34.6793 19.0329 36.273C19.0329 37.8667 20.3482 39.1821 21.9418 39.1821C23.5354 39.1821 24.8507 37.8667 24.8507 36.273C24.8507 34.6793 23.5354 33.3639 21.9418 33.3639ZM32.123 33.3639C30.5294 33.3639 29.2141 34.6793 29.2141 36.273C29.2141 37.8667 30.5294 39.1821 32.123 39.1821C33.7166 39.1821 35.0319 37.8667 35.0319 36.273C35.0319 34.6793 33.7166 33.3639 32.123 33.3639ZM21.9418 35.5457C22.3564 35.5457 22.669 35.8584 22.669 36.273C22.669 36.6876 22.3564 37.0002 21.9418 37.0002C21.5272 37.0002 21.2146 36.6876 21.2146 36.273C21.2146 35.8584 21.5272 35.5457 21.9418 35.5457ZM32.123 35.5457C32.5375 35.5457 32.8502 35.8584 32.8502 36.273C32.8502 36.6876 32.5375 37.0002 32.123 37.0002C31.7084 37.0002 31.3958 36.6876 31.3958 36.273C31.3958 35.8584 31.7084 35.5457 32.123 35.5457Z" fill="#333333"/>
<path fill-rule="evenodd" clip-rule="evenodd" d="M31.6611 18.2681C32.0004 18.6073 32.0004 19.1573 31.6611 19.4966L26.4174 24.7403C26.0781 25.0796 25.5281 25.0796 25.1889 24.7403L22.479 22.0305C22.1398 21.6912 22.1398 21.1412 22.479 20.802C22.8183 20.4628 23.3683 20.4628 23.7075 20.802L25.8031 22.8976L30.4327 18.2681C30.7719 17.9289 31.3219 17.9289 31.6611 18.2681Z" fill="#333333"/>
</svg>
