<svg width="51" height="50" viewBox="0 0 51 50" fill="none" xmlns="http://www.w3.org/2000/svg">
<path d="M10.7034 10.819C9.36789 10.7783 9.14394 12.7131 10.4534 12.9787L12.8659 13.5072C14.1421 19.612 15.5331 25.6919 16.8821 31.7814C16.993 32.2807 17.4359 32.6359 17.9473 32.6358H37.1045C38.5805 32.6576 38.5805 30.4323 37.1045 30.454H18.823L18.3401 28.2728H38.0711C38.5826 28.273 39.0254 27.9177 39.1364 27.4184L41.5524 16.5107C41.703 15.8298 41.1851 15.1844 40.4879 15.184C32.1412 15.1842 23.7946 15.1838 15.4482 15.1799L14.8552 12.3664C14.7668 11.9465 14.4405 11.6175 14.0215 11.5255L10.9194 10.8465C10.8485 10.8302 10.7761 10.8208 10.7034 10.819ZM15.9225 17.3623C23.6579 17.3664 31.3934 17.3664 39.1285 17.3664L37.1954 26.0917H17.8564L15.9225 17.3623ZM22.4882 33.3639C20.8946 33.3639 19.5793 34.6793 19.5793 36.273C19.5793 37.8667 20.8946 39.1821 22.4882 39.1821C24.0818 39.1821 25.3971 37.8667 25.3971 36.273C25.3971 34.6793 24.0818 33.3639 22.4882 33.3639ZM32.6694 33.3639C31.0757 33.3639 29.7605 34.6793 29.7605 36.273C29.7605 37.8667 31.0757 39.1821 32.6694 39.1821C34.263 39.1821 35.5783 37.8667 35.5783 36.273C35.5783 34.6793 34.263 33.3639 32.6694 33.3639ZM22.4882 35.5457C22.9027 35.5457 23.2154 35.8584 23.2154 36.273C23.2154 36.6876 22.9027 37.0002 22.4882 37.0002C22.0736 37.0002 21.761 36.6876 21.761 36.273C21.761 35.8584 22.0736 35.5457 22.4882 35.5457ZM32.6694 35.5457C33.0839 35.5457 33.3966 35.8584 33.3966 36.273C33.3966 36.6876 33.0839 37.0002 32.6694 37.0002C32.2548 37.0002 31.9421 36.6876 31.9421 36.273C31.9421 35.8584 32.2548 35.5457 32.6694 35.5457Z" fill="#F5F5F5"/>
<path fill-rule="evenodd" clip-rule="evenodd" d="M32.2075 18.2681C32.5468 18.6073 32.5468 19.1573 32.2075 19.4966L26.9638 24.7403C26.6245 25.0796 26.0745 25.0796 25.7353 24.7403L23.0254 22.0305C22.6862 21.6912 22.6862 21.1412 23.0254 20.802C23.3647 20.4628 23.9147 20.4628 24.2539 20.802L26.3495 22.8976L30.9791 18.2681C31.3183 17.9289 31.8683 17.9289 32.2075 18.2681Z" fill="#F5F5F5"/>
</svg>
