<svg width="51" height="50" viewBox="0 0 51 50" fill="none" xmlns="http://www.w3.org/2000/svg">
<path d="M10.1487 10.819C8.8132 10.7783 8.58925 12.7131 9.89873 12.9787L12.3112 13.5072C13.5874 19.612 14.9784 25.6919 16.3274 31.7814C16.4383 32.2807 16.8812 32.6359 17.3927 32.6358H36.5499C38.0258 32.6576 38.0258 30.4323 36.5499 30.454H18.2683L17.7854 28.2728H37.5164C38.0279 28.273 38.4708 27.9177 38.5817 27.4184L40.9977 16.5107C41.1483 15.8298 40.6304 15.1844 39.9332 15.184C31.5865 15.1842 23.2399 15.1838 14.8935 15.1799L14.3005 12.3664C14.2121 11.9465 13.8858 11.6175 13.4668 11.5255L10.3647 10.8465C10.2938 10.8302 10.2214 10.8208 10.1487 10.819ZM15.3678 17.3623C23.1032 17.3664 30.8387 17.3664 38.5738 17.3664L36.6407 26.0917H17.3017L15.3678 17.3623ZM21.9335 33.3639C20.3399 33.3639 19.0246 34.6793 19.0246 36.273C19.0246 37.8667 20.3399 39.1821 21.9335 39.1821C23.5271 39.1821 24.8424 37.8667 24.8424 36.273C24.8424 34.6793 23.5271 33.3639 21.9335 33.3639ZM32.1147 33.3639C30.5211 33.3639 29.2058 34.6793 29.2058 36.273C29.2058 37.8667 30.5211 39.1821 32.1147 39.1821C33.7083 39.1821 35.0236 37.8667 35.0236 36.273C35.0236 34.6793 33.7083 33.3639 32.1147 33.3639ZM21.9335 35.5457C22.3481 35.5457 22.6607 35.8584 22.6607 36.273C22.6607 36.6876 22.3481 37.0002 21.9335 37.0002C21.5189 37.0002 21.2063 36.6876 21.2063 36.273C21.2063 35.8584 21.5189 35.5457 21.9335 35.5457ZM32.1147 35.5457C32.5292 35.5457 32.8419 35.8584 32.8419 36.273C32.8419 36.6876 32.5292 37.0002 32.1147 37.0002C31.7001 37.0002 31.3875 36.6876 31.3875 36.273C31.3875 35.8584 31.7001 35.5457 32.1147 35.5457Z" fill="#BDBDBD"/>
<path fill-rule="evenodd" clip-rule="evenodd" d="M31.6528 18.2681C31.9921 18.6073 31.9921 19.1573 31.6528 19.4966L26.4091 24.7403C26.0698 25.0796 25.5198 25.0796 25.1806 24.7403L22.4707 22.0305C22.1315 21.6912 22.1315 21.1412 22.4707 20.802C22.81 20.4628 23.36 20.4628 23.6992 20.802L25.7948 22.8976L30.4244 18.2681C30.7636 17.9289 31.3136 17.9289 31.6528 18.2681Z" fill="#BDBDBD"/>
</svg>
