<svg width="50" height="50" viewBox="0 0 50 50" fill="none" xmlns="http://www.w3.org/2000/svg">
<path d="M36.8462 8H13.1538C11.9692 8 11 8.95625 11 10.125V39.875C11 41.0438 11.9692 42 13.1538 42H36.8462C38.0308 42 39 41.0438 39 39.875V10.125C39 8.95625 38.0308 8 36.8462 8ZM25 39.8113C24.3969 39.8113 23.9231 39.3225 23.9231 38.7488C23.9231 38.1538 24.3969 37.6863 25 37.6863C25.6031 37.6863 26.0769 38.1538 26.0769 38.7488C26.0769 39.3225 25.6031 39.8113 25 39.8113ZM36.8462 35.625H13.1538V10.125H36.8462V35.625Z" fill="black"/>
</svg>
