<svg width="81" height="81" viewBox="0 0 81 81" fill="none" xmlns="http://www.w3.org/2000/svg">
<path d="M40.5001 18.5122C52.8709 18.5122 62.9001 28.5415 62.9001 40.9125C62.9001 53.2834 52.8709 63.3122 40.5001 63.3122C28.1293 63.3122 18.1001 53.2834 18.1001 40.9125C18.1001 28.541 28.1287 18.5122 40.5001 18.5122V18.5122ZM25.3354 48.7912L52.4867 28.7364C49.4023 25.6996 45.1699 23.8265 40.5001 23.8265C31.0634 23.8265 23.4143 31.4757 23.4143 40.9125C23.4143 43.7539 24.1085 46.4339 25.3354 48.7912V48.7912ZM55.6425 32.9913L28.4795 53.055C31.5666 56.1103 35.813 57.9985 40.5001 57.9985C49.9362 57.9985 57.5859 50.3487 57.5859 40.9125C57.5859 38.0537 56.8833 35.3592 55.6425 32.9913V32.9913Z" fill="#005DAA"/>
</svg>
