<svg width="50" height="51" viewBox="0 0 50 51" fill="none" xmlns="http://www.w3.org/2000/svg">
<path d="M25 11.8369C32.7317 11.8369 39 18.1052 39 25.8371C39 33.5689 32.7317 39.8369 25 39.8369C17.2683 39.8369 11 33.5689 11 25.8371C11 18.1049 17.2679 11.8369 25 11.8369ZM15.5221 30.7613L32.4916 18.2271C30.5639 16.329 27.9186 15.1583 25 15.1583C19.1021 15.1583 14.3214 19.9391 14.3214 25.8371C14.3214 27.613 14.7552 29.288 15.5221 30.7613ZM34.464 20.8864L17.4871 33.4262C19.4165 35.3357 22.0706 36.5158 25 36.5158C30.8976 36.5158 35.6786 31.7347 35.6786 25.8371C35.6786 24.0504 35.2395 22.3663 34.464 20.8864Z" fill="#1C1C45"/>
</svg>
