<svg width="150" height="112" viewBox="0 0 150 112" fill="none" xmlns="http://www.w3.org/2000/svg">
<path d="M64.7485 112C64.6178 112 64.4778 111.995 64.3472 111.991C60.9453 111.827 58.1173 109.611 57.1374 106.349L45.7603 68.4239C45.4477 67.3692 44.6264 66.5573 43.5717 66.2353L5.65147 54.8629C2.38956 53.8829 0.172951 51.055 0.00962214 47.6531C-0.153707 44.2512 1.77357 41.2226 4.92815 39.9347L101.049 0.609765C104.069 -0.622201 107.359 0.0404472 109.659 2.34572C111.955 4.64632 112.622 7.94089 111.391 10.9508L72.0656 107.077C70.829 110.101 67.9824 112 64.7485 112ZM102.818 4.92631L6.69677 44.2512C4.71349 45.0585 4.64816 46.8831 4.67149 47.4245C4.69483 47.9658 4.94215 49.7764 6.99076 50.3924L44.911 61.7694C47.473 62.5394 49.4609 64.5273 50.2262 67.0846L61.6032 105.01C62.2192 107.058 64.0345 107.301 64.5712 107.329C65.1638 107.403 66.9371 107.277 67.7491 105.304L107.074 9.17753C107.587 7.92223 107.326 6.59693 106.365 5.64029C105.403 4.67898 104.069 4.40366 102.818 4.92631Z" fill="#0AC27B"/>
<path d="M107.185 1.65984L43.3616 65.4828L46.6613 68.7825L110.484 4.95955L107.185 1.65984Z" fill="#0AC27B"/>
<circle cx="110.377" cy="68.1739" r="38.9565" fill="#0AC27B"/>
<path d="M128.765 42.5657C128.323 42.2609 127.781 42.1343 127.248 42.2392C126.72 42.3341 126.251 42.6369 125.945 43.0782L103.478 75.543L87.8041 64.697C86.883 64.0578 85.6225 64.2913 84.9853 65.2095L78.2731 74.9078C77.9674 75.351 77.8496 75.8952 77.9456 76.4236C78.0416 76.9539 78.3443 77.4209 78.7866 77.7276L105.825 96.4395C106.145 96.6611 106.516 96.762 106.891 96.762C107.595 96.762 108.313 96.4039 108.728 95.8043L138.976 52.0977C139.613 51.1776 139.383 49.9151 138.463 49.2779L128.765 42.5657ZM106.465 91.9535L82.7591 75.5489L87.165 69.183L102.838 80.029C103.757 80.6662 105.019 80.4347 105.657 79.5165L128.125 47.0517L134.491 51.4566L106.465 91.9535Z" fill="#EEEEEE"/>
</svg>
