<?xml version="1.0" encoding="utf-8"?>
<!-- Generator: Adobe Illustrator 25.1.0, SVG Export Plug-In . SVG Version: 6.00 Build 0)  -->
<svg version="1.1" id="Layer_1" xmlns="http://www.w3.org/2000/svg" xmlns:xlink="http://www.w3.org/1999/xlink" x="0px" y="0px"
	 viewBox="0 0 96 96" style="enable-background:new 0 0 96 96;" xml:space="preserve">
<path d="M16,83.5c0.3,0.6,0.8,1,1.4,1.1c0.1,0,0.3,0,0.4,0c0.5,0,1-0.2,1.4-0.5l75.7-69.2c0.8-0.7,0.9-2,0.2-2.8
	c-0.7-0.8-2-0.9-2.8-0.2c0,0,0,0-0.1,0.1L18.5,79.3L4.3,48.9c-0.4-1-1.6-1.5-2.6-1.1c-1,0.4-1.5,1.6-1.1,2.6c0,0.1,0.1,0.1,0.1,0.2
	L16,83.5z"/>
</svg>
