<svg id="Layer_1" data-name="Layer 1" xmlns="http://www.w3.org/2000/svg" viewBox="0 0 96 96"><title>Trash</title><path d="M48,80.88a2,2,0,0,0,2-2V35a2,2,0,0,0-4,0V78.88A2,2,0,0,0,48,80.88Z"/><path d="M62.64,80.87h.14a2,2,0,0,0,2-1.87l3-43.86A2,2,0,0,0,65.86,33a2,2,0,0,0-2.13,1.86L60.78,78.74A2,2,0,0,0,62.64,80.87Z"/><path d="M33.22,80.88h.14a2,2,0,0,0,1.86-2.13L32.27,34.88A2,2,0,0,0,30.14,33a2,2,0,0,0-1.86,2.13L31.23,79A2,2,0,0,0,33.22,80.88Z"/><path d="M80.93,9.38H63.6A9.51,9.51,0,0,0,61.15,2.7,7.78,7.78,0,0,0,55.37.5H41.25c-5.36,0-8.63,3.31-8.85,8.88H15.07c-4.65,0-8.29,5.22-8.29,11.89V25.5a2,2,0,0,0,2,2h4.05l4.34,58.14v0l0,.29C17.68,94.26,23,95.5,26,95.5H70.58c3.5,0,7.77-1.65,8.22-9.51l0-.32v0L83.17,27.5h4a2,2,0,0,0,2-2V21.27C89.22,14.6,85.58,9.38,80.93,9.38ZM41.25,4.5H55.37a3.91,3.91,0,0,1,2.94,1,5.86,5.86,0,0,1,1.3,3.87H36.4C36.62,5,39.25,4.5,41.25,4.5ZM74.84,85.33c0,.12,0,.26,0,.43-.23,4.08-1.46,5.74-4.23,5.74H26c-3.2,0-4.61-1.67-4.85-5.78q0-.23,0-.39L16.84,27.5H79.16ZM85.22,23.5H10.78V21.27c0-4.65,2.26-7.89,4.29-7.89H80.93c2,0,4.29,3.24,4.29,7.89Z"/><path d="M65.07,87.69a2,2,0,0,0,2,2,5.22,5.22,0,0,0,4.08-1.63,5.32,5.32,0,0,0,1.22-3.91,2,2,0,0,0-2.16-1.75,2,2,0,0,0-1.82,2.16,1.23,1.23,0,0,1-.23.84,1.67,1.67,0,0,1-1.09.29A2,2,0,0,0,65.07,87.69Z"/></svg>