<svg width="76" height="76" viewBox="0 0 76 76" fill="none" xmlns="http://www.w3.org/2000/svg">
<g clip-path="url(#clip0)">
<path d="M38.3995 11.9998C32.368 11.9998 27.4555 16.9124 27.4555 22.9438V35.1038C27.4555 41.1353 32.368 46.0478 38.3995 46.0478C39.7788 46.0478 41.0117 45.6877 42.0475 45.3258C42.2777 45.2495 42.4905 45.128 42.6732 44.9685C42.8559 44.8089 43.005 44.6145 43.1117 44.3967C43.2184 44.1788 43.2806 43.9418 43.2946 43.6997C43.3086 43.4575 43.2741 43.2149 43.1933 42.9862C43.1124 42.7575 42.9867 42.5472 42.8236 42.3677C42.6605 42.1881 42.4632 42.0429 42.2432 41.9405C42.0233 41.8382 41.7852 41.7807 41.5428 41.7715C41.3004 41.7623 41.0585 41.8015 40.8315 41.8868C39.9757 42.1858 39.1427 42.3998 38.3995 42.3998C34.3259 42.3998 31.1035 39.1774 31.1035 35.1038V22.9438C31.1035 18.8703 34.3259 15.6478 38.3995 15.6478C42.473 15.6478 45.6955 18.8703 45.6955 22.9438V33.2798C45.6921 33.5215 45.7367 33.7615 45.8268 33.9858C45.917 34.2101 46.0508 34.4143 46.2205 34.5864C46.3902 34.7585 46.5924 34.8952 46.8154 34.9885C47.0384 35.0818 47.2778 35.1298 47.5195 35.1298C47.7612 35.1298 48.0005 35.0818 48.2235 34.9885C48.4465 34.8952 48.6487 34.7585 48.8185 34.5864C48.9882 34.4143 49.122 34.2101 49.2121 33.9858C49.3022 33.7615 49.3469 33.5215 49.3435 33.2798V22.9438C49.3435 16.9124 44.4309 11.9998 38.3995 11.9998ZM38.3995 32.6718C37.0201 32.6718 35.7873 33.013 34.7515 33.3748C34.5212 33.4512 34.3085 33.5727 34.1258 33.7322C33.943 33.8918 33.7939 34.0862 33.6872 34.304C33.5806 34.5219 33.5184 34.7589 33.5044 35.001C33.4904 35.2432 33.5248 35.4858 33.6057 35.7145C33.6866 35.9432 33.8122 36.1535 33.9754 36.333C34.1385 36.5126 34.3358 36.6578 34.5557 36.7601C34.7756 36.8625 35.0138 36.92 35.2562 36.9292C35.4986 36.9384 35.7404 36.8992 35.9675 36.8138C36.8233 36.5149 37.6563 36.3198 38.3995 36.3198C42.473 36.3198 45.6955 39.5423 45.6955 43.6158C45.6921 43.8575 45.7367 44.0975 45.8268 44.3218C45.917 44.5461 46.0508 44.7503 46.2205 44.9224C46.3902 45.0945 46.5924 45.2312 46.8154 45.3245C47.0384 45.4178 47.2778 45.4658 47.5195 45.4658C47.7612 45.4658 48.0005 45.4178 48.2235 45.3245C48.4465 45.2312 48.6487 45.0945 48.8185 44.9224C48.9882 44.7503 49.122 44.5461 49.2121 44.3218C49.3022 44.0975 49.3469 43.8575 49.3435 43.6158C49.3435 37.5844 44.4309 32.6718 38.3995 32.6718ZM29.2605 43.5778C29.0193 43.5803 28.7811 43.6306 28.5595 43.7258C28.3379 43.8209 28.1373 43.9591 27.9695 44.1322C27.8016 44.3054 27.6698 44.5101 27.5815 44.7346C27.4933 44.959 27.4505 45.1987 27.4555 45.4398V55.7758C27.4555 61.8073 32.368 66.7198 38.3995 66.7198C44.4309 66.7198 49.3435 61.8073 49.3435 55.7758V49.6958C49.3469 49.4541 49.3022 49.2142 49.2121 48.9899C49.122 48.7656 48.9882 48.5614 48.8185 48.3893C48.6487 48.2172 48.4465 48.0805 48.2235 47.9872C48.0005 47.8939 47.7612 47.8459 47.5195 47.8459C47.2778 47.8459 47.0384 47.8939 46.8154 47.9872C46.5924 48.0805 46.3902 48.2172 46.2205 48.3893C46.0508 48.5614 45.917 48.7656 45.8268 48.9899C45.7367 49.2142 45.6921 49.4541 45.6955 49.6958V55.7758C45.6955 59.8494 42.473 63.0718 38.3995 63.0718C34.3259 63.0718 31.1035 59.8494 31.1035 55.7758V45.4398C31.1086 45.1955 31.0645 44.9527 30.9739 44.7257C30.8833 44.4988 30.7481 44.2923 30.5762 44.1187C30.4043 43.945 30.1992 43.8076 29.9732 43.7147C29.7472 43.6218 29.5048 43.5753 29.2605 43.5778Z" fill="#005DAA"/>
</g>
<defs>
<clipPath id="clip0">
<rect width="76" height="76" fill="white"/>
</clipPath>
</defs>
</svg>
