<svg width="25" height="25" viewBox="0 0 25 25" fill="none" xmlns="http://www.w3.org/2000/svg">
<path d="M19.1698 11.9574C18.3886 10.9878 15.6074 7.82861 12.17 7.82861C8.73266 7.82861 5.95151 10.9878 5.17028 11.9574C4.90467 12.2858 4.90467 12.755 5.17028 13.0834C5.95151 14.0531 8.73266 17.2122 12.17 17.2122C15.6074 17.2122 18.3886 14.0531 19.1698 13.0834C19.4198 12.755 19.4198 12.2858 19.1698 11.9574ZM12.17 15.9611C9.46701 15.9611 7.10772 13.4275 6.32649 12.5204C7.09209 11.6133 9.46701 9.07975 12.17 9.07975C14.8731 9.07975 17.2324 11.6133 18.0136 12.5204C17.2324 13.4275 14.8731 15.9611 12.17 15.9611Z" fill="#333333"/>
<path d="M12.1701 9.57986C10.5451 9.57986 9.23267 10.8936 9.23267 12.5201C9.23267 14.1465 10.5451 15.4603 12.1701 15.4603C13.795 15.4603 15.1075 14.1465 15.1075 12.5201C15.1075 10.8936 13.795 9.57986 12.1701 9.57986ZM12.1701 14.2091C11.2326 14.2091 10.4826 13.4428 10.4826 12.5201C10.4826 11.5973 11.2326 10.831 12.1701 10.831C13.1075 10.831 13.8575 11.5817 13.8575 12.5201C13.8575 13.4584 13.1075 14.2091 12.1701 14.2091Z" fill="#333333"/>
</svg>
