<svg width="36" height="34" viewBox="0 0 36 34" fill="none" xmlns="http://www.w3.org/2000/svg">
<path d="M35.095 10.0083L33.9613 8.88521C33.3803 8.31125 32.5933 7.98894 31.7728 7.98894C30.9524 7.98894 30.1654 8.31125 29.5844 8.88521L26.8786 11.5657V1.02229C26.8786 0.751225 26.7699 0.491264 26.5765 0.299594C26.383 0.107923 26.1206 0.000244141 25.847 0.000244141H12.1809C12.1603 0.000244141 12.1416 0.00998758 12.1211 0.011214C12.0396 0.0162719 11.9589 0.0310505 11.881 0.0552301C11.8484 0.0633816 11.8162 0.0731601 11.7847 0.0845285C11.6779 0.126707 11.5791 0.186388 11.4923 0.26107L0.343474 10.1545C0.274827 10.2173 0.215213 10.2892 0.166304 10.3681C0.152961 10.3885 0.141338 10.4094 0.129577 10.4309C0.0922187 10.4986 0.0627971 10.5703 0.0418856 10.6446C0.0379653 10.6585 0.0316378 10.6718 0.0281301 10.6854C0.00994068 10.7608 0.000502661 10.838 0 10.9155V32.9782C0 33.2493 0.108693 33.5092 0.302167 33.7009C0.495641 33.8926 0.758048 34.0002 1.03166 34.0002H25.8465C26.1202 34.0002 26.3826 33.8926 26.576 33.7009C26.7695 33.5092 26.8782 33.2493 26.8782 32.9782V22.4845L35.0953 14.3446C35.6747 13.769 36.0001 12.9893 36 12.1764C35.9999 11.3635 35.6745 10.5838 35.095 10.0083ZM32.5021 10.3303L33.6355 11.4535C33.8287 11.6454 33.9372 11.9054 33.9373 12.1764C33.9373 12.4474 33.8289 12.7074 33.6358 12.8994L32.9253 13.6037L30.3324 11.0349L31.0435 10.3304C31.2373 10.1394 31.4996 10.0321 31.7729 10.0321C32.0463 10.0321 32.3086 10.1393 32.5024 10.3303H32.5021ZM20.6874 25.7275L17.2105 26.5992L18.0944 23.1591L28.8734 12.4801L31.4663 15.0488L20.6874 25.7275ZM9.67561 4.6177L11.1495 3.30949V9.89363H3.73007L9.67561 4.6177ZM24.8153 31.9562H2.06367V11.9377H12.1812C12.4548 11.9377 12.7172 11.83 12.9107 11.6384C13.1041 11.4467 13.2128 11.1867 13.2128 10.9157V2.04433H24.8156V13.6098L16.435 21.9122C16.3038 22.0419 16.2104 22.2043 16.1648 22.3823L14.7832 27.759C14.739 27.9306 14.7407 28.1107 14.788 28.2815C14.8353 28.4523 14.9266 28.6081 15.0529 28.7334C15.1793 28.8587 15.3363 28.9494 15.5087 28.9965C15.681 29.0436 15.8628 29.0455 16.0361 29.002L21.4691 27.6399C21.6494 27.5947 21.814 27.5021 21.9454 27.3717L24.8153 24.5286V31.9562Z" fill="#333333"/>
</svg>
