<?xml version="1.0" encoding="utf-8"?>
<!-- Generator: Adobe Illustrator 23.1.1, SVG Export Plug-In . SVG Version: 6.00 Build 0)  -->
<svg version="1.1" id="Layer_1" xmlns="http://www.w3.org/2000/svg" xmlns:xlink="http://www.w3.org/1999/xlink" x="0px" y="0px"
	 viewBox="0 0 38.4 33.9" style="enable-background:new 0 0 38.4 33.9;" xml:space="preserve">
<style type="text/css">
	.st0{fill:url(#SVGID_1_);}
	.st1{fill:url(#SVGID_2_);}
	.st2{fill:url(#SVGID_3_);}
	.st3{fill:url(#SVGID_4_);}
	.st4{fill:url(#SVGID_5_);}
</style>
<title>Artboard 70</title>
<linearGradient id="SVGID_1_" gradientUnits="userSpaceOnUse" x1="7.1024" y1="5.4774" x2="28.1924" y2="24.8074" gradientTransform="matrix(1 0 0 -1 0 35)">
	<stop  offset="0" style="stop-color:#3023AE"/>
	<stop  offset="0.51" style="stop-color:#53A0FD"/>
	<stop  offset="1" style="stop-color:#9CFF87"/>
</linearGradient>
<path class="st0" d="M10.3,17.3h1.4c0,0.2,0,0.3,0,0.5c0,0,0,0.1,0,0.1v5.6c0,0.1,0.1,0.2,0.2,0.2c0,0,0,0,0,0h14.5
	c0.1,0,0.2-0.1,0.2-0.2v0v-5.6c0,0,0,0,0-0.1v-0.5H28v-2.7H10.3V17.3z M16.6,18.2l1.3-0.2c0.1,0,0.2-0.1,0.3-0.2l0.6-1.2
	c0.1-0.2,0.4-0.3,0.7-0.2c0.1,0,0.2,0.1,0.2,0.2l0.6,1.2c0.1,0.1,0.2,0.2,0.3,0.2l1.3,0.2c0.3,0,0.5,0.3,0.4,0.6
	c0,0.1-0.1,0.2-0.1,0.3L21.1,20C21,20.1,21,20.2,21,20.3l0.2,1.3c0.1,0.3-0.1,0.5-0.4,0.6c-0.1,0-0.2,0-0.3,0l-1.2-0.6
	c-0.1-0.1-0.2-0.1-0.4,0l-1.1,0.6c-0.2,0.1-0.5,0-0.7-0.2c-0.1-0.1-0.1-0.2,0-0.3l0.2-1.3c0-0.1,0-0.3-0.1-0.4l-0.9-1
	c-0.2-0.2-0.2-0.5,0-0.7C16.4,18.2,16.5,18.2,16.6,18.2z"/>
<linearGradient id="SVGID_2_" gradientUnits="userSpaceOnUse" x1="1.8615" y1="11.1884" x2="22.9515" y2="30.5184" gradientTransform="matrix(1 0 0 -1 0 35)">
	<stop  offset="0" style="stop-color:#3023AE"/>
	<stop  offset="0.51" style="stop-color:#53A0FD"/>
	<stop  offset="1" style="stop-color:#9CFF87"/>
</linearGradient>
<path class="st1" d="M16.9,13.5v-0.3c0-0.2,0-0.3,0.1-0.5c-0.9-1.2-1.9-2.5-3.4-2.5c-0.7,0-1.3,0.4-1.6,1.1
	c-0.3,0.8-0.1,1.6,0.5,2.2H16.9z"/>
<linearGradient id="SVGID_3_" gradientUnits="userSpaceOnUse" x1="4.4484" y1="8.3699" x2="25.5284" y2="27.7099" gradientTransform="matrix(1 0 0 -1 0 35)">
	<stop  offset="0" style="stop-color:#3023AE"/>
	<stop  offset="0.51" style="stop-color:#53A0FD"/>
	<stop  offset="1" style="stop-color:#9CFF87"/>
</linearGradient>
<path class="st2" d="M20.3,13.2c-0.1-0.6-0.6-1.1-1.2-1c-0.5,0.1-1,0.5-1,1v0.3h2.2V13.2z"/>
<linearGradient id="SVGID_4_" gradientUnits="userSpaceOnUse" x1="6.3612" y1="6.2887" x2="27.4412" y2="25.6187" gradientTransform="matrix(1 0 0 -1 0 35)">
	<stop  offset="0" style="stop-color:#3023AE"/>
	<stop  offset="0.51" style="stop-color:#53A0FD"/>
	<stop  offset="1" style="stop-color:#9CFF87"/>
</linearGradient>
<path class="st3" d="M21.4,13.5h4.4c0.6-0.6,0.8-1.4,0.5-2.2c-0.3-0.6-0.9-1-1.6-1.1c-1.5-0.1-2.5,1.2-3.4,2.4
	c0,0.2,0.1,0.3,0.1,0.5V13.5z"/>
<linearGradient id="SVGID_5_" gradientUnits="userSpaceOnUse" x1="6.5785" y1="6.0425" x2="27.6685" y2="25.3725" gradientTransform="matrix(1 0 0 -1 0 35)">
	<stop  offset="0" style="stop-color:#3023AE"/>
	<stop  offset="0.51" style="stop-color:#53A0FD"/>
	<stop  offset="1" style="stop-color:#9CFF87"/>
</linearGradient>
<path class="st4" d="M28.2,13.2h-0.6c0.7-1.6,0-3.4-1.6-4.1c-0.4-0.2-0.8-0.3-1.2-0.3c-1.9-0.1-3.2,1.2-4.2,2.4
	c-0.9-0.7-2.2-0.7-3.1,0c-1-1.3-2.2-2.5-4.1-2.4c-1.7,0-3.1,1.5-3,3.2c0,0.4,0.1,0.8,0.3,1.2h-0.6c-0.7,0-1.2,0.5-1.2,1.2v3
	c0,0.7,0.6,1.2,1.2,1.2c0,0,0,0,0,0h0.2v4.8c0,0.9,0.7,1.6,1.6,1.6c0,0,0.1,0,0.1,0h14.4c0.9,0,1.6-0.7,1.6-1.6v-4.8h0.2
	c0.7,0,1.2-0.5,1.2-1.2c0,0,0,0,0,0v-3C29.4,13.8,28.9,13.3,28.2,13.2z M29,17.5c0,0.4-0.3,0.7-0.7,0.7c0,0,0,0,0,0h-0.7v5.3
	c0,0.6-0.5,1.1-1.1,1.1c0,0,0,0,0,0H12c-0.6,0-1.1-0.5-1.1-1.1c0,0,0,0,0,0v-5.3h-0.7c-0.4,0-0.7-0.3-0.7-0.7c0,0,0,0,0,0v-3
	c0-0.4,0.3-0.7,0.7-0.7h1.4l-0.2-0.4c-0.4-0.7-0.5-1.6-0.2-2.4c0.4-1,1.3-1.6,2.4-1.6c1.7-0.1,2.8,1.1,3.8,2.4l0.2,0.2l0.2-0.2
	c0.8-0.7,2-0.7,2.8,0l0.2,0.2l0.2-0.2c1-1.2,2.2-2.5,3.9-2.4c1,0,2,0.7,2.4,1.6c0.3,0.8,0.2,1.7-0.2,2.4l-0.2,0.4h1.4
	c0.4,0,0.7,0.3,0.7,0.7c0,0,0,0,0,0L29,17.5z"/>
</svg>
