<!-- Generator: Adobe Illustrator 21.1.0, SVG Export Plug-In  -->
<svg version="1.1"
	 xmlns="http://www.w3.org/2000/svg" xmlns:xlink="http://www.w3.org/1999/xlink" xmlns:a="http://ns.adobe.com/AdobeSVGViewerExtensions/3.0/"
	 x="0px" y="0px" width="2500px" height="594.5px" viewBox="0 0 2500 594.5" style="enable-background:new 0 0 2500 594.5;"
	 xml:space="preserve">
<style type="text/css">
	.st0{fill:#FFFFFF;}
</style>
<defs>
</defs>
<g>
	<path class="st0" d="M394.4,315.1c-0.8-48.4,20.1-86,62.6-113c-24-34.9-59.4-54.5-106.1-58.9c-16.6-1.6-37.9,2.4-63.8,11.9
		c-27.8,10.3-43.5,15.4-47,15.4c-7.3,0-21.5-4.3-42.4-13.1c-20.9-8.7-38.7-13.1-53.4-13.1c-24.7,0.4-47.8,7.2-69,20.5
		c-21.3,13.3-38.3,31.4-51,54.4C8.1,247.9,0,282,0,321.7c0,35.7,6,71.3,18,107c11.2,34.1,25.5,64,42.9,89.8
		c15.4,23.4,29,40.4,40.6,51.2c16.6,16.6,33.6,24.6,51.1,23.8c11.2-0.4,25.9-4.6,44.1-12.5c17-7.5,34-11.3,51-11.3
		c15.8,0,32.3,3.8,49.3,11.3c18.9,7.9,34.4,11.9,46.4,11.9c17.8-0.8,34.4-8.5,49.9-23.2c5.4-4.8,11.3-11.3,17.7-19.6
		c7.4-9.7,14.4-19.6,21.2-29.7c5.6-8.7,11-17.6,16-26.8c5.4-9.8,10.1-19.9,14.2-30.3c1.9-4.4,3.7-8.8,5.2-13.4
		c1.5-4.6,3.1-9.2,4.6-14c-14.3-6.3-27.3-15.3-38.9-26.8C407.7,383.7,394.8,352.4,394.4,315.1L394.4,315.1z M814.9,421.1h-2.8
		L694.4,152h-92.5v434.3h80.6V305h3.7l98.4,223.3h56.5L939.3,305h3.8v281.3h81.5V152h-91.9L814.9,421.1z M321.3,95.1
		c20.5-25.8,30.8-53.5,30.8-83.2V6c0-2-0.2-4-0.6-6c-14.3,0.8-29.5,5.4-45.5,13.7c-16,8.3-29.3,18.9-39.7,31.5
		c-20.9,25-31.3,51.7-31.3,80.3v5.6c0,1.8,0.2,3.7,0.6,5.7C267.6,139.9,296.2,126,321.3,95.1L321.3,95.1z M1966.7,152h90.6v434.3
		h-90.6V152z M2331,221c53.7,0,82.1,41.4,82.1,85.9h86.9v-9.2c0-84-64.1-154-169.7-154c-113.1,0-180.6,74.4-180.6,201.4v49
		c0,126.9,66.9,200.4,180.3,200.4c108.4,0,170-71,170-149.9v-9.5h-86.9c0,44.9-27.8,82.1-81.5,82.1c-55,0-90-39.1-90-122.8v-49
		C2241.6,262,2276.9,221,2331,221L2331,221z M1371.1,426.2c0,58.2-34.1,90.4-84,90.4c-50.3,0-84.4-31.8-84.4-90.4V152h-90v287
		c0,92.6,65.6,155.6,174.3,155.6c108.4,0,174.3-63,174.3-155.6V152h-90.3V426.2L1371.1,426.2z M1761.2,333.3l-64.7-14.6
		c-38.1-8-58.1-24.8-58.1-50c0-33.4,27.2-54.4,70.9-54.4c49.4,0,74,28.3,76.2,58.9h84.4c-0.9-76.7-65-130.1-160.3-130.1
		c-90.3,0-161.5,47.4-161.5,132.7c0,73.8,50,108.1,110,121.2l64,14.9c43.1,9.9,65,24.2,65,53.8c0,33.7-26.9,56.7-77.2,56.7
		c-54.1,0-82.5-28.6-85-60.8h-86.9c1.3,61.4,41.9,133,167.5,133c105.6,0,170.9-52.5,170.9-137.8
		C1876.5,377.8,1823.7,347,1761.2,333.3L1761.2,333.3z"/>
</g>
</svg>
