<?xml version="1.0" encoding="UTF-8" standalone="no"?>
<!-- Created with Inkscape (http://www.inkscape.org/) -->

<svg
   xmlns:dc="http://purl.org/dc/elements/1.1/"
   xmlns:cc="http://creativecommons.org/ns#"
   xmlns:rdf="http://www.w3.org/1999/02/22-rdf-syntax-ns#"
   xmlns:svg="http://www.w3.org/2000/svg"
   xmlns="http://www.w3.org/2000/svg"
   xmlns:sodipodi="http://sodipodi.sourceforge.net/DTD/sodipodi-0.dtd"
   xmlns:inkscape="http://www.inkscape.org/namespaces/inkscape"
   width="105mm"
   height="15mm"
   viewBox="0 0 105 15"
   version="1.1"
   id="svg5216"
   inkscape:version="0.92.1 "
   sodipodi:docname="Berita Harian.svg">
  <defs
     id="defs5210" />
  <sodipodi:namedview
     id="base"
     pagecolor="#ffffff"
     bordercolor="#666666"
     borderopacity="1.0"
     inkscape:pageopacity="0.0"
     inkscape:pageshadow="2"
     inkscape:zoom="1.4"
     inkscape:cx="387.25479"
     inkscape:cy="124.00311"
     inkscape:document-units="mm"
     inkscape:current-layer="layer1"
     showgrid="false"
     inkscape:window-width="1920"
     inkscape:window-height="1001"
     inkscape:window-x="-9"
     inkscape:window-y="-9"
     inkscape:window-maximized="1" />
  <metadata
     id="metadata5213">
    <rdf:RDF>
      <cc:Work
         rdf:about="">
        <dc:format>image/svg+xml</dc:format>
        <dc:type
           rdf:resource="http://purl.org/dc/dcmitype/StillImage" />
        <dc:title></dc:title>
      </cc:Work>
    </rdf:RDF>
  </metadata>
  <g
     inkscape:label="Layer 1"
     inkscape:groupmode="layer"
     id="layer1"
     transform="translate(0,-282)">
    <path
       inkscape:connector-curvature="0"
       id="path4513"
       d="m 4.0096596,294.29528 h 0.811665 c 1.7818041,0 2.7340281,-0.89986 2.7340281,-3.05236 0,-1.87 -0.899859,-3.01652 -2.4694451,-3.01652 h -1.076248 z m 0,-6.38583 h 0.952225 c 1.0583331,0 2.2048611,-0.68764 2.2048611,-2.48736 0,-2.04639 -0.72347,-2.91042 -2.2227751,-2.91042 h -0.934311 z m -3.93430205,6.38583 H 1.2577176 V 282.51167 H 0.07535755 v -0.31833 H 5.7032687 c 1.974729,0 4.1093109,0.88194 4.1093109,2.92834 0,1.88791 -1.9223639,2.68166 -3.6159729,2.82222 v 0.0358 c 2.417079,0 4.3215283,1.12861 4.3215283,3.24528 0,1.94028 -1.7280603,3.38722 -5.0091693,3.38722 H 0.07535755 Z m 0,0"
       style="fill:#1e54ae;fill-opacity:1;fill-rule:nonzero;stroke:none;stroke-width:0.35277778" />
    <path
       inkscape:connector-curvature="0"
       id="path4515"
       d="m 15.721608,290.02611 v -1.51722 c 0,-0.97013 -0.264583,-1.55305 -1.112076,-1.55305 -0.599447,0 -1.110699,0.3707 -1.110699,1.55305 v 1.51722 z m -2.222775,0.31695 v 1.48277 c 0,1.1989 0.176389,2.57418 1.816255,2.57418 1.376659,0 2.399164,-1.02251 2.78777,-2.66237 h 0.318326 c -0.388606,1.74597 -1.464854,3.0868 -3.635263,3.0868 -2.257227,0 -3.932922,-1.71152 -3.932922,-4.00458 0,-2.38125 1.799717,-4.18096 3.880556,-4.18096 1.852083,-0.0358 3.615972,1.79971 3.633886,3.70416 z m 0,0"
       style="fill:#1e54ae;fill-opacity:1;fill-rule:nonzero;stroke:none;stroke-width:0.35277778" />
    <path
       inkscape:connector-curvature="0"
       id="path4517"
       d="m 18.54383,294.29528 h 1.216809 v -7.12722 H 18.54383 v -0.31833 h 1.216809 c 0.723469,0 2.028472,0 2.399164,-0.4575 v 1.79971 h 0.03583 c 0.334864,-0.88194 1.198894,-1.65915 2.327508,-1.65915 0.829578,0 1.393197,0.51263 1.393197,1.35874 0,0.66973 -0.493339,1.28709 -1.339455,1.28709 -0.689017,0 -1.20027,-0.45751 -1.20027,-1.14653 0,-0.44097 0.124023,-0.72209 0.423058,-1.04042 h -0.07028 c -1.1107,0.49472 -1.533758,1.44694 -1.533758,2.80431 v 4.4993 h 1.621952 v 0.31695 h -5.273753 z m 0,0"
       style="fill:#1e54ae;fill-opacity:1;fill-rule:nonzero;stroke:none;stroke-width:0.35277778" />
    <path
       inkscape:connector-curvature="0"
       id="path4519"
       d="m 28.686191,282.26362 c 0.79375,0 1.429025,0.63527 1.429025,1.42902 0,0.79376 -0.635275,1.42904 -1.429025,1.42904 -0.79375,0 -1.429025,-0.63528 -1.429025,-1.42904 0,-0.79375 0.635275,-1.42902 1.429025,-1.42902 m -2.434995,12.03166 h 1.218187 v -7.12722 h -1.218187 v -0.31833 h 1.252641 c 0.723468,0 2.02847,0 2.399162,-0.4575 v 7.90305 h 1.216808 v 0.31695 h -4.868611 z m 0,0"
       style="fill:#1e54ae;fill-opacity:1;fill-rule:nonzero;stroke:none;stroke-width:0.35277778" />
    <path
       inkscape:connector-curvature="0"
       id="path4521"
       d="m 30.696749,287.16806 v -0.31695 c 1.781805,0 3.050977,-1.92374 3.050977,-3.79374 h 0.318328 v 3.79374 h 1.623327 v 0.31695 h -1.623327 v 5.99723 c 0,0.5829 0.228756,0.91777 0.687641,0.91777 0.440973,0 0.723469,-0.42306 0.935686,-0.74139 l 0.228756,0.12403 c -0.547082,0.91777 -1.27055,1.35874 -2.346801,1.35874 -0.493337,0 -1.94028,-0.33624 -1.94028,-2.01193 v -5.64445 z m 0,0"
       style="fill:#1e54ae;fill-opacity:1;fill-rule:nonzero;stroke:none;stroke-width:0.35277778" />
    <path
       inkscape:connector-curvature="0"
       id="path4523"
       d="m 41.191889,290.46709 -1.393195,0.14056 c -1.14653,0.12402 -1.252639,0.74138 -1.252639,1.67569 0,0.91777 0.05374,2.01194 1.252639,2.01194 0.829577,0 1.358743,-0.8475 1.393195,-1.78181 z m 2.328883,2.73402 c 0,0.54708 0.0882,0.88195 0.405146,0.88195 0.424434,0 0.617361,-0.52917 0.617361,-0.98805 h 0.318325 c 0,1.04041 -0.741384,1.72943 -1.88791,1.72943 -0.79375,0 -1.446941,-0.37069 -1.76389,-1.11207 -0.458886,0.84749 -1.675694,1.11207 -2.363335,1.11207 -1.358747,0 -2.73403,-0.61736 -2.73403,-2.15249 0,-1.83417 1.745975,-2.25861 3.35139,-2.38125 l 1.72806,-0.14194 v -1.48139 c 0,-1.05833 -0.176387,-1.71153 -1.499304,-1.71153 -0.599448,0 -1.623333,0.14194 -1.605415,0.52917 0.01791,0.30041 0.899859,0.24805 0.899859,1.09416 0,0.61737 -0.405144,1.05834 -1.076249,1.05834 -0.79375,0 -1.146527,-0.52917 -1.146527,-1.14653 0,-0.98805 1.288466,-1.85208 3.052353,-1.85208 1.816256,0 3.704166,0.49333 3.704166,2.50527 z m 0,0"
       style="fill:#1e54ae;fill-opacity:1;fill-rule:nonzero;stroke:none;stroke-width:0.35277778" />
    <path
       inkscape:connector-curvature="0"
       id="path4525"
       d="m 47.329669,294.29528 h 1.429028 v -11.78361 h -1.429028 v -0.31833 h 5.609998 v 0.31833 h -1.429026 v 5.39778 h 4.586111 v -5.39778 h -1.429025 v -0.31833 h 5.609992 v 0.31833 h -1.429025 v 11.78361 h 1.429025 v 0.31695 h -5.609992 v -0.31695 h 1.429025 v -6.06888 h -4.586111 v 6.06888 h 1.429026 v 0.31695 h -5.609998 z m 0,0"
       style="fill:#1e54ae;fill-opacity:1;fill-rule:nonzero;stroke:none;stroke-width:0.35277778" />
    <path
       inkscape:connector-curvature="0"
       id="path4527"
       d="m 65.392996,290.46709 -1.393196,0.14056 c -1.146529,0.12402 -1.252638,0.74138 -1.252638,1.67569 0,0.91777 0.05237,2.01194 1.252638,2.01194 0.828202,0 1.357368,-0.8475 1.393196,-1.78181 z m 2.328883,2.73402 c 0,0.54708 0.0882,0.88195 0.405146,0.88195 0.423058,0 0.61736,-0.52917 0.61736,-0.98805 h 0.31695 c 0,1.04041 -0.740008,1.72943 -1.886535,1.72943 -0.79375,0 -1.44694,-0.37069 -1.763889,-1.11207 -0.458886,0.84749 -1.675694,1.11207 -2.364711,1.11207 -1.357371,0 -2.73403,-0.61736 -2.73403,-2.15249 0,-1.83417 1.745972,-2.25861 3.35139,-2.38125 l 1.729436,-0.14194 v -1.48139 c 0,-1.05833 -0.176388,-1.71153 -1.499304,-1.71153 -0.599448,0 -1.62333,0.14194 -1.605415,0.52917 0.01791,0.30041 0.899858,0.24805 0.899858,1.09416 0,0.61737 -0.406519,1.05834 -1.076248,1.05834 -0.79375,0 -1.146527,-0.52917 -1.146527,-1.14653 0,-0.98805 1.28709,-1.85208 3.050977,-1.85208 1.817632,0 3.705542,0.49333 3.705542,2.50527 z m 0,0"
       style="fill:#1e54ae;fill-opacity:1;fill-rule:nonzero;stroke:none;stroke-width:0.35277778" />
    <path
       inkscape:connector-curvature="0"
       id="path4529"
       d="m 68.991056,294.29528 h 1.216809 v -7.12722 h -1.216809 v -0.31833 h 1.216809 c 0.723468,0 2.02847,0 2.399162,-0.4575 v 1.79971 h 0.03583 c 0.334862,-0.88194 1.198893,-1.65915 2.327508,-1.65915 0.829575,0 1.393195,0.51263 1.393195,1.35874 0,0.66973 -0.49334,1.28709 -1.339453,1.28709 -0.689018,0 -1.200272,-0.45751 -1.200272,-1.14653 0,-0.44097 0.124023,-0.72209 0.423058,-1.04042 h -0.07028 c -1.1107,0.49472 -1.533758,1.44694 -1.533758,2.80431 v 4.4993 h 1.621951 v 0.31695 h -5.273752 z m 0,0"
       style="fill:#1e54ae;fill-opacity:1;fill-rule:nonzero;stroke:none;stroke-width:0.35277778" />
    <path
       inkscape:connector-curvature="0"
       id="path4531"
       d="m 78.79855,282.26362 c 0.79375,0 1.42765,0.63527 1.42765,1.42902 0,0.79376 -0.6339,1.42904 -1.42765,1.42904 -0.79375,0 -1.42902,-0.63528 -1.42902,-1.42904 0,-0.79375 0.63527,-1.42902 1.42902,-1.42902 m -2.43499,12.03166 h 1.2168 v -7.12722 h -1.2168 v -0.31833 h 1.25264 c 0.72347,0 2.02847,0 2.39916,-0.4575 v 7.90305 h 1.21681 v 0.31695 h -4.86861 z m 0,0"
       style="fill:#1e54ae;fill-opacity:1;fill-rule:nonzero;stroke:none;stroke-width:0.35277778" />
    <path
       inkscape:connector-curvature="0"
       id="path4533"
       d="m 86.82425,290.46709 -1.39458,0.14056 c -1.14653,0.12402 -1.25126,0.74138 -1.25126,1.67569 0,0.91777 0.0524,2.01194 1.25126,2.01194 0.82958,0 1.35875,-0.8475 1.39458,-1.78181 z m 2.32751,2.73402 c 0,0.54708 0.0882,0.88195 0.40651,0.88195 0.42306,0 0.61737,-0.52917 0.61737,-0.98805 h 0.31695 c 0,1.04041 -0.74001,1.72943 -1.88792,1.72943 -0.79375,0 -1.44556,-0.37069 -1.76389,-1.11207 -0.45751,0.84749 -1.67569,1.11207 -2.36333,1.11207 -1.35737,0 -2.73403,-0.61736 -2.73403,-2.15249 0,-1.83417 1.74597,-2.25861 3.35139,-2.38125 l 1.72944,-0.14194 v -1.48139 c 0,-1.05833 -0.17639,-1.71153 -1.49931,-1.71153 -0.60083,0 -1.62333,0.14194 -1.60541,0.52917 0.0179,0.30041 0.89985,0.24805 0.89985,1.09416 0,0.61737 -0.40651,1.05834 -1.07624,1.05834 -0.79513,0 -1.14791,-0.52917 -1.14791,-1.14653 0,-0.98805 1.28847,-1.85208 3.05236,-1.85208 1.81763,0 3.70417,0.49333 3.70417,2.50527 z m 0,0"
       style="fill:#1e54ae;fill-opacity:1;fill-rule:nonzero;stroke:none;stroke-width:0.35277778" />
    <path
       inkscape:connector-curvature="0"
       id="path4535"
       d="m 90.42093,294.29528 h 1.21818 v -7.12722 h -1.21818 v -0.31833 h 1.25263 c 0.72347,0 2.02985,0 2.39917,-0.4575 v 1.88791 h 0.0358 c 0.4768,-1.02388 1.639865,-1.64124 2.822225,-1.64124 1.67569,0 2.487359,0.8282 2.487359,2.73402 v 4.92236 h 1.216806 v 0.31695 h -4.656385 v -0.31695 h 1.00596 v -5.57417 c 0,-1.23472 -0.53054,-1.44694 -1.04179,-1.44694 -0.988065,0 -1.870005,1.28709 -1.870005,2.18695 v 4.83416 h 1.04179 v 0.31695 H 90.4209 Z m 0,0"
       style="fill:#1e54ae;fill-opacity:1;fill-rule:nonzero;stroke:none;stroke-width:0.35277778" />
  </g>
</svg>
