<svg width="207" height="39" viewBox="0 0 207 39" fill="none" xmlns="http://www.w3.org/2000/svg">
<path d="M49.2969 13.1484C50.1823 13.1745 50.9049 13.1875 51.4648 13.1875C52.0247 13.1875 52.7474 13.1745 53.6328 13.1484C54.5182 13.1094 55.2279 13.0833 55.7617 13.0703C56.0872 13.0703 56.5365 13.0052 57.1094 12.875L57.4805 15.8633C57.3893 15.9544 57.2135 16 56.9531 16C56.849 16 56.7839 15.9674 56.7578 15.9023C56.5755 15.1862 56.3346 14.7044 56.0352 14.457C55.7357 14.1966 55.2669 14.0664 54.6289 14.0664C53.418 14.0664 52.7865 14.1771 52.7344 14.3984C52.6172 14.776 52.5586 15.388 52.5586 16.2344V23.2852C52.5586 23.9883 52.6172 24.5547 52.7344 24.9844C52.7474 25.0755 52.9232 25.1732 53.2617 25.2773C53.6003 25.3685 53.8281 25.4141 53.9453 25.4141C53.9974 25.4141 54.0234 25.5312 54.0234 25.7656C54.0234 25.8958 54.0104 26 53.9844 26.0781C53.8151 26.0651 53.5612 26.0456 53.2227 26.0195C52.8971 25.9935 52.5911 25.974 52.3047 25.9609C52.0312 25.9479 51.7643 25.9414 51.5039 25.9414C51.1523 25.9414 50.6641 25.9609 50.0391 26C49.4271 26.0391 49.0495 26.0651 48.9062 26.0781C48.8542 26.026 48.8281 25.9219 48.8281 25.7656C48.8281 25.5312 48.8542 25.4141 48.9062 25.4141C49.0625 25.4141 49.3034 25.3685 49.6289 25.2773C49.9674 25.1862 50.1562 25.0885 50.1953 24.9844C50.2995 24.6328 50.3516 24.0924 50.3516 23.3633V16.293C50.3516 15.2122 50.293 14.5807 50.1758 14.3984C50.0716 14.1771 49.4531 14.0664 48.3203 14.0664C47.6823 14.0664 47.2135 14.1966 46.9141 14.457C46.6146 14.7044 46.3672 15.1797 46.1719 15.8828C46.1589 15.9609 46.0938 16 45.9766 16C45.7292 16 45.5599 15.9479 45.4688 15.8438L45.8398 12.875C46.4128 13.0052 46.862 13.0703 47.1875 13.0703C47.7214 13.0833 48.4245 13.1094 49.2969 13.1484ZM64.8828 17.3672C66.5495 17.3672 67.3828 18.6497 67.3828 21.2148V23.2266C67.3828 24.0208 67.4349 24.6068 67.5391 24.9844C67.5521 25.0755 67.7214 25.1732 68.0469 25.2773C68.3854 25.3685 68.6133 25.4141 68.7305 25.4141C68.7695 25.4141 68.7891 25.5117 68.7891 25.707C68.8021 25.8893 68.8021 26.013 68.7891 26.0781C68.6979 26.0651 68.3464 26.0391 67.7344 26C67.1354 25.9609 66.6927 25.9414 66.4062 25.9414C66.0807 25.9414 65.638 25.9609 65.0781 26C64.5312 26.0391 64.1927 26.0651 64.0625 26.0781C64.0234 26.026 64.0039 25.9023 64.0039 25.707C64.0039 25.5117 64.0234 25.4141 64.0625 25.4141C64.2188 25.4141 64.4401 25.3685 64.7266 25.2773C65.026 25.1732 65.1953 25.0755 65.2344 24.9844C65.3125 24.5938 65.3516 24.1185 65.3516 23.5586V21.6445C65.3516 20.5638 65.2018 19.8216 64.9023 19.418C64.6159 19.0013 64.1536 18.793 63.5156 18.793C63.125 18.793 62.7669 18.9036 62.4414 19.125C62.1159 19.3464 61.9531 19.5938 61.9531 19.8672V23.2266C61.9531 24.0208 62.0052 24.6068 62.1094 24.9844C62.1354 25.0755 62.3047 25.1732 62.6172 25.2773C62.9427 25.3685 63.1641 25.4141 63.2812 25.4141C63.3203 25.4141 63.3398 25.5117 63.3398 25.707C63.3529 25.8893 63.3464 26.013 63.3203 26.0781C63.2161 26.0651 62.8711 26.0391 62.2852 26C61.7122 25.9609 61.276 25.9414 60.9766 25.9414C60.6641 25.9414 60.2083 25.9609 59.6094 26C59.0234 26.0391 58.6784 26.0651 58.5742 26.0781C58.5221 26.026 58.4961 25.9023 58.4961 25.707C58.4961 25.5117 58.5221 25.4141 58.5742 25.4141C58.7305 25.4141 58.9648 25.3685 59.2773 25.2773C59.6029 25.1732 59.7786 25.0755 59.8047 24.9844C59.8958 24.5938 59.9414 24.125 59.9414 23.5781V15.4531C59.9414 14.9323 59.9089 14.4896 59.8438 14.125C59.7786 13.9167 59.4401 13.8125 58.8281 13.8125H58.6523C58.5742 13.8125 58.5352 13.7083 58.5352 13.5C58.5352 13.2917 58.5742 13.1875 58.6523 13.1875C59.056 13.1484 59.4401 13.0964 59.8047 13.0312C60.1693 12.9661 60.4688 12.901 60.7031 12.8359C60.9505 12.7708 61.1589 12.7057 61.3281 12.6406C61.5104 12.5755 61.6471 12.5299 61.7383 12.5039C61.8424 12.4648 61.8945 12.4453 61.8945 12.4453H61.9336C61.9857 12.4453 62.0378 12.4844 62.0898 12.5625C62.1419 12.6276 62.1745 12.6927 62.1875 12.7578C62.0312 13.2656 61.9531 13.8776 61.9531 14.5938V18.5391C61.9531 18.6172 61.9792 18.6562 62.0312 18.6562C62.0443 18.6562 62.0703 18.6367 62.1094 18.5977C62.3828 18.2852 62.7799 18.0052 63.3008 17.7578C63.8346 17.4974 64.362 17.3672 64.8828 17.3672ZM73.6523 18.2656C73.3398 18.2656 73.0599 18.3568 72.8125 18.5391C72.5651 18.7214 72.3763 18.9427 72.2461 19.2031C72.1159 19.4635 72.0182 19.7109 71.9531 19.9453C71.901 20.1667 71.875 20.3555 71.875 20.5117C71.875 20.6029 71.9141 20.6484 71.9922 20.6484H75.1562C75.2734 20.6484 75.332 20.5508 75.332 20.3555C75.332 19.8997 75.1758 19.4375 74.8633 18.9688C74.5638 18.5 74.1602 18.2656 73.6523 18.2656ZM73.7891 17.3672C74.401 17.3672 74.9479 17.4909 75.4297 17.7383C75.9115 17.9727 76.2891 18.2786 76.5625 18.6562C76.8359 19.0208 77.0443 19.4049 77.1875 19.8086C77.3307 20.1992 77.4023 20.5768 77.4023 20.9414C77.4023 21.2279 77.3503 21.4102 77.2461 21.4883C77.1549 21.5534 76.9596 21.5859 76.6602 21.5859H71.9922C71.901 21.5859 71.8555 21.625 71.8555 21.7031C71.8555 22.1719 71.9401 22.6276 72.1094 23.0703C72.2786 23.513 72.5651 23.8971 72.9688 24.2227C73.3854 24.5482 73.8802 24.7109 74.4531 24.7109C74.6484 24.7109 74.8372 24.7044 75.0195 24.6914C75.2018 24.6654 75.3711 24.6328 75.5273 24.5938C75.6836 24.5417 75.8203 24.4961 75.9375 24.457C76.0547 24.418 76.1719 24.3594 76.2891 24.2812C76.4193 24.2031 76.5104 24.151 76.5625 24.125C76.6146 24.0859 76.6927 24.0339 76.7969 23.9688C76.901 23.8906 76.9531 23.8516 76.9531 23.8516C76.9792 23.8646 77.0117 23.9036 77.0508 23.9688C77.0898 24.0339 77.1094 24.099 77.1094 24.1641C77.1094 24.3073 77.0703 24.431 76.9922 24.5352C76.7969 24.8867 76.4128 25.2383 75.8398 25.5898C75.2669 25.9414 74.6224 26.1172 73.9062 26.1172C72.7734 26.1172 71.7969 25.7005 70.9766 24.8672C70.1562 24.0208 69.7461 22.9987 69.7461 21.8008C69.7461 20.4857 70.1237 19.418 70.8789 18.5977C71.6471 17.7773 72.6172 17.3672 73.7891 17.3672ZM90.3906 22.5625C90.3906 21.7292 90.1562 21.0456 89.6875 20.5117C89.2318 19.9648 88.4896 19.6914 87.4609 19.6914C87.0833 19.6914 86.6797 19.724 86.25 19.7891C86.1458 19.8542 86.0938 19.9844 86.0938 20.1797V23.8125C86.0938 24.3594 86.1719 24.6979 86.3281 24.8281C86.4974 24.9583 86.9141 25.0234 87.5781 25.0234C87.8646 25.0234 88.1445 24.9974 88.418 24.9453C88.6914 24.8802 88.9844 24.776 89.2969 24.6328C89.6224 24.4766 89.8828 24.2227 90.0781 23.8711C90.2865 23.5065 90.3906 23.0703 90.3906 22.5625ZM83.8867 23.207V15.8242C83.8867 15.043 83.8411 14.5091 83.75 14.2227C83.7109 14.0794 83.5286 13.9622 83.2031 13.8711C82.8776 13.7799 82.6172 13.7344 82.4219 13.7344C82.3698 13.7344 82.3438 13.6367 82.3438 13.4414C82.3438 13.2591 82.3698 13.1419 82.4219 13.0898C83.2812 13.1289 84.1471 13.1484 85.0195 13.1484C85.6836 13.1484 86.2435 13.1484 86.6992 13.1484C87.1549 13.1354 87.5456 13.1289 87.8711 13.1289C88.3398 13.1289 88.8086 13.1875 89.2773 13.3047C89.7461 13.4219 90.2018 13.6042 90.6445 13.8516C91.0872 14.0859 91.4453 14.431 91.7188 14.8867C92.0052 15.3424 92.1484 15.8698 92.1484 16.4688C92.1484 16.9375 92.0117 17.3737 91.7383 17.7773C91.4648 18.181 91.2044 18.4674 90.957 18.6367C90.7227 18.793 90.5208 18.9036 90.3516 18.9688C90.2474 19.0078 90.2214 19.0469 90.2734 19.0859C90.7552 19.1641 91.2891 19.5091 91.875 20.1211C92.474 20.7201 92.7734 21.4622 92.7734 22.3477C92.7734 23.4674 92.3177 24.3594 91.4062 25.0234C90.5078 25.6875 89.3099 26.013 87.8125 26L85.0391 25.9805L82.4414 26.0586C82.4023 26.0195 82.3828 25.9154 82.3828 25.7461C82.3828 25.5247 82.4023 25.4141 82.4414 25.4141C82.6107 25.4141 82.8581 25.375 83.1836 25.2969C83.5091 25.2057 83.6979 25.1016 83.75 24.9844C83.8411 24.7109 83.8867 24.1185 83.8867 23.207ZM88.3594 18.6172C89.3099 18.4089 89.7852 17.7708 89.7852 16.7031C89.7852 14.9453 89.0365 14.0664 87.5391 14.0664C86.9271 14.0664 86.5104 14.099 86.2891 14.1641C86.1849 14.1901 86.1328 14.2617 86.1328 14.3789L86.0938 16.2539V18.5391C86.0938 18.6693 86.4844 18.7344 87.2656 18.7344C87.7474 18.7344 88.112 18.6953 88.3594 18.6172ZM102.363 19.4766V23.3438C102.363 23.9688 102.415 24.4245 102.52 24.7109C102.559 24.776 102.63 24.8281 102.734 24.8672C102.852 24.9062 102.969 24.9323 103.086 24.9453C103.203 24.9583 103.307 24.9648 103.398 24.9648C103.503 24.9648 103.561 24.9714 103.574 24.9844C103.626 24.9974 103.652 25.056 103.652 25.1602C103.652 25.2122 103.639 25.3034 103.613 25.4336C103.587 25.5508 103.548 25.6094 103.496 25.6094C103.314 25.6094 103.079 25.6354 102.793 25.6875C102.52 25.7266 102.253 25.7721 101.992 25.8242C101.732 25.8633 101.484 25.9089 101.25 25.9609C101.016 26.013 100.827 26.0521 100.684 26.0781C100.54 26.1042 100.469 26.1172 100.469 26.1172C100.378 26.1172 100.332 26.013 100.332 25.8047V24.9453C100.319 24.8802 100.299 24.8477 100.273 24.8477C99.974 25.1732 99.5768 25.4661 99.082 25.7266C98.5872 25.987 98.0729 26.1172 97.5391 26.1172C97.0964 26.1172 96.7057 26.0065 96.3672 25.7852C96.0417 25.5638 95.7812 25.2773 95.5859 24.9258C95.4036 24.5742 95.2669 24.1966 95.1758 23.793C95.0977 23.3893 95.0586 22.9792 95.0586 22.5625V20.375C95.0586 19.763 94.9544 19.3464 94.7461 19.125C94.6289 18.9948 94.4792 18.8971 94.2969 18.832C94.1146 18.7669 93.9583 18.7279 93.8281 18.7148C93.6979 18.7018 93.6328 18.6823 93.6328 18.6562C93.6328 18.2786 93.6654 18.0833 93.7305 18.0703C94.1081 18.0443 94.6419 17.9661 95.332 17.8359C96.0221 17.7057 96.5365 17.5885 96.875 17.4844C96.888 17.4844 96.9141 17.4779 96.9531 17.4648C96.9922 17.4518 97.0182 17.4453 97.0312 17.4453C97.0964 17.4453 97.1419 17.4909 97.168 17.582C97.207 17.6732 97.2266 17.7448 97.2266 17.7969C97.1094 18.6823 97.0508 19.2552 97.0508 19.5156V21.8594C97.0508 22.875 97.194 23.6042 97.4805 24.0469C97.7669 24.4896 98.2292 24.7109 98.8672 24.7109C99.2839 24.7109 99.6354 24.5872 99.9219 24.3398C100.208 24.0794 100.352 23.832 100.352 23.5977V20.375C100.352 19.763 100.247 19.3464 100.039 19.125C99.9349 18.9948 99.7852 18.8971 99.5898 18.832C99.4076 18.7669 99.2513 18.7279 99.1211 18.7148C98.9909 18.7018 98.9258 18.6823 98.9258 18.6562C98.9258 18.2786 98.9648 18.0833 99.043 18.0703C99.4076 18.0443 99.9349 17.9661 100.625 17.8359C101.315 17.7057 101.829 17.5885 102.168 17.4844C102.181 17.4844 102.207 17.4779 102.246 17.4648C102.298 17.4518 102.324 17.4453 102.324 17.4453C102.389 17.4453 102.441 17.4909 102.48 17.582C102.52 17.6732 102.533 17.7448 102.52 17.7969C102.415 18.6823 102.363 19.2422 102.363 19.4766ZM107.852 17.3477C108.581 17.3477 109.336 17.4583 110.117 17.6797C110.247 18.2656 110.319 18.9948 110.332 19.8672C110.332 19.9714 110.247 20.0234 110.078 20.0234C109.792 20.0234 109.635 19.9714 109.609 19.8672C109.518 19.4115 109.323 19.0273 109.023 18.7148C108.737 18.3893 108.346 18.2266 107.852 18.2266C107.474 18.2266 107.174 18.3112 106.953 18.4805C106.745 18.6497 106.641 18.8906 106.641 19.2031C106.641 19.3854 106.673 19.5547 106.738 19.7109C106.816 19.8542 106.934 19.9909 107.09 20.1211C107.259 20.2513 107.402 20.3555 107.52 20.4336C107.65 20.5117 107.839 20.6159 108.086 20.7461C108.177 20.7982 108.242 20.8307 108.281 20.8438C108.307 20.8568 108.405 20.9089 108.574 21C108.743 21.0911 108.848 21.1497 108.887 21.1758C108.939 21.2018 109.043 21.2669 109.199 21.3711C109.368 21.4622 109.486 21.5339 109.551 21.5859C109.616 21.638 109.714 21.7161 109.844 21.8203C109.987 21.9245 110.085 22.0156 110.137 22.0938C110.202 22.1719 110.28 22.276 110.371 22.4062C110.475 22.5234 110.547 22.6406 110.586 22.7578C110.625 22.862 110.658 22.9857 110.684 23.1289C110.723 23.2591 110.742 23.3958 110.742 23.5391C110.742 24.3594 110.423 25.0104 109.785 25.4922C109.16 25.9609 108.398 26.1953 107.5 26.1953C106.693 26.1953 105.853 26.013 104.98 25.6484C104.915 25.4271 104.85 25.069 104.785 24.5742C104.72 24.0664 104.688 23.6888 104.688 23.4414C104.766 23.3763 104.857 23.3438 104.961 23.3438C105.26 23.3438 105.417 23.3958 105.43 23.5C105.534 24.0469 105.788 24.4896 106.191 24.8281C106.608 25.1536 107.057 25.3164 107.539 25.3164C107.904 25.3164 108.203 25.2253 108.438 25.043C108.672 24.8607 108.789 24.5938 108.789 24.2422C108.789 24.112 108.77 23.9948 108.73 23.8906C108.704 23.7734 108.646 23.6628 108.555 23.5586C108.464 23.4414 108.385 23.3503 108.32 23.2852C108.268 23.207 108.151 23.1159 107.969 23.0117C107.799 22.9076 107.669 22.8359 107.578 22.7969C107.5 22.7448 107.337 22.6602 107.09 22.543C106.855 22.4128 106.693 22.3216 106.602 22.2695C106.003 21.957 105.54 21.612 105.215 21.2344C104.889 20.8438 104.727 20.375 104.727 19.8281C104.727 19.0339 105.039 18.4219 105.664 17.9922C106.289 17.5625 107.018 17.3477 107.852 17.3477ZM113.262 15.0625C113.027 14.8151 112.91 14.5286 112.91 14.2031C112.91 13.8646 113.027 13.5781 113.262 13.3438C113.496 13.1094 113.783 12.9922 114.121 12.9922C114.46 12.9922 114.746 13.1094 114.98 13.3438C115.215 13.5781 115.332 13.8646 115.332 14.2031C115.332 14.5286 115.215 14.8151 114.98 15.0625C114.746 15.2969 114.46 15.4141 114.121 15.4141C113.783 15.4141 113.496 15.2969 113.262 15.0625ZM115.293 23.2266C115.293 24.0208 115.345 24.6068 115.449 24.9844C115.475 25.0755 115.651 25.1732 115.977 25.2773C116.302 25.3685 116.523 25.4141 116.641 25.4141C116.693 25.4141 116.719 25.5117 116.719 25.707C116.732 25.8893 116.725 26.013 116.699 26.0781C116.608 26.0651 116.257 26.0391 115.645 26C115.046 25.9609 114.603 25.9414 114.316 25.9414C113.991 25.9414 113.529 25.9609 112.93 26C112.344 26.0391 112.005 26.0651 111.914 26.0781C111.862 26.026 111.836 25.9023 111.836 25.707C111.836 25.5117 111.862 25.4141 111.914 25.4141C112.057 25.4141 112.292 25.3685 112.617 25.2773C112.943 25.1732 113.118 25.0755 113.145 24.9844C113.236 24.5938 113.281 24.1185 113.281 23.5586V20.375C113.281 19.763 113.177 19.3464 112.969 19.125C112.852 18.9948 112.702 18.8971 112.52 18.832C112.337 18.7669 112.181 18.7279 112.051 18.7148C111.921 18.7018 111.855 18.6823 111.855 18.6562C111.855 18.2786 111.895 18.0833 111.973 18.0703C112.337 18.0443 112.865 17.9661 113.555 17.8359C114.245 17.7057 114.759 17.5885 115.098 17.4844C115.111 17.4844 115.137 17.4779 115.176 17.4648C115.228 17.4518 115.254 17.4453 115.254 17.4453C115.319 17.4453 115.371 17.4909 115.41 17.582C115.449 17.6732 115.462 17.7448 115.449 17.7969C115.345 18.6302 115.293 19.1901 115.293 19.4766V23.2266ZM124.062 17.3672C125.742 17.3672 126.582 18.7018 126.582 21.3711V23.2266C126.582 24.0208 126.628 24.6068 126.719 24.9844C126.745 25.0755 126.921 25.1732 127.246 25.2773C127.585 25.3685 127.812 25.4141 127.93 25.4141C127.969 25.4141 127.988 25.5117 127.988 25.707C128.001 25.8893 127.995 26.013 127.969 26.0781C127.891 26.0651 127.546 26.0391 126.934 26C126.335 25.9609 125.885 25.9414 125.586 25.9414C125.273 25.9414 124.837 25.9609 124.277 26C123.73 26.0391 123.398 26.0651 123.281 26.0781C123.229 26.026 123.203 25.9023 123.203 25.707C123.203 25.5117 123.229 25.4141 123.281 25.4141C123.424 25.4141 123.639 25.3685 123.926 25.2773C124.225 25.1732 124.388 25.0755 124.414 24.9844C124.518 24.5938 124.57 24.1185 124.57 23.5586V21.7031C124.57 20.6224 124.421 19.8672 124.121 19.4375C123.835 19.0078 123.372 18.793 122.734 18.793C122.318 18.793 121.953 18.9102 121.641 19.1445C121.328 19.3659 121.172 19.6068 121.172 19.8672V23.2266C121.172 24.0208 121.217 24.6068 121.309 24.9844C121.335 25.0755 121.504 25.1732 121.816 25.2773C122.142 25.3685 122.357 25.4141 122.461 25.4141C122.513 25.4141 122.539 25.5117 122.539 25.707C122.552 25.8893 122.546 26.013 122.52 26.0781C122.415 26.0651 122.07 26.0391 121.484 26C120.911 25.9609 120.475 25.9414 120.176 25.9414C119.863 25.9414 119.408 25.9609 118.809 26C118.223 26.0391 117.878 26.0651 117.773 26.0781C117.721 26.026 117.695 25.9023 117.695 25.707C117.695 25.5117 117.721 25.4141 117.773 25.4141C117.93 25.4141 118.164 25.3685 118.477 25.2773C118.802 25.1732 118.978 25.0755 119.004 24.9844C119.095 24.5938 119.141 24.1185 119.141 23.5586V20.375C119.141 19.763 119.036 19.3464 118.828 19.125C118.724 18.9948 118.574 18.8971 118.379 18.832C118.197 18.7669 118.04 18.7279 117.91 18.7148C117.793 18.7018 117.734 18.6823 117.734 18.6562C117.734 18.2786 117.767 18.0833 117.832 18.0703C118.431 18.0182 119.479 17.8229 120.977 17.4844C120.99 17.4714 121.003 17.4648 121.016 17.4648C121.042 17.4518 121.061 17.4453 121.074 17.4453C121.1 17.4453 121.12 17.4453 121.133 17.4453C121.185 17.4453 121.23 17.4909 121.27 17.582C121.309 17.6732 121.328 17.7448 121.328 17.7969C121.276 18.1615 121.25 18.3958 121.25 18.5C121.25 18.5521 121.257 18.5846 121.27 18.5977C121.283 18.5977 121.315 18.5781 121.367 18.5391C121.68 18.2266 122.077 17.9531 122.559 17.7188C123.053 17.4844 123.555 17.3672 124.062 17.3672ZM132.949 18.2656C132.637 18.2656 132.357 18.3568 132.109 18.5391C131.862 18.7214 131.673 18.9427 131.543 19.2031C131.413 19.4635 131.315 19.7109 131.25 19.9453C131.198 20.1667 131.172 20.3555 131.172 20.5117C131.172 20.6029 131.211 20.6484 131.289 20.6484H134.453C134.57 20.6484 134.629 20.5508 134.629 20.3555C134.629 19.8997 134.473 19.4375 134.16 18.9688C133.861 18.5 133.457 18.2656 132.949 18.2656ZM133.086 17.3672C133.698 17.3672 134.245 17.4909 134.727 17.7383C135.208 17.9727 135.586 18.2786 135.859 18.6562C136.133 19.0208 136.341 19.4049 136.484 19.8086C136.628 20.1992 136.699 20.5768 136.699 20.9414C136.699 21.2279 136.647 21.4102 136.543 21.4883C136.452 21.5534 136.257 21.5859 135.957 21.5859H131.289C131.198 21.5859 131.152 21.625 131.152 21.7031C131.152 22.1719 131.237 22.6276 131.406 23.0703C131.576 23.513 131.862 23.8971 132.266 24.2227C132.682 24.5482 133.177 24.7109 133.75 24.7109C133.945 24.7109 134.134 24.7044 134.316 24.6914C134.499 24.6654 134.668 24.6328 134.824 24.5938C134.98 24.5417 135.117 24.4961 135.234 24.457C135.352 24.418 135.469 24.3594 135.586 24.2812C135.716 24.2031 135.807 24.151 135.859 24.125C135.911 24.0859 135.99 24.0339 136.094 23.9688C136.198 23.8906 136.25 23.8516 136.25 23.8516C136.276 23.8646 136.309 23.9036 136.348 23.9688C136.387 24.0339 136.406 24.099 136.406 24.1641C136.406 24.3073 136.367 24.431 136.289 24.5352C136.094 24.8867 135.71 25.2383 135.137 25.5898C134.564 25.9414 133.919 26.1172 133.203 26.1172C132.07 26.1172 131.094 25.7005 130.273 24.8672C129.453 24.0208 129.043 22.9987 129.043 21.8008C129.043 20.4857 129.421 19.418 130.176 18.5977C130.944 17.7773 131.914 17.3672 133.086 17.3672ZM140.781 17.3477C141.51 17.3477 142.266 17.4583 143.047 17.6797C143.177 18.2656 143.249 18.9948 143.262 19.8672C143.262 19.9714 143.177 20.0234 143.008 20.0234C142.721 20.0234 142.565 19.9714 142.539 19.8672C142.448 19.4115 142.253 19.0273 141.953 18.7148C141.667 18.3893 141.276 18.2266 140.781 18.2266C140.404 18.2266 140.104 18.3112 139.883 18.4805C139.674 18.6497 139.57 18.8906 139.57 19.2031C139.57 19.3854 139.603 19.5547 139.668 19.7109C139.746 19.8542 139.863 19.9909 140.02 20.1211C140.189 20.2513 140.332 20.3555 140.449 20.4336C140.579 20.5117 140.768 20.6159 141.016 20.7461C141.107 20.7982 141.172 20.8307 141.211 20.8438C141.237 20.8568 141.335 20.9089 141.504 21C141.673 21.0911 141.777 21.1497 141.816 21.1758C141.868 21.2018 141.973 21.2669 142.129 21.3711C142.298 21.4622 142.415 21.5339 142.48 21.5859C142.546 21.638 142.643 21.7161 142.773 21.8203C142.917 21.9245 143.014 22.0156 143.066 22.0938C143.132 22.1719 143.21 22.276 143.301 22.4062C143.405 22.5234 143.477 22.6406 143.516 22.7578C143.555 22.862 143.587 22.9857 143.613 23.1289C143.652 23.2591 143.672 23.3958 143.672 23.5391C143.672 24.3594 143.353 25.0104 142.715 25.4922C142.09 25.9609 141.328 26.1953 140.43 26.1953C139.622 26.1953 138.783 26.013 137.91 25.6484C137.845 25.4271 137.78 25.069 137.715 24.5742C137.65 24.0664 137.617 23.6888 137.617 23.4414C137.695 23.3763 137.786 23.3438 137.891 23.3438C138.19 23.3438 138.346 23.3958 138.359 23.5C138.464 24.0469 138.717 24.4896 139.121 24.8281C139.538 25.1536 139.987 25.3164 140.469 25.3164C140.833 25.3164 141.133 25.2253 141.367 25.043C141.602 24.8607 141.719 24.5938 141.719 24.2422C141.719 24.112 141.699 23.9948 141.66 23.8906C141.634 23.7734 141.576 23.6628 141.484 23.5586C141.393 23.4414 141.315 23.3503 141.25 23.2852C141.198 23.207 141.081 23.1159 140.898 23.0117C140.729 22.9076 140.599 22.8359 140.508 22.7969C140.43 22.7448 140.267 22.6602 140.02 22.543C139.785 22.4128 139.622 22.3216 139.531 22.2695C138.932 21.957 138.47 21.612 138.145 21.2344C137.819 20.8438 137.656 20.375 137.656 19.8281C137.656 19.0339 137.969 18.4219 138.594 17.9922C139.219 17.5625 139.948 17.3477 140.781 17.3477ZM147.93 17.3477C148.659 17.3477 149.414 17.4583 150.195 17.6797C150.326 18.2656 150.397 18.9948 150.41 19.8672C150.41 19.9714 150.326 20.0234 150.156 20.0234C149.87 20.0234 149.714 19.9714 149.688 19.8672C149.596 19.4115 149.401 19.0273 149.102 18.7148C148.815 18.3893 148.424 18.2266 147.93 18.2266C147.552 18.2266 147.253 18.3112 147.031 18.4805C146.823 18.6497 146.719 18.8906 146.719 19.2031C146.719 19.3854 146.751 19.5547 146.816 19.7109C146.895 19.8542 147.012 19.9909 147.168 20.1211C147.337 20.2513 147.48 20.3555 147.598 20.4336C147.728 20.5117 147.917 20.6159 148.164 20.7461C148.255 20.7982 148.32 20.8307 148.359 20.8438C148.385 20.8568 148.483 20.9089 148.652 21C148.822 21.0911 148.926 21.1497 148.965 21.1758C149.017 21.2018 149.121 21.2669 149.277 21.3711C149.447 21.4622 149.564 21.5339 149.629 21.5859C149.694 21.638 149.792 21.7161 149.922 21.8203C150.065 21.9245 150.163 22.0156 150.215 22.0938C150.28 22.1719 150.358 22.276 150.449 22.4062C150.553 22.5234 150.625 22.6406 150.664 22.7578C150.703 22.862 150.736 22.9857 150.762 23.1289C150.801 23.2591 150.82 23.3958 150.82 23.5391C150.82 24.3594 150.501 25.0104 149.863 25.4922C149.238 25.9609 148.477 26.1953 147.578 26.1953C146.771 26.1953 145.931 26.013 145.059 25.6484C144.993 25.4271 144.928 25.069 144.863 24.5742C144.798 24.0664 144.766 23.6888 144.766 23.4414C144.844 23.3763 144.935 23.3438 145.039 23.3438C145.339 23.3438 145.495 23.3958 145.508 23.5C145.612 24.0469 145.866 24.4896 146.27 24.8281C146.686 25.1536 147.135 25.3164 147.617 25.3164C147.982 25.3164 148.281 25.2253 148.516 25.043C148.75 24.8607 148.867 24.5938 148.867 24.2422C148.867 24.112 148.848 23.9948 148.809 23.8906C148.783 23.7734 148.724 23.6628 148.633 23.5586C148.542 23.4414 148.464 23.3503 148.398 23.2852C148.346 23.207 148.229 23.1159 148.047 23.0117C147.878 22.9076 147.747 22.8359 147.656 22.7969C147.578 22.7448 147.415 22.6602 147.168 22.543C146.934 22.4128 146.771 22.3216 146.68 22.2695C146.081 21.957 145.618 21.612 145.293 21.2344C144.967 20.8438 144.805 20.375 144.805 19.8281C144.805 19.0339 145.117 18.4219 145.742 17.9922C146.367 17.5625 147.096 17.3477 147.93 17.3477ZM159.746 13.1484C160.632 13.1745 161.354 13.1875 161.914 13.1875C162.474 13.1875 163.197 13.1745 164.082 13.1484C164.967 13.1094 165.677 13.0833 166.211 13.0703C166.536 13.0703 166.986 13.0052 167.559 12.875L167.93 15.8633C167.839 15.9544 167.663 16 167.402 16C167.298 16 167.233 15.9674 167.207 15.9023C167.025 15.1862 166.784 14.7044 166.484 14.457C166.185 14.1966 165.716 14.0664 165.078 14.0664C163.867 14.0664 163.236 14.1771 163.184 14.3984C163.066 14.776 163.008 15.388 163.008 16.2344V23.2852C163.008 23.9883 163.066 24.5547 163.184 24.9844C163.197 25.0755 163.372 25.1732 163.711 25.2773C164.049 25.3685 164.277 25.4141 164.395 25.4141C164.447 25.4141 164.473 25.5312 164.473 25.7656C164.473 25.8958 164.46 26 164.434 26.0781C164.264 26.0651 164.01 26.0456 163.672 26.0195C163.346 25.9935 163.04 25.974 162.754 25.9609C162.48 25.9479 162.214 25.9414 161.953 25.9414C161.602 25.9414 161.113 25.9609 160.488 26C159.876 26.0391 159.499 26.0651 159.355 26.0781C159.303 26.026 159.277 25.9219 159.277 25.7656C159.277 25.5312 159.303 25.4141 159.355 25.4141C159.512 25.4141 159.753 25.3685 160.078 25.2773C160.417 25.1862 160.605 25.0885 160.645 24.9844C160.749 24.6328 160.801 24.0924 160.801 23.3633V16.293C160.801 15.2122 160.742 14.5807 160.625 14.3984C160.521 14.1771 159.902 14.0664 158.77 14.0664C158.132 14.0664 157.663 14.1966 157.363 14.457C157.064 14.7044 156.816 15.1797 156.621 15.8828C156.608 15.9609 156.543 16 156.426 16C156.178 16 156.009 15.9479 155.918 15.8438L156.289 12.875C156.862 13.0052 157.311 13.0703 157.637 13.0703C158.171 13.0833 158.874 13.1094 159.746 13.1484ZM170.391 15.0625C170.156 14.8151 170.039 14.5286 170.039 14.2031C170.039 13.8646 170.156 13.5781 170.391 13.3438C170.625 13.1094 170.911 12.9922 171.25 12.9922C171.589 12.9922 171.875 13.1094 172.109 13.3438C172.344 13.5781 172.461 13.8646 172.461 14.2031C172.461 14.5286 172.344 14.8151 172.109 15.0625C171.875 15.2969 171.589 15.4141 171.25 15.4141C170.911 15.4141 170.625 15.2969 170.391 15.0625ZM172.422 23.2266C172.422 24.0208 172.474 24.6068 172.578 24.9844C172.604 25.0755 172.78 25.1732 173.105 25.2773C173.431 25.3685 173.652 25.4141 173.77 25.4141C173.822 25.4141 173.848 25.5117 173.848 25.707C173.861 25.8893 173.854 26.013 173.828 26.0781C173.737 26.0651 173.385 26.0391 172.773 26C172.174 25.9609 171.732 25.9414 171.445 25.9414C171.12 25.9414 170.658 25.9609 170.059 26C169.473 26.0391 169.134 26.0651 169.043 26.0781C168.991 26.026 168.965 25.9023 168.965 25.707C168.965 25.5117 168.991 25.4141 169.043 25.4141C169.186 25.4141 169.421 25.3685 169.746 25.2773C170.072 25.1732 170.247 25.0755 170.273 24.9844C170.365 24.5938 170.41 24.1185 170.41 23.5586V20.375C170.41 19.763 170.306 19.3464 170.098 19.125C169.98 18.9948 169.831 18.8971 169.648 18.832C169.466 18.7669 169.31 18.7279 169.18 18.7148C169.049 18.7018 168.984 18.6823 168.984 18.6562C168.984 18.2786 169.023 18.0833 169.102 18.0703C169.466 18.0443 169.993 17.9661 170.684 17.8359C171.374 17.7057 171.888 17.5885 172.227 17.4844C172.24 17.4844 172.266 17.4779 172.305 17.4648C172.357 17.4518 172.383 17.4453 172.383 17.4453C172.448 17.4453 172.5 17.4909 172.539 17.582C172.578 17.6732 172.591 17.7448 172.578 17.7969C172.474 18.6302 172.422 19.1901 172.422 19.4766V23.2266ZM181.191 17.3672C181.686 17.3672 182.109 17.4974 182.461 17.7578C182.812 18.0052 183.073 18.3307 183.242 18.7344C183.62 18.3438 184.095 18.0182 184.668 17.7578C185.241 17.4974 185.853 17.3672 186.504 17.3672C186.973 17.3672 187.37 17.4714 187.695 17.6797C188.034 17.888 188.294 18.181 188.477 18.5586C188.672 18.9232 188.809 19.3268 188.887 19.7695C188.978 20.1992 189.023 20.668 189.023 21.1758V23.2266C189.023 24.0208 189.069 24.6068 189.16 24.9844C189.186 25.0755 189.362 25.1732 189.688 25.2773C190.013 25.3685 190.234 25.4141 190.352 25.4141C190.391 25.4141 190.41 25.5117 190.41 25.707C190.423 25.8893 190.417 26.013 190.391 26.0781C190.299 26.0651 189.954 26.0391 189.355 26C188.77 25.9609 188.327 25.9414 188.027 25.9414C187.715 25.9414 187.266 25.9609 186.68 26C186.107 26.0391 185.762 26.0651 185.645 26.0781C185.605 26.026 185.586 25.9023 185.586 25.707C185.586 25.5117 185.605 25.4141 185.645 25.4141C185.801 25.4141 186.035 25.3685 186.348 25.2773C186.66 25.1732 186.829 25.0755 186.855 24.9844C186.947 24.5938 186.992 24.138 186.992 23.6172V21.625C186.992 19.737 186.387 18.793 185.176 18.793C184.746 18.793 184.388 18.8971 184.102 19.1055C183.815 19.3138 183.646 19.5156 183.594 19.7109C183.594 19.75 183.587 19.8021 183.574 19.8672C183.574 19.9323 183.581 19.9844 183.594 20.0234C183.633 20.3099 183.652 20.7135 183.652 21.2344V23.3047C183.652 24.0469 183.698 24.6068 183.789 24.9844C183.815 25.0755 183.991 25.1732 184.316 25.2773C184.642 25.3685 184.863 25.4141 184.98 25.4141C185.02 25.4141 185.039 25.5117 185.039 25.707C185.052 25.8893 185.046 26.013 185.02 26.0781C184.928 26.0651 184.583 26.0391 183.984 26C183.398 25.9609 182.956 25.9414 182.656 25.9414C182.344 25.9414 181.895 25.9609 181.309 26C180.736 26.0391 180.391 26.0651 180.273 26.0781C180.234 26.026 180.215 25.9023 180.215 25.707C180.215 25.5117 180.234 25.4141 180.273 25.4141C180.43 25.4141 180.664 25.3685 180.977 25.2773C181.289 25.1732 181.458 25.0755 181.484 24.9844C181.576 24.5938 181.621 24.1185 181.621 23.5586V21.6836C181.621 20.668 181.471 19.9323 181.172 19.4766C180.872 19.0208 180.43 18.793 179.844 18.793C179.453 18.793 179.095 18.9036 178.77 19.125C178.444 19.3464 178.281 19.5938 178.281 19.8672V23.2266C178.281 24.0208 178.333 24.6068 178.438 24.9844C178.464 25.0755 178.633 25.1732 178.945 25.2773C179.258 25.3685 179.473 25.4141 179.59 25.4141C179.642 25.4141 179.668 25.5117 179.668 25.707C179.681 25.8893 179.674 26.013 179.648 26.0781C179.544 26.0651 179.199 26.0391 178.613 26C178.04 25.9609 177.604 25.9414 177.305 25.9414C176.979 25.9414 176.523 25.9609 175.938 26C175.352 26.0391 175.007 26.0651 174.902 26.0781C174.85 26.026 174.824 25.9023 174.824 25.707C174.824 25.5117 174.85 25.4141 174.902 25.4141C175.046 25.4141 175.28 25.3685 175.605 25.2773C175.931 25.1732 176.107 25.0755 176.133 24.9844C176.224 24.5938 176.27 24.1185 176.27 23.5586V20.375C176.27 19.763 176.165 19.3464 175.957 19.125C175.853 18.9948 175.703 18.8971 175.508 18.832C175.326 18.7669 175.169 18.7279 175.039 18.7148C174.909 18.7018 174.844 18.6823 174.844 18.6562C174.844 18.2786 174.883 18.0833 174.961 18.0703C175.56 18.0182 176.602 17.8229 178.086 17.4844C178.099 17.4714 178.118 17.4648 178.145 17.4648C178.171 17.4518 178.19 17.4453 178.203 17.4453C178.229 17.4453 178.242 17.4453 178.242 17.4453C178.307 17.4453 178.359 17.4909 178.398 17.582C178.438 17.6732 178.451 17.7448 178.438 17.7969C178.385 18.1615 178.359 18.3958 178.359 18.5C178.359 18.5521 178.372 18.5846 178.398 18.5977C178.411 18.5977 178.444 18.5781 178.496 18.5391C178.809 18.2266 179.206 17.9531 179.688 17.7188C180.182 17.4844 180.684 17.3672 181.191 17.3672ZM195.156 18.2656C194.844 18.2656 194.564 18.3568 194.316 18.5391C194.069 18.7214 193.88 18.9427 193.75 19.2031C193.62 19.4635 193.522 19.7109 193.457 19.9453C193.405 20.1667 193.379 20.3555 193.379 20.5117C193.379 20.6029 193.418 20.6484 193.496 20.6484H196.66C196.777 20.6484 196.836 20.5508 196.836 20.3555C196.836 19.8997 196.68 19.4375 196.367 18.9688C196.068 18.5 195.664 18.2656 195.156 18.2656ZM195.293 17.3672C195.905 17.3672 196.452 17.4909 196.934 17.7383C197.415 17.9727 197.793 18.2786 198.066 18.6562C198.34 19.0208 198.548 19.4049 198.691 19.8086C198.835 20.1992 198.906 20.5768 198.906 20.9414C198.906 21.2279 198.854 21.4102 198.75 21.4883C198.659 21.5534 198.464 21.5859 198.164 21.5859H193.496C193.405 21.5859 193.359 21.625 193.359 21.7031C193.359 22.1719 193.444 22.6276 193.613 23.0703C193.783 23.513 194.069 23.8971 194.473 24.2227C194.889 24.5482 195.384 24.7109 195.957 24.7109C196.152 24.7109 196.341 24.7044 196.523 24.6914C196.706 24.6654 196.875 24.6328 197.031 24.5938C197.188 24.5417 197.324 24.4961 197.441 24.457C197.559 24.418 197.676 24.3594 197.793 24.2812C197.923 24.2031 198.014 24.151 198.066 24.125C198.118 24.0859 198.197 24.0339 198.301 23.9688C198.405 23.8906 198.457 23.8516 198.457 23.8516C198.483 23.8646 198.516 23.9036 198.555 23.9688C198.594 24.0339 198.613 24.099 198.613 24.1641C198.613 24.3073 198.574 24.431 198.496 24.5352C198.301 24.8867 197.917 25.2383 197.344 25.5898C196.771 25.9414 196.126 26.1172 195.41 26.1172C194.277 26.1172 193.301 25.7005 192.48 24.8672C191.66 24.0208 191.25 22.9987 191.25 21.8008C191.25 20.4857 191.628 19.418 192.383 18.5977C193.151 17.7773 194.121 17.3672 195.293 17.3672ZM202.988 17.3477C203.717 17.3477 204.473 17.4583 205.254 17.6797C205.384 18.2656 205.456 18.9948 205.469 19.8672C205.469 19.9714 205.384 20.0234 205.215 20.0234C204.928 20.0234 204.772 19.9714 204.746 19.8672C204.655 19.4115 204.46 19.0273 204.16 18.7148C203.874 18.3893 203.483 18.2266 202.988 18.2266C202.611 18.2266 202.311 18.3112 202.09 18.4805C201.882 18.6497 201.777 18.8906 201.777 19.2031C201.777 19.3854 201.81 19.5547 201.875 19.7109C201.953 19.8542 202.07 19.9909 202.227 20.1211C202.396 20.2513 202.539 20.3555 202.656 20.4336C202.786 20.5117 202.975 20.6159 203.223 20.7461C203.314 20.7982 203.379 20.8307 203.418 20.8438C203.444 20.8568 203.542 20.9089 203.711 21C203.88 21.0911 203.984 21.1497 204.023 21.1758C204.076 21.2018 204.18 21.2669 204.336 21.3711C204.505 21.4622 204.622 21.5339 204.688 21.5859C204.753 21.638 204.85 21.7161 204.98 21.8203C205.124 21.9245 205.221 22.0156 205.273 22.0938C205.339 22.1719 205.417 22.276 205.508 22.4062C205.612 22.5234 205.684 22.6406 205.723 22.7578C205.762 22.862 205.794 22.9857 205.82 23.1289C205.859 23.2591 205.879 23.3958 205.879 23.5391C205.879 24.3594 205.56 25.0104 204.922 25.4922C204.297 25.9609 203.535 26.1953 202.637 26.1953C201.829 26.1953 200.99 26.013 200.117 25.6484C200.052 25.4271 199.987 25.069 199.922 24.5742C199.857 24.0664 199.824 23.6888 199.824 23.4414C199.902 23.3763 199.993 23.3438 200.098 23.3438C200.397 23.3438 200.553 23.3958 200.566 23.5C200.671 24.0469 200.924 24.4896 201.328 24.8281C201.745 25.1536 202.194 25.3164 202.676 25.3164C203.04 25.3164 203.34 25.2253 203.574 25.043C203.809 24.8607 203.926 24.5938 203.926 24.2422C203.926 24.112 203.906 23.9948 203.867 23.8906C203.841 23.7734 203.783 23.6628 203.691 23.5586C203.6 23.4414 203.522 23.3503 203.457 23.2852C203.405 23.207 203.288 23.1159 203.105 23.0117C202.936 22.9076 202.806 22.8359 202.715 22.7969C202.637 22.7448 202.474 22.6602 202.227 22.543C201.992 22.4128 201.829 22.3216 201.738 22.2695C201.139 21.957 200.677 21.612 200.352 21.2344C200.026 20.8438 199.863 20.375 199.863 19.8281C199.863 19.0339 200.176 18.4219 200.801 17.9922C201.426 17.5625 202.155 17.3477 202.988 17.3477Z" fill="#333333"/>
<circle cx="19.5" cy="19.5" r="19.5" fill="#C4C4C4"/>
<circle cx="19.5" cy="19.5" r="19.5" fill="#C4C4C4"/>
<circle cx="19.5" cy="19.5" r="19.5" fill="#285C70"/>
<path d="M22.8637 28.8043L24.0865 28.6814C24.8255 28.5875 25.1034 28.3742 25.1034 28.1574V10.5909H24.4135C22.0561 10.7138 20.9019 12.499 20.1858 14.4685L19.885 15.7297H19.424L20.14 10.038H32.4536L32.8917 15.7297H32.4536L32.1985 14.5625C31.4138 12.069 30.397 10.6849 28.0395 10.5946H27.3006V28.2478C27.3006 28.4935 27.4608 28.5875 28.4777 28.7103L29.5403 28.8043L29.609 29.2668H22.795L22.8637 28.8043ZM7.117 28.8043L7.99327 28.6814C8.73221 28.5875 9.01013 28.3742 9.01013 28.1574V11.0535C9.01013 10.8078 8.87281 10.7138 7.83306 10.5909L7.13989 10.497L7.07123 10.0344H12.7768C17.0044 10.0344 18.2535 12.0943 18.2535 14.1866C18.2535 16.3693 16.9358 18.1545 14.0029 18.74V18.8339C17.3281 19.1122 18.9924 21.3889 18.9924 24.0016C18.9924 27.1383 16.8213 29.2632 12.7997 29.2632H7.04834L7.117 28.8043ZM12.3812 18.5882C14.7386 18.5268 15.8012 16.7416 15.8012 14.6492C15.8012 12.0654 14.6928 10.6488 12.2209 10.6488H11.2041V18.5846L12.3812 18.5882ZM13.1005 28.6489C15.2486 28.5549 16.5892 26.5565 16.5892 24.1895C16.5892 21.2045 14.9249 19.1736 12.5217 19.1736C12.1294 19.1736 11.4591 19.2061 11.2041 19.2676V28.1574L12.6362 28.7103C12.6362 28.7103 13.2607 28.6489 13.1005 28.6489Z" fill="white"/>
</svg>
