<svg xmlns="http://www.w3.org/2000/svg" width="308.8" height="30" viewBox="0 0 308.8 30"><path d="M6.3,28.6,8,28.4c1.1-.1,1.6-.5,1.6-.8V.9H8.7c-3.4.2-5.4,3.4-6.4,6.5L1.9,9.1H.9L1.8,0H22.3l.5,9h-.9l-.4-1.6C20.4,4,18.5,1,15.2.9h-.9V27.6c0,.4.3.5,1.8.7l1.4.2.1.8H6.2Z" transform="translate(-0.9)" fill="#fff"/><path d="M23.6,28.6l1.2-.2c1-.2,1.4-.4,1.4-.7V5c0-.3-.2-.5-1.7-.6l-.9-.2-.1-.7H33l-.1.7-1.2.2c-1,.2-1.4.5-1.4.7V15.7h8.9V5c0-.3-.2-.5-1.6-.6l-.9-.2-.1-.7H46l-.1.7-1.2.2c-1,.2-1.4.4-1.4.7V27.9c0,.3.2.5,1.6.6l.9.2.1.7H36.5l.1-.7,1.2-.2c1-.2,1.4-.4,1.4-.7V16.6H30.3V27.8c0,.3.2.5,1.6.6l.9.2.1.7H23.5Z" transform="translate(-0.9)" fill="#fff"/><path d="M46.5,28.6l1.1-.2c1-.2,1.4-.4,1.4-.7V5c0-.3-.2-.5-1.7-.6l-.9-.2-.1-.7H62.9l.2,8.5h-.8L62,10.6c-1-4.8-2.5-6.3-6.8-6.2H53.1V15.7h1.2c2.5-.1,3.6-.8,4.2-3.1l.3-1.3h.7l-.8,9.9h-.6L58,19.9c-.2-2.4-.9-3.1-3.9-3.3h-1V28.4l2.6.1c4.4,0,6.1-2.3,7.3-6.4l.3-1.2h.8l-.8,8.5h-17Z" transform="translate(-0.9)" fill="#fff"/><path d="M71.4,28.6l1.3-.2c1.2-.2,1.6-.5,1.6-.8V1.6c0-.4-.2-.5-1.9-.7l-1-.1L71.3,0H81c6.9,0,9.3,2.5,9.3,6.5,0,3.5-2.4,5.8-6.5,6.7v.1c4.8.5,7.6,3.5,7.6,7.8,0,4.9-3.2,8.2-10.1,8.2H71.2Zm8.8-15.4c3.2,0,5.3-2.3,5.3-6.1,0-4-2-6-5.4-6C80.2,1,79,1,79,1V13.1h1.2Zm1.2,15.1c3-.2,5.1-3.1,5.1-7,0-4.5-2.7-7.3-6.1-7.3a6,6,0,0,0-1.4.1V27.6l1.9.7C80.9,28.4,81.5,28.3,81.4,28.3Z" transform="translate(-0.9)" fill="#fff"/><path d="M94,21.1V5c0-.3-.2-.5-1.6-.6l-1.1-.2-.1-.7h9.7l-.1.7-1.3.2c-1,.1-1.4.4-1.4.7V19.9c0,5.4,1.9,8,5.5,8s5.6-2.7,5.6-8.5V8c0-2.7-.5-3.4-2.3-3.6l-1-.2-.1-.7H113l-.1.7-.9.1c-1.5.2-2,.9-2,3.8l-.1,11.5c0,6.6-2.4,10.4-7.7,10.4C96.7,30,94,27.2,94,21.1Z" transform="translate(-0.9)" fill="#fff"/><path d="M112.5,28.5l-.3-7h.8l1.3,4.1c1.1,2.3,2.7,3.4,4.7,3.4,2.7,0,4.2-2.1,4.2-5,0-3.4-2.1-4.6-4.9-5.9-3.1-1.4-5.7-3.1-5.7-7.5,0-4.1,2.6-7.6,6.8-7.6a13.8,13.8,0,0,1,4.4.9l1.4-.6.1,7.6h-.7L122.3,5a4.75,4.75,0,0,0-3-1.1c-2.2,0-3.6,1.8-3.6,4.1,0,3,2.1,4.1,4.6,5.2,3.5,1.6,6,3.4,6,8.2,0,4.4-3,8.5-7.5,8.5A14.59,14.59,0,0,1,112.5,28.5Z" transform="translate(-0.9)" fill="#fff"/><path d="M126.4,28.6l1.3-.2c1-.1,1.4-.4,1.4-.7V5c0-.3-.2-.5-1.7-.6l-1.1-.2-.1-.7h9.7l-.1.7-1.3.2c-1.1.1-1.4.5-1.4.7V27.9c0,.3.2.5,1.6.6l1.1.2.1.7h-9.7Z" transform="translate(-0.9)" fill="#fff"/><path d="M141.1,7.8h0L141,24.9c0,2.7.5,3.3,2.4,3.5l1,.2.1.7h-7.2l.1-.7.9-.2c1.5-.2,2-.9,2-3.8l.1-17.5c-.6-1.4-1.5-2.6-2.8-2.8l-.7-.2-.1-.7h7.1l11.1,18h.1V7.8c0-2.7-.5-3.4-2.4-3.6l-.9-.2-.1-.7h7.2l-.1.7-.9.2c-1.5.2-2,.9-2,3.8l-.1,21.4h-1.1Z" transform="translate(-0.9)" fill="#fff"/><path d="M159.6,28.6l1.1-.2c1-.2,1.4-.4,1.4-.7V5c0-.3-.2-.5-1.7-.6l-.9-.2-.1-.7H176l.2,8.5h-.8l-.3-1.4c-1-4.8-2.5-6.3-6.8-6.2h-2.1V15.7h1.2c2.5-.1,3.6-.8,4.2-3.1l.3-1.3h.7l-.8,9.9h-.6l-.1-1.3c-.2-2.4-.9-3.1-3.9-3.3h-1V28.4l2.6.1c4.4,0,6.1-2.3,7.3-6.4l.3-1.2h.8l-.8,8.5h-17Z" transform="translate(-0.9)" fill="#fff"/><path d="M178.6,28.5l-.3-7h.8l1.3,4.1c1.1,2.3,2.7,3.4,4.7,3.4,2.7,0,4.2-2.1,4.2-5,0-3.4-2.1-4.6-4.9-5.9-3.1-1.4-5.7-3.1-5.7-7.5,0-4.1,2.6-7.6,6.8-7.6a13.8,13.8,0,0,1,4.4.9l1.4-.6.1,7.6h-.7L188.4,5a4.75,4.75,0,0,0-3-1.1c-2.2,0-3.6,1.8-3.6,4.1,0,3,2.1,4.1,4.6,5.2,3.5,1.6,6,3.4,6,8.2,0,4.4-3,8.5-7.5,8.5A14.59,14.59,0,0,1,178.6,28.5Z" transform="translate(-0.9)" fill="#fff"/><path d="M194,28.5l-.3-7h.8l1.3,4.1c1.1,2.3,2.7,3.4,4.7,3.4,2.7,0,4.2-2.1,4.2-5,0-3.4-2.1-4.6-4.9-5.9-3.1-1.4-5.7-3.1-5.7-7.5,0-4.1,2.6-7.6,6.8-7.6a13.8,13.8,0,0,1,4.4.9l1.4-.6.1,7.6h-.7l-2.3-6a4.75,4.75,0,0,0-3-1.1c-2.2,0-3.6,1.8-3.6,4.1,0,3,2.1,4.1,4.6,5.2,3.5,1.6,6,3.4,6,8.2,0,4.4-3,8.5-7.5,8.5A13.32,13.32,0,0,1,194,28.5Z" transform="translate(-0.9)" fill="#fff"/><path d="M222,28.6l1.7-.2c1.1-.1,1.6-.5,1.6-.8V.9h-.9c-3.4.2-5.4,3.4-6.4,6.5l-.4,1.7h-1l.9-9.1H238l.5,9h-.9l-.4-1.6c-1.1-3.4-3-6.4-6.3-6.5H230V27.6c0,.4.3.5,1.8.7l1.4.2.1.8H221.9Z" transform="translate(-0.9)" fill="#fff"/><path d="M239.5,28.6l1.3-.2c1-.1,1.4-.4,1.4-.7V5c0-.3-.2-.5-1.7-.6l-1.1-.2-.1-.7H249l-.1.7-1.3.2c-1.1.1-1.4.5-1.4.7V27.9c0,.3.2.5,1.6.6l1.1.2.1.7h-9.7Z" transform="translate(-0.9)" fill="#fff"/><path d="M249.7,28.6l.9-.1c1.7-.2,2-.9,2.1-3.7L253.2,6a2.34,2.34,0,0,0-1.9-1.6l-1.1-.2-.2-.7h7.6l5.1,18.6h.1L268,3.5h7.7l-.1.7-1.7.2c-.9.1-1.3.5-1.3.9l.3,20.5c0,2.2.3,2.6,1.6,2.7l1.1.2.1.7H266l.1-.7,1.6-.2c.9-.1,1.1-.7,1.1-2.8l-.4-20h-.1l-6.7,23.4h-1.1L254.2,6.6c-.1-.2-.3-.4-.3-.5l-.3,19c-.1,2.6.3,3.3,2.3,3.5l.9.1.1.7h-7.2Z" transform="translate(-0.9)" fill="#fff"/><path d="M276.9,28.6l1.1-.2c1-.2,1.4-.4,1.4-.7V5c0-.3-.2-.5-1.7-.6l-.9-.2-.1-.7h16.6l.2,8.5h-.8l-.3-1.4c-1-4.8-2.5-6.3-6.8-6.2h-2.1V15.7h1.2c2.5-.1,3.6-.8,4.2-3.1l.3-1.3h.7l-.8,9.9h-.6l-.1-1.3c-.2-2.4-.9-3.1-3.9-3.3h-1V28.4l2.6.1c4.4,0,6.1-2.3,7.3-6.4l.3-1.2h.8l-.8,8.5h-17Z" transform="translate(-0.9)" fill="#fff"/><path d="M295.8,28.5l-.3-7h.8l1.3,4.1c1.1,2.3,2.7,3.4,4.7,3.4,2.7,0,4.2-2.1,4.2-5,0-3.4-2.1-4.6-4.9-5.9-3.1-1.4-5.7-3.1-5.7-7.5,0-4.1,2.6-7.6,6.8-7.6a13.8,13.8,0,0,1,4.4.9l1.4-.6.1,7.6H308L305.7,5a4.75,4.75,0,0,0-3-1.1c-2.2,0-3.6,1.8-3.6,4.1,0,3,2.1,4.1,4.6,5.2,3.5,1.6,6,3.4,6,8.2,0,4.4-3,8.5-7.5,8.5A15.53,15.53,0,0,1,295.8,28.5Z" transform="translate(-0.9)" fill="#fff"/></svg>