<svg width="80" height="80" viewBox="0 0 80 80" fill="none" xmlns="http://www.w3.org/2000/svg">
<path d="M15.5014 48.2328L15.5014 48.2329L15.508 48.2362C16.5767 48.7807 17.8022 49.0449 19.1707 49.0449C21.2598 49.0449 22.9764 48.4566 24.2628 47.2323C25.576 46.0003 26.207 44.3014 26.207 42.2041V38.6008C26.207 38.4306 26.1641 38.2111 25.9907 38.0377C25.8173 37.8643 25.5979 37.8215 25.4277 37.8215H19.5059C19.3357 37.8215 19.1162 37.8643 18.9428 38.0377C18.7694 38.2111 18.7266 38.4306 18.7266 38.6008V39.774C18.7266 39.9442 18.7694 40.1636 18.9428 40.337C19.1162 40.5104 19.3357 40.5533 19.5059 40.5533H23.2238V42.7069C23.2238 43.8335 22.8597 44.6882 22.1584 45.3258L22.1584 45.3258L22.1542 45.3297C21.4671 45.9688 20.5197 46.3131 19.2545 46.3131C17.9589 46.3131 16.9628 45.9448 16.216 45.2467C15.4724 44.5516 15.0897 43.6377 15.0897 42.4555V34.6343C15.0897 33.4486 15.4656 32.5336 16.1921 31.8394C16.9199 31.144 17.8954 30.7768 19.1707 30.7768C20.4496 30.7768 21.4145 31.1367 22.1215 31.8116L22.1215 31.8116L22.1256 31.8155C22.8527 32.4941 23.2238 33.3719 23.2238 34.4946V34.8298C23.2238 35 23.2666 35.2195 23.44 35.3929C23.6134 35.5663 23.8329 35.6092 24.0031 35.6092H25.4277C25.5979 35.6092 25.8173 35.5663 25.9907 35.3929C26.1641 35.2195 26.207 35 26.207 34.8298V34.4667C26.207 33.2487 25.9166 32.1436 25.3261 31.1654C24.7344 30.1666 23.8884 29.3954 22.8038 28.8527C21.7365 28.3094 20.5211 28.0449 19.1707 28.0449C17.8008 28.0449 16.574 28.319 15.5047 28.8832C14.4374 29.4276 13.5951 30.2084 12.9878 31.2206L12.9877 31.2206L12.984 31.227C12.3944 32.2435 12.1064 33.4028 12.1064 34.6902V42.3997C12.1064 43.687 12.3944 44.8464 12.984 45.8628L12.9839 45.8628L12.9878 45.8692C13.5947 46.8809 14.4361 47.67 15.5014 48.2328ZM44.1798 39.8829L48.187 48.3334C48.2533 48.4828 48.3618 48.6147 48.5157 48.7045C48.6674 48.793 48.8304 48.8215 48.9771 48.8215H50.4576C50.5939 48.8215 50.7896 48.7931 50.9544 48.6489C51.132 48.4935 51.181 48.2868 51.181 48.1259C51.181 48.0187 51.1637 47.8911 51.1019 47.7659C51.1014 47.7648 51.1009 47.7638 51.1003 47.7627L47.1263 39.6026C48.2138 39.2738 49.1084 38.6704 49.7912 37.7899C50.5755 36.7785 50.9576 35.5589 50.9576 34.1594C50.9576 32.4474 50.4259 31.0194 49.3323 29.9248C48.2384 28.8112 46.8093 28.2684 45.0944 28.2684H37.8598C37.6896 28.2684 37.4701 28.3113 37.2968 28.4847C37.1234 28.6581 37.0805 28.8775 37.0805 29.0477V48.0421C37.0805 48.2123 37.1234 48.4318 37.2968 48.6052C37.4701 48.7786 37.6896 48.8215 37.8598 48.8215H39.2844C39.4546 48.8215 39.674 48.7786 39.8474 48.6052C40.0208 48.4318 40.0637 48.2123 40.0637 48.0421V39.8829H44.1798ZM47.1383 31.8824L47.1383 31.8825L47.1431 31.8873C47.7064 32.4506 48.0023 33.1919 48.0023 34.1594C48.0023 35.127 47.7064 35.8683 47.1431 36.4316C46.5798 36.9949 45.8385 37.2907 44.871 37.2907H40.0637V31.0002H44.871C45.8344 31.0002 46.5741 31.3025 47.1383 31.8824ZM54.4409 45.7123L54.4407 45.7124L54.4464 45.7222C55.0526 46.7729 55.9035 47.5923 56.9893 48.1754C58.0784 48.7602 59.3259 49.0449 60.7175 49.0449C62.1084 49.0449 63.3554 48.7605 64.4441 48.1762C65.5485 47.5935 66.4023 46.7728 66.9913 45.7174C67.5974 44.646 67.8935 43.4235 67.8935 42.0645V35.0254C67.8935 33.6681 67.5982 32.4545 66.9914 31.4005C66.4032 30.3278 65.5499 29.4971 64.4441 28.9136C63.3554 28.3293 62.1084 28.0449 60.7175 28.0449C59.3259 28.0449 58.0784 28.3296 56.9893 28.9145C55.9011 29.4989 55.0499 30.3295 54.4444 31.3992L54.4428 31.4019C53.8551 32.4558 53.5694 33.6689 53.5694 35.0254V42.0645C53.5694 43.4212 53.8551 44.6419 54.4409 45.7123ZM63.7679 31.9394L63.7717 31.9432C64.5188 32.6903 64.9102 33.6907 64.9102 34.9974V42.1483C64.9102 43.455 64.5188 44.4555 63.7717 45.2025C63.0247 45.9496 62.0242 46.341 60.7175 46.341C59.4315 46.341 58.4395 45.9509 57.6911 45.2025C56.9441 44.4555 56.5527 43.455 56.5527 42.1483V34.9974C56.5527 33.6907 56.9441 32.6903 57.6912 31.9432L57.6949 31.9393C58.444 31.174 59.4347 30.7768 60.7175 30.7768C62.021 30.7768 63.0202 31.1753 63.768 31.9393L63.7679 31.9394ZM29.8517 48.0421C29.8517 48.2123 29.8946 48.4318 30.068 48.6052C30.2414 48.7786 30.4609 48.8215 30.6311 48.8215H32.0556C32.2258 48.8215 32.4453 48.7786 32.6187 48.6052C32.7921 48.4318 32.835 48.2123 32.835 48.0421V29.0477C32.835 28.8775 32.7921 28.6581 32.6187 28.4847C32.4453 28.3113 32.2258 28.2684 32.0556 28.2684H30.6311C30.4609 28.2684 30.2414 28.3113 30.068 28.4847C29.8946 28.6581 29.8517 28.8775 29.8517 29.0477V48.0421Z" fill="#525252" stroke="#525252"/>
</svg>
