<?xml version="1.0" encoding="UTF-8" standalone="no"?>
<!-- Created with Inkscape (http://www.inkscape.org/) -->

<svg
   xmlns:dc="http://purl.org/dc/elements/1.1/"
   xmlns:cc="http://creativecommons.org/ns#"
   xmlns:rdf="http://www.w3.org/1999/02/22-rdf-syntax-ns#"
   xmlns:svg="http://www.w3.org/2000/svg"
   xmlns="http://www.w3.org/2000/svg"
   xmlns:sodipodi="http://sodipodi.sourceforge.net/DTD/sodipodi-0.dtd"
   xmlns:inkscape="http://www.inkscape.org/namespaces/inkscape"
   version="1.1"
   id="svg4485"
   xml:space="preserve"
   width="325"
   height="110"
   viewBox="0 0 325 110"
   sodipodi:docname="Tabla (colour).svg"
   inkscape:version="0.92.1 "><metadata
     id="metadata4491"><rdf:RDF><cc:Work
         rdf:about=""><dc:format>image/svg+xml</dc:format><dc:type
           rdf:resource="http://purl.org/dc/dcmitype/StillImage" /><dc:title></dc:title></cc:Work></rdf:RDF></metadata><defs
     id="defs4489"><clipPath
       clipPathUnits="userSpaceOnUse"
       id="clipPath4501"><path
         d="M 0,0 H 275 V 156 H 0 Z"
         id="path4499"
         inkscape:connector-curvature="0" /></clipPath></defs><sodipodi:namedview
     pagecolor="#ffffff"
     bordercolor="#666666"
     borderopacity="1"
     objecttolerance="10"
     gridtolerance="10"
     guidetolerance="10"
     inkscape:pageopacity="0"
     inkscape:pageshadow="2"
     inkscape:window-width="1920"
     inkscape:window-height="1001"
     id="namedview4487"
     showgrid="false"
     inkscape:zoom="2.686363"
     inkscape:cx="107.97482"
     inkscape:cy="72.610865"
     inkscape:window-x="-9"
     inkscape:window-y="-9"
     inkscape:window-maximized="1"
     inkscape:current-layer="g4493" /><g
     id="g4493"
     inkscape:groupmode="layer"
     inkscape:label="Tabla (colour)"
     transform="matrix(1.3333333,0,0,-1.3333333,0,110)"><g
       id="g4503"
       transform="translate(0.56792288,50.621971)"><path
         d="m 0,0 h 9.308 v 11.009 l 13.471,3.826 V 0 h 10.91 v -11.2 h -10.91 v -21.534 c 0,-3.542 1.816,-5.073 4.403,-5.073 2.203,0 6.258,0.383 7.505,0.765 l -0.093,-12.331 c -2.39,-0.959 -5.404,-1.159 -7.004,-1.159 -11.677,0 -18.282,5.356 -18.282,16.648 V -11.2 H 0 V 0"
         style="fill:#231f20;fill-opacity:1;fill-rule:nonzero;stroke:none"
         id="path4505"
         inkscape:connector-curvature="0" /></g><g
       id="g4507"
       transform="translate(229.58352,31.195171)"><path
         d="M 0,0 C 0,7.794 -3.416,25.95 -10.891,34.495 -4.805,36.84 -0.963,43.252 0.963,49.232 2.887,43.252 6.729,36.84 12.816,34.495 5.34,25.95 1.92,7.794 1.92,0 V -5.554 H 0 V 0"
         style="fill:#231f20;fill-opacity:1;fill-rule:nonzero;stroke:none"
         id="path4509"
         inkscape:connector-curvature="0" /></g><g
       id="g4511"
       transform="translate(229.58352,25.045271)"><path
         d="m 0,0 h 2.518 v 6.149 c 0,7.371 3.242,25.53 10.742,34.101 l 0.562,0.644 -0.793,0.305 C 5.932,43.936 2.625,52.156 1.529,55.563 L 0.963,57.328 0.395,55.563 C -0.701,52.156 -4.016,43.936 -11.107,41.199 L -11.9,40.894 -11.344,40.25 C -3.844,31.679 -0.596,13.52 -0.596,6.149 V 0 Z m 0.594,6.149 c 0,7.52 -3.334,26.078 -11.039,34.884 l -0.237,-0.942 c 7.573,2.918 11.061,11.54 12.211,15.108 H 0.395 C 1.543,51.631 5.027,43.009 12.598,40.091 l -0.229,0.942 C 4.662,32.227 1.324,13.669 1.324,6.149 V 0.596 L 1.92,1.187 H 0 L 0.594,0.596 v 5.553"
         style="fill:#231f20;fill-opacity:1;fill-rule:nonzero;stroke:none"
         id="path4513"
         inkscape:connector-curvature="0" /></g><g
       id="g4515"
       transform="translate(230.83552,20.196171)"><path
         d="m 0,0 c 5.299,0 9.672,-4.371 9.672,-9.671 0,-5.296 -4.373,-9.674 -9.672,-9.674 -5.295,0 -9.67,4.378 -9.67,9.674 C -9.67,-4.371 -5.295,0 0,0"
         style="fill:#d8123c;fill-opacity:1;fill-rule:nonzero;stroke:none"
         id="path4517"
         inkscape:connector-curvature="0" /></g><g
       id="g4519"
       transform="translate(220.56992,10.525771)"><path
         d="m 0,0 c 0,-5.662 4.604,-10.271 10.266,-10.271 5.662,0 10.269,4.609 10.269,10.271 0,5.663 -4.607,10.269 -10.269,10.269 C 4.604,10.269 0,5.663 0,0 m 10.266,9.078 c 5.005,0 9.078,-4.072 9.078,-9.078 0,-5.006 -4.073,-9.078 -9.078,-9.078 -5.006,0 -9.078,4.072 -9.078,9.078 0,5.006 4.072,9.078 9.078,9.078"
         style="fill:#d8123c;fill-opacity:1;fill-rule:nonzero;stroke:none"
         id="path4521"
         inkscape:connector-curvature="0" /></g><g
       id="g4523"
       transform="translate(68.470823,24.181071)"><path
         d="m 0,0 c -11.63,-1.117 -19.201,-2.144 -19.201,-9.045 0,-4.101 3.231,-6.048 8.125,-6.048 6.278,0 11.076,4.754 11.076,11.003 z m 11.127,-13.449 h 4.661 v -9.387 l -14.705,-0.085 -0.621,5.962 c -5.076,-5.131 -8.861,-6.902 -14.953,-6.902 -9.878,0 -17.448,6.716 -17.448,15.574 0,14.641 16.339,16.225 32.124,17.719 -0.089,7.648 -1.937,9.603 -9.138,9.603 -5.08,0 -8.585,-2.889 -8.865,-7.555 l -12,0.377 c 0.647,9.979 8.585,16.416 20.31,16.416 13.663,0 20.635,-6.252 20.635,-17.627 v -24.095"
         style="fill:#231f20;fill-opacity:1;fill-rule:nonzero;stroke:none"
         id="path4525"
         inkscape:connector-curvature="0" /></g><g
       id="g4527"
       transform="translate(202.87652,24.181071)"><path
         d="m 0,0 c -11.631,-1.117 -19.204,-2.144 -19.204,-9.045 0,-4.101 3.231,-6.048 8.124,-6.048 C -4.807,-15.094 0,-10.339 0,-4.09 Z m 11.127,-13.449 h 4.658 v -9.387 l -14.703,-0.085 -0.625,5.962 c -5.072,-5.131 -8.863,-6.902 -14.951,-6.902 -9.878,0 -17.449,6.716 -17.449,15.575 0,14.64 16.339,16.224 32.129,17.718 -0.098,7.648 -1.942,9.603 -9.145,9.603 -5.074,0 -8.586,-2.889 -8.859,-7.555 l -12.003,0.377 c 0.646,9.979 8.587,16.416 20.309,16.416 13.662,0 20.639,-6.252 20.639,-17.627 v -24.095"
         style="fill:#231f20;fill-opacity:1;fill-rule:nonzero;stroke:none"
         id="path4529"
         inkscape:connector-curvature="0" /></g><g
       id="g4531"
       transform="translate(107.25492,28.653171)"><path
         d="m 0,0 v -4.27 c 0,-8.807 4.89,-12.277 11.12,-12.277 6.427,0 9.527,3.731 9.527,12.188 v 3.735 c 0,8.542 -2.768,12.718 -9.177,12.718 C 5.334,12.094 0.261,8.54 0,0 m -1.924,-19.074 c -0.484,-3.797 -1.166,-8.277 -1.947,-8.277 h -17.044 v 9.472 h 6.163 v 52.952 h -6.75 v 9.923 H -1.045 V 15.402 c 3.013,5.162 8.176,8.763 16.652,8.763 11.005,0 20.646,-8.181 20.646,-23.955 v -4.968 c 0,-15.972 -10.227,-23.664 -21.328,-23.664 -8.377,0 -13.928,4.091 -16.849,9.348"
         style="fill:#231f20;fill-opacity:1;fill-rule:nonzero;stroke:none"
         id="path4533"
         inkscape:connector-curvature="0" /></g><g
       id="g4535"
       transform="translate(141.95372,10.854871)"><path
         d="m 0,0 h 6.646 v 52.882 h -7.232 v 9.547 H 21.336 V 0 h 7.308 V -9.572 H 0 Z"
         style="fill:#231f20;fill-opacity:1;fill-rule:nonzero;stroke:none"
         id="path4537"
         inkscape:connector-curvature="0" /></g></g></svg>