<?xml version="1.0" encoding="UTF-8" standalone="no"?>
<!-- Created with Inkscape (http://www.inkscape.org/) -->

<svg
   xmlns:dc="http://purl.org/dc/elements/1.1/"
   xmlns:cc="http://creativecommons.org/ns#"
   xmlns:rdf="http://www.w3.org/1999/02/22-rdf-syntax-ns#"
   xmlns:svg="http://www.w3.org/2000/svg"
   xmlns="http://www.w3.org/2000/svg"
   xmlns:sodipodi="http://sodipodi.sourceforge.net/DTD/sodipodi-0.dtd"
   xmlns:inkscape="http://www.inkscape.org/namespaces/inkscape"
   width="200mm"
   height="35mm"
   viewBox="0 0 200 35"
   version="1.1"
   id="svg7011"
   inkscape:version="0.92.1 "
   sodipodi:docname="TNP Logo.svg">
  <defs
     id="defs7005" />
  <sodipodi:namedview
     id="base"
     pagecolor="#ffffff"
     bordercolor="#666666"
     borderopacity="1.0"
     inkscape:pageopacity="0.0"
     inkscape:pageshadow="2"
     inkscape:zoom="0.7"
     inkscape:cx="266.47447"
     inkscape:cy="344.1863"
     inkscape:document-units="mm"
     inkscape:current-layer="layer1"
     showgrid="false"
     inkscape:window-width="1920"
     inkscape:window-height="1001"
     inkscape:window-x="-9"
     inkscape:window-y="-9"
     inkscape:window-maximized="1" />
  <metadata
     id="metadata7008">
    <rdf:RDF>
      <cc:Work
         rdf:about="">
        <dc:format>image/svg+xml</dc:format>
        <dc:type
           rdf:resource="http://purl.org/dc/dcmitype/StillImage" />
        <dc:title></dc:title>
      </cc:Work>
    </rdf:RDF>
  </metadata>
  <g
     inkscape:label="Layer 1"
     inkscape:groupmode="layer"
     id="layer1"
     transform="translate(0,-262)">
    <g
       transform="matrix(0.27551889,0,0,-0.27551889,2.5090037,284.21371)"
       id="g6757"
       style="stroke-width:1.28041232">
      <path
         inkscape:connector-curvature="0"
         id="path6759"
         style="fill:#74858e;fill-opacity:1;fill-rule:nonzero;stroke:none;stroke-width:1.28041232"
         d="m 0,0 v 42.585 l -7.508,3.077 v 3.568 h 6.893 c 4.677,3.448 10.339,9.478 12.923,17.97 h 4.676 V 49.23 H 29.416 V 43.2 H 16.984 V 4.308 c 0,-3.693 0.617,-6.154 5.17,-6.154 4.185,0 6.646,0.739 8.985,1.108 V -4.554 C 26.708,-7.385 20.431,-11.077 12.431,-11.077 4.923,-11.077 0,-5.908 0,0" />
    </g>
    <g
       transform="matrix(0.27551889,0,0,-0.27551889,11.529027,286.04494)"
       id="g6761"
       style="stroke-width:1.28041232">
      <path
         inkscape:connector-curvature="0"
         id="path6763"
         style="fill:#74858e;fill-opacity:1;fill-rule:nonzero;stroke:none;stroke-width:1.28041232"
         d="m 0,0 6.523,3.2 v 76.431 l -7.877,3.324 v 3.076 H 23.508 V 46.277 c 4.801,7.016 10.954,11.324 18.954,11.324 11.2,0 18.339,-6.524 18.339,-14.524 V 3.2 L 67.078,0 V -3.076 H 37.047 V 0 l 6.769,3.2 V 40.861 C 43.816,45.416 41.231,48 36.186,48 30.154,48 25.724,43.816 23.508,40.492 V 3.2 L 30.4,0 V -3.076 H 0 Z" />
    </g>
    <g
       transform="matrix(0.27551889,0,0,-0.27551889,40.115702,276.68562)"
       id="g6765"
       style="stroke-width:1.28041232">
      <path
         inkscape:connector-curvature="0"
         id="path6767"
         style="fill:#74858e;fill-opacity:1;fill-rule:nonzero;stroke:none;stroke-width:1.28041232"
         d="m 0,0 c 0,2.093 -0.246,7.508 -0.738,10.339 -0.739,4.923 -3.2,8.861 -8.369,8.861 -4.678,0 -7.508,-3.938 -8.617,-8.984 -0.738,-3.078 -1.107,-8.123 -1.107,-11.324 z m -36.431,-6.523 c 0,18.092 11.2,30.277 28.677,30.277 15.631,0 24.984,-10.093 24.984,-25.97 v -3.937 l -36.184,0.861 v -3.447 c 0,-5.045 0.861,-10.092 1.847,-12.799 2.091,-6.154 6.768,-9.601 13.538,-9.601 6.523,0 12.061,2.462 18.215,9.232 h 2.092 v -4.924 c -5.046,-6.77 -12.676,-11.815 -23.384,-11.815 -18.215,0 -29.785,9.969 -29.785,32.123" />
    </g>
    <g
       transform="matrix(0.27551889,0,0,-0.27551889,45.711111,286.04494)"
       id="g6769"
       style="stroke-width:1.28041232">
      <path
         inkscape:connector-curvature="0"
         id="path6771"
         style="fill:#f57c14;fill-opacity:1;fill-rule:nonzero;stroke:none;stroke-width:1.28041232"
         d="m 0,0 6.522,3.2 v 46.278 l -6.768,3.2 v 3.199 h 23.754 v -9.6 c 4.8,7.016 10.83,11.324 18.953,11.324 11.2,0 18.339,-6.524 18.339,-14.524 V 3.2 L 67.077,0 V -3.076 H 36.923 V 0 l 6.892,3.2 V 40.861 C 43.815,45.539 41.107,48 36.062,48 30.03,48 25.723,43.816 23.508,40.492 V 3.2 L 30.399,0 V -3.076 H 0 Z" />
    </g>
    <g
       transform="matrix(0.27551889,0,0,-0.27551889,74.467314,276.68562)"
       id="g6773"
       style="stroke-width:1.28041232">
      <path
         inkscape:connector-curvature="0"
         id="path6775"
         style="fill:#f57c14;fill-opacity:1;fill-rule:nonzero;stroke:none;stroke-width:1.28041232"
         d="m 0,0 c 0,2.093 -0.246,7.508 -0.738,10.339 -0.739,4.923 -3.2,8.861 -8.369,8.861 -4.678,0 -7.508,-3.938 -8.617,-8.984 -0.738,-3.078 -1.107,-8.123 -1.107,-11.324 z m -36.431,-6.523 c 0,18.092 11.2,30.277 28.677,30.277 15.631,0 24.984,-10.093 24.984,-25.97 v -3.937 l -36.184,0.861 v -3.447 c 0,-5.045 0.861,-10.092 1.847,-12.799 2.091,-6.154 6.768,-9.601 13.538,-9.601 6.523,0 12.061,2.462 18.215,9.232 h 2.092 v -4.924 c -5.046,-6.77 -12.676,-11.815 -23.384,-11.815 -18.215,0 -29.785,9.969 -29.785,32.123" />
    </g>
    <g
       transform="matrix(0.27551889,0,0,-0.27551889,80.74102,272.34512)"
       id="g6777"
       style="stroke-width:1.28041232">
      <path
         inkscape:connector-curvature="0"
         id="path6779"
         style="fill:#f57c14;fill-opacity:1;fill-rule:nonzero;stroke:none;stroke-width:1.28041232"
         d="M 0,0 -7.508,2.954 V 6.153 H 23.631 V 2.954 L 17.847,0 28.062,-34.339 36.923,-5.661 34.831,-0.123 28.8,2.954 V 6.153 H 59.077 V 2.954 L 52.308,-0.123 62.4,-33.724 72.985,-0.492 66.216,2.954 65.97,6.153 H 86.154 V 2.954 L 78.77,-0.615 61.785,-53.046 H 51.077 L 39.508,-13.169 27.323,-53.046 H 16.615 Z" />
    </g>
    <g
       transform="matrix(0.27551889,0,0,-0.27551889,116.82218,283.09469)"
       id="g6781"
       style="stroke-width:1.28041232">
      <path
         inkscape:connector-curvature="0"
         id="path6783"
         style="fill:#74858e;fill-opacity:1;fill-rule:nonzero;stroke:none;stroke-width:1.28041232"
         d="m 0,0 c 1.478,4.308 1.97,9.97 1.97,15.262 0,5.907 -0.492,11.938 -1.724,16.246 -1.723,5.661 -5.292,7.262 -9.23,7.262 -4.8,0 -8.246,-3.57 -10.216,-6.401 V -1.354 c 2.093,-3.077 5.047,-5.908 10.093,-5.908 4.061,0 7.384,2.339 9.107,7.262 m -43.815,-38.893 7.63,3.078 V 38.77 l -6.769,3.2 v 3.199 H -19.2 v -7.016 c 3.815,5.17 8.739,8.74 15.754,8.74 15.384,0 23.877,-13.169 23.877,-31.508 0,-17.355 -9.6,-30.77 -24.985,-30.77 -7.015,0 -11.446,3.323 -14.646,8.369 v -28.799 l 8.37,-3.078 v -3.2 h -32.985 z" />
    </g>
    <g
       transform="matrix(0.27551889,0,0,-0.27551889,132.82809,283.53566)"
       id="g6785"
       style="stroke-width:1.28041232">
      <path
         inkscape:connector-curvature="0"
         id="path6787"
         style="fill:#74858e;fill-opacity:1;fill-rule:nonzero;stroke:none;stroke-width:1.28041232"
         d="m 0,0 v 19.324 c -11.446,-0.492 -17.354,-4.185 -17.354,-14.892 0,-7.385 2.461,-10.093 8,-9.97 4.553,0.123 7.753,3.2 9.354,5.538 m -34.954,2.093 c 0,16.739 17.107,21.538 34.954,21.538 v 9.97 c 0,4.676 -2.831,10.215 -10.216,10.215 -5.046,-0.984 -10.092,-3.939 -13.292,-8.492 l -3.446,-8.369 H -30.4 v 16.246 c 3.323,1.846 12.676,5.538 21.784,5.538 18.462,0 25.6,-6.645 25.6,-14.522 V -5.907 l 6.155,-3.2 v -3.077 H 0.246 v 7.262 c -4.431,-6.031 -10.585,-8.862 -17.6,-8.862 -9.846,0 -17.6,3.938 -17.6,15.877" />
    </g>
    <g
       transform="matrix(0.27551889,0,0,-0.27551889,150.52911,283.09469)"
       id="g6789"
       style="stroke-width:1.28041232">
      <path
         inkscape:connector-curvature="0"
         id="path6791"
         style="fill:#74858e;fill-opacity:1;fill-rule:nonzero;stroke:none;stroke-width:1.28041232"
         d="m 0,0 c 1.478,4.308 1.97,9.97 1.97,15.262 0,5.907 -0.492,11.938 -1.724,16.246 -1.723,5.661 -5.292,7.262 -9.23,7.262 -4.8,0 -8.246,-3.57 -10.216,-6.401 V -1.354 c 2.093,-3.077 5.047,-5.908 10.093,-5.908 4.061,0 7.384,2.339 9.107,7.262 m -43.815,-38.893 7.63,3.078 V 38.77 l -6.769,3.2 v 3.199 H -19.2 v -7.016 c 3.815,5.17 8.739,8.74 15.754,8.74 15.384,0 23.877,-13.169 23.877,-31.508 0,-17.355 -9.6,-30.77 -24.985,-30.77 -7.015,0 -11.446,3.323 -14.646,8.369 v -28.799 l 8.37,-3.078 v -3.2 h -32.985 z" />
    </g>
    <g
       transform="matrix(0.27551889,0,0,-0.27551889,167.11138,276.68562)"
       id="g6793"
       style="stroke-width:1.28041232">
      <path
         inkscape:connector-curvature="0"
         id="path6795"
         style="fill:#74858e;fill-opacity:1;fill-rule:nonzero;stroke:none;stroke-width:1.28041232"
         d="m 0,0 c 0,2.093 -0.246,7.508 -0.738,10.339 -0.74,4.923 -3.2,8.861 -8.369,8.861 -4.678,0 -7.508,-3.938 -8.617,-8.984 -0.738,-3.078 -1.107,-8.123 -1.107,-11.324 z m -36.431,-6.523 c 0,18.092 11.2,30.277 28.677,30.277 15.631,0 24.984,-10.093 24.984,-25.97 v -3.937 l -36.184,0.861 v -3.447 c 0,-5.045 0.861,-10.092 1.847,-12.799 2.091,-6.154 6.768,-9.601 13.538,-9.601 6.523,0 12.061,2.462 18.215,9.232 h 2.092 v -4.924 c -5.046,-6.77 -12.676,-11.815 -23.384,-11.815 -18.215,0 -29.785,9.969 -29.785,32.123" />
    </g>
    <g
       transform="matrix(0.27551889,0,0,-0.27551889,172.36775,286.04494)"
       id="g6797"
       style="stroke-width:1.28041232">
      <path
         inkscape:connector-curvature="0"
         id="path6799"
         style="fill:#74858e;fill-opacity:1;fill-rule:nonzero;stroke:none;stroke-width:1.28041232"
         d="m 0,0 6.522,3.2 v 46.278 l -6.769,3.2 v 3.199 H 23.508 V 44.309 c 5.415,8.492 11.199,13.045 18.83,13.045 0.862,0 2.708,0 4.554,-0.369 V 37.293 H 43.2 l -2.462,6.523 c -1.107,0.37 -3.077,0.985 -5.292,0.985 -5.17,0 -9.354,-2.462 -11.938,-5.416 V 3.323 L 32.123,0 V -3.076 H 0 Z" />
    </g>
    <g
       transform="matrix(0.27551889,0,0,-0.27551889,186.3492,287.23359)"
       id="g6801"
       style="stroke-width:1.28041232">
      <path
         inkscape:connector-curvature="0"
         id="path6803"
         style="fill:#74858e;fill-opacity:1;fill-rule:nonzero;stroke:none;stroke-width:1.28041232"
         d="m 0,0 c 8.103,0 14.673,6.569 14.673,14.673 0,4.393 -1.941,8.324 -5,11.013 C 8.853,24.763 8.065,23.77 7.639,22.68 7.26,21.713 6.493,21.073 5.895,20.262 5.273,19.418 5.16,18.355 4.591,17.488 4.235,16.943 3.701,16.544 3.268,16.058 2.699,15.418 2.314,14.64 1.928,13.876 0.89,11.824 -0.209,9.802 -1.367,7.814 -1.618,7.381 -1.999,6.888 -2.492,6.971 -2.885,7.038 -3.112,7.444 -3.283,7.805 l -2.501,5.297 c -0.078,0.166 -0.158,0.339 -0.158,0.523 -10e-4,0.235 0.13,0.448 0.256,0.647 0.525,0.829 1.049,1.658 1.574,2.487 0.283,0.447 0.709,0.957 1.224,0.834 0.365,-0.087 0.581,-0.473 0.649,-0.842 0.069,-0.369 0.037,-0.754 0.129,-1.118 0.234,-0.921 1.362,-1.495 2.245,-1.142 0.729,0.292 1.152,1.038 1.532,1.726 2.008,3.633 4.399,7.048 7.086,10.212 C 6.308,28.252 3.285,29.345 0,29.345 -8.103,29.345 -14.673,22.776 -14.673,14.673 -14.673,6.569 -8.103,0 0,0" />
    </g>
  </g>
</svg>
