<?xml version="1.0" encoding="utf-8"?>
<!-- Generator: Adobe Illustrator 23.1.1, SVG Export Plug-In . SVG Version: 6.00 Build 0)  -->
<svg version="1.1"
	 id="svg12454" xmlns:cc="http://creativecommons.org/ns#" xmlns:dc="http://purl.org/dc/elements/1.1/" xmlns:inkscape="http://www.inkscape.org/namespaces/inkscape" xmlns:rdf="http://www.w3.org/1999/02/22-rdf-syntax-ns#" xmlns:sodipodi="http://sodipodi.sourceforge.net/DTD/sodipodi-0.dtd" xmlns:svg="http://www.w3.org/2000/svg"
	 xmlns="http://www.w3.org/2000/svg" xmlns:xlink="http://www.w3.org/1999/xlink" x="0px" y="0px" viewBox="0 0 396.9 42.5"
	 style="enable-background:new 0 0 396.9 42.5;" xml:space="preserve">
<style type="text/css">
	.st0{fill:#FFFFFF;}
</style>
<sodipodi:namedview  bordercolor="#666666" borderopacity="1.0" id="base" inkscape:current-layer="layer1" inkscape:cx="188.22908" inkscape:cy="124.69341" inkscape:document-units="mm" inkscape:pageopacity="0.0" inkscape:pageshadow="2" inkscape:window-height="1001" inkscape:window-maximized="1" inkscape:window-width="1920" inkscape:window-x="-9" inkscape:window-y="-9" inkscape:zoom="0.9899495" pagecolor="#ffffff" showgrid="false">
	</sodipodi:namedview>
<g id="layer1" transform="translate(0,-282)" inkscape:groupmode="layer" inkscape:label="Layer 1">
	<g id="g7808" transform="matrix(0.35277777,0,0,-0.35277777,118.40229,282.14906)">
		<path id="path7810" inkscape:connector-curvature="0" class="st0" d="M615.8-0.8l-18.9-53.5h-0.2L578.5-0.8H550v-0.7
			c3.7-0.5,8.1-2.9,8-10.6l-0.6-54.2c-0.4-8.6-3.7-17.2-12.5-18.1v-0.7h27.3v0.7c-8.4,0.7-12.5,7-12.5,17.1l0.2,58.4h0.4l26.6-76h1
			l27.7,77.4h0.2c-0.4-9.2-0.6-26.8-0.6-32.7v-30.7c0-9.9-5.3-13-8.5-13.5v-0.7h36.6v0.7c-3,0.5-8.1,3.6-8.1,13.5v57.1
			c0,9.9,5.1,11.8,8.1,12.3v0.7H615.8z"/>
	</g>
	<g id="g7812" transform="matrix(0.35277777,0,0,-0.35277777,108.20578,283.76845)">
		<path id="path7814" inkscape:connector-curvature="0" class="st0" d="M562.7-9.2c0,9.9,5.3,11.8,8.6,12.3v0.7h-37.2V3.1
			c3.2-0.5,8.7-2.4,8.7-12.3v-57.1c0-9.9-5.4-13-8.7-13.5v-0.7h37.2v0.7c-3.3,0.5-8.6,3.6-8.6,13.5V-9.2z"/>
	</g>
	<g id="g7816" transform="matrix(0.35277777,0,0,-0.35277777,126.1549,292.46527)">
		<path id="path7818" inkscape:connector-curvature="0" class="st0" d="M656.1-54.4v41.6h7.6c10.2,0,14.5-3.4,17.2-10.4h0.7v22.3
			h-0.7c-2.6-6.7-7.3-10.5-17.2-10.5h-7.6V27h7.9c9.5,0,22.7-1.4,27.6-15.8h0.8l-0.4,11v6.3h-63.4v-0.7c2.7-0.5,7.4-1.8,7.4-11.8
			v-58.1c0-9.9-4.7-12.4-7.4-13v-0.7H694v6.3l0.4,11.8h-0.8c-6.1-14.3-14.6-16.6-26.6-16.6H656.1z"/>
	</g>
	<g id="g7820" transform="matrix(0.35277777,0,0,-0.35277777,95.069529,282.14906)">
		<path id="path7822" inkscape:connector-curvature="0" class="st0" d="M494.4-0.8V-7l-0.4-11.1h0.7c5.5,12.4,15.4,15.9,22.5,15.9h3
			v-68.7c0-9.9-5.8-13-9.3-13.5v-0.7h38.3v0.7c-3.9,0.5-9,3.6-9,13.5v68.7h3c7.1,0,17-3.5,22.5-15.9h0.7L566.2-7v6.3H494.4z"/>
	</g>
	<g id="g7824" transform="matrix(0.35277777,0,0,-0.35277777,134.25895,292.60038)">
		<path id="path7826" inkscape:connector-curvature="0" class="st0" d="M698.2-55.1c-11.9,0-18.4,10.4-21.6,17.7h-0.8l0.2-8.7v-8.1
			c5.4-1.2,13.5-2.3,22.5-2.3c16.7,0,32.9,7.8,32.9,25.8c0,12-6.5,20.5-22.4,26.5c-10.8,4.1-17.3,8.9-17.3,18.6
			c0,9.2,7.5,14.7,15.9,14.7c10.7,0,16.5-7.8,20-17.5h0.7l-0.2,8.4v8.3c-5.2,0.7-11.8,1.9-20.2,1.9c-20.5,0-31.9-9.9-31.9-24.6
			c0-14.8,10-20.6,21-25.2c11.7-4.8,17.9-9.9,17.9-19.9C714.9-49.9,708.3-55.1,698.2-55.1"/>
	</g>
	<g id="g7828" transform="matrix(0.35277777,0,0,-0.35277777,19.194474,283.77025)">
		<path id="path7830" inkscape:connector-curvature="0" class="st0" d="M99.8-9.2c0,9.9,5.3,11.8,8.6,12.3v0.7H71.1V3.1
			c3.2-0.5,8.7-2.4,8.7-12.3v-26.9H51.4v26.9c0,9.9,5.3,11.8,8.6,12.3v0.7H22.7V3.1c3.3-0.5,8.7-2.4,8.7-12.3v-57.1
			c0-9.9-5.4-13-8.7-13.5v-0.7h37.2v0.7c-3.3,0.5-8.6,3.6-8.6,13.5v28.6h28.4v-28.6c0-9.9-5.4-13-8.7-13.5v-0.7h37.2v0.7
			c-3.3,0.5-8.6,3.6-8.6,13.5V-9.2z"/>
	</g>
	<g id="g7832" transform="matrix(0.35277777,0,0,-0.35277777,24.502474,292.46731)">
		<path id="path7834" inkscape:connector-curvature="0" class="st0" d="M127.4-54.4v41.6h7.6c10.2,0,14.5-3.4,17.2-10.4h0.7v22.3
			h-0.7c-2.7-6.7-7.4-10.5-17.2-10.5h-7.6V27h8c9.5,0,22.7-1.4,27.6-15.8h0.8l-0.4,11v6.3h-63.4v-0.7c2.7-0.5,7.4-1.8,7.4-11.8
			v-58.1c0-9.9-4.7-12.4-7.4-13v-0.7h65.3v6.3l0.4,11.8h-0.8c-6.1-14.3-14.6-16.6-26.6-16.6H127.4z"/>
	</g>
	<g id="g7836" transform="matrix(0.35277777,0,0,-0.35277777,0.12020312,282.15086)">
		<path id="path7838" inkscape:connector-curvature="0" class="st0" d="M0.6-0.8V-7L0.3-18.1H1C6.5-5.7,16.4-2.2,23.5-2.2h3v-68.7
			c0-9.9-5.8-13-9.3-13.5v-0.7h38.3v0.7c-3.9,0.5-9,3.6-9,13.5v68.7h3c7.1,0,17-3.5,22.5-15.9h0.7L72.4-7v6.3H0.6z"/>
	</g>
	<g id="g7840" transform="matrix(0.35277777,0,0,-0.35277777,35.771783,292.60038)">
		<path id="path7842" inkscape:connector-curvature="0" class="st0" d="M186-55.1c-11.9,0-18.4,10.4-21.6,17.7h-0.8l0.2-8.7v-8.1
			c5.4-1.2,13.5-2.3,22.5-2.3c16.7,0,32.9,7.8,32.9,25.8c0,12-6.5,20.5-22.4,26.5c-10.8,4.1-17.3,8.9-17.3,18.6
			c0,9.2,7.5,14.7,15.9,14.7c10.7,0,16.5-7.8,20-17.5h0.7l-0.2,8.4v8.3c-5.2,0.7-11.8,1.9-20.2,1.9c-20.5,0-31.9-9.9-31.9-24.6
			c0-14.8,10-20.6,21-25.2c11.7-4.8,18-9.9,18-19.9C202.7-49.9,196.2-55.1,186-55.1"/>
	</g>
	<g id="g7844" transform="matrix(0.35277777,0,0,-0.35277777,88.006314,292.60038)">
		<path id="path7846" inkscape:connector-curvature="0" class="st0" d="M457.7-55.1c-11.9,0-18.4,10.4-21.6,17.7h-0.8l0.2-8.7v-8.1
			c5.4-1.2,13.5-2.3,22.5-2.3c16.7,0,32.9,7.8,32.9,25.8c0,12-6.5,20.5-22.4,26.5c-10.8,4.1-17.3,8.9-17.3,18.6
			c0,9.2,7.5,14.7,15.9,14.7c10.7,0,16.5-7.8,20-17.5h0.7l-0.2,8.4v8.3c-5.2,0.7-11.8,1.9-20.2,1.9c-20.5,0-31.9-9.9-31.9-24.6
			c0-14.8,10-20.6,21-25.2c11.7-4.8,17.9-9.9,17.9-19.9C474.3-49.9,467.8-55.1,457.7-55.1"/>
	</g>
	<g id="g7848" transform="matrix(0.35277777,0,0,-0.35277777,40.131093,282.14906)">
		<path id="path7850" inkscape:connector-curvature="0" class="st0" d="M208.7-0.8V-7l-0.4-11.1h0.7c5.5,12.4,15.4,15.9,22.5,15.9h3
			v-68.7c0-9.9-5.8-13-9.3-13.5v-0.7h38.3v0.7c-3.9,0.5-9,3.6-9,13.5v68.7h3c7.1,0,17-3.5,22.5-15.9h0.7L280.5-7v6.3H208.7z"/>
	</g>
	<g id="g7852" transform="matrix(0.35277777,0,0,-0.35277777,75.864484,282.14906)">
		<path id="path7854" inkscape:connector-curvature="0" class="st0" d="M394.5-0.8V-7l-0.4-11.1h0.7c5.6,12.4,15.4,15.9,22.5,15.9h3
			v-68.7c0-9.9-5.8-13-9.3-13.5v-0.7h38.3v0.7c-3.9,0.5-9,3.6-9,13.5v68.7h3c7.1,0,17-3.5,22.5-15.9h0.7L466.3-7v6.3H394.5z"/>
	</g>
	<g id="g7856" transform="matrix(0.35277777,0,0,-0.35277777,74.170024,283.76845)">
		<path id="path7858" inkscape:connector-curvature="0" class="st0" d="M385.7-9.2c0,9.9,5.3,11.8,8.6,12.3v0.7H357V3.1
			c3.3-0.5,8.7-2.4,8.7-12.3v-57.1c0-9.9-5.4-13-8.7-13.5v-0.7h37.2v0.7c-3.3,0.5-8.6,3.6-8.6,13.5V-9.2z"/>
	</g>
	<g id="g7860" transform="matrix(0.35277777,0,0,-0.35277777,59.280012,292.55562)">
		<path id="path7862" inkscape:connector-curvature="0" class="st0" d="M308.3-54.9c-4.2,0-5.7,7.3-8.7,16.9
			c-4.8,15.3-9.5,25.4-25.2,26.3l0.6,0.5c13.6,0.6,24.5,6.9,24.5,20.4c0,16.3-17.3,19.6-35.9,19.6h-33.3V28
			c3.2-0.5,8.7-2.4,8.7-12.3v-57.1c0-9.9-5.4-13-8.7-13.5v-0.7h35.8v0.7c-3.4,0.5-7.2,4.1-7.2,14.1v27.2h1.6
			c9.5,0,15.1-11.3,19.6-28.3c2.9-10.7,3.1-12.6,3.1-13.3v-0.5h25.1V-54.9z M258.9,27.2c1.6,0.2,3.4,0.4,4.3,0.4
			c11.1,0,17.2-6,17.2-18.4c0-13.9-7-21.2-18.6-21.2c-1,0-1.9,0-3,0.1V27.2z"/>
	</g>
	<g id="g7864" transform="matrix(0.35277777,0,0,-0.35277777,59.445253,292.64543)">
		<path id="path7866" inkscape:connector-curvature="0" class="st0" d="M309.1-55.4H333v0.7c-4.7,0.2-8.4,4.6-8.4,10.2
			c0,4.5,1.2,8.4,3.4,14.5l1.8,5.1h29.8l1.2-3.6c2.2-6.9,4.6-14.6,4.6-18.4c0-3-1.1-7.2-5.2-7.7v-0.7h36v0.7
			c-3.7,0.2-7.2,4.2-9.4,10.8L363.8,29h-24.4v-0.7c3.1-0.8,4.8-4.6,4.8-6.1c0-1.6-0.2-2.5-1.1-4.8l-18.3-48.8
			c-6-16.6-11.3-23-15.7-23.1V-55.4z M345.7,19.2h0.2l13-42.4h-28.6L345.7,19.2z"/>
	</g>
</g>
</svg>
