<?xml version="1.0" encoding="UTF-8" standalone="no"?>
<!-- Created with Inkscape (http://www.inkscape.org/) -->

<svg
   xmlns:dc="http://purl.org/dc/elements/1.1/"
   xmlns:cc="http://creativecommons.org/ns#"
   xmlns:rdf="http://www.w3.org/1999/02/22-rdf-syntax-ns#"
   xmlns:svg="http://www.w3.org/2000/svg"
   xmlns="http://www.w3.org/2000/svg"
   xmlns:sodipodi="http://sodipodi.sourceforge.net/DTD/sodipodi-0.dtd"
   xmlns:inkscape="http://www.inkscape.org/namespaces/inkscape"
   width="140mm"
   height="15mm"
   viewBox="0 0 140 15"
   version="1.1"
   id="svg12454"
   inkscape:version="0.92.1 "
   sodipodi:docname="Straits Times Logo.svg">
  <defs
     id="defs12448">
    <clipPath
       clipPathUnits="userSpaceOnUse"
       id="clipPath7806">
      <path
         d="M 0,623.622 H 1700.787 V 0 H 0 Z"
         id="path7804"
         inkscape:connector-curvature="0" />
    </clipPath>
  </defs>
  <sodipodi:namedview
     id="base"
     pagecolor="#ffffff"
     bordercolor="#666666"
     borderopacity="1.0"
     inkscape:pageopacity="0.0"
     inkscape:pageshadow="2"
     inkscape:zoom="0.9899495"
     inkscape:cx="188.22908"
     inkscape:cy="124.69341"
     inkscape:document-units="mm"
     inkscape:current-layer="layer1"
     showgrid="false"
     inkscape:window-width="1920"
     inkscape:window-height="1001"
     inkscape:window-x="-9"
     inkscape:window-y="-9"
     inkscape:window-maximized="1" />
  <metadata
     id="metadata12451">
    <rdf:RDF>
      <cc:Work
         rdf:about="">
        <dc:format>image/svg+xml</dc:format>
        <dc:type
           rdf:resource="http://purl.org/dc/dcmitype/StillImage" />
        <dc:title></dc:title>
      </cc:Work>
    </rdf:RDF>
  </metadata>
  <g
     inkscape:label="Layer 1"
     inkscape:groupmode="layer"
     id="layer1"
     transform="translate(0,-282)">
    <g
       id="g7808"
       transform="matrix(0.35277777,0,0,-0.35277777,118.40229,282.14906)">
      <path
         d="M 0,0 -6.674,-18.872 H -6.758 L -13.135,0 h -10.072 v -0.254 c 1.316,-0.17 2.848,-1.021 2.805,-3.741 l -0.214,-19.127 c -0.129,-3.019 -1.316,-6.079 -4.42,-6.377 v -0.255 h 9.648 v 0.255 c -2.973,0.256 -4.421,2.466 -4.421,6.037 l 0.086,20.614 h 0.129 l 9.393,-26.821 h 0.338 l 9.776,27.29 H 0 c -0.127,-3.231 -0.214,-9.437 -0.214,-11.519 v -10.84 c 0,-3.485 -1.87,-4.59 -3.016,-4.761 v -0.255 H 9.692 v 0.255 c -1.065,0.171 -2.849,1.276 -2.849,4.761 V -4.59 c 0,3.486 1.784,4.166 2.849,4.336 V 0 Z"
         style="fill:#1b3f7c;fill-opacity:1;fill-rule:nonzero;stroke:none"
         id="path7810"
         inkscape:connector-curvature="0" />
    </g>
    <g
       id="g7812"
       transform="matrix(0.35277777,0,0,-0.35277777,108.20578,283.76845)">
      <path
         d="M 0,0 C 0,3.486 1.871,4.166 3.018,4.336 V 4.59 H -10.115 V 4.336 C -8.971,4.166 -7.057,3.486 -7.057,0 v -20.147 c 0,-3.486 -1.914,-4.591 -3.058,-4.762 v -0.254 H 3.018 v 0.254 C 1.871,-24.738 0,-23.633 0,-20.147 Z"
         style="fill:#1b3f7c;fill-opacity:1;fill-rule:nonzero;stroke:none"
         id="path7814"
         inkscape:connector-curvature="0" />
    </g>
    <g
       id="g7816"
       transform="matrix(0.35277777,0,0,-0.35277777,126.1549,292.46527)">
      <path
         d="m 0,0 v 14.663 h 2.677 c 3.613,0 5.101,-1.188 6.077,-3.654 h 0.257 v 7.863 H 8.754 C 7.82,16.492 6.163,15.174 2.677,15.174 H 0 v 13.56 h 2.804 c 3.359,0 7.994,-0.511 9.735,-5.569 h 0.299 l -0.129,3.868 v 2.21 h -22.36 v -0.254 c 0.937,-0.17 2.594,-0.638 2.594,-4.166 V 4.336 c 0,-3.486 -1.657,-4.378 -2.594,-4.592 v -0.255 h 23.04 v 2.21 l 0.128,4.165 H 13.22 C 11.051,0.807 8.076,0 3.825,0 Z"
         style="fill:#1b3f7c;fill-opacity:1;fill-rule:nonzero;stroke:none"
         id="path7818"
         inkscape:connector-curvature="0" />
    </g>
    <g
       id="g7820"
       transform="matrix(0.35277777,0,0,-0.35277777,95.069529,282.14906)">
      <path
         d="M 0,0 V -2.208 L -0.127,-6.12 h 0.256 c 1.955,4.379 5.441,5.61 7.948,5.61 H 9.14 v -24.228 c 0,-3.485 -2.04,-4.59 -3.273,-4.761 v -0.255 h 13.518 v 0.255 c -1.361,0.171 -3.189,1.276 -3.189,4.761 V -0.51 h 1.063 c 2.507,0 5.993,-1.231 7.948,-5.61 h 0.254 l -0.127,3.912 V 0 Z"
         style="fill:#1b3f7c;fill-opacity:1;fill-rule:nonzero;stroke:none"
         id="path7822"
         inkscape:connector-curvature="0" />
    </g>
    <g
       id="g7824"
       transform="matrix(0.35277777,0,0,-0.35277777,134.25895,292.60038)">
      <path
         d="M 0,0 C -4.209,0 -6.504,3.656 -7.608,6.248 H -7.905 L -7.82,3.188 V 0.341 c 1.911,-0.428 4.759,-0.809 7.947,-0.809 5.908,0 11.603,2.764 11.603,9.097 0,4.25 -2.295,7.225 -7.905,9.351 -3.825,1.445 -6.12,3.146 -6.12,6.546 0,3.23 2.633,5.186 5.611,5.186 3.783,0 5.821,-2.764 7.055,-6.163 h 0.254 l -0.084,2.975 v 2.933 c -1.827,0.255 -4.166,0.68 -7.142,0.68 -7.225,0 -11.264,-3.486 -11.264,-8.672 0,-5.228 3.531,-7.268 7.399,-8.883 C 3.653,10.882 5.866,9.096 5.866,5.569 5.866,1.827 3.571,0 0,0"
         style="fill:#1b3f7c;fill-opacity:1;fill-rule:nonzero;stroke:none"
         id="path7826"
         inkscape:connector-curvature="0" />
    </g>
    <g
       id="g7828"
       transform="matrix(0.35277777,0,0,-0.35277777,19.194474,283.77025)">
      <path
         d="M 0,0 C 0,3.486 1.871,4.166 3.018,4.334 V 4.59 H -10.117 V 4.334 C -8.971,4.166 -7.057,3.486 -7.057,0 V -9.479 H -17.09 V 0 c 0,3.486 1.872,4.166 3.02,4.334 V 4.59 H -27.204 V 4.334 c 1.148,-0.168 3.06,-0.848 3.06,-4.334 v -20.147 c 0,-3.486 -1.912,-4.591 -3.06,-4.762 v -0.254 h 13.134 v 0.254 c -1.148,0.171 -3.02,1.276 -3.02,4.762 v 10.074 h 10.033 v -10.074 c 0,-3.486 -1.914,-4.591 -3.06,-4.762 v -0.254 H 3.018 v 0.254 C 1.871,-24.738 0,-23.633 0,-20.147 Z"
         style="fill:#1b3f7c;fill-opacity:1;fill-rule:nonzero;stroke:none"
         id="path7830"
         inkscape:connector-curvature="0" />
    </g>
    <g
       id="g7832"
       transform="matrix(0.35277777,0,0,-0.35277777,24.502474,292.46731)">
      <path
         d="m 0,0 v 14.663 h 2.679 c 3.613,0 5.099,-1.189 6.077,-3.654 h 0.255 v 7.863 H 8.756 C 7.82,16.492 6.163,15.174 2.679,15.174 H 0 v 13.56 h 2.805 c 3.358,0 7.993,-0.511 9.735,-5.568 h 0.298 l -0.129,3.867 v 2.21 H -9.649 v -0.255 c 0.935,-0.169 2.594,-0.637 2.594,-4.165 V 4.334 c 0,-3.484 -1.659,-4.376 -2.594,-4.59 V -0.509 H 13.389 V 1.7 l 0.128,4.166 H 13.22 C 11.051,0.807 8.077,0 3.827,0 Z"
         style="fill:#1b3f7c;fill-opacity:1;fill-rule:nonzero;stroke:none"
         id="path7834"
         inkscape:connector-curvature="0" />
    </g>
    <g
       id="g7836"
       transform="matrix(0.35277777,0,0,-0.35277777,0.12020312,282.15086)">
      <path
         d="m 0,0 v -2.21 l -0.127,-3.911 h 0.255 c 1.956,4.379 5.441,5.612 7.949,5.612 H 9.14 v -24.229 c 0,-3.486 -2.04,-4.59 -3.273,-4.761 v -0.254 h 13.516 v 0.254 c -1.359,0.171 -3.187,1.275 -3.187,4.761 v 24.229 h 1.063 c 2.507,0 5.994,-1.233 7.948,-5.612 h 0.256 L 25.334,-2.21 V 0 Z"
         style="fill:#1b3f7c;fill-opacity:1;fill-rule:nonzero;stroke:none"
         id="path7838"
         inkscape:connector-curvature="0" />
    </g>
    <g
       id="g7840"
       transform="matrix(0.35277777,0,0,-0.35277777,35.771783,292.60038)">
      <path
         d="M 0,0 C -4.208,0 -6.503,3.656 -7.61,6.248 H -7.907 L -7.82,3.188 V 0.341 c 1.912,-0.428 4.758,-0.809 7.947,-0.809 5.909,0 11.605,2.764 11.605,9.097 0,4.25 -2.295,7.225 -7.907,9.351 -3.825,1.445 -6.12,3.146 -6.12,6.546 0,3.23 2.636,5.186 5.609,5.186 3.785,0 5.824,-2.764 7.057,-6.163 h 0.255 l -0.084,2.975 v 2.933 c -1.83,0.255 -4.167,0.68 -7.141,0.68 -7.228,0 -11.265,-3.486 -11.265,-8.672 0,-5.228 3.53,-7.268 7.395,-8.883 C 3.655,10.882 5.866,9.096 5.866,5.569 5.866,1.827 3.571,0 0,0"
         style="fill:#1b3f7c;fill-opacity:1;fill-rule:nonzero;stroke:none"
         id="path7842"
         inkscape:connector-curvature="0" />
    </g>
    <g
       id="g7844"
       transform="matrix(0.35277777,0,0,-0.35277777,88.006314,292.60038)">
      <path
         d="M 0,0 C -4.208,0 -6.503,3.656 -7.608,6.248 H -7.906 L -7.82,3.188 V 0.341 c 1.912,-0.428 4.758,-0.809 7.948,-0.809 5.907,0 11.604,2.764 11.604,9.097 0,4.25 -2.295,7.225 -7.907,9.351 -3.825,1.445 -6.12,3.146 -6.12,6.546 0,3.23 2.636,5.186 5.61,5.186 3.785,0 5.825,-2.764 7.056,-6.163 h 0.254 l -0.083,2.975 v 2.933 c -1.828,0.255 -4.167,0.68 -7.143,0.68 -7.226,0 -11.261,-3.486 -11.261,-8.672 0,-5.228 3.529,-7.268 7.396,-8.883 C 3.656,10.882 5.866,9.096 5.866,5.569 5.866,1.827 3.572,0 0,0"
         style="fill:#1b3f7c;fill-opacity:1;fill-rule:nonzero;stroke:none"
         id="path7846"
         inkscape:connector-curvature="0" />
    </g>
    <g
       id="g7848"
       transform="matrix(0.35277777,0,0,-0.35277777,40.131093,282.14906)">
      <path
         d="M 0,0 V -2.208 L -0.127,-6.12 h 0.256 c 1.955,4.379 5.44,5.61 7.947,5.61 h 1.062 v -24.228 c 0,-3.485 -2.039,-4.59 -3.271,-4.761 v -0.255 h 13.516 v 0.255 c -1.359,0.171 -3.188,1.276 -3.188,4.761 V -0.51 h 1.064 c 2.507,0 5.993,-1.231 7.947,-5.61 h 0.255 l -0.128,3.912 V 0 Z"
         style="fill:#1b3f7c;fill-opacity:1;fill-rule:nonzero;stroke:none"
         id="path7850"
         inkscape:connector-curvature="0" />
    </g>
    <g
       id="g7852"
       transform="matrix(0.35277777,0,0,-0.35277777,75.864484,282.14906)">
      <path
         d="M 0,0 V -2.208 L -0.129,-6.12 h 0.254 c 1.958,4.379 5.444,5.61 7.951,5.61 H 9.14 v -24.228 c 0,-3.485 -2.041,-4.59 -3.274,-4.761 v -0.255 h 13.517 v 0.255 c -1.359,0.171 -3.188,1.276 -3.188,4.761 V -0.51 h 1.062 c 2.509,0 5.993,-1.231 7.951,-5.61 h 0.254 l -0.129,3.912 V 0 Z"
         style="fill:#1b3f7c;fill-opacity:1;fill-rule:nonzero;stroke:none"
         id="path7854"
         inkscape:connector-curvature="0" />
    </g>
    <g
       id="g7856"
       transform="matrix(0.35277777,0,0,-0.35277777,74.170024,283.76845)">
      <path
         d="M 0,0 C 0,3.486 1.871,4.166 3.018,4.336 V 4.59 H -10.118 V 4.336 C -8.968,4.166 -7.057,3.486 -7.057,0 v -20.147 c 0,-3.486 -1.911,-4.591 -3.061,-4.762 v -0.254 H 3.018 v 0.254 C 1.871,-24.738 0,-23.633 0,-20.147 Z"
         style="fill:#1b3f7c;fill-opacity:1;fill-rule:nonzero;stroke:none"
         id="path7858"
         inkscape:connector-curvature="0" />
    </g>
    <g
       id="g7860"
       transform="matrix(0.35277777,0,0,-0.35277777,59.280012,292.55562)">
      <path
         d="m 0,0 c -1.488,0 -1.998,2.592 -3.062,5.951 -1.698,5.398 -3.357,8.968 -8.882,9.267 l 0.211,0.17 c 4.803,0.212 8.63,2.422 8.63,7.184 0,5.737 -6.12,6.927 -12.666,6.927 H -27.5 v -0.254 c 1.146,-0.169 3.059,-0.851 3.059,-4.336 V 4.762 C -24.441,1.276 -26.354,0.17 -27.5,0 v -0.254 h 12.623 V 0 c -1.192,0.17 -2.55,1.445 -2.55,4.974 v 9.606 h 0.552 c 3.358,0 5.315,-3.996 6.929,-9.989 1.019,-3.783 1.104,-4.462 1.104,-4.676 V -0.254 H 0 Z m -17.427,28.947 c 0.552,0.085 1.19,0.129 1.529,0.129 3.912,0 6.079,-2.126 6.079,-6.504 0,-4.889 -2.466,-7.481 -6.545,-7.481 -0.342,0 -0.681,0 -1.063,0.042 z"
         style="fill:#1b3f7c;fill-opacity:1;fill-rule:nonzero;stroke:none"
         id="path7862"
         inkscape:connector-curvature="0" />
    </g>
    <g
       id="g7864"
       transform="matrix(0.35277777,0,0,-0.35277777,59.445253,292.64543)">
      <path
         d="M 0,0 H 8.417 V 0.254 C 6.758,0.341 5.44,1.872 5.44,3.867 c 0,1.575 0.426,2.978 1.19,5.102 l 0.636,1.784 h 10.501 l 0.426,-1.274 c 0.765,-2.424 1.613,-5.143 1.613,-6.504 0,-1.063 -0.382,-2.551 -1.827,-2.721 V 0 H 30.688 V 0.254 C 29.369,0.341 28.137,1.744 27.372,4.08 L 19.295,29.754 H 10.67 V 29.5 c 1.102,-0.299 1.697,-1.615 1.697,-2.168 0,-0.553 -0.084,-0.893 -0.381,-1.7 L 5.524,8.416 C 3.399,2.55 1.528,0.297 0,0.254 Z m 12.878,26.31 h 0.085 L 17.555,11.349 H 7.48 Z"
         style="fill:#1b3f7c;fill-opacity:1;fill-rule:nonzero;stroke:none"
         id="path7866"
         inkscape:connector-curvature="0" />
    </g>
  </g>
</svg>
