<?xml version="1.0" encoding="UTF-8" standalone="no"?>
<svg
   xmlns:dc="http://purl.org/dc/elements/1.1/"
   xmlns:cc="http://creativecommons.org/ns#"
   xmlns:rdf="http://www.w3.org/1999/02/22-rdf-syntax-ns#"
   xmlns:svg="http://www.w3.org/2000/svg"
   xmlns="http://www.w3.org/2000/svg"
   xmlns:sodipodi="http://sodipodi.sourceforge.net/DTD/sodipodi-0.dtd"
   xmlns:inkscape="http://www.inkscape.org/namespaces/inkscape"
   width="430.08801pt"
   height="180pt"
   viewBox="0 0 430.088 180"
   version="1.2"
   id="svg4721"
   sodipodi:docname="Thumbsup Junior.svg"
   inkscape:version="0.92.1 ">
  <metadata
     id="metadata4725">
    <rdf:RDF>
      <cc:Work
         rdf:about="">
        <dc:format>image/svg+xml</dc:format>
        <dc:type
           rdf:resource="http://purl.org/dc/dcmitype/StillImage" />
        <dc:title></dc:title>
      </cc:Work>
    </rdf:RDF>
  </metadata>
  <sodipodi:namedview
     pagecolor="#ffffff"
     bordercolor="#666666"
     borderopacity="1"
     objecttolerance="10"
     gridtolerance="10"
     guidetolerance="10"
     inkscape:pageopacity="0"
     inkscape:pageshadow="2"
     inkscape:window-width="1920"
     inkscape:window-height="1001"
     id="namedview4723"
     showgrid="false"
     inkscape:zoom="1.3763994"
     inkscape:cx="260.20272"
     inkscape:cy="214.69848"
     inkscape:window-x="-9"
     inkscape:window-y="-9"
     inkscape:window-maximized="1"
     inkscape:current-layer="svg4721" />
  <defs
     id="defs4334">
    <clipPath
       id="clip1">
      <path
         d="M 258.46875,29 H 349 v 90.83984 h -90.53125 z m 0,0"
         id="path4259"
         inkscape:connector-curvature="0" />
    </clipPath>
    <clipPath
       id="clip2">
      <path
         d="m 277.32031,30.257813 h 7.60938 v 10.289062 h -7.60938 z m 0,0"
         id="path4262"
         inkscape:connector-curvature="0" />
    </clipPath>
    <clipPath
       id="clip3">
      <path
         d="m 231.41406,30.996094 h 11.87891 v 12.605469 h -11.87891 z m 0,0"
         id="path4265"
         inkscape:connector-curvature="0" />
    </clipPath>
    <clipPath
       id="clip4">
      <path
         d="m 161.08594,28.976563 h 6.83203 v 9.234375 h -6.83203 z m 0,0"
         id="path4268"
         inkscape:connector-curvature="0" />
    </clipPath>
    <clipPath
       id="clip5">
      <path
         d="m 211.75,78.503906 h 5.05078 v 3.75 H 211.75 Z m 0,0"
         id="path4271"
         inkscape:connector-curvature="0" />
    </clipPath>
    <clipPath
       id="clip6">
      <path
         d="M 3.511719,62 H 28 V 88 H 3.511719 Z m 0,0"
         id="path4274"
         inkscape:connector-curvature="0" />
    </clipPath>
    <clipPath
       id="clip7">
      <path
         d="M 3.511719,59 H 30 V 93 H 3.511719 Z m 0,0"
         id="path4277"
         inkscape:connector-curvature="0" />
    </clipPath>
    <clipPath
       id="clip8">
      <path
         d="M 54.3125,3.628906 H 68.671875 V 16.09375 H 54.3125 Z m 0,0"
         id="path4280"
         inkscape:connector-curvature="0" />
    </clipPath>
    <clipPath
       id="clip9">
      <path
         d="m 101.48047,35.03125 h 12.12109 v 8.175781 h -12.12109 z m 0,0"
         id="path4283"
         inkscape:connector-curvature="0" />
    </clipPath>
    <clipPath
       id="clip10">
      <path
         d="M 341.70703,89.570313 H 350 v 13.265627 h -8.29297 z m 0,0"
         id="path4286"
         inkscape:connector-curvature="0" />
    </clipPath>
    <clipPath
       id="clip11">
      <path
         d="m 408.30859,103 h 17.89844 v 5.84766 h -17.89844 z m 0,0"
         id="path4289"
         inkscape:connector-curvature="0" />
    </clipPath>
    <clipPath
       id="clip12">
      <path
         d="M 260.22656,195 H 351 v 91.50781 h -90.77344 z m 0,0"
         id="path4292"
         inkscape:connector-curvature="0" />
    </clipPath>
    <clipPath
       id="clip13">
      <path
         d="m 342.83984,191.99609 h 9.58203 v 5.60547 h -9.58203 z m 0,0"
         id="path4295"
         inkscape:connector-curvature="0" />
    </clipPath>
    <clipPath
       id="clip14">
      <path
         d="m 279.07812,196.92969 h 7.60938 v 10.28515 h -7.60938 z m 0,0"
         id="path4298"
         inkscape:connector-curvature="0" />
    </clipPath>
    <clipPath
       id="clip15">
      <path
         d="m 233.17187,197.66406 h 11.87891 v 12.60938 h -11.87891 z m 0,0"
         id="path4301"
         inkscape:connector-curvature="0" />
    </clipPath>
    <clipPath
       id="clip16">
      <path
         d="m 162.84375,195.64453 h 6.83203 v 9.23438 h -6.83203 z m 0,0"
         id="path4304"
         inkscape:connector-curvature="0" />
    </clipPath>
    <clipPath
       id="clip17">
      <path
         d="m 213.50781,245.17578 h 5.05078 v 3.74609 h -5.05078 z m 0,0"
         id="path4307"
         inkscape:connector-curvature="0" />
    </clipPath>
    <clipPath
       id="clip18">
      <path
         d="M 5.269531,229 H 30 v 25 H 5.269531 Z m 0,0"
         id="path4310"
         inkscape:connector-curvature="0" />
    </clipPath>
    <clipPath
       id="clip19">
      <path
         d="M 5.269531,226 H 32 v 34 H 5.269531 Z m 0,0"
         id="path4313"
         inkscape:connector-curvature="0" />
    </clipPath>
    <clipPath
       id="clip20">
      <path
         d="m 56.066406,170.30078 h 14.363282 v 12.46094 H 56.066406 Z m 0,0"
         id="path4316"
         inkscape:connector-curvature="0" />
    </clipPath>
    <clipPath
       id="clip21">
      <path
         d="m 103.23828,201.70312 h 12.1211 v 8.17188 h -12.1211 z m 0,0"
         id="path4319"
         inkscape:connector-curvature="0" />
    </clipPath>
    <clipPath
       id="clip22">
      <path
         d="m 341,221 h 89.07812 v 87 H 341 Z m 0,0"
         id="path4322"
         inkscape:connector-curvature="0" />
    </clipPath>
    <clipPath
       id="clip23">
      <path
         d="M 343.46484,256.23828 H 351 v 13.26563 h -7.53516 z m 0,0"
         id="path4325"
         inkscape:connector-curvature="0" />
    </clipPath>
    <clipPath
       id="clip24">
      <path
         d="m 410.06641,270 h 17.89843 v 5.51562 h -17.89843 z m 0,0"
         id="path4328"
         inkscape:connector-curvature="0" />
    </clipPath>
    <clipPath
       id="clip25">
      <path
         d="m 211,300 h 11 v 12.06641 h -11 z m 0,0"
         id="path4331"
         inkscape:connector-curvature="0" />
    </clipPath>
  </defs>
  <path
     inkscape:connector-curvature="0"
     id="path4336"
     d="m 305.07036,121.27377 -0.0391,-0.0469 -0.082,-0.0898 0.1211,0.13672 m 3.58203,-50.105488 c -2.23828,1.019531 -4.20313,2.691406 -5.67969,4.832031 -0.0703,0.105469 -0.25,0.410157 -0.48047,0.84375 l -0.10156,-0.222656 -0.15625,-0.300781 c -0.82813,-1.605469 -2.07813,-4.035156 -4.49219,-4.941406 -0.66016,-0.246094 -1.68359,-0.308594 -2.79297,-0.226563 -0.0547,-0.535156 -0.11328,-1.070312 -0.17187,-1.605469 2.94531,-0.01953 6.60547,-0.46875 8.87109,-3.769531 0.60156,-0.878906 1.00391,-1.871094 1.26172,-2.914062 1.41016,1.96875 3.22266,3.738281 5.48437,5.261718 1.13282,0.71875 2.39454,1.347657 3.76172,1.898438 -1.88672,-0.03516 -3.75,0.347656 -5.5039,1.144531 m -10.85938,32.101558 c -0.0937,-0.78515 -0.19922,-1.61718 -0.3125,-2.51171 -0.16015,-1.26954 -0.35937,-2.82813 -0.47265,-4 0.26953,-0.10547 0.53515,-0.21485 0.80859,-0.32032 -0.0898,1.37891 -0.14844,2.77735 -0.14844,4.21094 0.0117,0.89063 0.0625,1.75781 0.125,2.62109 m -30.03906,-52.67187 -0.0273,-0.125 1.39453,-0.144532 c -0.41797,0.07813 -0.87891,0.167969 -1.36719,0.269532 m 99.03125,48.0625 c 0,-13.5625 -2.44141,-21.425782 -7.66016,-24.710938 -1.36718,-1.191406 -2.91015,-2.207031 -4.60547,-3.058594 0.82813,-0.367187 1.61719,-0.792968 2.35547,-1.296875 3.85938,-2.625 6.12891,-7.453125 5.64844,-12.011718 -0.42187,-4.03125 -2.94922,-7.28125 -6.92578,-8.902344 -0.30469,-0.125 -0.64063,-0.207031 -0.96875,-0.296875 4.30469,-2.414063 5.85937,-5.304688 6.34375,-7.542969 0.57031,-2.648437 0.15625,-6.804687 -5.06641,-11.578125 -5.22265,-4.769532 -13.64453,-2.046875 -21.07422,0.351563 -1.76171,0.566406 -3.45703,1.113281 -4.92578,1.496093 -1.35156,-3.09375 -3.9375,-5.675781 -7.28515,-7.105468 -4.48828,-1.91406 -9.33985,-1.42578 -12.97266,1.3125 -6.23437,4.699218 -7.67578,13.878906 -8.00781,21.605468 -0.69922,-0.808593 -1.59766,-1.527343 -2.79297,-1.988281 -0.92578,-0.359375 -1.77734,-0.375 -6.57422,-0.09766 -0.23828,-2.40625 -0.52344,-5.292969 -0.52344,-5.292969 -0.30859,-3.21875 -1.54687,-5.660156 -3.67578,-7.257812 -4.04687,-3.035157 -9.93359,-1.910157 -14.66797,-1.007813 l -0.33593,0.0625 c -3.00782,0.574219 -4.61719,2.171875 -5.44141,3.410156 -2.36719,3.550782 -1.33594,8.445313 -0.50781,12.378907 l 0.0312,0.136718 c -3.50391,0.671875 -7.85547,2.003907 -9.00391,3.988282 -1.94141,3.367187 -1.03906,8.886718 -0.043,13.796875 l 0.10156,0.476562 c 0.54297,2.675781 1.72266,4.617188 3.50782,5.777344 2.52343,1.632812 5.4414,1.265625 8.13281,0.699219 l 0.56641,5.976562 c -3.69532,0.597656 -8.48438,1.515625 -10.14844,5.628906 -1.59766,3.941407 1.32422,16.089846 4.53515,18.839846 2.23047,1.90234 5.32422,1.86328 8.00782,1.33984 l 0.57812,5.13282 c 0.082,0.72265 0.16797,1.46875 0.1836,1.60547 0.0469,0.50781 0.0742,0.99609 0.10156,1.46875 0.13281,2.45703 0.36328,6.57031 5.65625,7.49609 4.97656,0.87109 14.25781,0.22656 17.98828,-5.21094 1.09766,-1.60547 1.20703,-3.98828 0.75,-8.52734 0.86328,6.08984 3.17969,11.28125 6.96484,15.47265 4.26172,5.16407 11.67578,7.67969 22.66016,7.67969 h 4.20312 c 9.51954,-0.16015 16.53516,-1.3789 21.51172,-3.73047 5.17188,-2.22265 8.86719,-5.6289 10.9961,-10.125 1.59765,-2.82812 2.38281,-6.78125 2.38281,-12.07812 v -4.3125 m -2.30078,16.23047 -0.082,0.16015 -0.0664,0.1211 0.14844,-0.28125 m -11.01563,10.25781 -0.0625,0.0273 -0.0664,0.0312 0.1289,-0.0586"
     style="fill:#211e1e;fill-opacity:1;fill-rule:nonzero;stroke:none" />
  <path
     inkscape:connector-curvature="0"
     id="path4338"
     d="M 132.26957,59.453458 C 130.15239,48.433927 118.01958,34.187833 106.12504,33.031583 101.66801,32.59799 93.668013,33.773771 90.152388,46.543302 c -0.113282,0.40625 -0.199219,0.828125 -0.277344,1.25 C 88.0352,37.56674 85.19145,28.719083 81.339888,21.32846 75.988325,11.05893 69.937544,5.0784596 63.359419,3.5589296 c -3.613281,-0.83594 -7.296875,-0.32813 -10.945313,1.51562 -4.148437,2.09375 -6.824218,5.0664104 -7.953125,8.8359404 -2.445312,8.12891 3.027344,17.691406 7.421875,25.378906 1.253907,2.191406 2.4375,4.261719 3.230469,5.953125 6.742188,14.40625 6.574219,29.324219 5.761719,44.621094 -0.113281,2.167965 -0.585938,5.035155 -2.1875,6.410155 -2.035156,1.83203 -4.394531,1.71484 -8.085938,1.36719 -4.253906,-0.39453 -9.542968,-0.88672 -13.835937,3.91015 -6.226563,6.96094 -5.898438,12.35157 -4.527344,15.64453 3.546875,8.50782 17.042969,11.42969 24.460938,11.8125 10.214843,0.52735 18.878906,-2.49609 25.757812,-8.98828 5.722656,-5.75 8.914063,-14.96484 9.558594,-27.45703 0.589844,-11.355465 0.460937,-21.789059 -0.367188,-31.27734 1.453125,3.808593 3.523438,7.429687 5.777344,10.375 5.183595,6.785156 11.562505,10.667968 17.496095,10.652343 4.10547,-0.01563 8.33203,-2.402343 11.89062,-6.726562 4.21485,-5.117188 6.35547,-11.449219 5.45703,-16.132813 M 40.976606,60.094083 C 40.144575,54.219083 36.574263,47.019865 30.453169,44.183927 27.675825,42.894865 23.289106,42.039396 18.148481,45.28549 6.8008251,52.445646 2.589888,72.508146 1.9492626,82.121427 1.4180121,90.051115 6.5117631,98.29721 13.543013,100.89096 c 6.027343,2.21875 12.027343,0.0742 16.464843,-5.89063 6.429688,-8.640622 12.605469,-23.249997 10.96875,-34.906247"
     style="fill:#211e1e;fill-opacity:1;fill-rule:nonzero;stroke:none" />
  <path
     inkscape:connector-curvature="0"
     id="path4340"
     d="m 250.67973,89.12924 c 0.27734,-0.05469 0.44922,-0.105469 0.46094,-0.105469 5.27344,-1.707031 6.69922,-8.574219 6.71875,-11.964844 0.0117,-1.039062 -0.10547,-2.0625 -0.34375,-3.035156 -0.45313,-1.890625 -0.96094,-3.355469 -3.33203,-4.851563 -0.0547,-0.03516 -0.54297,-0.335937 -1.25391,-0.664062 0.99609,-14.492188 -0.11719,-23.484375 -3.45312,-28.132813 -2.69532,-5.234375 -6.58204,-9.035156 -11.5625,-11.292968 l -0.24219,-0.109375 -0.25391,-0.07031 c -5.21875,-1.441406 -9.78906,-2.40625 -13.57422,-2.867187 -4.85937,-0.589844 -9.8164,-0.621094 -14.72265,-0.09375 -1.13672,0.125 -2.23047,0.359375 -3.28907,0.589843 -1.16796,0.253907 -2.26953,0.492188 -3.1914,0.523438 -0.25391,0.0039 -1.05469,-0.105469 -1.53516,-0.175781 -1.3125,-0.183594 -2.44531,-0.34375 -3.47656,-0.144532 -1.22656,0.238282 -2.41406,0.636719 -3.52344,1.1875 -5.19531,2.574219 -7.93359,7.992188 -9.73828,12.429688 -1.03516,2.53125 -2.01172,5.152344 -2.93359,7.785156 -2.14844,-1.796875 -4.58985,-2.347656 -6.62891,-2.785156 -0.10547,-0.02344 -0.19922,-0.04687 -0.30078,-0.07031 0.0703,-0.449218 0.14844,-0.90625 0.23047,-1.378906 0.16015,-0.878906 0.32422,-1.789062 0.42969,-2.734375 0.73437,-6.640625 -2.51563,-11.160156 -8.69141,-12.097656 -5.87891,-0.894531 -10.5,-0.714844 -14.11328,0.550781 -7.21875,2.523438 -7.17969,9.148438 -6.96094,13.445313 -3.19922,0.105468 -6.28125,0.777343 -8.33203,2.941406 -2.73047,2.890625 -2.47656,7.207031 -2.02734,11.03125 0.0469,0.402344 0.0508,0.800781 0.0547,1.21875 0.0195,1.726562 0.0508,4.339844 3.46094,6.59375 0.83594,0.550781 3.39844,1.140625 5.88281,1.410156 -0.0508,0.984375 -0.0937,1.96875 -0.13281,2.957031 -6.39844,0.445313 -12.57812,1.667969 -14.13672,5.871094 -1.32422,3.554688 0.71485,8.4375 1.3711,9.851563 1.01171,2.179687 3.24609,6.023434 6.85156,7.320314 1.18359,0.42969 2.41797,0.24609 4.28515,-0.0352 0.1211,-0.0195 0.26563,-0.043 0.41407,-0.0625 -0.33203,5.64453 -0.26563,6.26562 -0.0547,6.99218 l 0.11719,0.40625 c 1.01562,3.48438 1.85547,4.40235 5.60937,6.12891 4.65235,2.14453 13.1875,2.13672 17.90235,-0.0156 4.33984,-1.98047 5.17578,-8.32031 5.70312,-15.20703 0.26172,-0.0547 0.51563,-0.11328 0.76172,-0.17187 0.21875,6.58984 2.05078,12.44531 5.48047,17.47656 5.74609,8.42578 15.41015,10.91797 24.95312,11.69531 -0.17968,1.10156 -0.15234,2.21094 0.0898,3.28906 0.62109,2.73047 2.55859,4.91407 5.46875,6.14844 5.71875,2.42188 14.98437,1.25391 19.83593,-2.5039 1.52735,-1.1875 2.60938,-2.69922 3.57032,-4.02735 0.61718,-0.85937 1.19922,-1.67187 1.79687,-2.25 1.625,-1.58984 2.96485,-1.61719 5.60156,-1.52344 2.39454,0.082 5.375,0.1875 8.42188,-1.80078 4.08203,-2.66406 6.38281,-9.39453 4.83203,-14.12499 -0.73828,-2.23829 -2.24219,-3.83594 -4.25,-4.64844 0.19141,-1.17578 0.46094,-2.40625 0.75,-3.67578 0.37891,-1.69532 0.77344,-3.44922 1,-5.222658"
     style="fill:#211e1e;fill-opacity:1;fill-rule:nonzero;stroke:none" />
  <path
     inkscape:connector-curvature="0"
     id="path4342"
     d="m 331.45317,83.543302 c -4.05469,0.21875 -8.03516,1.363281 -11.9375,3.425781 -0.15235,0.441407 -0.26172,0.847657 -0.33594,1.21875 1.16797,0.04687 2.66016,0.01953 4.30859,-0.0039 5.04688,-0.07422 11.54688,-0.148437 14.59375,1.820313 2.61719,1.691404 3.25391,7.281254 2.01563,9.996094 -1.875,4.11719 -5.71875,2.35937 -9.61328,2.00781 -0.98047,-0.082 -11.54297,-0.40234 -11.63672,-0.77734 0.44141,1.76953 1.14062,3.13281 2.10156,4.08984 2.21094,1.69532 5.85938,2.54297 10.94531,2.54297 5.96875,0 9.875,-0.92187 11.71875,-2.76172 1.47266,-1.2539 2.28516,-4.57031 2.42969,-9.95312 -0.21875,-5.746097 -1.58594,-9.246097 -4.08984,-10.500003 -3.46094,-0.738281 -6.96485,-1.105469 -10.5,-1.105469 m 22.17187,-54.292969 c 7.76172,7.09375 3.8125,12.644532 -4.86718,15.480469 -4.55079,1.484375 -9.36329,2.21875 -14.08985,2.867188 -1.37109,0.1875 -7.15234,-0.07422 -7.68359,1.550781 -1.07031,3.28125 5.1914,2.554687 6.68359,2.554687 5.10938,0 16.32422,-4.175781 20.65235,-2.40625 7.21484,2.949219 5.57421,11.636719 0.65234,14.988282 -5.77734,3.929687 -16.44922,2.5625 -23.07813,2.5625 -8.84375,0 -15.40234,-1.363282 -19.67968,-4.085938 -4.27344,-2.875 -6.70703,-6.710937 -7.29688,-11.5 0,-7.625 -0.1289,-20.5625 6.76563,-25.753906 5.77734,-4.351562 14.96875,-0.207031 15.82422,6.964844 6.67578,-0.488282 20.49609,-8.359376 26.11718,-3.222657 m -43.57422,42.484375 c 1.90235,-0.863281 4.02735,-1.085937 6.14454,-0.574218 5.60156,-1.769532 11.27734,-2.652344 17.02734,-2.652344 3.46094,0 7.77344,0.222656 12.92969,0.664062 4.5,0.8125 8.14843,2.46875 10.94531,4.976563 4.20312,2.429687 6.30078,9.761719 6.30078,21.996093 v 4.3125 c 0,4.71875 -0.66016,8.21875 -1.98828,10.5 -1.76953,3.83203 -4.89844,6.71094 -9.39844,8.625 -4.49219,2.13672 -11.19922,3.27735 -20.11719,3.42578 h -4.20312 c -9.875,0 -16.58203,-2.17578 -20.11719,-6.51953 -4.27734,-4.71875 -6.44922,-10.83593 -6.52344,-18.35156 0,-3.39453 0.25782,-6.59766 0.77344,-9.617189 -2.65234,1.25 -5.34375,2.355469 -8.07031,3.312499 -1.08594,0.38281 2.31641,15.76953 0.77344,18.02344 -2.65625,3.87109 -10.45703,4.52344 -14.60938,3.79297 -3.1914,-0.55859 -2.66406,-2.53516 -2.98047,-5.94922 -0.0703,-0.76172 -1.28125,-10.71485 -1.09375,-10.77735 -2.26562,0.75 -6.76953,2.21485 -8.84375,0.44141 -2.20312,-1.88672 -4.63672,-12.441406 -3.60156,-14.996093 1.33984,-3.304688 7.51172,-3.320313 10.67578,-4.132813 -0.4414,-4.347656 -0.84375,-8.621093 -1.21484,-12.820312 -4.875,0.777344 -10.02735,3.367187 -11.33594,-3.066406 -0.57031,-2.820313 -1.99219,-9.230469 -0.44141,-11.914063 0.77735,-1.34375 9.97657,-3.140625 10.00782,-2.820312 -0.50782,-5.03125 -4.42969,-14.117188 2.61328,-15.460938 6.1875,-1.175781 13.91406,-2.800781 14.67578,5.199219 0.26953,2.832031 0.55078,5.664062 0.84375,8.492187 0.004,0.05859 1.64844,-0.04687 3.48047,-0.15625 2.14844,-0.125 4.5625,-0.25 4.92578,-0.113281 1.77344,0.6875 2.44531,2.472656 3.03125,4.257813 0.97266,2.964843 2.14062,8.683593 0.19922,11.519531 -1.64844,2.40625 -4.7461,2.34375 -7.54688,2.285156 -0.8125,-0.01953 -1.60156,-0.03906 -2.32031,0.0039 0.36719,3.097657 0.69922,6.191407 0.99219,9.289063 -0.0508,-0.566406 3.89844,-1.148438 4.5664,-0.898438 1.3086,0.492188 2.23438,2.484375 2.83985,3.640625 1.59375,3.058594 2,6.585938 2.98828,9.859375 -0.5625,-1.859375 2.3125,-8.582031 3.37891,-10.125 1.15234,-1.671875 2.64062,-2.917968 4.29296,-3.671875"
     style="fill:#b3d917;fill-opacity:1;fill-rule:nonzero;stroke:none" />
  <path
     inkscape:connector-curvature="0"
     id="path4344"
     d="m 270.48832,32.215177 c 0.88282,-0.8125 2.21875,-1.304687 4.1875,-1.332031 -0.0586,0.0625 -0.11718,0.125 -0.17187,0.1875 -0.37109,0.07031 -0.73828,0.140625 -1.09766,0.207031 l -0.33593,0.0625 c -1.01172,0.191406 -1.86329,0.503906 -2.58204,0.875"
     style="fill:#e8e8e8;fill-opacity:1;fill-rule:nonzero;stroke:none" />
  <path
     inkscape:connector-curvature="0"
     id="path4346"
     d="m 310.05082,71.734708 c 0.008,-0.0039 0.0156,-0.0078 0.0234,-0.0078 -0.008,0 -0.0156,0.0039 -0.0234,0.0078 m 0.63672,-0.261718 c 3.10547,-1.171875 9.0586,-2.066407 12.04688,-2.070313 -0.79688,0.148438 -1.55078,0.34375 -2.26953,0.585938 -1.42969,0.332031 -2.85157,0.726562 -4.26953,1.171875 -0.75391,-0.183594 -1.51172,-0.273438 -2.26172,-0.273438 -1.11328,0 -2.20703,0.199219 -3.2461,0.585938 m -16.03515,-7.820313 c -0.44922,0 -0.89844,-0.0078 -1.33985,-0.01953 -0.4375,-0.0078 -0.87109,-0.01953 -1.29297,-0.01953 -0.35156,0 -0.69921,0.0078 -1.02734,0.02734 0.32813,-0.01953 0.67578,-0.02734 1.03125,-0.02734 0.41797,0 0.84766,0.01172 1.28906,0.01953 0.44141,0.01172 0.88672,0.01953 1.33594,0.01953 2.40234,0 4.82031,-0.273437 6.21094,-2.300781 0.72656,-1.0625 1.01562,-2.523438 1.04687,-4.09375 0,1.519531 -0.29687,3 -1.05078,4.097656 -1.39062,2.023438 -3.80469,2.296875 -6.20312,2.296875 m -33.57032,-13.21875 c 1.03125,-1.789062 5.41407,-2.40625 8.24219,-2.65625 -2.71875,0.476563 -7.67969,1.683594 -8.24219,2.65625 m 10.00782,-2.820312 c 0,-0.01953 -0.0312,-0.03125 -0.0899,-0.03516 -0.42968,-4.214843 -3.94531,-12.207031 -0.51172,-15.363281 0.71875,-0.375 1.57032,-0.683594 2.58204,-0.875 l 0.33593,-0.0625 c 0.35938,-0.07031 0.72657,-0.136719 1.09766,-0.207031 -0.32031,0.351562 -0.60938,0.714844 -0.875,1.097656 -6.94141,1.390625 -3.04297,10.433594 -2.53906,15.445313"
     style="fill:#211e1e;fill-opacity:1;fill-rule:nonzero;stroke:none" />
  <g
     style="clip-rule:nonzero"
     id="g4350"
     clip-path="url(#clip1)"
     transform="translate(1.9102001,3.1682996)">
    <path
       inkscape:connector-curvature="0"
       id="path4348"
       d="m 329.98437,119.83984 h -4.20312 c -9.875,0 -16.58203,-2.17578 -20.11719,-6.51953 -4.27734,-4.71875 -6.44922,-10.83593 -6.52344,-18.35156 0,-3.394531 0.25782,-6.597656 0.77344,-9.617187 -2.65234,1.25 -5.34375,2.355468 -8.07031,3.3125 -0.15625,0.05469 -0.21875,0.414062 -0.21875,0.996093 0,2.726563 1.40234,10.343754 1.39844,14.503904 0,1.1875 -0.11328,2.09375 -0.40625,2.52344 -2.04688,2.98438 -7.15235,4.05078 -11.28907,4.05078 -1.22656,0 -2.37109,-0.0937 -3.32031,-0.25781 -3.1914,-0.5625 -2.66406,-2.53516 -2.98047,-5.95313 -0.0664,-0.70312 -1.11328,-9.320309 -1.11328,-10.613277 0,-0.101563 0.008,-0.15625 0.0195,-0.164063 -1.47656,0.492188 -3.91015,1.289063 -5.99609,1.289063 -1.11328,0 -2.125,-0.226563 -2.84766,-0.84375 -1.84375,-1.578125 -3.84765,-9.230469 -3.84765,-13.179688 0,-0.769531 0.0781,-1.402344 0.24609,-1.816406 1.33984,-3.304688 7.51172,-3.324219 10.67578,-4.132813 -0.4414,-4.347656 -0.84375,-8.621093 -1.21484,-12.820312 -2.35547,0.375 -4.77344,1.175781 -6.79688,1.175781 -2.16015,0 -3.86328,-0.914062 -4.53906,-4.242187 -0.37891,-1.882813 -1.14062,-5.367188 -1.14453,-8.277344 0,-1.445313 0.1875,-2.746094 0.70312,-3.636719 0.5625,-0.972656 5.52344,-2.179687 8.24219,-2.65625 0.67188,-0.05469 1.25391,-0.09375 1.6836,-0.121094 0,-0.02734 -0.004,-0.05078 -0.008,-0.07813 0.0586,0.0039 0.0899,0.01563 0.0899,0.03516 C 268.67578,39.433594 264.77734,30.390625 271.71875,29 c -5.34766,7.703125 0.14062,21.308594 7.28125,26.039063 2.82031,1.863281 6.48828,3.007812 9.92187,3.007812 5.07422,0 9.63672,-2.5 10.16407,-8.863281 0.52343,1.347656 0.91015,3.15625 0.91015,4.90625 -0.0312,1.570312 -0.32031,3.03125 -1.04687,4.09375 -1.39063,2.027344 -3.8086,2.300781 -6.21094,2.300781 -0.44922,0 -0.89453,-0.0078 -1.33594,-0.01953 -0.4414,-0.0078 -0.87109,-0.01953 -1.28906,-0.01953 -0.35547,0 -0.70312,0.0078 -1.03125,0.02734 0.36719,3.097657 0.69922,6.191407 0.99219,9.289063 0,-0.0039 0,-0.0078 0,-0.0078 0,-0.472656 2.71875,-0.949218 4.0039,-0.949218 0.25782,0 0.45313,0.01953 0.5625,0.05859 1.3086,0.492188 2.23438,2.484375 2.83985,3.640625 1.59375,3.058594 2,6.585938 2.98828,9.859375 -0.0508,-0.164062 -0.0742,-0.363281 -0.0742,-0.59375 0.004,-2.410156 2.48047,-8.121093 3.45313,-9.53125 1.15234,-1.671875 2.64062,-2.917968 4.29296,-3.671875 0.008,-0.0039 0.0156,-0.0078 0.0234,-0.0078 0.1875,-0.08594 0.39453,-0.171875 0.61328,-0.253906 1.03907,-0.386719 2.13282,-0.585938 3.2461,-0.585938 0.75,0 1.50781,0.08984 2.26172,0.273438 1.41796,-0.445313 2.83984,-0.839844 4.26953,-1.171875 -13.41407,4.476562 -13.86719,24.246093 -7.87891,35.046876 6.44531,11.6289 16.29297,14.91406 27.61719,14.91406 3.25781,0 6.63672,-0.26953 10.09375,-0.69531 -6.6836,1.99609 -11.15235,3.63672 -18.40235,3.7539"
       style="fill:#a1c714;fill-opacity:1;fill-rule:nonzero;stroke:none" />
  </g>
  <path
     inkscape:connector-curvature="0"
     id="path4352"
     d="m 331.89457,107.86361 c -5.08593,0 -8.73437,-0.84765 -10.94531,-2.54297 -0.96094,-0.95703 -1.66015,-2.32031 -2.10156,-4.08984 0.0937,0.375 10.65625,0.69531 11.63672,0.77735 1.89062,0.17187 3.76953,0.67187 5.41797,0.67187 1.74218,0 3.23047,-0.5625 4.19531,-2.67969 0.40625,-0.89062 0.60937,-2.09375 0.60937,-3.36328 -0.004,-2.60156 -0.86718,-5.49609 -2.625,-6.63281 -2.46093,-1.59375 -7.18359,-1.847657 -11.5664,-1.847657 -1.03906,0 -2.0586,0.01172 -3.02735,0.02734 -0.96484,0.01563 -1.8789,0.02734 -2.70312,0.02734 -0.58203,0 -1.12109,-0.0078 -1.60547,-0.02344 0.0742,-0.371093 0.18359,-0.777343 0.33594,-1.21875 3.90234,-2.0625 7.88281,-3.207031 11.9375,-3.429687 3.53515,0 7.03906,0.371094 10.5,1.109375 1.89453,0.949219 3.13672,3.179687 3.72656,6.703129 -1.1875,0.33593 -2.25391,1.13281 -3.00781,2.32031 -1.85156,2.92187 -0.44141,6.92578 1.77734,9.60156 0.082,0.0937 0.16406,0.19141 0.2461,0.28125 -0.3086,0.67969 -0.67188,1.19141 -1.08204,1.54687 -1.84375,1.83985 -5.75,2.76172 -11.71875,2.76172"
     style="fill:#211e1e;fill-opacity:1;fill-rule:nonzero;stroke:none" />
  <path
     inkscape:connector-curvature="0"
     id="path4354"
     d="m 342.53129,67.234708 c -3.74218,0 -7.51562,-0.386718 -10.63672,-0.386718 -8.84375,0 -15.40234,-1.363282 -19.67968,-4.089844 -4.27344,-2.871094 -6.70703,-6.707031 -7.29688,-11.5 -0.69922,-5.683594 -0.0781,-12.382813 1.84375,-18.140625 -1.89844,5.882812 -1.84375,13.152344 -1.84375,18.140625 0.58985,4.792969 3.02344,8.628906 7.29688,11.5 4.27734,2.726562 10.83593,4.089844 19.67968,4.089844 2.71875,0 6.11719,0.230468 9.57813,0.230468 3.85156,0 7.78125,-0.285156 10.9375,-1.484375 -2.89453,1.300782 -6.375,1.640625 -9.87891,1.640625 M 307.24614,31.758146 c 0.42578,-1.125 0.90625,-2.203125 1.4375,-3.222656 -0.0234,0.144531 -0.0469,0.289062 -0.0703,0.433593 -0.52734,0.863282 -0.98046,1.800782 -1.36718,2.789063"
     style="fill:#211e1e;fill-opacity:1;fill-rule:nonzero;stroke:none" />
  <path
     inkscape:connector-curvature="0"
     id="path4356"
     d="m 341.4727,67.078458 c -3.46094,0 -6.85938,-0.230468 -9.57813,-0.230468 -8.84375,0 -15.40234,-1.363282 -19.67968,-4.089844 -4.27344,-2.871094 -6.70703,-6.707031 -7.29688,-11.5 0,-4.988281 -0.0547,-12.257813 1.84375,-18.140625 0.15235,-0.460938 0.3125,-0.914063 0.48438,-1.359375 0.38672,-0.988281 0.83984,-1.925781 1.36718,-2.789063 -0.78906,5.109375 -0.54687,10.3125 1.02344,15.265625 4.5,14.214844 17.5,20.660157 30.97266,20.660157 5.64844,0 11.3789,-1.132813 16.60156,-3.300782 -1.24219,1.871094 -2.89453,3.144532 -4.80078,4 -3.15625,1.199219 -7.08594,1.484375 -10.9375,1.484375"
     style="fill:#a1c714;fill-opacity:1;fill-rule:nonzero;stroke:none" />
  <path
     inkscape:connector-curvature="0"
     id="path4358"
     d="m 355.6602,87.238615 h -0.0977 c -1.33984,-0.02344 -3.14843,-0.878907 -5.44531,-2.996094 -1.84375,-1.703125 -3.70312,-4.613281 -3.74219,-6.867188 V 77.22299 c 0.0312,-1.667969 1.11328,-2.941407 4.02344,-3.015625 0.0664,-0.0039 0.12891,-0.0039 0.19531,-0.0039 4.09375,0 6.66016,3.257813 7.54688,6.515625 0.22265,0.8125 0.33984,1.625 0.35156,2.386719 v 0.21875 c -0.0312,2.171875 -0.95312,3.882813 -2.83203,3.914063"
     style="fill:#cae168;fill-opacity:1;fill-rule:nonzero;stroke:none" />
  <path
     inkscape:connector-curvature="0"
     id="path4360"
     d="m 344.87114,34.101896 h -0.0977 c -0.60937,-0.01563 -1.14453,-0.269531 -1.52734,-1.0625 -0.17578,-0.355469 -0.25391,-0.6875 -0.25391,-1 v -0.03516 c 0.0156,-1.65625 2.16406,-2.671875 3.39844,-3.117188 0.76172,-0.273437 1.48437,-0.390625 2.14453,-0.390625 2.40234,0 4.03516,1.554688 4.03906,2.941406 0,0.902344 -0.6875,1.730469 -2.29687,2.015625 -0.39063,0.07031 -0.83203,0.109375 -1.32813,0.109375 -0.26172,0 -0.53906,-0.01172 -0.83594,-0.03516 -0.0586,-0.0039 -0.11718,-0.0039 -0.17968,-0.0039 -0.50782,0 -1.04297,0.140625 -1.57422,0.289062 -0.51172,0.136719 -1.01953,0.277344 -1.48828,0.289063"
     style="fill:#cae168;fill-opacity:1;fill-rule:nonzero;stroke:none" />
  <g
     style="clip-rule:nonzero"
     id="g4364"
     clip-path="url(#clip2)"
     transform="translate(1.9102001,3.1682996)">
    <path
       inkscape:connector-curvature="0"
       id="path4362"
       d="m 283.42969,40.546875 h -0.0274 c -1.09375,-0.02344 -1.6875,-2.507812 -1.88281,-3.546875 -0.17578,-0.933594 -0.32812,-1.5625 -0.5625,-2.050781 -0.37109,-0.765625 -0.94922,-1.195313 -2.14844,-1.941406 -1.0039,-0.621094 -1.48828,-1.238282 -1.48828,-1.730469 0.004,-0.601563 0.73828,-1.015625 2.14844,-1.015625 0.10547,0 0.21484,0 0.32422,0.0039 2.65625,0.113281 4.04297,2.074219 4.76172,4.480469 0.17968,0.605469 0.36328,1.753906 0.375,2.84375 v 0.214844 c -0.008,0.867187 -0.14063,1.667968 -0.48438,2.089843 -0.3789,0.453125 -0.71484,0.644532 -1.01562,0.652344"
       style="fill:#cae168;fill-opacity:1;fill-rule:nonzero;stroke:none" />
  </g>
  <path
     inkscape:connector-curvature="0"
     id="path4366"
     d="m 217.05473,94.21908 c 3.44531,-1.1289 6.47266,-7.367184 3.91406,-10.507809 -3.82422,-4.679688 -18.63281,-6.605469 -20.26172,1.007812 -1.64062,7.687497 10.77344,11.324217 16.34766,9.499997 m 6.56641,2.27344 c -2.55078,3.09766 -7.24219,4.23438 -14.08594,3.40234 -5.59766,-0.68359 -9.57813,-2.3164 -11.94141,-4.89453 -1.66406,-2.82422 -2.13281,-7.238278 -1.40234,-13.242184 0.33984,-2.777344 0.85156,-5.628906 1.54297,-8.5625 9.88281,1.921875 20.17187,3.960937 30.86328,6.113281 -1.41016,9.527344 -3.07031,15.257813 -4.97656,17.183593 M 207.69145,41.871427 c 3.98437,-1.152344 8.04687,-1.542969 12.17969,-1.171875 3.21484,0.394531 6.25,1.910156 9.10547,4.546875 1.3125,2.980469 1.66015,9.375 1.05078,19.199219 -9.30469,-1.855469 -18.86328,-3.671875 -28.67969,-5.457031 1.58594,-5.507813 3.70312,-11.210938 6.34375,-17.117188 m -27.45703,7.316406 c -2.45313,-3.042968 -6.00781,-2.644531 -9.3125,-3.894531 -0.0859,-2.347656 0.62109,-4.695312 0.88281,-7.011719 0.51172,-4.628906 -1.32422,-7.695312 -5.83984,-8.378906 -3.86328,-0.585937 -8.72657,-0.914062 -12.48828,0.398438 -6.48047,2.269531 -4.39844,9.140625 -4.59766,13.703125 -10.33984,-0.628907 -11.39063,2.40625 -10.48047,10.125 0.28125,2.40625 -0.50391,3.71875 2.01953,5.386718 0.92578,0.613282 7.5625,1.300782 7.58203,0.9375 -0.18359,3.070313 -0.33203,6.21875 -0.4414,9.445313 -0.004,0.113281 -12.80078,0.03906 -14.22266,3.855469 -1.11328,3 2.10938,11.34375 6.19922,12.8125 0.41016,0.148437 1.59766,-0.04297 2.88672,-0.238282 1.89453,-0.28125 4.01953,-0.566406 4.23828,0.238282 0.0234,0.08984 -0.57813,8.44141 -0.37891,9.125 0.81641,2.76953 0.71485,2.95312 3.89844,4.41406 3.90234,1.80078 11.39063,1.66016 15.08203,-0.0195 4.0586,-1.85547 3.48828,-15.140623 4.125,-15.171873 2.94531,-0.132813 6.39063,-0.964844 7.24219,-4.191406 0.71875,-2.714844 -0.49609,-7.882813 -1.64844,-10.414063 -0.53515,-1.1875 -1.60547,-1.953125 -2.83594,-2.292969 -0.32421,-0.08594 -1.96875,-0.527343 -1.98828,0.210938 0.0508,-1.980469 0.15235,-3.953125 0.29688,-5.921875 0.004,-0.03906 1.21094,0.05859 2.64062,0.152344 1.83985,0.121093 4.05469,0.246093 4.53125,0.08594 4.375,-1.476562 5.3086,-10.011719 2.60938,-13.355469 m 7.26562,-10.074218 c -1.13672,2.789062 -2.1914,5.609375 -3.17187,8.457031 -0.63672,1.847656 -2.83203,5.832031 -2.28516,7.789062 -5.32031,-0.101562 -6.6875,4.164063 -7.88281,8.578125 -0.58203,2.128907 -0.43359,4.03125 1.875,4.992188 0.26562,0.105469 2.46875,0.773437 2.58594,0.566406 -0.73047,3.972656 -1.35547,8.089844 -1.875,12.351563 -0.94141,8.40625 0.61328,15.574216 4.65625,21.503896 6.04687,8.85938 17.54297,10.19141 27.32422,10.50782 -2.8086,3.17187 -2.71094,7.53906 1.71484,9.41797 4.5,1.91015 12.5,0.98828 16.44141,-2.0625 2.03125,-1.57813 3.23828,-4.23047 5.07812,-6.02735 2.73438,-2.66797 5.41797,-2.57422 8.07813,-2.48047 2.16406,0.0742 4.3125,0.14844 6.46093,-1.2539 4.27344,-2.79297 6.21875,-13.57031 -1.22656,-13.15234 0.008,-3.94141 1.56641,-8.16797 2.0625,-12.191408 0.125,-1.027343 0.0781,-1.828125 0.5,-2.777343 -0.0117,0.03125 2.08203,0.01563 2.28516,-0.05078 3.08593,-1 4.33984,-5.929687 4.35547,-8.757812 0.008,-0.746094 -0.0703,-1.488281 -0.2461,-2.214844 -0.35547,-1.488281 -0.54297,-1.960937 -1.85156,-2.789062 -0.17188,-0.109375 -3,-1.378907 -3.03906,-0.957032 1.27343,-15.246093 0.35547,-24.890625 -2.75,-28.9375 -2.35938,-4.679687 -5.71485,-8 -10.07422,-9.972656 -5.09375,-1.40625 -9.45703,-2.328125 -13.08203,-2.769531 -4.66407,-0.566406 -9.35547,-0.582031 -13.94922,-0.08594 -2.19141,0.234375 -4.55469,1.054688 -6.72656,1.125 -0.53125,0.01953 -1.32422,-0.09375 -2.10938,-0.203125 -0.95312,-0.132812 -1.89844,-0.265625 -2.37891,-0.171875 -0.96484,0.183594 -1.84765,0.492188 -2.66406,0.894532 -4.26172,2.113281 -6.55859,6.871093 -8.10547,10.671875 m 24.13282,6.796875 c -4.86329,1.859375 -7.57813,6.171875 -1.24219,10.136718 7.25781,4.546875 19.33203,0.894532 14.73047,-6.867187 -2.73047,-4.617188 -9.01953,-4.980469 -13.48828,-3.269531"
     style="fill:#f8b00a;fill-opacity:1;fill-rule:nonzero;stroke:none" />
  <g
     style="clip-rule:nonzero"
     id="g4370"
     clip-path="url(#clip3)"
     transform="translate(1.9102001,3.1682996)">
    <path
       inkscape:connector-curvature="0"
       id="path4368"
       d="m 241.20703,43.601563 c -1.37891,0 -3.49219,-1.058594 -6.47656,-3.789063 -2.88672,-2.640625 -5.82422,-8.636719 0.21094,-8.816406 0.0312,0 0.0625,0 0.0937,0 h 0.14453 c 3.41797,0.04297 6.10156,3.171875 7.35156,6.300781 0.48437,1.214844 0.75,2.425781 0.76172,3.457031 v 0.136719 c -0.0156,1.582031 -0.66016,2.710938 -2.08594,2.710938"
       style="fill:#facc61;fill-opacity:1;fill-rule:nonzero;stroke:none" />
  </g>
  <g
     style="clip-rule:nonzero"
     id="g4374"
     clip-path="url(#clip4)"
     transform="translate(1.9102001,3.1682996)">
    <path
       inkscape:connector-curvature="0"
       id="path4372"
       d="m 166.57812,38.210938 h -0.0391 c -0.97656,-0.02734 -1.51172,-2.253907 -1.68359,-3.183594 C 164.69531,34.1875 164.5625,33.625 164.34766,33.1875 164.01562,32.496094 163.5,32.113281 162.42187,31.445313 c -2,-1.242188 -1.70703,-2.46875 0.58985,-2.46875 0.0937,0 0.1914,0.0039 0.29687,0.0078 2.38282,0.101563 3.62891,1.859375 4.27344,4.023438 0.16016,0.546875 0.32813,1.597656 0.33594,2.585937 v 0.117188 c -0.008,0.792968 -0.1211,1.53125 -0.4375,1.914062 -0.33594,0.40625 -0.63672,0.578125 -0.90235,0.585938"
       style="fill:#facc61;fill-opacity:1;fill-rule:nonzero;stroke:none" />
  </g>
  <g
     style="clip-rule:nonzero"
     id="g4378"
     clip-path="url(#clip5)"
     transform="translate(1.9102001,3.1682996)">
    <path
       inkscape:connector-curvature="0"
       id="path4376"
       d="m 215.22266,82.25 c -1.51954,0 -3.45704,-1.351562 -3.47266,-2.535156 v -0.03125 c 0,-0.132813 0.0273,-0.261719 0.082,-0.386719 0.23438,-0.554687 0.73438,-0.785156 1.32813,-0.792969 h 0.0625 c 1.92968,0.02734 4.78125,2.300782 3.03125,3.46875 -0.29297,0.191407 -0.64844,0.277344 -1.03125,0.277344"
       style="fill:#facc61;fill-opacity:1;fill-rule:nonzero;stroke:none" />
  </g>
  <path
     inkscape:connector-curvature="0"
     id="path4380"
     d="m 221.40629,50.262052 h -0.13672 c -1.50781,-0.03906 -3.38671,-1.371094 -3.40234,-2.535156 v -0.03125 c 0,-0.132813 0.0273,-0.265625 0.082,-0.390625 0.23438,-0.546875 0.72656,-0.777344 1.32031,-0.789063 h 0.0781 c 1.48828,0.02344 3.51953,1.382813 3.57031,2.535157 v 0.08594 c -0.0156,0.308594 -0.17969,0.601563 -0.54687,0.847656 -0.27735,0.183594 -0.60938,0.269532 -0.96485,0.277344"
     style="fill:#facc61;fill-opacity:1;fill-rule:nonzero;stroke:none" />
  <path
     inkscape:connector-curvature="0"
     id="path4382"
     d="m 208.09379,114.66439 c -5.46875,-0.21875 -11.99609,-1.38671 -17.52343,-3.98046 5.47656,2.35546 11.89062,2.95703 17.73437,3.16015 0.10938,0.0391 0.22266,0.0781 0.33594,0.11328 -0.19922,0.23047 -0.37891,0.46875 -0.54688,0.70703 m -26.64843,-11.25 c -0.0234,-0.0352 -0.0469,-0.0703 -0.0742,-0.10546 -1.98828,-2.92969 -3.3711,-6.16407 -4.14844,-9.69532 0.78125,3.55079 2.17578,6.79688 4.17969,9.73828 0.0156,0.0195 0.0312,0.043 0.043,0.0625 m -4.22266,-9.80468 c -0.004,-0.0117 -0.004,-0.0234 -0.008,-0.0352 0.004,0.0117 0.004,0.0234 0.008,0.0352 m -0.0117,-0.0508 c 0,-0.008 -0.004,-0.0156 -0.004,-0.0234 0,0.008 0.004,0.0156 0.004,0.0234 m -0.0117,-0.0508 c 0,-0.004 0,-0.008 0,-0.008 0,0 0,0.004 0,0.008 m 1.27344,-23.972658 c 0.082,0 0.13281,-0.01172 0.14844,-0.03906 -0.0156,0.02734 -0.0664,0.03906 -0.14844,0.03906 m -2.4375,-0.605469 c -0.22656,-0.09375 -0.42969,-0.195313 -0.60938,-0.308594 0.1836,0.113281 0.38672,0.214844 0.60938,0.308594 m -1.72656,-5.542969 c 0.0625,-0.269531 0.125,-0.539062 0.18359,-0.804687 0.0156,0.0039 0.0312,0.0039 0.0469,0.0039 -0.0781,0.265625 -0.15235,0.53125 -0.23047,0.800781 m 7.73437,-8.027344 c -0.0625,-0.0039 -0.125,-0.0039 -0.18359,-0.0039 -0.0469,0 -0.0937,0 -0.14063,0 0.008,-0.105469 0.0156,-0.214844 0.0195,-0.324219 0.0859,-0.300781 0.16797,-0.605468 0.25,-0.914062 -0.0547,0.464844 -0.0469,0.886719 0.0547,1.242187 m 0.66406,-3.84375 c 0.8711,-2.910156 2.01563,-5.738281 3.26954,-8.519531 -0.57422,1.519531 -1.1211,3.042969 -1.64844,4.574219 -0.32422,0.945312 -1.05469,2.441406 -1.6211,3.945312"
     style="fill:#211e1e;fill-opacity:1;fill-rule:nonzero;stroke:none" />
  <path
     inkscape:connector-curvature="0"
     id="path4384"
     d="m 215.20707,124.16439 h -0.11328 c -4.96484,-0.0352 -10.57031,-4.62109 -6.55078,-9.48046 -0.14844,-0.004 -0.29687,-0.0117 -0.44922,-0.0195 0.16797,-0.23828 0.34766,-0.47656 0.54688,-0.70703 1.30469,0.42969 2.61719,0.66407 3.92969,0.66407 0.58984,0 1.17968,-0.0469 1.76562,-0.14844 -3.26953,2.89844 -3.30078,8.05078 1.51172,9.66015 -0.21094,0.0195 -0.42578,0.0273 -0.64063,0.0312 m -6.90234,-10.32031 c -5.84375,-0.20312 -12.25781,-0.80469 -17.73437,-3.16015 -3.69532,-1.73829 -6.94141,-4.11329 -9.125,-7.26954 -0.0117,-0.0195 -0.0273,-0.043 -0.043,-0.0625 -2.00391,-2.9414 -3.39844,-6.18749 -4.17969,-9.73828 0,0 0,-0.004 0,-0.004 -0.004,-0.0117 -0.004,-0.0234 -0.008,-0.0352 0,-0.004 0,-0.0117 -0.004,-0.0156 0,-0.008 -0.004,-0.0156 -0.004,-0.0234 -0.004,-0.008 -0.004,-0.0195 -0.008,-0.0273 0,-0.004 0,-0.008 0,-0.008 -0.76953,-3.57812 -0.92187,-7.460932 -0.45312,-11.652338 0.51953,-4.261719 1.14453,-8.378907 1.875,-12.351563 -0.0156,0.02734 -0.0664,0.03906 -0.14844,0.03906 -0.52344,0 -2.20703,-0.511719 -2.4375,-0.605469 -0.22266,-0.09375 -0.42578,-0.195313 -0.60938,-0.308594 -1.92968,-1.160156 -1.5664,-3.242187 -1.11718,-5.234375 0.0781,-0.269531 0.15234,-0.535156 0.23047,-0.800781 0.0586,0.0039 0.11718,0.0078 0.17578,0.01172 l 0.39843,-0.0078 c -0.20312,-0.01563 -0.40625,-0.03516 -0.60937,-0.05078 0,-0.0078 0.004,-0.01563 0.004,-0.02344 4.77343,-0.550781 6.17187,-3.753906 7.23046,-7.484375 -0.004,0.109375 -0.0117,0.21875 -0.0195,0.324219 0.0469,0 0.0937,0 0.14063,0 0.0586,0 0.12109,0 0.18359,0.0039 -0.10156,-0.355468 -0.10937,-0.777343 -0.0547,-1.242187 0.13672,-0.492188 0.26563,-0.988281 0.40235,-1.488281 0.10156,-0.375 0.20703,-0.746094 0.3164,-1.113282 0.56641,-1.503906 1.29688,-3 1.6211,-3.945312 0.52734,-1.53125 1.07422,-3.054688 1.64844,-4.574219 1.30468,-2.886719 2.72656,-5.726562 4.09375,-8.554687 -3.30469,6.847656 -6.84375,16.703125 -7.59375,24.199218 -1.16797,11.621094 1.01562,23.984375 6.0625,34.503906 3.04296,6.34766 11.11718,17.64844 19.76562,20.69922"
     style="fill:#e3a107;fill-opacity:1;fill-rule:nonzero;stroke:none" />
  <path
     inkscape:connector-curvature="0"
     id="path4386"
     d="m 170.15629,68.226896 c 0.0508,-1.980469 0.15235,-3.953125 0.29688,-5.921875 0,-0.0039 0.0312,-0.0078 0.082,-0.0078 0.14062,0 0.45312,0.01953 0.87109,0.04687 -0.3164,-0.01563 -0.63672,-0.02734 -0.95312,-0.03906 -0.14453,1.96875 -0.2461,3.941406 -0.29688,5.921875 M 148.87895,44.00424 c 0.125,-2.9375 -0.76953,-6.296875 0.21875,-9.144532 -0.79297,2.894532 -0.10156,6.429688 -0.21875,9.144532"
     style="fill:#211e1e;fill-opacity:1;fill-rule:nonzero;stroke:none" />
  <path
     inkscape:connector-curvature="0"
     id="path4388"
     d="m 157.60551,101.40268 c -2.75781,0 -5.51953,-0.41797 -7.42578,-1.29688 -3.18359,-1.46094 -3.08203,-1.64453 -3.89844,-4.41406 -0.0273,-0.0977 -0.0391,-0.35547 -0.0391,-0.72266 0,-2.14062 0.41797,-8.062497 0.41797,-8.390622 0,-0.0078 0,-0.01172 0,-0.01172 -0.10547,-0.394532 -0.67188,-0.527344 -1.4375,-0.527344 -0.80469,0 -1.83203,0.144531 -2.80078,0.289062 -0.97266,0.144532 -1.87891,0.289063 -2.44922,0.289063 -0.18359,0 -0.33594,-0.01563 -0.4375,-0.05078 -3.5,-1.257813 -6.36719,-7.554688 -6.42188,-11.222657 v -0.20703 c 0.008,-0.53125 0.0781,-1 0.22266,-1.382812 1.42188,-3.816407 14.21875,-3.742188 14.22266,-3.855469 0.10937,-3.226563 0.25781,-6.375 0.4414,-9.445313 0,0.07031 -0.25,0.101563 -0.65234,0.101563 -1.69922,0 -6.18359,-0.542969 -6.92969,-1.039063 -2.52344,-1.667968 -1.73828,-2.980468 -2.01953,-5.386718 -0.16016,-1.351563 -0.25781,-2.558594 -0.25781,-3.632813 0,-4.519531 1.78125,-6.574219 8.30469,-6.574219 0.74609,0 1.55859,0.02734 2.43359,0.08203 0.11719,-2.714844 -0.57422,-6.25 0.21875,-9.144532 0.0195,-0.0625 0.043,-0.121093 0.0625,-0.179687 1.375,-3.648438 4.19141,-4.550781 7.8125,-5.132813 -8.22266,1.316407 -5.75,15.304688 -4.0625,20.636719 2.66016,8.398438 9.60547,11.078125 17.60937,11.851563 0.82032,0.07813 1.75782,0.269531 2.71094,0.410156 -0.60937,-0.04297 -1.21484,-0.07422 -1.82422,-0.101563 -0.41797,-0.02734 -0.73047,-0.04687 -0.87109,-0.04687 -0.0508,0 -0.082,0.0039 -0.082,0.0078 -0.14453,1.96875 -0.2461,3.941406 -0.29688,5.921875 0.008,-0.324219 0.32813,-0.417969 0.71485,-0.417969 0.49218,0 1.08984,0.160156 1.27343,0.207031 1.23047,0.339844 2.30079,1.105469 2.83594,2.292969 0.91406,2.007813 1.86719,5.671875 1.86328,8.457031 0,0.726563 -0.0664,1.394532 -0.21484,1.957032 -0.85156,3.226562 -4.29688,4.058593 -7.24219,4.191406 -0.63672,0.03125 -0.0664,13.316404 -4.125,15.171874 -1.88672,0.85938 -4.76953,1.31641 -7.65625,1.31641"
     style="fill:#e3a107;fill-opacity:1;fill-rule:nonzero;stroke:none" />
  <path
     inkscape:connector-curvature="0"
     id="path4390"
     d="m 174.49223,62.582365 c -0.31641,-0.01953 -0.64062,-0.05469 -0.96094,-0.09766 0.32032,0.02344 0.64844,0.04297 0.96875,0.0625 0,0.01172 -0.004,0.02344 -0.008,0.03516"
     style="fill:#211e1e;fill-opacity:1;fill-rule:nonzero;stroke:none" />
  <path
     inkscape:connector-curvature="0"
     id="path4392"
     d="m 174.50004,62.547208 c -0.32031,-0.01953 -0.64843,-0.03906 -0.96875,-0.05859 -0.0977,-0.01563 -0.19922,-0.03125 -0.30078,-0.04297 0.42188,0.02734 0.84766,0.05859 1.27344,0.09375 0,0 0,0.0039 -0.004,0.0078"
     style="fill:#e3a107;fill-opacity:1;fill-rule:nonzero;stroke:none" />
  <path
     inkscape:connector-curvature="0"
     id="path4394"
     d="m 105.92973,33.890958 c 9.69141,0.941407 21.19531,13.519532 23.14844,23.691407 1.29687,6.757812 -6.42969,18.8125 -14.03516,18.835937 -12.05078,0.03516 -24.535154,-20.457031 -21.499997,-31.488281 2.375,-8.625 7.109377,-11.554688 12.386717,-11.039063 M 62.730513,4.3479896 c 7.234375,1.67188 12.578125,9.9687504 15.738281,16.0351604 10.363281,19.878902 11.441406,47.437496 10.300781,69.49609 -0.609375,11.6875 -3.441406,20.07812 -8.503906,25.17187 -6.210938,5.86328 -13.964844,8.55078 -23.261719,8.07032 -10.542969,-0.54688 -31.195312,-6.60938 -17.589844,-21.82422 3.160157,-3.52735 7.066407,-3.16016 11.011719,-2.79297 3.699219,0.34375 7.425781,0.6875 10.59375,-2.17578 2.023438,-1.73438 3.144531,-4.66406 3.363281,-8.796877 C 65.238325,71.422208 65.2852,56.199552 58.304731,41.301115 53.710981,31.488615 38.832075,13.27768 54.06645,5.5862696 c 3.132813,-1.57812 6.023438,-1.85156 8.664063,-1.23828 M 20.082075,45.637052 C 29.218794,39.871427 36.589888,49.769865 37.75395,58.058927 39.230513,68.562833 33.515669,82.289396 27.425825,90.47299 18.199263,102.87143 4.6836381,91.41049 5.4531691,79.832365 6.1445751,69.437833 10.625044,51.601896 20.082075,45.637052"
     style="fill:#f04cae;fill-opacity:1;fill-rule:nonzero;stroke:none" />
  <path
     inkscape:connector-curvature="0"
     id="path4396"
     d="m 59.343794,123.17611 c 0.01953,0 0.04297,0 0.06641,-0.004 -0.02344,0.004 -0.04687,0.004 -0.06641,0.004 m -0.492188,0 h -0.0039 c -0.609375,-0.004 -1.222656,-0.0234 -1.84375,-0.0547 -8.078125,-0.42188 -22.085937,-4.07422 -22.082031,-12.60547 -0.0039,8.53125 14.003906,12.18359 22.082031,12.60547 0.621094,0.0312 1.238281,0.0508 1.847656,0.0547 M 72.8438,120.20346 c 0.0039,-0.004 0.0078,-0.004 0.01172,-0.008 -0.0039,0.004 -0.0078,0.004 -0.01172,0.008 m 0.01563,-0.008 c 2.671875,-1.29296 5.140625,-3.00781 7.40625,-5.14453 1.269531,-1.27734 2.398437,-2.76562 3.390625,-4.45703 -0.835938,1.57031 -1.921875,3.06641 -3.394531,4.45703 -2.261719,2.13672 -4.730469,3.85157 -7.402344,5.14453 M 64.382856,87.531583 C 64.81645,79.414396 63.81645,71.258146 64.210981,63.242521 c 0.839844,7.914062 0.613282,15.984375 0.171875,24.289062"
     style="fill:#211e1e;fill-opacity:1;fill-rule:nonzero;stroke:none" />
  <path
     inkscape:connector-curvature="0"
     id="path4398"
     d="m 59.343794,123.17611 h -0.492188 c -0.609375,-0.004 -1.226562,-0.0234 -1.847656,-0.0547 -8.078125,-0.42188 -22.085937,-4.07422 -22.082031,-12.60547 0.0039,-2.60157 1.308594,-5.66016 4.492187,-9.21875 2.1875,-2.44531 4.738282,-3.01953 7.410157,-3.01953 1.183593,0 2.390625,0.11328 3.601562,0.22656 1.210938,0.10937 2.425781,0.22266 3.625,0.22266 2.453125,0 4.835938,-0.47266 6.96875,-2.39844 2.023438,-1.73438 3.144531,-4.66406 3.363281,-8.796877 0.441407,-8.304687 0.667969,-16.375 -0.171875,-24.289062 0.02344,-0.546875 0.05859,-1.097656 0.09766,-1.644531 0.34375,8.574218 1.632812,17.78125 2.390625,26.417968 0.507812,5.777342 2.617187,11.683592 8.25,14.476562 1.597656,0.79297 3.808593,1.34766 5.917968,1.34766 2.496094,0 4.847657,-0.77735 5.851563,-2.85938 -0.785156,3.37891 -1.480469,6.63672 -3.0625,9.61328 -0.992188,1.69141 -2.121094,3.17969 -3.390625,4.45703 -2.265625,2.13672 -4.734375,3.85157 -7.40625,5.14453 0,0 -0.0039,0 -0.0039,0 -0.0039,0.004 -0.0078,0.004 -0.01172,0.008 -4.015625,1.9414 -8.496094,2.92968 -13.433594,2.96875 -0.02344,0.004 -0.04687,0.004 -0.06641,0.004 m 27.375,-22.19531 c 0.164062,-0.69531 0.328125,-1.39062 0.503906,-2.09375 -0.03906,0.8086 -0.21875,1.50391 -0.503906,2.09375"
     style="fill:#dc459c;fill-opacity:1;fill-rule:nonzero;stroke:none" />
  <g
     style="clip-rule:nonzero"
     id="g4402"
     clip-path="url(#clip6)"
     transform="translate(1.9102001,3.1682996)">
    <path
       inkscape:connector-curvature="0"
       id="path4400"
       d="m 25.679688,87.082031 c 0.578125,-0.789062 1.15625,-1.628906 1.71875,-2.507812 -0.511719,0.832031 -1.089844,1.660156 -1.71875,2.507812 m -21.9375,-6.855468 c -0.207032,-1.167969 -0.277344,-2.363282 -0.199219,-3.5625 -0.078125,1.199218 -0.00781,2.394531 0.199219,3.5625 m -0.199219,-3.5625 c 0.265625,-3.980469 0.6875,-9.429688 2.40625,-13.699219 -1.367188,4.933594 -2.148438,9.832031 -2.40625,13.699219"
       style="fill:#211e1e;fill-opacity:1;fill-rule:nonzero;stroke:none" />
  </g>
  <g
     style="clip-rule:nonzero"
     id="g4406"
     clip-path="url(#clip7)"
     transform="translate(1.9102001,3.1682996)">
    <path
       inkscape:connector-curvature="0"
       id="path4404"
       d="m 16.355469,92.664063 c -5.96875,0 -11.445313,-5.773438 -12.613281,-12.4375 -0.207032,-1.167969 -0.277344,-2.363282 -0.199219,-3.5625 0.257812,-3.867188 1.039062,-8.765625 2.40625,-13.699219 0.511719,-1.261719 1.136719,-2.421875 1.902344,-3.410156 -5.460938,10.867187 2.816406,25.75 11.917968,25.75 3.4375,0 6.996094,-2.125 9.972657,-7.398438 -0.238282,2.582031 -1.097657,4.648438 -2.34375,6.667969 -0.566407,0.878906 -1.140625,1.71875 -1.71875,2.507812 -0.05859,0.07422 -0.113282,0.152344 -0.167969,0.226563 -2.828125,3.796875 -6.058594,5.355469 -9.15625,5.355469"
       style="fill:#dc459c;fill-opacity:1;fill-rule:nonzero;stroke:none" />
  </g>
  <path
     inkscape:connector-curvature="0"
     id="path4408"
     d="m 115.01958,76.418302 c 0.008,0 0.0156,0 0.0234,0 4.65235,-0.01563 9.35157,-4.53125 12,-9.585937 -1.89843,4.746093 -7.15625,9.574218 -12,9.585937 -0.008,0 -0.0156,0 -0.0234,0 m -12.07032,-6.1875 C 95.56645,63.398771 89.69145,52.488615 92.8477,45.887052 c 0.121094,0.226563 0.242188,0.457031 0.367188,0.6875 -0.960938,7.160156 3.453125,17.242188 9.734372,23.65625"
     style="fill:#211e1e;fill-opacity:1;fill-rule:nonzero;stroke:none" />
  <path
     inkscape:connector-curvature="0"
     id="path4410"
     d="m 115.01958,76.418302 c -3.67188,0 -8.08985,-2.5 -12.07032,-6.1875 -6.281247,-6.414062 -10.69531,-16.496094 -9.734372,-23.65625 3.65625,6.835938 7.597652,13.898438 14.031252,18.464844 2.91015,2.074219 6.08594,3.71875 9.75781,3.726562 0.004,0 0.008,0 0.0117,0 2.11719,0 10.34766,-1.726562 10.69922,-4.410156 -0.10547,0.804688 -0.33594,1.640625 -0.67188,2.476563 -2.64843,5.054687 -7.34765,9.570312 -12,9.585937 -0.008,0 -0.0156,0 -0.0234,0"
     style="fill:#dc459c;fill-opacity:1;fill-rule:nonzero;stroke:none" />
  <g
     style="clip-rule:nonzero"
     id="g4414"
     clip-path="url(#clip8)"
     transform="translate(1.9102001,3.1682996)">
    <path
       inkscape:connector-curvature="0"
       id="path4412"
       d="m 63.917969,16.09375 h -0.164063 c -4.75,-0.05859 -9.394531,-5.15625 -9.441406,-8.8125 V 7.167969 c 0.02344,-1.933594 1.367188,-3.4375 4.707031,-3.535156 0.02734,-0.00391 0.05469,-0.00391 0.08203,-0.00391 4.125,0 13.746093,8.757813 7.539062,11.8125 -0.886719,0.4375 -1.804687,0.640625 -2.722656,0.652344"
       style="fill:#f594cf;fill-opacity:1;fill-rule:nonzero;stroke:none" />
  </g>
  <g
     style="clip-rule:nonzero"
     id="g4418"
     clip-path="url(#clip9)"
     transform="translate(1.9102001,3.1682996)">
    <path
       inkscape:connector-curvature="0"
       id="path4416"
       d="m 111.5625,43.207031 h -0.23437 c -4.80079,-0.117187 -14.894536,-7.070312 -6.81641,-8.109375 0.30078,-0.03906 0.60547,-0.0625 0.91406,-0.06641 h 0.21094 c 3.49219,0.04687 7.35937,2.234375 7.92187,5.859375 0.0273,0.164063 0.0391,0.316406 0.043,0.460938 v 0.121093 c -0.0273,1.199219 -0.84375,1.703125 -2.03906,1.734375"
       style="fill:#f594cf;fill-opacity:1;fill-rule:nonzero;stroke:none" />
  </g>
  <path
     inkscape:connector-curvature="0"
     id="path4420"
     d="m 33.207075,65.09799 c -1.875,0 -4.113281,-2.792969 -4.15625,-6.246094 v -0.21875 c 0.01953,-1.699219 0.582031,-3.550781 1.972656,-5.296875 0.328125,-0.40625 0.683594,-0.660156 1.039063,-0.78125 0.183594,-0.0625 0.363281,-0.08984 0.546875,-0.09375 h 0.02734 c 1.246093,0.01172 2.4375,1.367187 2.683593,2.855469 0.292969,1.769531 0.421875,3.261718 0.421875,4.503906 v 0.05469 c -0.0039,3.753907 -1.175781,5.222657 -2.535156,5.222657"
     style="fill:#f594cf;fill-opacity:1;fill-rule:nonzero;stroke:none" />
  <path
     inkscape:connector-curvature="0"
     id="path4422"
     d="m 424.07426,113.34799 c -1.84765,0.33594 -3.58594,-0.22656 -5.07422,-0.77735 l -0.47265,-0.17578 -0.14844,0.48438 c -1.14063,3.70312 -3.46875,6.78515 -5.36719,9.05859 -0.92578,1.10156 -1.91406,2.16406 -2.94531,3.15625 -1.80859,1.73828 -3.80469,3.32422 -5.93359,4.70703 -1.03516,0.67969 -2.13282,1.32422 -3.26954,1.92578 -0.21093,0.10938 -0.44531,0.2461 -0.6914,0.39063 -0.76953,0.45312 -1.73047,1.01562 -2.39453,1.00781 l -1.44532,-0.0195 1.14844,0.875 c 1.05469,0.80078 2.06641,1.74219 2.36719,3.19531 0.32422,1.54688 -0.0625,3.20313 -1.05859,4.54688 -0.94532,1.26953 -2.33594,2.07031 -3.8125,2.19922 -1.2461,0.10546 -2.57032,-0.0508 -3.92969,-0.46875 -2.22656,-0.67969 -4.40625,-1.9961 -6.3086,-3.79688 -0.5625,-0.53516 -1.01953,-1.12891 -1.5039,-1.75391 -0.25391,-0.32812 -0.51563,-0.66796 -0.79688,-1 -0.47656,-0.55859 -1.07031,-0.54687 -1.59765,-0.53515 -0.13282,0.004 -0.27735,0.008 -0.42188,0 -0.75,-0.0234 -1.49609,-0.0742 -2.21094,-0.14844 -4.44531,-0.46094 -8.70312,-1.71094 -12.65234,-3.71875 -7.64062,-3.88672 -12.89844,-9.8789 -14.80859,-16.875 -0.63672,-2.32812 -0.94141,-4.75781 -0.91016,-7.21484 0.0195,-1.29688 -0.22266,-1.5586 -1.26953,-2.10938 -0.21484,-0.11328 -0.4375,-0.21875 -0.65234,-0.32031 -0.39063,-0.18359 -0.75782,-0.35937 -1.07813,-0.57422 -0.92187,-0.625 -1.72656,-1.33984 -2.38672,-2.13281 -2.21875,-2.67578 -3.6289,-6.67969 -1.77734,-9.60156 1.41797,-2.23828 3.95703,-3.08203 6.30859,-2.10156 1.53906,0.64843 2.37891,1.69921 3.30469,3.29296 l 0.50781,0.875 0.35547,-0.94921 c 0.17969,-0.48829 0.39453,-0.97266 0.63281,-1.42188 l 0.0234,-0.0547 -0.0195,0.0469 0.12109,-0.23828 -0.64062,0.19531 -0.19922,-0.64062 0.84376,0.44138 c 0.44531,-0.83594 0.85547,-1.56641 1.26953,-2.23437 2.70703,-4.414067 6.32813,-8.515629 10.46875,-11.855473 3.14844,-2.644531 6.625,-4.949219 10.40234,-6.589844 1.67969,-0.726562 3.41016,-1.332031 5.19532,-1.757812 6.375,-1.503906 13.38281,-1.382813 19.58203,0.839844 1.5625,0.5625 3.08984,1.234375 4.53906,2.003906 l 1.10156,0.582031 -0.43359,-1.175781 c -0.61328,-1.675781 1.05859,-2.808594 0.91797,-4.261719 -0.12891,-1.324219 -1.23047,-1.777344 -1.94531,-2.773437 -0.61719,-0.867188 -0.74219,-1.820313 -0.34766,-2.609375 0.41016,-0.820313 1.32031,-1.324219 2.4375,-1.351563 1.19922,-0.01172 2.34375,0.28125 3.47656,0.664063 -0.30859,-0.105469 1.69922,-3.800782 2.38672,-4.109375 0.53125,-0.238282 1.40234,-0.417969 2.53125,0.06641 0.77734,0.335937 1.45313,0.988281 1.91016,1.84375 0.2539,0.484375 0.4414,0.921875 0.5664,1.34375 0.0234,0.08203 0.0469,0.203125 0.0664,0.332031 0.0586,0.347656 0.13281,0.78125 0.41406,1.082031 0.42188,0.453125 1.22656,0.601563 1.87891,0.726563 0.14844,0.02734 0.29297,0.05469 0.40234,0.08203 0.17188,0.04297 0.34766,0.07813 0.51953,0.113281 0.48438,0.105469 0.98828,0.214844 1.40625,0.394532 0.95703,0.414062 1.52735,0.878906 1.79297,1.472656 0.28516,0.621094 0.21094,1.277344 -0.21094,1.902344 -1.14843,1.710937 -2.41406,1.9375 -4.30468,1.960937 -0.0234,0.871094 -0.16797,1.671875 -0.0703,2.550781 0.0469,0.402344 0.0899,0.785157 0.0391,1.117188 -0.35157,2.460937 -1.74219,3.027344 -2.84766,3.070312 -1.55859,0.05859 -2.92969,-0.945312 -4.08203,-2.988281 l -0.3125,-0.550781 -0.44531,0.445312 c -0.75782,0.761719 -1.9961,1.234375 -3.23047,1.234375 h -1.52735 l 1.25782,0.871094 c 4.44531,3.082031 7.90625,7.175781 10.0039,11.84375 1.38672,3.08203 2.21485,6.26562 2.40235,9.21094 l 0.0195,0.36718 0.35937,0.0703 c 0.23047,0.0469 0.52735,0.11329 0.80078,0.20704 3.42188,1.14843 7.54688,3.95703 7.91016,8.08593 0.33984,3.86719 -2.30078,7.3086 -6.13672,8.00391"
     style="fill:#211e1e;fill-opacity:1;fill-rule:evenodd;stroke:none" />
  <path
     inkscape:connector-curvature="0"
     id="path4424"
     d="m 383.25786,135.19564 c 2.01562,3.99219 11.53515,11.41407 14.54687,4.82813 1.77344,-3.875 -2.33203,-6.19531 -5.55078,-6.75391 l -8.99609,1.92578"
     style="fill:#f5f599;fill-opacity:1;fill-rule:evenodd;stroke:none" />
  <path
     inkscape:connector-curvature="0"
     id="path4426"
     d="m 382.54692,135.19955 c 2.18359,4.09375 7.52734,8.11328 12.33984,7.69922 2.61719,-0.22656 4.48047,-3.00781 3.95703,-5.51563 -0.55859,-2.67578 -4.03906,-3.92187 -6.36718,-4.3789 -0.61329,-0.11719 -1.42579,0.33203 -0.44532,0.52343 2.27344,0.44532 4.91407,1.61719 5.4375,4.1211 0.48047,2.29297 -1.64843,4.80078 -3.9414,4.68359 -3.67969,-0.18359 -7.90235,-4.03906 -9.5625,-7.14844 -0.20313,-0.38281 -1.60938,-0.33593 -1.41797,0.0156"
     style="fill:#211e1e;fill-opacity:1;fill-rule:nonzero;stroke:none" />
  <path
     inkscape:connector-curvature="0"
     id="path4432"
     d="m 353.42582,98.70346 c -2.1289,0.10156 -1.93359,-2.03125 -2.57421,-3.38672 -2.35547,-5 -7.6875,-2.58984 -7.20313,2.20703 0.48047,4.78906 4.39844,7.91016 8.92969,8.92187 l 0.84765,-7.74218"
     style="fill:#f5f599;fill-opacity:1;fill-rule:evenodd;stroke:none" />
  <path
     inkscape:connector-curvature="0"
     id="path4434"
     d="m 353.15239,98.34799 c -1.19532,-0.0508 -1.42188,-2.69922 -1.91407,-3.48438 -0.67187,-1.07031 -1.48828,-1.85156 -2.65625,-2.34375 -1.95703,-0.82031 -3.93359,-0.043 -5.04296,1.70313 -1.64844,2.60547 -0.0391,6.29297 1.70312,8.39062 1.85547,2.23438 4.67578,3.49219 7.43359,4.16016 0.97266,0.23828 0.41016,-0.50781 -0.19531,-0.66016 -2.8164,-0.67968 -5.23047,-2.16406 -6.84765,-4.59765 -1.41016,-2.1211 -1.9375,-5.30078 -0.29688,-7.41406 1.02734,-1.32813 2.82422,-1.50782 4.02344,-0.20313 0.82031,0.89844 1.05078,2.03516 1.39062,3.15234 0.41797,1.37891 1.58594,1.95313 2.94922,2.00782 0.94922,0.0391 -0.0976,-0.69532 -0.54687,-0.71094"
     style="fill:#211e1e;fill-opacity:1;fill-rule:nonzero;stroke:none" />
  <path
     inkscape:connector-curvature="0"
     id="path4436"
     d="m 351.01567,105.67221 c -2.1875,-0.79688 -4.05469,-2.15625 -5.38281,-4.15625 -1.41016,-2.1211 -1.9375,-5.30078 -0.29688,-7.41406 0.55078,-0.71094 1.32422,-1.09375 2.10547,-1.09375 0.49219,0 0.98437,0.14843 1.43359,0.46484 -2.15625,0.64844 -1.21093,4.21094 -0.84765,5.86719 0.40625,1.84765 1.55859,3.80468 3.14843,5.08203 -0.0625,0.41797 -0.11718,0.83203 -0.16015,1.25"
     style="fill:#dee18a;fill-opacity:1;fill-rule:nonzero;stroke:none" />
  <g
     style="clip-rule:nonzero"
     id="g4440"
     clip-path="url(#clip10)"
     transform="translate(1.9102001,3.1682996)">
    <path
       inkscape:connector-curvature="0"
       id="path4438"
       d="m 349.09375,102.62109 c -3.80469,-0.83984 -6.9375,-4.097652 -7.35547,-8.265621 -0.26953,-2.644531 1.26172,-4.738281 3.375,-4.785156 h 0.14844 c 0.64844,0.01563 1.34765,0.21875 2.0664,0.660156 -0.13281,0.01563 -0.25,0.04297 -0.36328,0.07422 -0.44922,-0.316407 -0.9414,-0.464844 -1.43359,-0.464844 -0.78125,0 -1.55469,0.382812 -2.10547,1.09375 -1.64062,2.113281 -1.11328,5.292969 0.29688,7.414062 1.32812,2.000003 3.19531,3.359373 5.38281,4.156253 -0.004,0.0391 -0.008,0.0781 -0.0117,0.11718"
       style="fill:#211e1e;fill-opacity:1;fill-rule:nonzero;stroke:none" />
  </g>
  <path
     inkscape:connector-curvature="0"
     id="path4442"
     d="m 416.60551,112.09408 c -7.28906,16.89844 -27.09765,26.52344 -44.23437,21.5 -17.14063,-5.02734 -25.08985,-20.02344 -17.80078,-36.92187 7.28906,-16.898439 27.05468,-29.300783 44.19531,-24.273439 17.14062,5.027344 25.1289,22.796879 17.83984,39.695309"
     style="fill:#f5f599;fill-opacity:1;fill-rule:nonzero;stroke:none" />
  <path
     inkscape:connector-curvature="0"
     id="path4444"
     d="m 415.57426,111.71908 c -7.48437,16.97656 -27.82812,27.09375 -45.6289,20.60547 -7.91016,-2.88281 -14.28125,-9.08203 -16.36719,-17.33984 -2.16016,-8.5625 0.97265,-17.5625 5.73437,-24.66797 8.76953,-13.101563 26.25391,-22.558594 41.87891,-16.628907 7.21484,2.738282 12.80078,8.695313 15.4375,15.890625 2.64453,7.203122 1.88672,15.160152 -1.05469,22.140622 -0.23828,0.5586 1.8125,1.34766 2.0625,0.75 3.33594,-7.89844 3.69141,-16.74609 0.14453,-24.644528 -3.30468,-7.351562 -9.8125,-12.640625 -17.30078,-15.335937 -17.05469,-6.140625 -35.5,4.402343 -44.42578,18.933595 -4.35547,7.08594 -6.54687,15.76562 -4.31641,23.93359 2,7.32813 7.66407,12.86328 14.28516,16.22656 15.69141,7.98047 35.08594,2.98047 46.19531,-10.30078 2.22266,-2.66015 4.01953,-5.64453 5.41797,-8.8125 0.24219,-0.54687 -1.80078,-1.34765 -2.0625,-0.75"
     style="fill:#211e1e;fill-opacity:1;fill-rule:nonzero;stroke:none" />
  <path
     inkscape:connector-curvature="0"
     id="path4446"
     d="m 381.24614,134.30502 c -1.8086,0 -3.62891,-0.14453 -5.4375,-0.44141 0.10937,-0.0391 0.21484,-0.082 0.32031,-0.1289 2.96875,-1.29688 3.98437,-4.96094 7.07812,-4.96094 0.57422,0 1.22266,0.12891 1.96485,0.41797 0.17187,0.0664 0.3125,0.0937 0.42969,0.0937 0.34765,0 0.41015,-0.26563 0.0625,-0.4961 0.51953,0.0273 1.03906,0.0508 1.55859,0.0508 0.82422,0 1.64453,-0.0586 2.46484,-0.2461 3.06641,-0.71094 6.37891,-2.87109 8.9336,-4.63672 5.49218,-3.80078 9.84375,-9.13672 12.54297,-15.19922 0.0391,0.004 0.0742,0.008 0.10937,0.008 0.0195,0 0.0352,0 0.0508,0 0.19531,-0.0195 0.38281,-0.0273 0.57031,-0.0273 1.5625,0 2.97266,0.57032 4.35157,1.26172 -0.21094,0.57813 -0.4336,1.15235 -0.67188,1.71875 -5.92578,13.44141 -19.91797,22.58594 -34.32812,22.58594 m -12.08203,-2.27735 c -3.17188,-1.26171 -6.07032,-3.05859 -8.51954,-5.3164 2.09375,1.13672 4.39844,2.08984 6.90625,2.82422 0.1875,0.0547 0.3711,0.10547 0.54688,0.15625 0.0625,0.38281 0.16797,0.76562 0.32031,1.13672 0.17969,0.4375 0.4336,0.83593 0.7461,1.19921 M 412.01569,99.7349 c 3.1875,-5.20313 2.15234,-14.382814 -1.64453,-20.039064 2.75,2.78125 4.89843,6.167969 6.25781,9.882812 0.96484,2.628902 1.47656,5.355472 1.59375,8.101562 -2.19922,0.0664 -4.36719,0.78906 -6.20703,2.05469"
     style="fill:#dee18a;fill-opacity:1;fill-rule:nonzero;stroke:none" />
  <path
     inkscape:connector-curvature="0"
     id="path4448"
     d="m 381.92973,134.92611 h -0.30859 c -2.40625,-0.0117 -4.8125,-0.27344 -7.17969,-0.80078 0.47656,-0.0273 0.9375,-0.11328 1.36719,-0.26172 1.80859,0.29688 3.6289,0.44141 5.4375,0.44141 14.41015,0 28.40234,-9.14453 34.32812,-22.58594 0.23828,-0.5664 0.46094,-1.14062 0.67188,-1.71875 0.33203,0.16797 0.66015,0.34375 0.99218,0.51953 -0.19531,0.52344 -0.40625,1.05078 -0.63281,1.57422 -5.96094,13.8125 -20.28125,22.76563 -34.67578,22.83203 m -11.89844,-2.10156 c -4.79297,-1.75 -8.76172,-4.33203 -11.7539,-7.53906 0.7539,0.5 1.54297,0.97656 2.36718,1.42578 2.44922,2.25781 5.34766,4.05469 8.51954,5.3164 0.2539,0.29297 0.54687,0.5586 0.86718,0.79688 m 49.21875,-35.125 c -0.23437,-0.0156 -0.46875,-0.0234 -0.69922,-0.0234 -0.10937,0 -0.21875,0 -0.32812,0.004 -0.11719,-2.74609 -0.62891,-5.47265 -1.59375,-8.101561 -1.35938,-3.714843 -3.50781,-7.101562 -6.25781,-9.882812 -0.96094,-1.425781 -2.09375,-2.628906 -3.37891,-3.484375 7.34375,4.890625 11.74609,12.753906 12.25781,21.488278"
     style="fill:#211e1e;fill-opacity:1;fill-rule:nonzero;stroke:none" />
  <path
     inkscape:connector-curvature="0"
     id="path4450"
     d="m 412.3477,100.17611 c 4.74609,-3.73046 11.37109,-2.42187 14.83594,2.10547 3.82812,5.00391 -1.30078,11.73438 -6.94141,9.3125 -3.25,-1.39844 -5.42187,-3.6289 -9.24219,-3.14062 l 1.34766,-8.27735"
     style="fill:#f5f599;fill-opacity:1;fill-rule:evenodd;stroke:none" />
  <path
     inkscape:connector-curvature="0"
     id="path4452"
     d="m 413.03129,100.36752 c 3.32032,-2.46875 7.41407,-2.65625 10.9336,-0.45703 2.84765,1.78125 4.5664,4.95703 3.39453,8.23437 -0.44922,1.26172 -1.44141,2.28516 -2.5586,2.97657 -2.10937,1.29296 -4.20703,0.33593 -6.16406,-0.73047 -2.58203,-1.40235 -4.95312,-2.51563 -7.96094,-2.2461 -0.94531,0.0859 0.20313,0.66407 0.64844,0.6211 2.22656,-0.20313 4.13672,0.80859 6.03906,1.82031 2.0586,1.09375 4.10547,2.1875 6.52735,1.75 3.32031,-0.60156 5.59375,-3.51953 5.29687,-6.90234 -0.32031,-3.63282 -4.07422,-6.14844 -7.21484,-7.20313 -3.51563,-1.17578 -7.37109,-0.42969 -10.30859,1.75391 -0.26563,0.19922 1.01171,0.65234 1.36718,0.38281"
     style="fill:#211e1e;fill-opacity:1;fill-rule:nonzero;stroke:none" />
  <path
     inkscape:connector-curvature="0"
     id="path4454"
     d="m 410.21879,108.26986 c 0.34766,-0.24609 0.66407,-0.51562 0.94532,-0.8125 l -0.10938,0.66016 c -0.125,0.008 -0.25,0.0156 -0.37891,0.0273 -0.21093,0.0195 -0.3164,0.0625 -0.35156,0.1211 -0.0351,0 -0.0703,0 -0.10547,0.004"
     style="fill:#dee18a;fill-opacity:1;fill-rule:nonzero;stroke:none" />
  <path
     inkscape:connector-curvature="0"
     id="path4456"
     d="m 422.63676,111.74252 c -1.37109,0 -2.71484,-0.65234 -4,-1.35156 -2.32031,-1.25782 -4.46484,-2.28516 -7.05469,-2.28516 -0.17578,0 -0.35156,0.004 -0.52734,0.0117 l 0.10938,-0.66016 c 1.14843,-1.23047 1.64062,-2.89062 1.16015,-4.67187 1.48438,3.55859 5.625,3.99609 8.84766,4.91015 0.3125,0.0898 2.05469,0.35157 3.70703,0.35157 1.04297,0 2.05078,-0.10547 2.64453,-0.42578 -0.0469,0.17578 -0.10156,0.34765 -0.16406,0.52343 -0.44922,1.26172 -1.44141,2.28516 -2.5586,2.97657 -0.72656,0.4414 -1.44921,0.62109 -2.16406,0.62109"
     style="fill:#dee18a;fill-opacity:1;fill-rule:nonzero;stroke:none" />
  <g
     style="clip-rule:nonzero"
     id="g4460"
     clip-path="url(#clip11)"
     transform="translate(1.9102001,3.1682996)">
    <path
       inkscape:connector-curvature="0"
       id="path4458"
       d="m 420.58984,108.84766 h -0.16015 c -0.73047,-0.008 -1.44922,-0.14453 -2.09375,-0.42188 -3.53516,-1.51953 -5.78125,-3.33203 -9.6211,-3.33203 -0.10156,0 -0.19922,0 -0.30078,0.004 0.0352,-0.0586 0.14063,-0.10157 0.35156,-0.1211 0.12891,-0.0117 0.25391,-0.0195 0.37891,-0.0273 0.17578,-0.008 0.35156,-0.0117 0.52734,-0.0117 2.58985,0 4.73438,1.02734 7.05469,2.28516 1.28516,0.69922 2.62891,1.35156 4,1.35156 0.71485,0 1.4375,-0.17969 2.16406,-0.62109 1.11719,-0.69141 2.10938,-1.71485 2.5586,-2.97657 0.0625,-0.17578 0.11719,-0.34765 0.16406,-0.52343 0.39063,-0.21094 0.60156,-0.51563 0.52344,-0.94922 0.58594,3.19531 -2.56641,5.30468 -5.54688,5.34375"
       style="fill:#211e1e;fill-opacity:1;fill-rule:nonzero;stroke:none" />
  </g>
  <path
     inkscape:connector-curvature="0"
     id="path4462"
     d="m 408.07426,73.234708 c 1.70313,0.648438 3.83203,-1.808593 5.15625,-2.429687 0.61328,0.902344 2.23828,5.066406 3.94141,4.226562 1.66406,-0.824218 0.89453,-4.308593 0.85547,-5.722656 0.004,0.07422 7.65234,-2.019531 3.60547,-3.851562 -1.54297,-0.699219 -3.20313,-0.484375 -4.78907,-0.855469 -0.15234,-1.046875 -0.9414,-5.453125 -2.57031,-4.90625 -2.01562,0.683594 -2.01953,2.914062 -2.70703,4.527344 -0.98438,-0.515625 -4.69922,-1.609375 -5.38672,-0.199219 -0.73047,1.511719 2.76563,2.761719 2.54297,4.484375 -0.10938,0.859375 -2.11719,4.164062 -0.64844,4.726562"
     style="fill:#ee2326;fill-opacity:1;fill-rule:evenodd;stroke:none" />
  <path
     inkscape:connector-curvature="0"
     id="path4464"
     d="m 408.15629,73.570646 c 2.35157,0.566406 3.82032,-1.410156 5.70703,-2.441406 -0.42968,-0.136719 -0.85156,-0.277344 -1.27734,-0.414063 0.96875,1.566406 2.0625,4.894531 4.42969,4.804688 1.26172,-0.05078 1.70703,-1.054688 1.87109,-2.191407 0.10938,-0.769531 0.0195,-1.585937 -0.043,-2.355468 -0.0351,-0.390625 -0.0781,-0.78125 -0.11328,-1.171875 -0.0195,-0.207032 -0.48828,-0.05859 -0.0781,-0.136719 1.52734,-0.289063 3.83593,-1.050781 4.73437,-2.390625 1.53906,-2.292969 -6.25781,-2.941406 -6.79687,-3.039063 0.3125,0.183594 0.6289,0.367188 0.9414,0.546875 -0.26172,-1.699218 -0.63281,-4.5 -2.44531,-5.28125 -2.78125,-1.199218 -3.52344,2.683594 -4.20312,4.460938 0.32031,0.02344 0.64062,0.04687 0.96484,0.07031 -1.45313,-0.699218 -3.10547,-1.113281 -4.72266,-1.070312 -1.46875,0.03516 -2.14062,1.125 -1.27734,2.335937 0.50781,0.714844 1.27344,1.226563 1.82812,1.90625 0.72657,0.890625 0.0859,1.871094 -0.27734,2.765625 -0.51562,1.277344 -0.98828,2.660157 0.39453,3.457032 0.55078,0.316406 1.42969,0.113281 0.56641,-0.386719 -0.67188,-0.386719 0.49609,-2.769531 0.6914,-3.246094 0.38282,-0.925781 0.48829,-1.535156 -0.0937,-2.410156 -0.61718,-0.945313 -1.875,-1.484375 -2.17968,-2.621094 -0.50782,-1.867187 3.8125,-0.675781 4.5039,-0.34375 0.16407,0.07813 0.84766,0.375 0.96875,0.07031 0.14453,-0.382813 1.75,-5.476563 2.67578,-4.179688 0.79297,1.105469 1.02735,2.792969 1.23047,4.113281 0.0547,0.339844 0.67969,0.5 0.94141,0.550782 1.0625,0.195312 5.28906,0.167968 4.99609,1.605468 -0.11328,0.558594 -0.93359,0.949219 -1.375,1.191407 -0.77343,0.425781 -2.32812,1.171875 -3.10156,1.160156 -0.13672,0 -0.28516,0.03906 -0.27734,0.199219 0.0859,1.667968 0.76562,4.011718 -0.5,5.378906 -0.82422,0.890625 -2.63282,-3.078125 -2.96485,-3.613281 -0.19922,-0.328125 -0.92578,-0.609375 -1.27343,-0.417969 -1.27344,0.699219 -3.01954,2.808594 -4.60547,2.421875 -0.96875,-0.234375 -0.45313,0.519531 0.16015,0.671875"
     style="fill:#211e1e;fill-opacity:1;fill-rule:nonzero;stroke:none" />
  <path
     inkscape:connector-curvature="0"
     id="path4466"
     d="m 402.26957,105.28549 c -5.84375,15.48047 -24.69921,23.28906 -37.6289,19.48828 -12.92578,-3.80469 -17.35547,-16.33203 -9.50781,-30.89453 7.85156,-14.5625 25.14843,-26.078125 37.9414,-21.847657 10.0625,3.328125 14.26172,19.828127 9.19531,33.253907"
     style="fill:#fde3dc;fill-opacity:1;fill-rule:nonzero;stroke:none" />
  <path
     inkscape:connector-curvature="0"
     id="path4468"
     d="m 401.9102,105.21127 c -6.01953,15.50391 -27.99609,26.70703 -43.04688,16.70312 -7.21875,-4.79687 -8.41015,-13.69531 -6.11328,-21.48828 2.74219,-9.28515 9.70703,-17.402339 17.51172,-22.898433 7.82031,-5.507812 20.5,-9.898437 28.09375,-1.714844 7,7.542969 6.89063,20.312497 3.55469,29.398437 -0.0625,0.17578 0.64062,0.35937 0.71875,0.14453 3.00781,-8.19922 3.08203,-17.890623 -0.99219,-25.75781 -3.3164,-6.40625 -9.52344,-9.121094 -16.53906,-8.507813 -8.4375,0.738281 -16.17969,5.898438 -22.05469,11.703125 -6.35547,6.277344 -11.72265,14.886718 -12.15234,24.015628 -0.25781,5.49609 1.95703,11.0039 6.35156,14.41406 4.39453,3.41406 9.91406,4.77734 15.41406,4.64844 12.73828,-0.30079 25.33594,-8.56641 29.97266,-20.51563 0.0664,-0.16797 -0.63281,-0.35937 -0.71875,-0.14453"
     style="fill:#211e1e;fill-opacity:1;fill-rule:nonzero;stroke:none" />
  <path
     inkscape:connector-curvature="0"
     id="path4470"
     d="m 374.03911,112.16439 c 3.86328,-0.32031 8.10546,-3.70312 12.33984,-14.26171 0,0 -12.52344,-1.91407 -24.90234,1.32422 0,0 2.58203,13.76171 12.5625,12.93749"
     style="fill:#a8668c;fill-opacity:1;fill-rule:nonzero;stroke:none" />
  <path
     inkscape:connector-curvature="0"
     id="path4472"
     d="m 374.19145,112.56283 c 6.92578,-0.44531 10.46094,-8.52344 12.75391,-14.15234 0.10546,-0.26563 -0.31641,-0.35938 -0.4961,-0.39453 -8.23828,-1.58594 -17.08984,-1.39453 -25.14844,0.39453 -0.082,0.0195 -0.39453,0.0742 -0.36718,0.23047 1.25,6.92187 5.71484,14.10547 13.25781,13.92187 0.98437,-0.0234 0.24219,-0.61328 -0.36719,-0.59765 -6.60937,0.16406 -10.19922,-7.27735 -11.39844,-13 -0.19921,-0.94141 13.61329,-1.33985 15.3086,-1.27735 2.76953,0.11328 5.57422,0.34375 8.3125,0.875 -0.16016,-0.13281 -0.32422,-0.26562 -0.49219,-0.40234 -2.02344,4.98047 -5.44922,13.40234 -11.73047,13.80469 -0.98437,0.0625 -0.2539,0.63671 0.36719,0.59765"
     style="fill:#211e1e;fill-opacity:1;fill-rule:nonzero;stroke:none" />
  <path
     inkscape:connector-curvature="0"
     id="path4474"
     d="m 376.30473,97.31674 0.16016,2.52734 c 0.55078,2.4336 -3.23438,2.03907 -4.72657,1.83985 0,0 -2.3164,0.35547 -2.08593,-4.00391 l 6.65234,-0.36328"
     style="fill:#ffffff;fill-opacity:1;fill-rule:evenodd;stroke:none" />
  <path
     inkscape:connector-curvature="0"
     id="path4476"
     d="m 375.95317,97.27377 c 0.0937,1.41797 0.80078,3.73438 -0.94922,4.26953 -1.02344,0.31641 -3.39063,0.4375 -4.26563,-0.43359 -0.4375,-0.4375 -0.97265,-3.28516 -0.86718,-3.29297 0.64062,-0.0352 1.28125,-0.0703 1.91797,-0.10156 1.55859,-0.0898 3.11718,-0.17188 4.67578,-0.26172 0.45312,-0.0234 -0.11328,-0.28906 -0.32422,-0.28125 -2.21485,0.125 -4.4336,0.24609 -6.65235,0.36719 l -0.1875,0.0977 c -0.043,1.375 0,3.17968 1.35547,3.94921 0.59766,0.33985 1.53516,0.30079 2.1836,0.35547 1.20703,0.0977 2.99218,0.19141 3.82031,-0.875 0.57422,-0.74218 0.0469,-2.85156 -0.008,-3.71093 -0.0156,-0.22266 -0.70703,-0.25391 -0.69922,-0.082"
     style="fill:#211e1e;fill-opacity:1;fill-rule:nonzero;stroke:none" />
  <path
     inkscape:connector-curvature="0"
     id="path4478"
     d="m 388.45707,123.66049 c -4.42968,-1.92969 -10.50781,-2.52344 -15.10156,-0.9375 -5.09375,1.7539 -7.10156,9.78125 -0.29687,10.98828 2.39843,0.42578 3.74218,-1.11328 5.1289,-2.65234 1.66797,-1.84375 3.39453,-3.69141 7.09375,-2.13672 l 3.17578,-5.26172"
     style="fill:#f5f599;fill-opacity:1;fill-rule:evenodd;stroke:none" />
  <path
     inkscape:connector-curvature="0"
     id="path4480"
     d="m 388.56645,123.38705 c -4.92188,-2.05859 -11.01563,-2.83203 -16.10156,-0.90234 -3.14063,1.1914 -5.36719,5.11718 -4.04688,8.34375 1.10547,2.70703 5.13672,4.03515 7.71094,2.90625 3.51953,-1.53516 4.29297,-6.40235 9.04297,-4.54297 0.80469,0.3164 1.02344,-0.22656 0.21875,-0.54297 -2.64453,-1.03516 -4.91406,-0.85938 -6.97656,1.16797 -2.17579,2.13672 -5.07422,5.73047 -8.15235,2.14062 -2.26562,-2.625 -0.0195,-6.63672 2.35547,-8.24218 1.91406,-1.29297 4.69922,-1.47657 6.92578,-1.51954 3.00781,-0.0625 6.03906,0.57813 8.80469,1.73829 0.80078,0.33593 1.01172,-0.21485 0.21875,-0.54688"
     style="fill:#211e1e;fill-opacity:1;fill-rule:nonzero;stroke:none" />
  <path
     inkscape:connector-curvature="0"
     id="path4482"
     d="m 385.56645,128.64096 c -0.0391,-0.004 -0.0742,-0.004 -0.11328,-0.008 0.0391,0.004 0.0742,0.004 0.11328,0.008"
     style="fill:#dee18a;fill-opacity:1;fill-rule:nonzero;stroke:none" />
  <path
     inkscape:connector-curvature="0"
     id="path4484"
     d="m 373.02348,133.48471 c -0.89453,0 -1.82031,-0.42579 -2.76172,-1.52735 -0.95703,-1.10547 -1.10937,-2.46093 -0.78906,-3.77343 0.64844,1.39453 1.54297,1.89843 2.57812,1.89843 1.51954,0 3.35157,-1.08203 5.1836,-2.02734 1.21484,-0.625 2.55859,-1.32813 3.93359,-1.33594 h 0.0391 c 0.3086,0 0.625,0.0391 0.94141,0.1211 0.96094,0.25781 1.69531,1.14843 2.58203,1.57421 -0.78515,-0.2539 -1.53515,-0.38671 -2.25781,-0.38671 -1.45703,0 -2.79688,0.54687 -4.05859,1.78906 -1.51172,1.48437 -3.36719,3.66797 -5.39063,3.66797 m 12.42969,-4.85157 c -0.043,-0.004 -0.0859,-0.008 -0.12891,-0.0117 -0.0195,-0.008 -0.0391,-0.0156 -0.0625,-0.0195 0.0625,0.0117 0.12891,0.0195 0.19141,0.0312"
     style="fill:#dee18a;fill-opacity:1;fill-rule:nonzero;stroke:none" />
  <path
     inkscape:connector-curvature="0"
     id="path4486"
     d="m 373.79301,133.77767 c -0.23437,0 -0.48047,-0.0195 -0.73437,-0.0664 -2.66797,-0.47266 -3.9961,-1.94922 -4.01172,-4.19922 v -0.0742 c 0.004,-0.53125 0.082,-1.10937 0.23047,-1.72656 0.0625,0.16797 0.1289,0.32422 0.19531,0.47266 -0.32031,1.3125 -0.16797,2.66796 0.78906,3.77343 0.94141,1.10156 1.86719,1.52735 2.76172,1.52735 2.02344,0 3.87891,-2.1836 5.39063,-3.66797 1.26171,-1.24219 2.60156,-1.78906 4.05859,-1.78906 0.72266,0 1.47266,0.13281 2.25781,0.38671 0.17188,0.082 0.34766,0.14454 0.53125,0.1875 0.0234,0.004 0.043,0.0117 0.0625,0.0195 -0.83203,-0.0703 -1.68359,-0.28125 -2.51562,-0.28125 -0.0781,0 -0.15235,0 -0.23047,0.004 -1.35938,0.0703 -2.39844,0.73828 -3.36719,1.64063 -1.66797,1.54296 -3.00391,3.79296 -5.41797,3.79296"
     style="fill:#211e1e;fill-opacity:1;fill-rule:nonzero;stroke:none" />
  <path
     inkscape:connector-curvature="0"
     id="path4488"
     d="m 388.62504,87.644865 c -0.80078,0.554687 -1.35547,1.808593 -0.68359,2.886715 1.22266,1.96094 3.20703,-0.14843 2.80469,-1.812497 -0.35938,-1.503906 -1.35157,-1.609375 -2.1211,-1.074218"
     style="fill:#211e1e;fill-opacity:1;fill-rule:nonzero;stroke:none" />
  <path
     inkscape:connector-curvature="0"
     id="path4490"
     d="m 360.27348,90.81674 c -0.26953,0.0859 -0.56641,0.28906 -0.88281,0.63281 -1.1875,1.32422 -0.25781,3.26172 1.51172,2.00781 1.33203,-0.9414 0.65625,-3.05078 -0.62891,-2.64062"
     style="fill:#211e1e;fill-opacity:1;fill-rule:nonzero;stroke:none" />
  <path
     inkscape:connector-curvature="0"
     id="path4492"
     d="m 394.51957,94.43783 c -1.22656,-0.28906 -2.24218,0.44141 -2.77734,1.67969 -0.66016,1.53125 0.0664,3.40625 1.65625,4.00391 3.20313,1.21093 5.21484,-4.72266 1.12109,-5.6836"
     style="fill:#f8b3dc;fill-opacity:1;fill-rule:evenodd;stroke:none" />
  <path
     inkscape:connector-curvature="0"
     id="path4494"
     d="m 356.86332,97.59408 c -0.95312,-0.22265 -1.73828,0.33594 -2.14843,1.29297 -0.51172,1.1836 0.0508,2.625 1.27734,3.08985 2.47266,0.92968 4.02344,-3.64454 0.87109,-4.38282"
     style="fill:#f8b3dc;fill-opacity:1;fill-rule:evenodd;stroke:none" />
</svg>
